<?xml version="1.0" encoding="UTF-8" standalone="no"?>
<!-- Created with Inkscape (http://www.inkscape.org/) -->
<svg
   xmlns:dc="http://purl.org/dc/elements/1.1/"
   xmlns:cc="http://creativecommons.org/ns#"
   xmlns:rdf="http://www.w3.org/1999/02/22-rdf-syntax-ns#"
   xmlns:svg="http://www.w3.org/2000/svg"
   xmlns="http://www.w3.org/2000/svg"
   xmlns:xlink="http://www.w3.org/1999/xlink"
   xmlns:sodipodi="http://sodipodi.sourceforge.net/DTD/sodipodi-0.dtd"
   xmlns:inkscape="http://www.inkscape.org/namespaces/inkscape"
   width="48"
   height="48"
   id="svg4908"
   sodipodi:version="0.32"
   inkscape:version="0.46"
   sodipodi:docbase="/home/tim/Baroque/actions"
   sodipodi:docname="address-book-new.svg"
   inkscape:output_extension="org.inkscape.output.svg.inkscape"
   inkscape:export-filename="/home/andreas/project/misc icons/32x32/actions/bookmark-view.png"
   inkscape:export-xdpi="90"
   inkscape:export-ydpi="90"
   version="1.0">
  <defs
     id="defs4910">
    <inkscape:perspective
       sodipodi:type="inkscape:persp3d"
       inkscape:vp_x="0 : 24 : 1"
       inkscape:vp_y="0 : 1000 : 0"
       inkscape:vp_z="48 : 24 : 1"
       inkscape:persp3d-origin="24 : 16 : 1"
       id="perspective66" />
    <linearGradient
       id="linearGradient2378">
      <stop
         id="stop2380"
         offset="0"
         style="stop-color:#ffffff;stop-opacity:1;" />
      <stop
         style="stop-color:#fefede;stop-opacity:0.91836733;"
         offset="0.25"
         id="stop4146" />
      <stop
         style="stop-color:#f5f328;stop-opacity:1;"
         offset="0.5"
         id="stop2386" />
      <stop
         id="stop2382"
         offset="1"
         style="stop-color:#f5f32d;stop-opacity:0.12234043;" />
    </linearGradient>
    <radialGradient
       inkscape:collect="always"
       xlink:href="#linearGradient2378"
       id="radialGradient2479"
       gradientUnits="userSpaceOnUse"
       cx="38.658855"
       cy="9.3411446"
       fx="38.658855"
       fy="9.3411446"
       r="8.341651" />
    <linearGradient
       id="linearGradient4949">
      <stop
         style="stop-color:#cc8800;stop-opacity:1;"
         offset="0"
         id="stop4951" />
      <stop
         style="stop-color:#994400;stop-opacity:1;"
         offset="1"
         id="stop4953" />
    </linearGradient>
    <radialGradient
       inkscape:collect="always"
       xlink:href="#linearGradient5060"
       id="radialGradient5031"
       gradientUnits="userSpaceOnUse"
       gradientTransform="matrix(-2.774389,0,0,1.969706,112.7623,-872.8854)"
       cx="605.71429"
       cy="486.64789"
       fx="605.71429"
       fy="486.64789"
       r="117.14286" />
    <linearGradient
       inkscape:collect="always"
       id="linearGradient5060">
      <stop
         style="stop-color:black;stop-opacity:1;"
         offset="0"
         id="stop5062" />
      <stop
         style="stop-color:black;stop-opacity:0;"
         offset="1"
         id="stop5064" />
    </linearGradient>
    <radialGradient
       inkscape:collect="always"
       xlink:href="#linearGradient5060"
       id="radialGradient5029"
       gradientUnits="userSpaceOnUse"
       gradientTransform="matrix(2.774389,0,0,1.969706,-1891.633,-872.8854)"
       cx="605.71429"
       cy="486.64789"
       fx="605.71429"
       fy="486.64789"
       r="117.14286" />
    <linearGradient
       id="linearGradient5048">
      <stop
         style="stop-color:black;stop-opacity:0;"
         offset="0"
         id="stop5050" />
      <stop
         id="stop5056"
         offset="0.5"
         style="stop-color:black;stop-opacity:1;" />
      <stop
         style="stop-color:black;stop-opacity:0;"
         offset="1"
         id="stop5052" />
    </linearGradient>
    <linearGradient
       inkscape:collect="always"
       xlink:href="#linearGradient5048"
       id="linearGradient5027"
       gradientUnits="userSpaceOnUse"
       gradientTransform="matrix(2.774389,0,0,1.969706,-1892.179,-872.8854)"
       x1="302.85715"
       y1="366.64789"
       x2="302.85715"
       y2="609.50507" />
    <linearGradient
       inkscape:collect="always"
       id="linearGradient6212">
      <stop
         style="stop-color:#ffffff;stop-opacity:1;"
         offset="0"
         id="stop6214" />
      <stop
         style="stop-color:#ffffff;stop-opacity:0;"
         offset="1"
         id="stop6216" />
    </linearGradient>
    <linearGradient
       inkscape:collect="always"
       xlink:href="#linearGradient6212"
       id="linearGradient6218"
       x1="10.875"
       y1="7.78125"
       x2="0.71875"
       y2="8"
       gradientUnits="userSpaceOnUse"
       gradientTransform="matrix(3.2641657,0,0,3.4545453,-1.3020677,-5.5909086)" />
    <linearGradient
       inkscape:collect="always"
       xlink:href="#linearGradient4949"
       id="linearGradient4955"
       x1="19.75"
       y1="19.375"
       x2="35.9375"
       y2="39.3125"
       gradientUnits="userSpaceOnUse" />
    <linearGradient
       gradientUnits="userSpaceOnUse"
       y2="-23.197165"
       x2="-4.173214"
       y1="16.574726"
       x1="20.374401"
       id="linearGradient1892"
       xlink:href="#linearGradient1886"
       inkscape:collect="always" />
    <radialGradient
       gradientUnits="userSpaceOnUse"
       gradientTransform="matrix(1.30147,0,0,1.224913,-7.536765,-3.448096)"
       r="17"
       fy="22"
       fx="25"
       cy="22"
       cx="25"
       id="radialGradient2792"
       xlink:href="#linearGradient2786"
       inkscape:collect="always" />
    <radialGradient
       gradientUnits="userSpaceOnUse"
       gradientTransform="matrix(1.928522,0,0,1.843022,-1.841365,2.4769)"
       r="15.17675"
       fy="1.09216"
       fx="4.8321624"
       cy="1.09216"
       cx="4.8321624"
       id="radialGradient2766"
       xlink:href="#linearGradient2760"
       inkscape:collect="always" />
    <linearGradient
       id="linearGradient2760">
      <stop
         id="stop2762"
         offset="0"
         style="stop-color:white;stop-opacity:1;" />
      <stop
         style="stop-color:white;stop-opacity:1;"
         offset="0.36585367"
         id="stop1884" />
      <stop
         id="stop2764"
         offset="1"
         style="stop-color:#fce94f;stop-opacity:1;" />
    </linearGradient>
    <linearGradient
       id="linearGradient2786"
       inkscape:collect="always">
      <stop
         id="stop2788"
         offset="0"
         style="stop-color:#fce94f;stop-opacity:1;" />
      <stop
         id="stop2790"
         offset="1"
         style="stop-color:#fce94f;stop-opacity:0;" />
    </linearGradient>
    <linearGradient
       id="linearGradient1886">
      <stop
         id="stop1888"
         offset="0"
         style="stop-color:#ffcc00;stop-opacity:1;" />
      <stop
         id="stop1890"
         offset="1"
         style="stop-color:#ffdd66;stop-opacity:1;" />
    </linearGradient>
    <radialGradient
       inkscape:collect="always"
       xlink:href="#linearGradient2786"
       id="radialGradient3212"
       gradientUnits="userSpaceOnUse"
       gradientTransform="matrix(0.7581418,0,0,0.733578,16.180816,-3.2730898)"
       cx="25"
       cy="22"
       fx="25"
       fy="22"
       r="17" />
  </defs>
  <sodipodi:namedview
     id="base"
     pagecolor="#ffffff"
     bordercolor="#666666"
     borderopacity="1.0"
     inkscape:pageopacity="0.0"
     inkscape:pageshadow="2"
     inkscape:zoom="11.313708"
     inkscape:cx="13.647756"
     inkscape:cy="29.864151"
     inkscape:current-layer="layer1"
     showgrid="false"
     inkscape:grid-bbox="true"
     inkscape:document-units="px"
     inkscape:window-width="1278"
     inkscape:window-height="958"
     inkscape:window-x="0"
     inkscape:window-y="27"
     width="48px"
     height="48px"
     showguides="true"
     inkscape:guide-bbox="true" />
  <metadata
     id="metadata4913">
    <rdf:RDF>
      <cc:Work
         rdf:about="">
        <dc:format>image/svg+xml</dc:format>
        <dc:type
           rdf:resource="http://purl.org/dc/dcmitype/StillImage" />
        <dc:title>New Address Book</dc:title>
        <dc:date>December 2006</dc:date>
        <dc:creator>
          <cc:Agent>
            <dc:title>Andreas Nilsson</dc:title>
          </cc:Agent>
        </dc:creator>
        <dc:subject>
          <rdf:Bag>
            <rdf:li>address</rdf:li>
            <rdf:li>book</rdf:li>
            <rdf:li>contact</rdf:li>
          </rdf:Bag>
        </dc:subject>
        <cc:license
           rdf:resource="http://creativecommons.org/licenses/GPL/2.0/" />
        <dc:source>http://www.gnome.org</dc:source>
      </cc:Work>
      <cc:License
         rdf:about="http://creativecommons.org/licenses/GPL/2.0/">
        <cc:permits
           rdf:resource="http://web.resource.org/cc/Reproduction" />
        <cc:permits
           rdf:resource="http://web.resource.org/cc/Distribution" />
        <cc:requires
           rdf:resource="http://web.resource.org/cc/Notice" />
        <cc:permits
           rdf:resource="http://web.resource.org/cc/DerivativeWorks" />
        <cc:requires
           rdf:resource="http://web.resource.org/cc/ShareAlike" />
        <cc:requires
           rdf:resource="http://web.resource.org/cc/SourceCode" />
      </cc:License>
    </rdf:RDF>
  </metadata>
  <g
     id="layer1"
     inkscape:label="Layer 1"
     inkscape:groupmode="layer">
    <g
       style="display:inline"
       id="g5022"
       transform="matrix(2.1670245e-2,0,0,1.4992695e-2,43.274287,42.087489)">
      <rect
         y="-150.69685"
         x="-1559.2523"
         height="478.35718"
         width="1339.6335"
         id="rect4173"
         style="opacity:0.39195981;color:#000000;fill:url(#linearGradient5027);fill-opacity:1;fill-rule:nonzero;stroke:none;stroke-width:1;stroke-linecap:round;stroke-linejoin:miter;marker:none;marker-start:none;marker-mid:none;marker-end:none;stroke-miterlimit:4;stroke-dasharray:none;stroke-dashoffset:0;stroke-opacity:1;visibility:visible;display:inline;overflow:visible" />
      <path
         sodipodi:nodetypes="cccc"
         id="path5058"
         d="M -219.61876,-150.68038 C -219.61876,-150.68038 -219.61876,327.65041 -219.61876,327.65041 C -76.744594,328.55086 125.78146,220.48075 125.78138,88.454235 C 125.78138,-43.572302 -33.655436,-150.68036 -219.61876,-150.68038 z "
         style="opacity:0.40206185;color:#000000;fill:url(#radialGradient5029);fill-opacity:1;fill-rule:nonzero;stroke:none;stroke-width:1;stroke-linecap:round;stroke-linejoin:miter;marker:none;marker-start:none;marker-mid:none;marker-end:none;stroke-miterlimit:4;stroke-dasharray:none;stroke-dashoffset:0;stroke-opacity:1;visibility:visible;display:inline;overflow:visible" />
      <path
         style="opacity:0.40206185;color:#000000;fill:url(#radialGradient5031);fill-opacity:1;fill-rule:nonzero;stroke:none;stroke-width:1;stroke-linecap:round;stroke-linejoin:miter;marker:none;marker-start:none;marker-mid:none;marker-end:none;stroke-miterlimit:4;stroke-dasharray:none;stroke-dashoffset:0;stroke-opacity:1;visibility:visible;display:inline;overflow:visible"
         d="M -1559.2523,-150.68038 C -1559.2523,-150.68038 -1559.2523,327.65041 -1559.2523,327.65041 C -1702.1265,328.55086 -1904.6525,220.48075 -1904.6525,88.454235 C -1904.6525,-43.572302 -1745.2157,-150.68036 -1559.2523,-150.68038 z "
         id="path5018"
         sodipodi:nodetypes="cccc" />
    </g>
    <rect
       style="opacity:1;fill:#eeeeec;fill-opacity:1;stroke:#8f5902;stroke-width:0.99999994;stroke-linecap:round;stroke-linejoin:miter;stroke-miterlimit:0;stroke-dasharray:none;stroke-dashoffset:0;stroke-opacity:1"
       id="rect4918"
       width="33.155689"
       height="41"
       x="10.344313"
       y="2.5000002"
       rx="0.48613596"
       ry="0.48613593" />
    <rect
       style="opacity:1;fill:#eeeeec;fill-opacity:1;stroke:#888a85;stroke-width:1.00000012;stroke-linecap:butt;stroke-linejoin:miter;stroke-miterlimit:4;stroke-dasharray:none;stroke-dashoffset:0;stroke-opacity:1"
       id="rect5927"
       width="5"
       height="10"
       x="39.5"
       y="7.5"
       rx="1.2374369"
       ry="1.2374369" />
    <rect
       style="opacity:1;fill:#eeeeec;fill-opacity:1;stroke:#888a85;stroke-width:1.00000012;stroke-linecap:butt;stroke-linejoin:miter;stroke-miterlimit:4;stroke-dasharray:none;stroke-dashoffset:0;stroke-opacity:1"
       id="rect5929"
       width="5"
       height="10"
       x="39.5"
       y="17.5"
       rx="1.2374369"
       ry="1.2374369" />
    <rect
       style="opacity:1;fill:#eeeeec;fill-opacity:1;stroke:#888a85;stroke-width:1.00000012;stroke-linecap:butt;stroke-linejoin:miter;stroke-miterlimit:4;stroke-dasharray:none;stroke-dashoffset:0;stroke-opacity:1"
       id="rect5931"
       width="5"
       height="10"
       x="39.5"
       y="27.5"
       rx="1.2374369"
       ry="1.2374369" />
    <rect
       style="opacity:0.60869565;fill:none;fill-opacity:1;stroke:#ffffff;stroke-width:1;stroke-linecap:butt;stroke-linejoin:miter;stroke-miterlimit:4;stroke-dasharray:none;stroke-dashoffset:0;stroke-opacity:1"
       id="rect5933"
       width="4"
       height="28"
       x="39.5"
       y="8.5"
       rx="0.29993689"
       ry="0.29993689" />
    <rect
       style="opacity:1;fill:url(#linearGradient4955);fill-opacity:1.0;stroke:#8f5902;stroke-width:1;stroke-linecap:round;stroke-linejoin:miter;stroke-miterlimit:0;stroke-dasharray:none;stroke-dashoffset:0;stroke-opacity:1"
       id="rect4916"
       width="34.887901"
       height="39.999996"
       x="5.6120992"
       y="5.5"
       rx="0.44194174"
       ry="0.4419418" />
    <path
       style="fill:none;fill-opacity:1;fill-rule:evenodd;stroke:#8f5902;stroke-width:1px;stroke-linecap:butt;stroke-linejoin:miter;stroke-opacity:1"
       d="M 37.025152,5.5 L 7.912989,5.4514152 C 7.912989,5.4514152 6.3393947,5.3197948 6.3752233,4.0479689 C 6.4110523,2.7761429 8.0381274,2.5018451 7.9842501,2.5018451 L 36.969331,2.5000003"
       id="path4920"
       sodipodi:nodetypes="cczcc" />
    <path
       style="fill:#555753;fill-opacity:1;stroke:none;stroke-width:1;stroke-linecap:round;stroke-linejoin:miter;stroke-miterlimit:0;stroke-dashoffset:0;stroke-opacity:1"
       d="M 5,4 C 7.8890919,5.4674944 10.475361,4.8588996 12,5.0103236 L 12,46 L 5,46 L 5,4 z "
       id="rect4922"
       sodipodi:nodetypes="ccccc" />
    <rect
       style="opacity:0.3;fill:none;fill-opacity:1;stroke:url(#linearGradient6218);stroke-width:1.00000012;stroke-linecap:round;stroke-linejoin:miter;stroke-miterlimit:0;stroke-dasharray:none;stroke-dashoffset:0;stroke-opacity:1"
       id="rect5893"
       width="32.641655"
       height="38"
       x="6.8583469"
       y="6.4999995" />
    <rect
       style="fill:url(#radialGradient3212);fill-opacity:1;stroke:none;stroke-width:1.15199995;stroke-linecap:butt;stroke-linejoin:round;stroke-miterlimit:4;stroke-dasharray:none;stroke-dashoffset:0;stroke-opacity:1"
       id="rect2776"
       width="25.776833"
       height="24.94166"
       x="22.245953"
       y="0.39480102" />
    <rect
       style="opacity:1;fill:#eeeeec;fill-opacity:1;stroke:none;stroke-width:1;stroke-linecap:round;stroke-linejoin:miter;stroke-miterlimit:0;stroke-dasharray:none;stroke-dashoffset:0;stroke-opacity:1"
       id="rect5895"
       width="19.776337"
       height="1.5884314"
       x="9.2399368"
       y="3.2942157" />
    <path
       sodipodi:type="inkscape:offset"
       inkscape:radius="-0.87152946"
       inkscape:original="M 11 -7.25 C 9.2185557 -7.25 7.222469 -0.10960666 5.78125 0.9375 C 4.3400313 1.9846066 -3.0745035 1.6807459 -3.625 3.375 C -4.1754966 5.0692543 1.9807534 9.1807461 2.53125 10.875 C 3.0817465 12.569254 0.52753133 19.515393 1.96875 20.5625 C 3.4099688 21.609607 9.2185557 17.03125 11 17.03125 C 12.781444 17.03125 18.590031 21.609606 20.03125 20.5625 C 21.472469 19.515393 18.918253 12.569255 19.46875 10.875 C 20.019247 9.1807459 26.175496 5.0692541 25.625 3.375 C 25.074503 1.6807458 17.659969 1.9846068 16.21875 0.9375 C 14.777531 -0.1096067 12.781445 -7.25 11 -7.25 z "
       style="fill:none;fill-opacity:1;stroke:#ffffff;stroke-width:1.03528154;stroke-linecap:butt;stroke-linejoin:round;stroke-miterlimit:4;stroke-dasharray:none;stroke-dashoffset:0;stroke-opacity:1"
       id="path2758"
       d="M 11,-6.375 C 11.068425,-6.375 11.041453,-6.3983015 10.90625,-6.28125 C 10.771047,-6.1641985 10.579154,-5.9292436 10.375,-5.625 C 9.9666925,-5.0165128 9.5079224,-4.1337983 9.0625,-3.1875 C 8.6170776,-2.2412017 8.1534284,-1.2249793 7.71875,-0.375 C 7.2840716,0.47497932 6.9452218,1.1738463 6.28125,1.65625 C 5.6172417,2.1386802 4.8495304,2.223853 3.90625,2.375 C 2.9629696,2.526147 1.8822315,2.6495234 0.84375,2.78125 C -0.19473149,2.9129766 -1.169386,3.0493077 -1.875,3.25 C -2.227807,3.3503462 -2.5028832,3.469923 -2.65625,3.5625 C -2.8096168,3.655077 -2.8024594,3.7215258 -2.78125,3.65625 C -2.7602936,3.5917527 -2.8193381,3.6161835 -2.75,3.78125 C -2.6806619,3.9463165 -2.5067697,4.2115526 -2.28125,4.5 C -1.8302106,5.0768949 -1.1350979,5.783178 -0.375,6.5 C 0.38509792,7.216822 1.2027541,7.9483634 1.875,8.625 C 2.5472459,9.3016366 3.1218643,9.8146785 3.375,10.59375 C 3.6279154,11.372144 3.4889393,12.151161 3.34375,13.09375 C 3.1985607,14.036339 2.9736536,15.098158 2.78125,16.125 C 2.5888464,17.151842 2.4312607,18.142979 2.40625,18.875 C 2.3937447,19.241011 2.3963719,19.544245 2.4375,19.71875 C 2.4786281,19.893255 2.5234633,19.883502 2.46875,19.84375 C 2.4141259,19.804063 2.446681,19.858585 2.625,19.84375 C 2.803319,19.828915 3.0936958,19.750078 3.4375,19.625 C 4.1251083,19.374844 5.0214021,18.938125 5.9375,18.4375 C 6.8535979,17.936875 7.8053768,17.367167 8.65625,16.9375 C 9.5071232,16.507833 10.18133,16.15625 11,16.15625 C 11.81867,16.15625 12.492877,16.507833 13.34375,16.9375 C 14.194623,17.367167 15.146402,17.936875 16.0625,18.4375 C 16.978598,18.938125 17.874892,19.374844 18.5625,19.625 C 18.906304,19.750078 19.196681,19.828915 19.375,19.84375 C 19.553319,19.858585 19.585874,19.804063 19.53125,19.84375 C 19.476537,19.883501 19.521372,19.893255 19.5625,19.71875 C 19.603628,19.544245 19.606255,19.241011 19.59375,18.875 C 19.568739,18.142979 19.411154,17.151841 19.21875,16.125 C 19.026346,15.098159 18.801439,14.036339 18.65625,13.09375 C 18.511061,12.151161 18.372084,11.372144 18.625,10.59375 C 18.878136,9.8146787 19.452754,9.3016367 20.125,8.625 C 20.797246,7.9483633 21.614902,7.216822 22.375,6.5 C 23.135098,5.783178 23.830211,5.0768949 24.28125,4.5 C 24.50677,4.2115526 24.680662,3.9463165 24.75,3.78125 C 24.819338,3.6161835 24.760294,3.5917527 24.78125,3.65625 C 24.802459,3.7215257 24.809617,3.655077 24.65625,3.5625 C 24.502883,3.469923 24.227807,3.3503462 23.875,3.25 C 23.169386,3.0493077 22.194731,2.9129766 21.15625,2.78125 C 20.117769,2.6495234 19.03703,2.526147 18.09375,2.375 C 17.15047,2.223853 16.382758,2.1386802 15.71875,1.65625 C 15.054778,1.1738463 14.715928,0.47497932 14.28125,-0.375 C 13.846572,-1.2249793 13.382922,-2.2412018 12.9375,-3.1875 C 12.492078,-4.1337982 12.033307,-5.0165128 11.625,-5.625 C 11.420846,-5.9292436 11.228953,-6.1641985 11.09375,-6.28125 C 10.958547,-6.3983015 10.931575,-6.375 11,-6.375 z"
       transform="matrix(0.6526613,0,0,0.6618469,27.955099,7.510216)" />
    <path
       style="fill:#babdb6;fill-opacity:1;stroke:none;stroke-width:1;stroke-linecap:round;stroke-linejoin:round;stroke-miterlimit:0;stroke-dashoffset:0;stroke-opacity:1"
       d="M 6.035399,3 L 11.027728,3 C 12.552427,2.9595599 12.110485,4.9741489 11.027728,5 L 6.035399,5 L 6.035399,3 z "
       id="rect6220"
       sodipodi:nodetypes="ccccc" />
    <path
       style="fill:none;fill-opacity:1;fill-rule:evenodd;stroke:#555753;stroke-width:1px;stroke-linecap:butt;stroke-linejoin:miter;stroke-opacity:1"
       d="M 9.6290662,5.5 L 7.7527058,5.4408977 C 7.7527058,5.4408977 5.4643132,5.2158442 5.5004229,3.9934114 C 5.536547,2.7704953 7.8788256,2.5022447 7.8245258,2.5022447 L 14.275051,2.5"
       id="path6139"
       sodipodi:nodetypes="cczcc" />
    <rect
       style="opacity:0.09239131;fill:#000000;fill-opacity:1;stroke:none;stroke-width:2;stroke-linecap:round;stroke-linejoin:round;stroke-miterlimit:0;stroke-dasharray:none;stroke-dashoffset:0;stroke-opacity:1"
       id="rect4921"
       width="1.8276633"
       height="33.565617"
       x="9"
       y="9"
       rx="0.91383165"
       ry="0.91383165" />
    <path
       transform="scale(0.9835975,1.016676)"
       style="font-size:23.55376053px;font-style:normal;font-weight:normal;fill:#eeeeec;fill-opacity:1;stroke:none;stroke-width:1px;stroke-linecap:butt;stroke-linejoin:miter;stroke-opacity:1;font-family:Bitstream Vera Sans"
       d="M 24.271414,24.132644 C 24.271405,25.07572 24.470753,25.819442 24.869459,26.363811 C 25.275812,26.908189 25.824019,27.180375 26.514082,27.180372 C 27.196454,27.180375 27.740827,26.908189 28.147204,26.363811 C 28.553554,25.811775 28.756736,25.068053 28.75675,24.132644 C 28.756736,23.204916 28.54972,22.472695 28.135703,21.93598 C 27.729326,21.391615 27.181119,21.119428 26.49108,21.119419 C 25.816352,21.119428 25.275812,21.391615 24.869459,21.93598 C 24.470753,22.472695 24.271405,23.204916 24.271414,24.132644 M 28.986767,27.594403 C 28.756736,28.138779 28.384875,28.564311 27.871183,28.870999 C 27.365133,29.170022 26.770922,29.319533 26.08855,29.319532 C 24.769775,29.319533 23.696362,28.844165 22.868309,27.893426 C 22.047908,26.935024 21.637711,25.689099 21.637718,24.155646 C 21.637711,22.622206 22.051741,21.376281 22.87981,20.417867 C 23.707863,19.459473 24.777442,18.980271 26.08855,18.980259 C 26.770922,18.980271 27.365133,19.133615 27.871183,19.440294 C 28.384875,19.746994 28.756736,20.172525 28.986767,20.716889 L 28.986767,19.210277 L 31.390446,19.210277 L 31.390446,27.180372 C 32.341167,27.034698 33.088722,26.578498 33.633114,25.81177 C 34.177469,25.037384 34.449655,24.048311 34.449675,22.844548 C 34.449655,22.077832 34.338481,21.360946 34.11615,20.693887 C 33.893781,20.019181 33.556423,19.401968 33.104075,18.842249 C 32.375669,17.906858 31.463269,17.186138 30.36687,16.680087 C 29.278107,16.174064 28.097354,15.921045 26.824605,15.921031 C 25.935194,15.921045 25.084131,16.039887 24.271414,16.277557 C 23.458678,16.507588 22.707289,16.84878 22.017246,17.301134 C 20.882488,18.052536 19.996923,19.026274 19.360547,20.222352 C 18.73183,21.410783 18.417473,22.698878 18.417477,24.086641 C 18.417473,25.229065 18.620655,26.302477 19.027022,27.306882 C 19.441049,28.303625 20.035259,29.185357 20.809656,29.952079 C 21.576373,30.703469 22.454271,31.274677 23.443352,31.665708 C 24.440084,32.064402 25.501996,32.26375 26.629091,32.263752 C 27.59515,32.26375 28.561221,32.08357 29.527307,31.723212 C 30.493364,31.362851 31.317591,30.875981 31.999992,30.262603 L 33.230584,32.125742 C 32.272162,32.869462 31.225584,33.436837 30.090849,33.827869 C 28.963751,34.226562 27.8175,34.42591 26.652092,34.425914 C 25.233642,34.42591 23.89571,34.172891 22.638292,33.666857 C 21.380858,33.168484 20.261442,32.440097 19.280041,31.481694 C 18.298631,30.523289 17.551076,29.415374 17.037374,28.157945 C 16.523667,26.892854 16.266815,25.535754 16.266816,24.086641 C 16.266815,22.691211 16.5275,21.360946 17.048875,20.095843 C 17.570244,18.83076 18.313965,17.719011 19.280041,16.760593 C 20.246108,15.80987 21.369357,15.073816 22.649793,14.552428 C 23.93788,14.031072 25.271979,13.770387 26.652092,13.77037 C 28.36954,13.770387 29.929822,14.100077 31.332942,14.759444 C 32.736029,15.411174 33.909116,16.354244 34.852205,17.588655 C 35.427228,18.340057 35.860426,19.156617 36.151802,20.038338 C 36.450803,20.912413 36.600314,21.832481 36.600336,22.798545 C 36.600314,24.876372 35.975435,26.490325 34.725696,27.640407 C 33.475917,28.790494 31.712454,29.365537 29.4353,29.365536 L 28.986767,29.365536 L 28.986767,27.594403"
       id="text5935" />
    <path
       sodipodi:type="star"
       style="fill:url(#radialGradient2766);fill-opacity:1;stroke:url(#linearGradient1892);stroke-width:1.03510201;stroke-linecap:butt;stroke-linejoin:miter;stroke-miterlimit:4;stroke-dasharray:none;stroke-dashoffset:0;stroke-opacity:1"
       id="path1869"
       sodipodi:sides="5"
       sodipodi:cx="11"
       sodipodi:cy="8.125"
       sodipodi:r1="16.539814"
       sodipodi:r2="5.8689728"
       sodipodi:arg1="-1.564494"
       sodipodi:arg2="-0.91312904"
       inkscape:flatsided="false"
       inkscape:rounded="-0.01"
       inkscape:randomized="0"
       d="M 11.104239,-8.4144855 C 10.98035,-8.418123 14.687351,3.5536574 14.587541,3.4801758 C 14.489454,3.4079629 26.79642,3.2300499 26.762197,3.1131547 C 26.727373,2.9942055 16.487059,10.219257 16.526101,10.101624 C 16.564469,9.9860235 20.536736,21.635665 20.637335,21.566995 C 20.739701,21.497118 10.703838,13.990664 10.827778,13.991445 C 10.949577,13.992213 1.0976073,21.37 1.1940035,21.444455 C 1.2920935,21.520218 5.3299026,9.6559232 5.3674593,9.7740381 C 5.4043675,9.8901135 -4.6567516,2.8001951 -4.697774,2.9148811 C -4.7395171,3.0315822 7.791849,3.2054982 7.6911207,3.2777163 C 7.5921318,3.3486873 11.225988,-8.4109108 11.104239,-8.4144855 z"
       transform="matrix(0.6526613,0,0,0.6618469,27.955099,7.510216)" />
  </g>
</svg>
