<?xml version="1.0" encoding="UTF-8" standalone="no"?>
<!-- Created with Inkscape (http://www.inkscape.org/) -->
<svg
   xmlns:dc="http://purl.org/dc/elements/1.1/"
   xmlns:cc="http://creativecommons.org/ns#"
   xmlns:rdf="http://www.w3.org/1999/02/22-rdf-syntax-ns#"
   xmlns:svg="http://www.w3.org/2000/svg"
   xmlns="http://www.w3.org/2000/svg"
   xmlns:xlink="http://www.w3.org/1999/xlink"
   xmlns:sodipodi="http://sodipodi.sourceforge.net/DTD/sodipodi-0.dtd"
   xmlns:inkscape="http://www.inkscape.org/namespaces/inkscape"
   id="svg2"
   sodipodi:version="0.32"
   inkscape:version="0.46"
   width="48"
   height="48"
   version="1.0"
   sodipodi:docname="applications-internet.svg"
   style="display:inline"
   inkscape:output_extension="org.inkscape.output.svg.inkscape">
  <metadata
     id="metadata7">
    <rdf:RDF>
      <cc:Work
         rdf:about="">
        <dc:format>image/svg+xml</dc:format>
        <dc:type
           rdf:resource="http://purl.org/dc/dcmitype/StillImage" />
      </cc:Work>
    </rdf:RDF>
  </metadata>
  <defs
     id="defs5">
    <inkscape:perspective
       sodipodi:type="inkscape:persp3d"
       inkscape:vp_x="0 : 526.18109 : 1"
       inkscape:vp_y="0 : 1000 : 0"
       inkscape:vp_z="744.09448 : 526.18109 : 1"
       inkscape:persp3d-origin="372.04724 : 350.78739 : 1"
       id="perspective9" />
  </defs>
  <sodipodi:namedview
     inkscape:window-height="686"
     inkscape:window-width="732"
     inkscape:pageshadow="2"
     inkscape:pageopacity="0.0"
     guidetolerance="10.0"
     gridtolerance="10.0"
     objecttolerance="10.0"
     borderopacity="1.0"
     bordercolor="#666666"
     pagecolor="#ffffff"
     id="base"
     showgrid="false"
     inkscape:zoom="9.7083333"
     inkscape:cx="24"
     inkscape:cy="24"
     inkscape:window-x="0"
     inkscape:window-y="27"
     inkscape:current-layer="layer2" />
  <g
     inkscape:groupmode="layer"
     id="layer1"
     inkscape:label="colours"
     style="display:inline" />
  <g
     inkscape:groupmode="layer"
     id="layer2"
     inkscape:label="outline">
    <image
       style="display:inline"
       xlink:href="/home/tim/Desktop/Downloads/icons/globe.png"
       sodipodi:absref="/home/tim/Desktop/Downloads/icons/globe.png"
       width="48"
       height="48"
       id="image11"
       x="0.137339"
       y="0.1030043" />
    <g
       style="display:inline"
       id="g2384"
       transform="matrix(0.375,0,0,0.375,0.137339,0.1030043)">
      <path
         style="fill:#ddce9a"
         d="M 61.767909,127.27527 C 63.565259,127.05271 66.265259,127.0573 67.767909,127.28547 C 69.270559,127.51365 67.8,127.69574 64.5,127.69013 C 61.2,127.68452 59.970559,127.49783 61.767909,127.27527 z M 52.730968,126.34406 C 53.408001,126.07014 54.758001,126.05347 55.730968,126.30701 C 56.703936,126.56055 56.15,126.78467 54.5,126.80505 C 52.85,126.82543 52.053936,126.61799 52.730968,126.34406 z M 59.26375,124.28242 C 60.783812,124.05256 63.033812,124.05871 64.26375,124.29607 C 65.493687,124.53343 64.25,124.72149 61.5,124.71399 C 58.75,124.70648 57.743687,124.51227 59.26375,124.28242 z M 29,117.32232 C 20.423903,116.44607 12.031337,114.7434 10.396661,113.5481 C 8.8330318,112.40474 9.5077648,112.04482 15.970315,110.57494 C 25.441782,108.4207 41.426049,106.01345 46.309017,106.0059 C 48.82296,106.002 49.886937,105.62608 49.43834,104.90023 C 49.001744,104.19381 49.582708,104.24149 51.062691,105.03355 C 53.25014,106.20424 53.079543,106.3555 47.6915,108.02259 C 44.570121,108.98836 40.421947,111.17836 38.473336,112.88927 C 36.524725,114.60017 34.383566,116.04486 33.715204,116.09968 C 33.046842,116.1545 33.625,116.55965 35,117 L 37.5,117.80064 L 35,117.74028 C 33.625,117.70709 30.925,117.519 29,117.32232 z M 85.717797,109.38446 C 85.356335,109.023 82.712744,108.19848 79.84315,107.55219 C 71.598956,105.69544 72.469174,103.98524 81.454063,104.38634 C 89.759941,104.75713 90.95537,105.26187 89.393188,107.73844 C 88.193809,109.63986 86.660071,110.32674 85.717797,109.38446 z M 62.730968,107.34406 C 63.408001,107.07014 64.758001,107.05347 65.730968,107.30701 C 66.703936,107.56055 66.15,107.78467 64.5,107.80505 C 62.85,107.82543 62.053936,107.61799 62.730968,107.34406 z M 50.367091,101.98174 C 48.093991,100.37074 45.950813,98.314203 45.604472,97.411654 C 45.242462,96.468272 46.482827,97.094755 48.522177,98.885328 C 50.473256,100.5984 52.728934,102 53.534796,102 C 54.340658,102 55,102.675 55,103.5 C 55,105.37188 55.280031,105.46365 50.367091,101.98174 z M 43.437091,99.75 L 40.5,96.5 L 43.75,99.437091 C 46.779455,102.17487 47.459652,103 46.687091,103 C 46.514991,103 45.052491,101.5375 43.437091,99.75 z M 37.404988,92.75 L 35.5,90.5 L 37.75,92.404988 C 39.864445,94.195206 40.455241,95 39.654988,95 C 39.465231,95 38.452731,93.9875 37.404988,92.75 z M 38,78.5 C 37.419224,76.972443 37.169043,75.497623 37.444043,75.222623 C 37.719043,74.947623 38.419224,75.972443 39,77.5 C 39.580776,79.027557 39.830957,80.502377 39.555957,80.777377 C 39.280957,81.052377 38.580776,80.027557 38,78.5 z M 67.5,68.111205 C 65.85,67.07648 62.301055,63.962822 59.613455,61.191965 C 53.16144,54.540077 53.695848,53 62.456071,53 L 68.974911,53 L 71.604934,57.166227 C 78.046796,67.370795 75.813735,73.3248 67.5,68.111205 z M 85.019228,60.523168 C 84.301902,59.658843 84.004124,58.662543 84.357499,58.309167 C 84.710875,57.955792 85,58.191667 85,58.833333 C 85,60.551034 86.397193,60.262009 89.360081,57.9314 C 91.864247,55.961623 91.911072,55.758588 90.340242,53.6814 C 89.256302,52.248052 87.551363,51.474603 85.368453,51.425939 C 83.54127,51.385205 81.191484,50.578278 80.146706,49.632767 C 78.431543,48.080566 78.187682,48.068526 77.63501,49.508766 C 77.298354,50.386076 77.417689,50.859888 77.900197,50.561681 C 78.382706,50.263475 80.034196,51.667119 81.570176,53.680892 C 83.106155,55.694665 83.754748,56.96646 83.011494,56.507104 C 82.01112,55.888838 81.831153,56.11761 82.318607,57.387893 C 82.719113,58.431596 82.579414,58.858097 81.962025,58.47653 C 81.403739,58.131491 81.071394,57.30732 81.22348,56.645039 C 81.375566,55.982759 81.203257,55.454192 80.84057,55.470447 C 79.265836,55.541021 75.898895,49.893914 76.460574,48.124221 C 76.990575,46.454335 76.570167,46.267755 72.779454,46.490512 C 70.425754,46.628825 69.846068,46.538433 71.491262,46.289642 C 74.251402,45.872246 75.947035,44.548375 75.984687,42.781385 C 75.993109,42.386146 75.370518,42.304325 74.601151,42.599558 C 73.831783,42.894792 72.905226,42.655669 72.542134,42.068174 C 72.179041,41.480678 72.330557,41 72.878834,41 C 73.427112,41 73.80905,40.115174 73.727587,39.033721 C 73.611274,37.489628 73.034157,37.172497 71.039736,37.556721 L 68.5,38.046 L 70.939428,36.98515 C 72.281114,36.401683 74.643614,36.202088 76.189428,36.541605 C 77.915639,36.920745 79,36.74244 79,36.079455 C 79,34.86801 78.869901,34.825132 74.011063,34.435186 C 72.092148,34.281184 70.186539,34.682766 69.776376,35.327591 C 69.226493,36.192072 69.026604,36.16323 69.015313,35.217776 C 69.006891,34.512552 70.0125,33.528576 71.25,33.031162 C 73.49371,32.129301 73.493011,32.126473 71,32.019493 C 69.625,31.96049 66.7,31.202154 64.5,30.334303 C 62.3,29.466451 58.925,28.698703 57,28.628196 C 54.670348,28.542867 53.591881,28.057164 53.774777,27.17567 C 53.925904,26.447289 53.581063,26.140883 53.008465,26.494769 C 52.435866,26.848654 52.195853,27.50788 52.475102,27.959714 C 52.754351,28.411549 51.809702,29.549893 50.375881,30.489369 C 47.916479,32.100831 47.676429,32.100411 46.134467,30.481938 C 44.607231,28.878921 44.640724,28.838261 46.644995,29.862172 C 48.958307,31.043961 51.779696,29.070592 50.571569,27.115801 C 50.241233,26.581307 50.933673,25.838439 52.110325,25.464984 C 53.457514,25.037403 54.55833,25.285363 55.083205,26.134629 C 56.193291,27.930785 58.265126,25.938108 58.4922,22.85588 C 58.581955,21.637569 59.745428,19.939375 61.077696,19.082118 C 63.337923,17.627757 63.409717,17.63791 62.150693,19.233855 C 61.003053,20.688607 61.051462,21.194319 62.474581,22.617438 C 63.798127,23.940984 63.877174,24.457877 62.852849,25.090944 C 59.593722,27.105196 63.662011,27.094818 70.477597,25.071494 C 79.117619,22.506555 92.082552,21.753145 92.758204,23.776736 C 92.992662,24.478941 94.874241,25.915519 96.939491,26.96913 C 99.004741,28.022742 101.50313,30.148211 102.49146,31.692394 L 104.28842,34.5 L 101.89421,32.398766 C 97.978276,28.96202 96.299656,28.470918 99.148043,31.595338 C 102.19474,34.937284 106.00502,41.031588 105.96585,42.5 C 105.95118,43.05 105.48051,42.7125 104.9199,41.75 C 103.69381,39.644923 101.55382,39.394898 102.34198,41.448808 C 102.69145,42.359519 102.08123,43.146263 100.69897,43.567089 C 99.489537,43.935299 97.669535,44.966962 96.654523,45.859674 C 94.87531,47.424506 94.893263,47.506446 97.154523,48.141713 C 99.287571,48.740961 99.228291,48.811055 96.5,48.915633 C 94.435166,48.99478 93.919049,49.296208 94.844302,49.882612 C 95.955882,50.587104 95.915174,51.263355 94.609155,53.788917 C 93.403068,56.121233 93.321679,56.961295 94.264853,57.34267 C 94.944184,57.61736 94.2074,57.877632 92.627555,57.921053 C 90.318913,57.984504 89.97729,58.26771 90.887064,59.36392 C 91.789388,60.451154 91.560651,60.698811 89.759509,60.584741 C 88.516779,60.506036 87.235278,60.813572 86.911729,61.268155 C 86.58818,61.722737 85.736554,61.387494 85.019228,60.523168 z M 90.170969,47.867542 C 88.976936,47.425841 88,46.524948 88,45.865558 C 88,45.206168 87.702759,44.963908 87.339464,45.327203 C 86.359911,46.306756 90.094518,50.059618 91.304616,49.311737 C 91.886455,48.952141 91.388675,48.318001 90.170969,47.867542 z M 90.800558,42.697708 C 92.869095,41.065034 91.80521,36.697729 89,35.306319 C 87.625,34.624306 86.5,33.601379 86.5,33.033148 C 86.5,32.464916 86.1625,32 85.75,32 C 85.3375,32 84.501216,32 83.891592,32 C 83.215568,32 83.022342,32.952883 83.396262,34.442697 C 83.733455,35.786181 83.491079,38.022855 82.857648,39.413084 C 80.683938,44.183857 86.086908,46.418142 90.800558,42.697708 z M 61.280134,25.036768 C 61.572986,23.916901 61.111046,22.520765 60.204807,21.786768 C 59.045125,20.847497 58.815438,20.831987 59.354286,21.729333 C 59.760297,22.405467 59.605846,23.867967 59.01106,24.979333 C 58.16218,26.565482 58.234674,27 59.348185,27 C 60.128389,27 60.997766,26.116545 61.280134,25.036768 z M 33,56.059017 C 33,54.991476 33.45,53.839919 34,53.5 C 34.567158,53.149477 35,53.989616 35,55.440983 C 35,56.848442 34.55,58 34,58 C 33.45,58 33,57.126558 33,56.059017 z M 113.15789,51 C 113.15789,49.625 113.38487,49.0625 113.66228,49.75 C 113.93969,50.4375 113.93969,51.5625 113.66228,52.25 C 113.38487,52.9375 113.15789,52.375 113.15789,51 z M 58.25,47.294267 C 57.0125,47.055914 56,46.217196 56,45.430449 C 56,44.643702 54.9875,43.947799 53.75,43.883999 C 51.790704,43.782985 51.749864,43.704335 53.433903,43.275258 C 54.497549,43.004251 55.847549,43.40255 56.433903,44.160366 C 57.020256,44.918183 58.625,46.06166 60,46.701427 C 62.5764,47.900187 62.148489,48.045149 58.25,47.294267 z M 46.020056,45.475834 C 46.715776,44.637543 47.490937,44.157604 47.742636,44.409303 C 48.436134,45.1028 47.027093,47 45.818538,47 C 45.155445,47 45.231307,46.426218 46.020056,45.475834 z M 40.157895,44 C 40.157895,42.625 40.384868,42.0625 40.662281,42.75 C 40.939693,43.4375 40.939693,44.5625 40.662281,45.25 C 40.384868,45.9375 40.157895,45.375 40.157895,44 z M 57.398692,42.75 C 57.003053,42.0625 57.030067,41.816071 57.458722,42.202381 C 57.887377,42.58869 58.968006,42.174851 59.860119,41.282738 C 60.880593,40.262264 61.074467,39.524822 60.382882,39.294294 C 59.778288,39.092763 58.432306,38.245801 57.39181,37.412158 C 55.595917,35.973291 55.626753,35.929717 58,36.552727 C 59.375,36.913684 61.4,38.123915 62.5,39.24213 C 63.6,40.360345 63.952218,40.970855 63.282707,40.598821 C 62.594941,40.216642 61.511544,40.809281 60.79216,41.961197 C 59.326927,44.307408 58.416698,44.518988 57.398692,42.75 z M 65,43 C 63.932405,42.310067 63.872974,42.026211 64.793837,42.015313 C 65.505447,42.006891 65.955447,41.259185 65.793837,40.353744 C 65.632227,39.448303 66.175,38.514044 67,38.277613 C 67.892584,38.021813 68.095056,38.182275 67.5,38.673869 C 66.01262,39.90264 66.290296,42.404974 68,43.179715 C 69.333333,43.783906 69.333333,43.865538 68,43.914402 C 67.175,43.944637 65.825,43.533156 65,43 z M 49.860784,39.966731 C 52.748403,37.561102 55.46701,37.340608 54.606989,39.581787 C 54.273145,40.451771 53.968372,41.464271 53.929715,41.831787 C 53.891058,42.199304 53.528331,41.65737 53.123654,40.627489 C 52.44494,38.900196 52.26205,38.880808 50.765368,40.377489 C 49.872987,41.26987 48.773214,41.985029 48.321429,41.966731 C 47.869643,41.948433 48.562353,41.048433 49.860784,39.966731 z M 41.339504,37.703187 C 42.012145,36.054729 43.673427,34.322003 45.031243,33.852684 C 47.413232,33.029368 47.429878,33.053495 45.504871,34.539174 C 43.896245,35.780676 43.775772,36.243385 44.882987,36.927682 C 46.716351,38.060763 45.603987,39.651386 42.573038,40.230789 C 40.205049,40.683459 40.160595,40.592369 41.339504,37.703187 z M 35,35.5651 C 35,33.300698 37.240029,29.840029 38.129801,30.729801 C 38.870441,31.470441 38.848862,32.413887 38.057457,33.892641 C 37.085126,35.709457 35,36.850041 35,35.5651 z M 98.958208,20.25 L 94.5,15.5 L 99.25,19.958208 C 101.8625,22.410222 104,24.547722 104,24.708208 C 104,25.459094 103.10217,24.66519 98.958208,20.25 z"
         id="path2398" />
      <path
         style="fill:#cdae59"
         d="M 53.35291,126.27282 C 50.209852,125.98652 49.077518,125.40443 48.675874,123.86854 C 48.280909,122.35819 48.530238,121.98949 49.654751,122.42101 C 50.484604,122.73945 56.864271,123.01368 63.831787,123.03041 C 73.441332,123.05348 76.048505,123.32313 74.630023,124.14724 C 73.12013,125.02446 73.023849,125.40078 74.130023,126.10152 C 75.475586,126.95391 62.045479,127.06464 53.35291,126.27282 z M 64.26375,124.29607 C 63.033812,124.05871 60.783812,124.05256 59.26375,124.28242 C 57.743687,124.51227 58.75,124.70648 61.5,124.71399 C 64.25,124.72149 65.493687,124.53343 64.26375,124.29607 z M 60.75,113.2766 C 62.5375,113.05478 65.4625,113.05478 67.25,113.2766 C 69.0375,113.49843 67.575,113.67993 64,113.67993 C 60.425,113.67993 58.9625,113.49843 60.75,113.2766 z M 43.611788,87.937785 C 41.113753,84.504752 39.347355,81.246984 39.68646,80.698302 C 40.025564,80.14962 41.185481,81.455541 42.264054,83.600349 C 43.342626,85.745157 45.379142,88.732806 46.789645,90.239569 C 48.200148,91.746332 49.084077,93.249256 48.753933,93.579401 C 48.423788,93.909545 46.109823,91.370818 43.611788,87.937785 z M 36.42322,88.660511 C 35.775902,86.973628 36.600186,85 37.952028,85 C 39.526945,85 39.880498,87.854288 38.452392,89.039511 C 37.325611,89.974656 36.896769,89.894559 36.42322,88.660511 z M 70.980326,74.97237 C 69.794602,73.307174 66.550997,70.792688 63.772316,69.384624 C 60.993635,67.97656 57.149235,65.298835 55.229204,63.434125 C 51.168273,59.490199 50.227152,59.727276 49.399575,64.90266 C 48.965108,67.619667 48.007176,69.155261 46.011212,70.334305 L 43.228558,71.978059 L 43.602952,66.73903 C 44.122182,59.473247 44.27221,58.898686 46.744254,54.708884 C 48.889997,51.07212 49.054738,50.998633 55.216275,50.929715 C 61.056974,50.864385 68.393877,49.252239 63.678571,49.070285 C 62.172914,49.012185 62.086232,48.774621 63.178571,47.699967 C 63.991188,46.900508 66.901455,46.419199 70.736783,46.449967 C 76.188148,46.493699 76.904387,46.71846 76.424242,48.234727 C 76.102935,49.249396 77.026566,51.532361 78.649406,53.734727 C 81.365353,57.420556 81.370382,57.452334 78.887759,55.240854 C 76.360317,52.989449 75,53.137432 75,55.663786 C 75,56.395535 76.575,58.737575 78.5,60.86832 C 82.422,65.209505 82.892948,68.3563 80.360468,73.29966 C 77.449872,78.981095 74.242106,79.553118 70.980326,74.97237 z M 75.236761,68.25 C 75.805948,65.65205 74.558463,61.844919 71.604934,57.166227 L 68.974911,53 L 62.456071,53 C 53.695848,53 53.16144,54.540077 59.613455,61.191965 C 67.587475,69.413006 74.315987,72.452701 75.236761,68.25 z M 37.384781,75.234687 C 35.836383,74.214629 34.72915,70.285428 35.803067,69.621711 C 36.289499,69.32108 37.165684,70.633209 37.750144,72.537554 C 38.334604,74.441899 38.742419,75.993109 38.656399,75.984687 C 38.57038,75.976265 37.998152,75.638765 37.384781,75.234687 z M 59.078947,74.323324 C 59.035526,73.126152 58.2125,71.940853 57.25,71.689326 C 55.609911,71.260725 55.611882,71.224717 57.281385,71.116001 C 59.220869,70.989705 60.494324,73.173103 59.673277,75.217011 C 59.389817,75.922655 59.122368,75.520496 59.078947,74.323324 z M 32.976768,60.862265 C 31.881754,54.370287 32.130307,46.627717 33.683775,38.838576 C 33.987433,37.316023 35.058298,35.956512 36.186275,35.661539 C 37.650847,35.278545 38.007497,35.538079 37.572911,36.670594 C 37.251122,37.50916 36.498492,41.413827 35.900398,45.34763 C 35.302304,49.281434 34.40504,52.9275 33.906478,53.45 C 32.698372,54.71611 32.749671,57.748728 33.986264,58.166667 C 35.378597,58.637242 36.559268,68 35.226275,68 C 34.651211,68 33.638932,64.788019 32.976768,60.862265 z M 84.173425,60.708964 C 83.355592,59.723536 83.622502,59.392589 85.30098,59.310884 C 86.510441,59.25201 86.934696,59.42141 86.243769,59.68733 C 85.552843,59.95325 85.2419,60.582386 85.552786,61.08541 C 86.401727,62.459025 85.398652,62.185273 84.173425,60.708964 z M 105.28759,58.774166 C 103.64038,56.669894 102.04522,51.045744 102.64919,49.471824 C 102.95982,48.662321 102.71583,48 102.10699,48 C 101.49814,48 100.98632,48.7875 100.96959,49.75 C 100.94063,51.416667 100.89065,51.416667 99.919901,49.75 C 99.359296,48.7875 97.953236,48 96.795322,48 C 94.78641,48 94.769163,47.912553 96.418609,46.089937 C 97.369329,45.039402 99.223191,43.909815 100.5383,43.579743 C 102.13075,43.180064 102.73846,42.482001 102.35771,41.489807 C 101.558,39.405776 103.68003,39.621272 104.9199,41.75 C 105.48051,42.7125 105.95118,43.05 105.96585,42.5 C 106.00502,41.031588 102.19474,34.937284 99.148043,31.595338 C 96.299656,28.470918 97.978276,28.96202 101.89421,32.398766 L 104.28842,34.5 L 102.49146,31.692394 C 101.50313,30.148211 99.004741,28.022742 96.939491,26.96913 C 94.874241,25.915519 92.992662,24.478941 92.758204,23.776736 C 92.082552,21.753145 79.117619,22.506555 70.477597,25.071494 C 63.662011,27.094818 59.593722,27.105196 62.852849,25.090944 C 63.877174,24.457877 63.798127,23.940984 62.474581,22.617438 C 61.233326,21.376183 61.082935,20.604996 61.892017,19.630112 C 62.491864,18.90734 62.782931,18.116265 62.538833,17.872167 C 62.294735,17.628068 63.265639,17.331468 64.696396,17.213055 C 66.127154,17.094642 67.919102,16.482103 68.678501,15.851857 C 69.706781,14.99846 70.689822,14.993274 72.529614,15.831539 C 73.888326,16.45061 75,16.598004 75,16.159081 C 75,15.720158 79.216151,15.436174 84.369225,15.528005 L 93.738449,15.694971 L 99.580647,21.537169 C 102.79386,24.750377 104.7652,27.029959 103.96142,26.602906 C 103.15764,26.175853 103.625,26.804546 105,28 C 106.375,29.195454 106.94265,29.886132 106.26145,29.534839 C 105.4447,29.11364 105.22497,29.422683 105.61624,30.442319 C 105.94257,31.292725 106.60726,31.742725 107.09333,31.442319 C 107.5794,31.141912 107.68077,31.668317 107.31861,32.612107 C 106.83649,33.868488 107.01486,34.108852 107.98457,33.509536 C 108.85138,32.973821 109.06977,33.078087 108.61663,33.811288 C 107.68205,35.323468 110.90558,46.176388 112.07469,45.453836 C 113.48965,44.579346 113.17658,47.432816 111.50616,50.635693 C 110.50362,52.55797 110.0103,52.92445 110.00616,51.75 C 110.00277,50.7875 109.55,50 109,50 C 108.45,50 107.99311,50.5625 107.98469,51.25 C 107.97429,52.098941 107.62561,52.01873 106.89794,51 C 106.03715,49.7949 105.92346,49.942351 106.31963,51.75 C 106.59085,52.9875 106.40489,54 105.90638,54 C 104.52364,54 104.82644,57.771349 106.25,58.279762 C 106.9375,58.525298 107.22663,59.023672 106.8925,59.387261 C 106.55838,59.75085 105.83617,59.474957 105.28759,58.774166 z M 88.832358,57.819066 C 89.999286,56.307746 89.846547,56.214007 87.31865,56.89007 C 84.813785,57.559975 84.152104,57.177148 81.253525,53.380995 C 77.573558,48.561489 77.010289,46.794349 80.023151,49.520951 C 81.135884,50.527961 83.54127,51.385205 85.368453,51.425939 C 87.527264,51.474066 89.255426,52.24685 90.303568,53.632781 C 91.813589,55.629442 91.776695,55.884733 89.7255,57.632781 C 88.05594,59.055595 87.843369,59.099932 88.832358,57.819066 z M 18.272364,54 C 18.272364,51.525 18.46738,50.5125 18.705733,51.75 C 18.944086,52.9875 18.944086,55.0125 18.705733,56.25 C 18.46738,57.4875 18.272364,56.475 18.272364,54 z M 40.76845,40.83155 C 41.349552,40.250448 42.415269,39.971756 43.13671,40.212237 C 43.885656,40.461885 43.432363,40.915178 42.080159,41.268787 C 40.416814,41.703761 40.026382,41.573618 40.76845,40.83155 z M 64,41 C 64,40.45 64.45,40 65,40 C 65.55,40 66,40.45 66,41 C 66,41.55 65.55,42 65,42 C 64.45,42 64,41.55 64,41 z M 68.636621,39.891591 C 67.824388,38.731967 66.669526,38.08621 66.070261,38.456576 C 65.470996,38.826943 63.799347,38.200726 62.355485,37.064985 C 59.491257,34.811983 57.462088,34.320623 58.595492,36.154508 C 59.050408,36.890579 58.868365,37.036679 58.093217,36.557611 C 55.573984,35.00064 50.812853,34.892603 48.600477,36.342208 C 45.469886,38.39345 42.592371,36.763965 45.504871,34.589222 C 47.458101,33.130759 47.452496,33.111445 45.237996,33.669507 C 43.291282,34.160087 43.037001,33.90923 43.413686,31.86977 C 43.654418,30.566397 43.884819,29.112647 43.92569,28.639216 C 43.96656,28.165785 44.819993,28.791081 45.822208,30.028763 C 47.592081,32.214465 47.721075,32.228865 50.313621,30.530163 C 51.781685,29.568251 52.754351,28.411549 52.475102,27.959714 C 52.195853,27.50788 52.435866,26.848654 53.008465,26.494769 C 53.581063,26.140883 53.925904,26.447289 53.774777,27.17567 C 53.591881,28.057164 54.670348,28.542867 57,28.628196 C 58.925,28.698703 62.3,29.466451 64.5,30.334303 C 66.7,31.202154 69.625,31.96049 71,32.019493 C 73.493011,32.126473 73.49371,32.129301 71.25,33.031162 C 68.028593,34.32601 68.103156,38.44191 71.333333,37.631187 C 73.83533,37.003225 74.803553,39.760421 72.598746,41.234687 C 70.883939,42.38131 70.223733,42.157511 68.636621,39.891591 z M 58.458881,39.933469 C 58.096348,39.346877 58.06979,38.596877 58.399864,38.266802 C 58.729939,37.936728 59,38.218224 59,38.89235 C 59,39.566476 59.45,39.839919 60,39.5 C 60.55,39.160081 61,39.358524 61,39.940983 C 61,41.314035 59.309028,41.309035 58.458881,39.933469 z M 37.624532,27.042709 C 39.936625,21.501265 41.601779,19.428571 43.741553,19.428571 C 45.583251,19.428571 45.523154,19.744929 42.858905,24.074884 C 41.286507,26.630357 40,29.205961 40,29.79845 C 40,30.390939 39.132936,30.810388 38.073192,30.73056 C 36.258803,30.593886 36.232626,30.378719 37.624532,27.042709 z M 54.328953,25.588688 C 53.405435,24.535686 53.669334,23.979743 55.577446,22.958552 C 58.54926,21.368086 59.528498,22.143974 58.045837,24.914354 C 56.760857,27.315359 55.969256,27.458975 54.328953,25.588688 z M 62.730968,14.344063 C 63.408001,14.07014 64.758001,14.053466 65.730968,14.307009 C 66.703936,14.560553 66.15,14.784672 64.5,14.805051 C 62.85,14.825431 62.053936,14.617986 62.730968,14.344063 z M 79,13 C 79,12.45 79.701558,12 80.559017,12 C 81.416476,12 81.839919,12.45 81.5,13 C 81.160081,13.55 80.458524,14 79.940983,14 C 79.423442,14 79,13.55 79,13 z"
         id="path2396" />
      <path
         style="fill:#669aba"
         d="M 35.100488,117.12896 L 32.700977,116.45727 L 35.350488,115.25008 C 37.730523,114.16566 38,114.24411 38,116.02144 C 38,117.10965 37.8875,117.95514 37.75,117.90032 C 37.6125,117.8455 36.42022,117.49838 35.100488,117.12896 z M 52.923489,106.75 C 52.383565,104.9858 52.289941,102.95661 52.770646,103.43731 C 53.50041,104.16708 54.010007,107 53.411516,107 C 53.185182,107 52.96557,106.8875 52.923489,106.75 z M 55.666667,106.33333 C 55.3,105.96667 55,105.20167 55,104.63333 C 55,104.00673 55.465771,104.06577 56.183333,104.78333 C 56.834167,105.43417 57.134167,106.19917 56.85,106.48333 C 56.565833,106.7675 56.033333,106.7 55.666667,106.33333 z M 43.022324,94.796311 C 40.866024,91.250561 41.194673,89.530098 43.447029,92.573001 C 44.908848,94.5479 46.145837,98 45.391682,98 C 45.160089,98 44.093877,96.55834 43.022324,94.796311 z M 48.98894,89.979333 C 47.640751,87.46022 48.462031,86.023638 51.309017,85.921053 C 53.265204,85.850566 53.211317,85.736477 50.806177,84.856445 C 49.013407,84.200477 48.304251,83.370709 48.686058,82.375737 C 49.055431,81.413167 48.5138,80.685617 47.165309,80.332978 C 45.083165,79.788485 41.857435,75.276899 40.506113,71.019261 L 39.799073,68.791573 L 42.649536,70.86724 C 45.112955,72.661067 46.081079,72.809418 49.779462,71.959796 C 55.021277,70.755606 59,71.607529 59,73.934094 C 59,74.878597 60.125,76.708255 61.5,78 C 63.351424,79.739322 64,81.377264 64,84.313605 L 64,88.278582 L 59,87.686406 C 54.197997,87.11768 54,87.191363 54,89.547115 C 54,92.638994 50.570649,92.934785 48.98894,89.979333 z M 38.638374,85.5 C 38.321791,84.675 38.498646,84 39.031385,84 C 39.564123,84 40,84.675 40,85.5 C 40,86.325 39.823145,87 39.606989,87 C 39.390833,87 38.954956,86.325 38.638374,85.5 z M 82.840652,83.983033 C 84.863933,82.297064 85.087427,81.476951 84.48895,77.934594 C 83.883269,74.349602 84.163315,73.377361 86.725964,70.168292 C 90.489356,65.455596 92.22834,60.62834 90.709729,59.109729 C 89.896757,58.296757 90.267192,58 92.094979,58 C 94.110402,58 94.946642,57.135064 96.445678,53.5 C 97.466324,51.025 98.453439,49 98.639268,49 C 99.807443,49 103,52.724548 103,54.087382 C 103,54.990977 103.89671,56.870261 104.99268,58.263568 L 106.98536,60.796852 L 103.49268,65.874319 C 101.57171,68.666926 100,71.337759 100,71.809503 C 100,72.281248 98.254305,74.558148 96.120678,76.869283 C 92.873831,80.386251 92.1339,80.791322 91.582275,79.35381 C 91.024533,77.900356 90.583149,78.117355 88.711598,80.765132 C 87.495219,82.486004 85.466326,84.367842 84.202947,84.946995 C 80.747317,86.53111 80.225712,86.162021 82.840652,83.983033 z M 106.99038,59 C 105.93512,55.320733 107.21808,50 109.16052,50 C 109.62223,50 109.99317,50.1125 109.98482,50.25 C 109.93027,51.148387 107.10569,59.402036 106.99038,59 z M 113.15789,55 C 113.15789,53.625 113.38487,53.0625 113.66228,53.75 C 113.93969,54.4375 113.93969,55.5625 113.66228,56.25 C 113.38487,56.9375 113.15789,56.375 113.15789,55 z M 38,49.712129 C 38,42.814553 41.524506,29.588095 43.10263,30.563429 C 43.5627,30.847768 43.052819,33.328976 41.969561,36.077225 C 39.57368,42.155623 39.464195,45.600768 41.628416,46.811927 C 42.741761,47.434987 42.899912,47.943824 42.128416,48.420634 C 41.507787,48.804204 40.985688,49.878976 40.968197,50.809017 C 40.950705,51.739058 40.275705,53.373508 39.468197,54.44113 C 38.129999,56.210385 38,55.791664 38,49.712129 z M 46.189668,29.420295 C 43.199871,27.32616 43.410312,26.08511 47.685736,20.597415 C 53.511338,13.119999 58.389064,10.80557 69.553015,10.221623 C 77.334878,9.8145812 79.39144,10.026461 81.580467,11.460767 C 83.032758,12.412345 85.282654,12.987959 86.580236,12.739911 C 87.877818,12.491862 88.718629,12.646251 88.448705,13.082996 C 88.178782,13.519742 88.610556,14.242236 89.408203,14.68854 C 91.174979,15.677094 73.138908,15.61038 67.455133,14.607336 C 62.368863,13.709737 58.816031,15.029982 53.574915,19.765276 C 50.432029,22.604841 49.49719,24.180091 49.487712,26.652414 C 49.471856,30.788988 48.867676,31.296045 46.189668,29.420295 z M 81.5,13 C 81.839919,12.45 81.416476,12 80.559017,12 C 79.701558,12 79,12.45 79,13 C 79,13.55 79.423442,14 79.940983,14 C 80.458524,14 81.160081,13.55 81.5,13 z"
         id="path2394" />
      <path
         style="fill:#c8a330"
         d="M 74.44113,124.4682 C 76.978403,122.5491 78.570757,122.5721 76.642857,124.5 C 75.817857,125.325 74.548214,125.98569 73.821429,125.9682 C 72.992338,125.94824 73.223226,125.38937 74.44113,124.4682 z M 46.426999,123.52147 C 44.735134,122.2415 44.706335,122.05973 46.190983,122.0318 C 47.121024,122.01431 48.178585,122.47994 48.541119,123.06653 C 49.630453,124.82911 48.482075,125.07623 46.426999,123.52147 z M 61.75,114.29427 C 62.9875,114.05591 65.0125,114.05591 66.25,114.29427 C 67.4875,114.53262 66.475,114.72764 64,114.72764 C 61.525,114.72764 60.5125,114.53262 61.75,114.29427 z M 53.5,98.106602 C 50.75,96.525555 47.6,94.167278 46.5,92.865986 C 44.5,90.5 44.5,90.5 46.5,92.175123 C 47.6,93.096441 51.173527,95.458941 54.441172,97.425123 C 61.499421,101.67216 60.703796,102.24825 53.5,98.106602 z M 67.027703,90.879545 C 65.104053,88.224024 64.081378,85.796812 64.389581,84.618241 C 64.937139,82.524377 62.508724,77 61.040742,77 C 60.541399,77 59.990455,75.792228 59.816422,74.316063 C 59.455636,71.255824 54.981515,69.404341 51.914155,71.045943 C 42.448403,76.111859 35.009688,64.117902 40.651201,52.8859 C 43.200486,47.810387 43.555102,46 42,46 C 41.45,46 41,44.875 41,43.5 C 41,42.066361 41.576554,41 42.351686,41 C 43.095113,41 45.123247,39.643091 46.858651,37.984646 C 50.436117,34.565827 55.024893,34.208958 56.895384,37.20409 C 58.092047,39.120252 57.066095,39.666095 55.399796,37.999796 C 53.779286,36.379286 49.190268,39.12427 47.458486,42.75 C 46.604709,44.5375 45.402278,46 44.786416,46 C 44.170554,46 43.923998,46.257331 44.238514,46.571847 C 44.553029,46.886363 46.893756,46.436363 49.440127,45.571847 C 55.05276,43.666308 56,43.624409 56,45.281685 C 56,45.986611 58.113139,47.187305 60.695865,47.949893 C 66.589716,49.69014 64.501242,50.82586 55.216275,50.929715 C 49.054738,50.998633 48.889997,51.07212 46.744254,54.708884 C 45.540692,56.748771 44.472431,58.986881 44.370341,59.682463 C 44.268251,60.378045 43.913384,62.646547 43.581747,64.723579 C 43.250111,66.80061 43.373239,69.103977 43.855367,69.84217 C 45.368297,72.158642 48.718569,69.161436 49.403386,64.878824 C 50.226672,59.730276 51.172272,59.494083 55.220621,63.425789 C 57.135931,65.285915 60.682327,67.783536 63.101502,68.97606 C 65.520676,70.168583 68.903361,72.750446 70.618579,74.713534 C 74.539111,79.200629 77.77397,78.794224 80.299927,73.497236 C 82.856784,68.135452 82.443093,65.232853 78.5,60.86832 C 72.156371,53.846681 74.455074,50.859447 81.002836,57.615807 C 84.544052,61.26984 85.832634,62.007838 87.806521,61.512424 C 90.01067,60.959218 90.181,61.142701 89.602607,63.447202 C 89.251162,64.847471 87.616717,67.907188 85.970506,70.246573 C 83.225714,74.14712 83.078417,74.766802 84.195059,77.715887 C 85.291633,80.611972 85.182894,81.176416 83.101593,83.391859 C 81.830471,84.744906 81.043954,86.262101 81.353776,86.763404 C 82.354454,88.382536 76.627624,93.989712 73.33457,94.61506 C 70.471116,95.158827 69.869452,94.802465 67.027703,90.879545 z M 42,87 C 40.825096,85.35 40.088812,84 40.363812,84 C 40.638812,84 41.825096,85.35 43,87 C 44.174904,88.65 44.911188,90 44.636188,90 C 44.361188,90 43.174904,88.65 42,87 z M 32.404988,85.854491 C 30.509131,83.719266 30.510884,83.714694 32.770667,84.900735 C 34.019533,85.556199 35.476879,85.823307 36.009212,85.494306 C 36.552962,85.158251 36.716125,85.576191 36.381557,86.448062 C 35.579198,88.538977 34.66773,88.402925 32.404988,85.854491 z M 87.539936,83.75 C 88.342542,81.073499 91,77.992642 91,79.738661 C 91,81.640993 88.752805,86 87.772097,86 C 87.273317,86 87.168845,84.9875 87.539936,83.75 z M 85,58.116577 C 85,57.630695 86.128935,57.017345 87.508745,56.753577 C 89.539321,56.365408 89.801884,56.533789 88.8863,57.637 C 87.622642,59.159615 85,59.483254 85,58.116577 z M 105.15789,56 C 105.15789,54.625 105.38487,54.0625 105.66228,54.75 C 105.93969,55.4375 105.93969,56.5625 105.66228,57.25 C 105.38487,57.9375 105.15789,57.375 105.15789,56 z M 111.72917,54.395833 C 111.32812,53.994792 111.01368,52.729167 111.03041,51.583333 C 111.05849,49.659742 111.14059,49.637072 112.10118,51.287676 C 113.21979,53.209792 112.93366,55.600331 111.72917,54.395833 z M 101,49.559017 C 101,48.701558 101.45,48 102,48 C 102.55,48 103,48.423442 103,48.940983 C 103,49.458524 102.55,50.160081 102,50.5 C 101.45,50.839919 101,50.416476 101,49.559017 z M 19,48.204232 C 19,46.36727 20.186379,44 21.106989,44 C 22.5378,44 22.13697,46.641436 20.5,48 C 19.591767,48.753767 19,48.834339 19,48.204232 z M 109.49574,40.337349 C 108.56663,37.141324 107.16344,33.282956 106.37754,31.763197 C 105.59165,30.243439 105.17605,29 105.454,29 C 106.3351,29 109.7461,36.343377 110.96138,40.856565 C 112.7365,47.448874 111.4284,46.985467 109.49574,40.337349 z M 62.638374,38.5 C 62.321791,37.675 61.400204,37 60.590402,37 C 59.780599,37 58.839919,36.55 58.5,36 C 58.160081,35.45 58.33343,35 58.885219,35 C 60.311037,35 65.740675,39.930143 64.356989,39.968399 C 63.728333,39.985779 62.954956,39.325 62.638374,38.5 z M 25.380823,31.845886 C 26.112526,28.18737 32.461584,20 34.56695,20 C 36.792946,20 36.296431,21.308085 32.453349,25.568347 C 30.502691,27.730756 28.646441,30.7375 28.328349,32.25 C 28.008526,33.770734 27.079491,35 26.25,35 C 25.10038,35 24.897352,34.263242 25.380823,31.845886 z M 50,24.40121 C 50,23.685991 55.520568,18.449215 58.402583,16.430573 C 60.639167,14.864009 70.038086,14.383872 68.45,15.917308 C 67.9275,16.421828 66.007766,17.062257 64.183924,17.340484 C 62.360083,17.618712 60.110083,18.693565 59.183924,19.729047 C 55.817715,23.492603 50,26.452265 50,24.40121 z M 98.924314,21.25 L 96.5,18.5 L 99.25,20.924314 C 100.7625,22.257687 102,23.495187 102,23.674314 C 102,24.458588 101.1902,23.820289 98.924314,21.25 z M 42.823804,19.490471 C 42.086354,18.753021 49.924877,10.495074 52.684259,9.1024036 C 57.596872,6.622989 56.989369,8.319729 51.020228,13.75 C 44.211591,19.943981 43.662134,20.3288 42.823804,19.490471 z"
         id="path2392" />
      <path
         style="fill:#416992"
         d="M 70.248035,105.5664 C 71.107364,104.63745 72.048827,104.50425 73.25,105.14169 C 75.571123,106.37345 75.498015,106.46488 71.996047,106.7099 C 69.518967,106.88321 69.214288,106.6839 70.248035,105.5664 z M 48.867368,103.03554 C 41.171111,97.937749 36.096917,90.294204 39.154508,88.404508 C 39.869808,87.962429 40.037571,88.130192 39.595492,88.845492 C 39.172691,89.529596 39.517186,90 40.440983,90 C 41.298442,90 41.946711,90.3375 41.881579,90.75 C 41.410134,93.735819 45.186854,98.674019 51.364185,103.14885 C 56.563067,106.91491 54.588877,106.82531 48.867368,103.03554 z M 56.5,93 C 53.2,92.634918 51.2875,92.260567 52.25,92.168108 C 53.42797,92.05495 54,91.144691 54,89.383369 C 54,87.157832 54.336296,86.856861 56.25,87.369714 C 57.4875,87.701351 59.950944,87.978835 61.72432,87.986345 C 64.288651,87.997205 65.266189,88.614073 66.5,91 C 68.273601,94.429766 68.68323,94.34784 56.5,93 z M 81.25,93.294267 C 78.507904,92.766116 78.495556,92.552276 80.97544,88.539739 C 83.484552,84.479911 88.063252,82.042119 87.23571,85.206645 C 86.320151,88.707749 89.227753,86.751396 90.605028,82.939631 C 91.288577,81.047834 91.882079,79.912375 91.923922,80.41639 C 92.016413,81.53048 100,73.022163 100,71.809503 C 100,71.337759 101.58484,68.647839 103.52186,65.831904 C 105.45888,63.015969 107.5359,58.757406 108.13745,56.368431 C 109.31522,51.69107 111,51.39125 111,55.859017 C 111,57.366558 111.44105,59.041049 111.98011,59.580108 C 113.62932,61.229318 108.72263,77 106.56031,77 C 105.91792,77 103.84156,78.61103 101.94617,80.580067 C 95.99701,86.760378 89.51257,91 86.009034,91 C 83.554977,91 82.923352,91.357874 83.361626,92.5 C 83.678209,93.325 83.838854,93.938718 83.718615,93.863818 C 83.598377,93.788918 82.4875,93.53262 81.25,93.294267 z M 47.419523,88.75 C 46.60639,86.9625 45.127645,84.15 44.133423,82.5 C 41.417096,77.992015 37.889303,68 39.014035,68 C 39.556316,68 40,68.513211 40,69.140469 C 40,71.819909 44.652194,79.297465 46.835715,80.127639 C 48.296555,80.683049 48.9944,81.572209 48.657833,82.449291 C 48.309885,83.356028 49.087852,84.227716 50.806177,84.856445 C 53.211317,85.736477 53.265204,85.850566 51.309017,85.921053 C 48.462031,86.023638 47.640751,87.46022 48.98894,89.979333 C 49.583725,91.0907 49.806573,92 49.484157,92 C 49.161741,92 48.232656,90.5375 47.419523,88.75 z M 26.384615,68.041238 C 26.384615,64.96047 25.789607,62.404095 24.813522,61.291238 C 22.659816,58.835751 24.074979,37.097172 26.476008,35.753488 C 27.314204,35.284411 28.001682,34.36048 28.003738,33.70031 C 28.008462,32.183274 31.962299,25.628965 32.530158,26.196825 C 32.762469,26.429136 32.088024,28.894435 31.03139,31.675268 C 27.968381,39.736453 26.703356,52.131444 27.938398,61.981089 C 29.278836,72.671294 29.271495,73 27.692308,73 C 26.791194,73 26.384615,71.458258 26.384615,68.041238 z M 35.32814,54.5 C 35.332577,50.65 35.513323,49.197537 35.729798,51.272304 C 35.946274,53.347072 35.942644,56.497072 35.721732,58.272304 C 35.50082,60.047537 35.323704,58.35 35.32814,54.5 z M 37.140182,52 C 37.048062,48.425 36.68295,44.417133 36.328822,43.093628 C 35.840973,41.270359 36.00078,40.882448 36.98832,41.492781 C 37.991382,42.112708 38.133645,41.668618 37.605761,39.565364 C 37.105346,37.571551 37.243731,37.0326 38.117442,37.572583 C 38.944193,38.083543 39.153923,37.696605 38.794727,36.323039 C 38.476272,35.105265 38.768936,34.333333 39.549087,34.333333 C 40.523099,34.333333 40.576928,34.94268 39.777294,36.916667 C 39.201735,38.3375 38.410614,43.775 38.019249,49 C 37.3665,57.714637 37.293828,57.962646 37.140182,52 z M 40.711539,30.378205 C 38.718718,28.385385 50.567644,12 54.001553,12 C 56.785465,12 62.956237,9.10682 60.5,8.9531891 C 59.060505,8.8631526 59.340758,8.5681974 61.5,7.9007271 C 65.246371,6.7426395 75.435794,7.5368336 80.711201,9.3981056 C 86.443737,11.420662 93.2895,15.043833 92.628114,15.70522 C 92.31698,16.016353 90.939205,15.53496 89.566392,14.635458 C 88.193578,13.735956 86.363702,13 85.5,13 C 84.636298,13 82.806952,12.264391 81.434786,11.365313 C 77.412263,8.7296546 61.554929,9.8985381 55.833046,13.252481 C 50.919714,16.132484 45.885137,21.945806 43.630016,27.343069 C 42.049283,31.126297 41.760234,31.4269 40.711539,30.378205 z M 35.607011,19.173148 C 35.285267,18.652554 35.702941,17.6615 36.535176,16.970806 C 38.571477,15.280827 39.150509,16.073681 37.51424,18.311413 C 36.787009,19.305961 35.928756,19.693741 35.607011,19.173148 z"
         id="path2390" />
      <path
         style="fill:#925327"
         d="M 76,125.15072 C 76,124.60949 76.5625,123.93969 77.25,123.66228 C 77.9375,123.38487 73.050307,123.12237 66.389571,123.07895 C 59.728835,123.03553 52.121019,122.7042 49.483312,122.34266 C 45.97162,121.86133 44.879005,121.99521 45.402757,122.84266 C 46.353814,124.3815 45.484095,124.3017 42.071521,122.53699 C 39.052498,120.97579 37.980683,119.15337 38.031803,115.66821 C 38.062302,113.58898 38.121431,113.57634 39.472642,115.36022 C 40.838111,117.16293 40.976261,117.15309 43.940838,115.04213 C 47.334027,112.62596 47.868269,111.72958 45.335955,112.70132 C 44.214673,113.1316 43.908492,112.95708 44.39724,112.16627 C 44.825135,111.47392 46.14357,111.24891 47.612393,111.61756 C 49.369426,112.05855 50.486986,111.71627 51.409562,110.45457 C 52.178096,109.40354 53.99354,108.66667 55.814465,108.66667 C 57.518122,108.66667 58.749619,108.40417 58.551125,108.08333 C 58.043776,107.26329 72.021273,107.55459 74.750939,108.42095 C 75.987923,108.81355 77,109.77945 77,110.56739 C 77,111.35532 77.612193,112 78.360429,112 C 79.108665,112 81.878981,112.2958 84.516688,112.65734 C 88.455339,113.19719 89.181968,113.06314 88.582102,111.90734 C 88.180373,111.1333 88.560056,111.37351 89.425843,112.44113 C 92.969704,116.81115 89.418376,123.15763 82.670985,124.51256 C 80.926943,124.86277 78.7125,125.37104 77.75,125.64204 C 76.7875,125.91305 76,125.69195 76,125.15072 z M 70,114 C 71.704888,113.454 69.955641,113.19001 64.5,113.16997 C 59.177142,113.15041 57.169285,113.42817 58.5,114 C 60.978804,115.06518 66.673977,115.06518 70,114 z M 57.279017,102.2431 C 58.143075,101.76715 51.184773,97.981392 49.538558,98.031803 C 48.967351,98.049295 49.373508,98.724295 50.44113,99.531803 C 51.508751,100.33931 51.881316,101 51.269053,101 C 49.471786,101 43.438828,93.344816 41.652771,88.797958 C 40.747158,86.492492 40.364817,85.032307 40.803123,85.553101 C 41.24143,86.073896 43.295162,88.6375 45.366972,91.25 C 47.438782,93.8625 49.608872,96 50.189394,96 C 50.809312,96 50.678514,95.277817 49.872445,94.25 C 48.634157,92.671063 48.667938,92.631563 50.218029,93.845912 C 51.162946,94.586163 51.837946,95.711163 51.718029,96.345912 C 51.598113,96.98066 52.282657,97.438307 53.239238,97.362905 C 54.228326,97.28494 54.696709,97.681719 54.325193,98.282844 C 53.914088,98.948025 54.308041,99.095771 55.387893,98.681393 C 56.54431,98.237634 56.870401,98.400679 56.387893,99.181393 C 55.905385,99.962107 56.231476,100.12515 57.387893,99.681393 C 58.498583,99.255181 58.865013,99.409397 58.426708,100.11859 C 57.99386,100.81895 58.426116,101.02533 59.624771,100.69059 C 60.656147,100.40257 63.525,100.52303 66,100.95829 L 70.5,101.74967 L 64.831787,101.87483 C 61.714271,101.94368 58.564271,102.15125 57.831787,102.3361 C 57.099304,102.52096 56.850558,102.47911 57.279017,102.2431 z M 31.453795,86.25 C 29.559463,84.1875 28.022376,82.05 28.038047,81.5 C 28.053717,80.95 28.895704,81.493364 29.909127,82.707475 C 30.922551,83.921587 32.104726,84.596587 32.536183,84.207475 C 32.96764,83.818364 33.021187,84.023279 32.655175,84.662842 C 32.28298,85.31321 33.203915,86.731548 34.74485,87.881162 C 36.260182,89.011675 36.914558,89.950896 36.199017,89.96832 C 35.483477,89.985744 33.348127,88.3125 31.453795,86.25 z M 88.210573,85.600859 C 88.919758,84.831332 89.657561,84.351393 89.850136,84.534328 C 90.443284,85.097787 88.939997,87 87.901556,87 C 87.362331,87 87.501389,86.370387 88.210573,85.600859 z M 35.804805,84.65005 L 38.109609,83.370971 L 35.595769,82.225589 C 33.657123,81.342283 32.557731,79.412151 30.790964,73.790103 C 27.572657,63.549093 27.613815,41.922128 30.865601,34.570926 C 32.039521,31.917087 33,29.143234 33,28.406809 C 33,26.447196 36.228991,20 37.210436,20 C 37.672443,20 40.897392,17.351496 44.376991,14.114435 C 47.856589,10.877374 51.676773,7.919976 52.866288,7.5424387 C 54.055802,7.1649014 54.796886,6.480372 54.513141,6.0212624 C 54.229395,5.5621527 54.968228,5.4404367 56.154992,5.7507823 C 57.633583,6.1374426 58.087572,5.9507122 57.597355,5.1575235 C 56.593722,3.5336116 64.511316,3.7714152 69,5.5 L 72.5,6.8478441 L 67.717881,6.9239221 C 61.949609,7.0156885 55.536045,9.4402874 56.58254,11.133552 C 57.04773,11.886246 56.876319,12.041595 56.10595,11.565481 C 55.18473,10.996135 55.177218,10.491391 56.073886,9.4109723 C 56.968664,8.3328317 56.968404,8 56.072785,8 C 52.581013,8 45.125802,14.383713 40.204223,21.587856 C 30.730453,35.455438 29.934796,64.334765 38.564306,81.110624 C 39.809603,83.531495 39.725453,83.804062 37.406553,84.860624 C 34.042741,86.393279 32.927763,86.246699 35.804805,84.65005 z M 38.398157,66.595196 C 38.101666,65.822554 38.016425,63.685054 38.208733,61.845196 C 38.515299,58.912194 38.617283,59.085293 39.036397,63.25 C 39.526614,68.121249 39.346339,69.066119 38.398157,66.595196 z M 21,48 C 21,47.45 21.45,47 22,47 C 22.55,47 23,47.45 23,48 C 23,48.55 22.55,49 22,49 C 21.45,49 21,48.55 21,48 z"
         id="path2388" />
      <path
         style="fill:#494340"
         d="M 39.603744,115.40976 C 38.797264,113.3081 39.514307,112.30252 43.165885,110.41422 C 48.682724,107.56135 55.166615,106.0188 57.159126,107.08516 C 59.68365,108.43625 59.494146,108.66667 55.858454,108.66667 C 53.99528,108.66667 52.184917,109.39421 51.409562,110.45457 C 50.486986,111.71627 49.369426,112.05855 47.612393,111.61756 C 46.14357,111.24891 44.825135,111.47392 44.39724,112.16627 C 43.895095,112.97876 44.260864,113.13409 45.585955,112.67107 C 46.795566,112.24841 46.395897,112.92011 44.5,114.49617 C 40.974778,117.42668 40.417605,117.53065 39.603744,115.40976 z M 80.25,112.2766 C 78.249643,112.02836 77,111.31127 77,110.41164 C 77,109.58097 75.677969,108.68559 73.9375,108.3375 C 72.238334,107.99767 71.256219,107.34378 71.731344,106.86866 C 72.87386,105.72614 85.787935,109.35936 87.824985,111.39641 C 89.56133,113.13276 88.315484,113.27752 80.25,112.2766 z M 59.197214,106.14305 C 58.480681,105.68857 58.030681,104.76914 58.197214,104.09988 C 58.363746,103.43062 56.756157,102.26801 54.624794,101.51631 C 52.493431,100.76462 50.265931,99.665931 49.674794,99.074794 C 47.971794,97.371794 50.172664,97.793799 54.5,100 C 56.805502,101.17541 60.397178,102 63.211442,102 C 65.845149,102 68,102.45 68,103 C 68,103.55 68.675,104 69.5,104 C 71.480288,104 71.424817,105.623 69.418213,106.39301 C 67.137486,107.26821 60.723848,107.11136 59.197214,106.14305 z M 60.993526,100.06566 C 53.815111,97.882084 46.09019,91.017434 42.174809,83.342653 C 37.474499,74.129286 35.993651,67.195336 36.139932,55.084844 L 36.279863,43.5 L 37.094155,53.5 C 38.462341,70.30217 39.545342,74.74938 44.15634,82.5 C 45.137958,84.15 46.599698,86.946484 47.404652,88.714409 C 49.022824,92.268409 49.892878,92.578931 60.852694,93.514015 C 66.792349,94.020783 68.056528,93.887536 67.4308,92.820671 C 67.004776,92.094302 67.682076,92.4 68.935911,93.5 C 71.379837,95.644077 74.65584,95.652509 76.862279,93.5204 C 77.794294,92.619783 79.115974,92.459668 81.046913,93.013455 C 83.280075,93.653917 83.7562,93.528242 83.327646,92.411448 C 82.930347,91.376104 83.644847,91 86.009034,91 C 89.51257,91 95.99701,86.760378 101.94617,80.580067 C 105.82595,76.549539 107.6564,75.90499 105.89936,79.188048 C 103.89491,82.933396 96.018371,90.78072 91.151612,93.881094 C 81.929632,99.755965 68.816097,102.44518 60.993526,100.06566 z M 39.732357,87.915465 C 40.146807,86.330606 40.480255,86.150827 41.123425,87.165465 C 42.355277,89.108785 42.1887,90 40.59362,90 C 39.660558,90 39.370699,89.298448 39.732357,87.915465 z M 28.514593,80.906686 C 22.157511,75.046933 16.985337,59.173026 19.523202,53.31123 C 19.954497,52.315054 20.210521,50.715996 20.092145,49.757769 C 19.942996,48.550445 20.356347,48.199513 21.438458,48.614758 C 23.382324,49.360689 23.405507,48.301063 21.524233,44.694276 C 20.227481,42.20814 20.243527,41.43184 21.665099,37.878982 C 24.267796,31.374201 25.097744,34.630586 24.132945,47.561826 C 23.365758,57.844469 23.460124,59.748401 24.813427,61.291238 C 25.789626,62.404157 26.384615,64.960297 26.384615,68.041238 C 26.384615,71.458258 26.791194,73 27.692308,73 C 28.411538,73 29.025275,71.9875 29.056167,70.75 C 29.087059,69.5125 30.009478,71.332362 31.105988,74.794139 C 32.579788,79.447054 33.745935,81.382748 35.578198,82.217583 C 37.380607,83.038816 37.708015,83.568196 36.778378,84.158132 C 34.467983,85.62428 33.010412,85.050788 28.514593,80.906686 z M 111.72917,59.395833 C 111.32812,58.994792 111.01368,57.729167 111.03041,56.583333 C 111.05849,54.659742 111.14059,54.637072 112.10118,56.287676 C 113.21979,58.209792 112.93366,60.600331 111.72917,59.395833 z M 27.286014,53.5 C 27.293522,50.75 27.487727,49.743687 27.717581,51.26375 C 27.947436,52.783812 27.941293,55.033812 27.703931,56.26375 C 27.466569,57.493687 27.278507,56.25 27.286014,53.5 z M 28.252183,44.5 C 28.241084,42.3 28.436788,41.282253 28.68708,42.238341 C 28.937373,43.194428 28.946454,44.994428 28.707261,46.238341 C 28.468068,47.482253 28.263283,46.7 28.252183,44.5 z M 38.051265,37 C 38.109459,34.758498 40.823106,29.208866 40.918781,31.135693 C 40.963452,32.035324 40.327772,34.060324 39.506161,35.635693 C 38.684549,37.211062 38.029846,37.825 38.051265,37 z M 30.579248,33 C 31.541185,29.371022 32.94088,26.993528 32.934156,29 C 32.931391,29.825 32.251303,31.625 31.422849,33 L 29.91657,35.5 L 30.579248,33 z M 37,19.083321 C 37,16.079659 49.705838,6.7418357 55.5,5.487231 C 57.657091,5.020158 57.095151,5.5292916 53.5,7.2992895 C 50.75,8.6531948 46.7,11.650348 44.5,13.95963 C 40.124682,18.552286 37,20.68694 37,19.083321 z M 56,10.5 C 57.375,9.713979 59.4,9.08916 60.5,9.1115133 C 61.809584,9.1381257 61.291772,9.6174425 59,10.5 C 54.373053,12.281829 52.883015,12.281829 56,10.5 z"
         id="path2386" />
    </g>
    <path
       style="fill:#190f00;display:inline;fill-opacity:0.85018724"
       d="M 16.824839,47.164402 C 15.999839,46.872528 14.935457,46.184253 14.459547,45.634908 C 13.708476,44.767938 13.164273,44.588846 10.336913,44.278166 C 5.894351,43.790002 5.8759006,43.444079 10.308371,43.743044 L 13.916903,43.986434 L 14.142817,42.856867 C 14.360832,41.766791 15.686418,40.872854 18.307334,40.048436 C 18.987917,39.834356 18.969587,39.771948 18.048683,39.167846 C 16.552993,38.186688 10.953573,32.39482 9.6475797,30.478004 C 6.1426711,25.333827 5.6314078,18.416757 8.3320235,12.679372 C 9.6770289,9.8219446 11.525965,7.6179649 14.70161,5.0866579 C 20.074432,0.80398254 22.482013,0.37336011 28.962555,2.5359307 C 33.919216,4.1899789 35.512981,5.1408807 38.208618,8.0524883 C 46.476517,16.982808 43.952515,31.203747 33.139503,36.613275 C 31.657789,37.354547 29.60903,38.072002 28.586706,38.207617 C 26.820467,38.441917 26.770794,38.478944 27.588887,38.951388 C 29.689035,40.164221 32.884218,40.960961 33.743139,40.485993 C 34.353248,40.148609 34.385139,40.174357 33.976465,40.674348 C 33.590802,41.146184 33.608173,41.340704 34.070215,41.724168 C 34.884757,42.400177 34.816923,45.199244 33.967365,45.968081 C 32.696398,47.118292 30.583898,47.728634 27.993134,47.694161 L 25.449839,47.660317 L 28.16561,47.167919 C 31.074207,46.640561 33.197369,45.640016 33.343438,44.727851 C 33.392966,44.418562 33.471214,43.996754 33.517322,43.790504 C 33.736878,42.808387 33.378251,42.375502 31.731089,41.634412 C 30.205203,40.947888 29.210627,40.828413 24.793589,40.801034 C 20.405825,40.773836 19.636483,40.854506 19.631597,41.342287 C 19.626749,41.826228 19.5734,41.832633 19.289065,41.383409 C 19.001629,40.929284 18.700469,40.947476 17.233931,41.507553 C 15.304124,42.244552 14.798861,42.874994 15.056762,44.224117 C 15.29018,45.445166 16.598848,46.255319 19.605734,47.040236 L 22.074839,47.684771 L 20.199839,47.689927 C 19.168589,47.692766 17.649839,47.456279 16.824839,47.164402 z M 24.582652,40.346838 C 24.311948,40.238512 23.988511,40.251832 23.863901,40.376441 C 23.739292,40.501053 23.960777,40.589681 24.356089,40.573398 C 24.792943,40.555406 24.881801,40.466546 24.582652,40.346838 z M 27.137339,39.643372 C 27.137339,39.552419 26.968589,39.478004 26.762339,39.478004 C 26.556089,39.478004 26.387339,39.656714 26.387339,39.875137 C 26.387339,40.093559 26.556089,40.167974 26.762339,40.040504 C 26.968589,39.913034 27.137339,39.734324 27.137339,39.643372 z M 25.262339,39.095861 C 25.262339,38.869001 24.843291,38.814247 24.231089,38.961112 C 22.758844,39.314306 22.70936,39.478004 24.074839,39.478004 C 24.727964,39.478004 25.262339,39.306041 25.262339,39.095861 z M 18.137339,38.230871 C 18.137339,38.163701 17.673277,37.699638 17.106089,37.199622 L 16.074839,36.290504 L 16.983957,37.321754 C 17.833664,38.285613 18.137339,38.524976 18.137339,38.230871 z M 22.262339,37.978004 C 22.571714,37.778069 22.656089,37.614491 22.449839,37.614491 C 22.243589,37.614491 21.821714,37.778069 21.512339,37.978004 C 21.202964,38.177939 21.118589,38.341518 21.324839,38.341518 C 21.531089,38.341518 21.952964,38.177939 22.262339,37.978004 z M 24.786452,38.093133 C 24.421589,37.998056 23.915339,38.004307 23.661452,38.107027 C 23.407565,38.209751 23.706089,38.287541 24.324839,38.279898 C 24.943589,38.272256 25.151315,38.188211 24.786452,38.093133 z M 20.199839,37.542877 C 19.787339,37.3161 18.852161,36.604044 18.121665,35.96053 C 17.225729,35.171276 17.310155,35.309172 18.381086,36.384254 C 19.254264,37.260817 20.189442,37.972874 20.45926,37.966601 C 20.729079,37.960331 20.612339,37.769654 20.199839,37.542877 z M 29.319276,37.025976 C 30.672733,36.624043 31.264082,36.254224 31.268081,35.807226 C 31.272526,35.310496 31.345761,35.279 31.592212,35.667827 C 32.404763,36.949794 37.852795,32.548304 40.010283,28.866831 C 41.077941,27.045009 41.379456,25.835886 40.562339,26.653004 C 40.314839,26.900504 39.945085,27.103004 39.740665,27.103004 C 39.536245,27.103004 39.641958,26.892067 39.975588,26.634254 C 41.303748,25.607907 42.184341,23.118855 42.22162,20.285697 C 42.281538,15.731699 40.738994,11.855115 37.507287,8.4380622 C 35.500046,6.3157005 33.815105,5.1955523 33.312261,5.64921 C 33.14992,5.7956719 33.130527,5.7174406 33.269167,5.4753627 C 33.43258,5.1900286 32.7893,4.7613676 31.440222,4.2566127 C 30.295662,3.8283781 29.192569,3.4780043 28.988903,3.4780043 C 28.785238,3.4780043 27.658354,3.1405043 26.484717,2.7280043 C 25.311081,2.3155043 23.754359,1.9948253 23.025336,2.0153843 C 21.921114,2.0465242 21.84772,2.0942622 22.585687,2.3013479 C 23.366632,2.5204938 23.277816,2.6019266 21.835687,2.9889995 C 17.183008,4.2377971 13.050031,11.250959 12.726315,18.446505 C 12.655944,20.010705 12.667172,20.784254 12.751267,20.165504 C 13.428728,15.180881 13.805877,13.521019 14.807934,11.113971 C 15.910033,8.4666113 18.840074,4.6030043 19.745653,4.6030043 C 19.973249,4.6030043 19.577924,5.2358168 18.867152,6.0092543 L 17.574839,7.4155043 L 18.887339,6.2179711 C 20.708876,4.5559887 23.243475,3.487432 25.262339,3.5303471 L 26.949839,3.5662184 L 25.153485,3.8681851 C 24.165491,4.0342669 22.731116,4.492566 21.965985,4.8866277 C 20.26703,5.7616335 16.911243,9.7856123 17.140842,10.672536 C 17.230831,11.020153 17.107172,11.380273 16.866045,11.472802 C 16.624919,11.565331 16.032321,12.846851 15.549162,14.320623 C 14.770289,16.696407 14.69134,17.498519 14.852824,21.395357 C 15.006546,25.104876 15.189191,26.12854 16.023649,27.957447 C 16.567428,29.149265 17.012339,30.33224 17.012339,30.586279 C 17.012339,30.840318 17.400716,31.468319 17.8754,31.981836 C 18.350083,32.495354 18.851037,33.210817 18.98863,33.571754 C 19.126224,33.932692 19.433509,34.228004 19.671487,34.228004 C 19.980176,34.228004 19.968235,34.064209 19.629818,33.656442 C 18.806435,32.664326 19.468002,32.686915 20.403647,33.682864 C 21.169089,34.497639 21.230598,34.742555 20.830629,35.383008 C 20.349255,36.153809 20.519217,36.283716 23.387339,37.337186 C 24.498114,37.745178 27.412295,37.592289 29.319276,37.025976 z M 25.729152,35.634254 C 25.52289,35.376442 25.23601,34.780395 25.09164,34.309705 C 24.832602,33.465162 24.841639,33.466396 25.778699,34.403455 C 27.090762,35.715518 28.124189,35.598098 29.618013,33.967223 C 30.316142,33.205043 30.887339,32.707173 30.887339,32.860845 C 30.887339,33.525334 29.694226,35.36307 29.033111,35.716888 C 28.040303,36.248222 26.183194,36.201776 25.729152,35.634254 z M 33.348949,31.868081 C 33.489773,31.498248 33.699458,31.290123 33.814916,31.405581 C 33.930374,31.521039 33.815154,31.823629 33.558872,32.078004 C 33.188516,32.445605 33.145442,32.402531 33.348949,31.868081 z M 22.923754,29.449053 C 22.602561,29.086851 22.274948,28.453004 22.195725,28.040504 C 22.077154,27.423128 21.768281,27.296495 20.449024,27.324384 C 19.02419,27.354504 18.9088,27.295829 19.409062,26.795567 C 20.178818,26.02581 22.389619,26.64166 22.579728,27.678801 C 22.653999,28.083988 22.977561,28.711851 23.298754,29.074053 C 23.619947,29.436255 23.798366,29.816978 23.695241,29.920103 C 23.592116,30.023228 23.244947,29.811255 22.923754,29.449053 z M 39.512339,27.853004 C 39.512339,27.646754 39.586754,27.478004 39.677707,27.478004 C 39.768659,27.478004 39.947369,27.646754 40.074839,27.853004 C 40.202309,28.059254 40.127894,28.228004 39.909472,28.228004 C 39.691049,28.228004 39.512339,28.059254 39.512339,27.853004 z M 31.644163,27.571754 C 31.647916,27.417067 32.154166,26.547923 32.769163,25.640324 C 34.151184,23.600767 34.193736,23.023437 32.944436,23.262255 C 32.205366,23.403538 32.050041,23.316093 32.225924,22.85775 C 32.497673,22.149585 34.239274,20.954939 34.54875,21.264416 C 34.670486,21.386151 34.444907,21.731768 34.047464,22.032453 C 33.638106,22.34215 33.528049,22.584322 33.793589,22.591078 C 34.656372,22.61303 34.274652,24.52575 33.073769,26.19795 C 31.883777,27.854984 31.631407,28.097504 31.644163,27.571754 z M 40.248918,24.539637 C 40.495968,24.05791 40.800952,23.766615 40.926651,23.892315 C 41.052351,24.018016 40.850215,24.412156 40.477462,24.768183 C 39.829555,25.387016 39.819498,25.376958 40.248918,24.539637 z M 39.623354,23.21061 C 40.077922,22.513543 40.504469,21.991611 40.571241,22.050761 C 40.800284,22.253663 39.493244,24.478004 39.144974,24.478004 C 38.953518,24.478004 39.168787,23.907677 39.623354,23.21061 z M 30.461524,21.955878 C 28.149236,19.201457 28.333594,17.408234 30.663881,19.987583 C 31.997312,21.463532 32.219528,22.221441 31.399029,22.494941 C 31.190615,22.564412 30.768738,22.321834 30.461524,21.955878 z M 30.137339,19.836421 C 30.137339,19.75855 29.842027,19.463238 29.481089,19.180171 C 28.886318,18.71372 28.873054,18.726983 29.339506,19.321754 C 29.829394,19.94641 30.137339,20.145059 30.137339,19.836421 z M 15.143081,19.696754 C 15.14624,19.335817 15.305337,18.793039 15.49663,18.490581 C 15.717116,18.141968 15.698206,17.76446 15.444971,17.459331 C 15.162052,17.118435 15.162874,16.978004 15.447788,16.978004 C 16.260726,16.978004 16.545235,18.172403 15.995019,19.275337 C 15.378205,20.51177 15.134897,20.632124 15.143081,19.696754 z M 37.210133,18.86548 C 36.581995,18.342189 36.489261,18.124332 36.890884,18.11548 C 37.202208,18.108618 37.667703,18.440504 37.925313,18.853004 C 38.514966,19.797192 38.332345,19.800378 37.210133,18.86548 z M 21.958158,18.21035 C 21.481484,18.119315 20.999367,17.804795 20.886787,17.511418 C 20.625479,16.83046 19.730796,16.836073 18.406243,17.526981 C 17.832266,17.826377 17.462537,17.909712 17.584625,17.712171 C 17.706712,17.514629 17.623559,17.353004 17.39984,17.353004 C 16.755845,17.353004 18.030572,15.19025 19.079748,14.502804 C 19.589488,14.168809 20.255572,13.9911 20.559935,14.107895 C 20.864297,14.224689 21.213059,14.158869 21.334961,13.961627 C 21.718735,13.340667 22.637909,13.569484 23.591885,14.523459 C 24.225407,15.156981 24.512339,15.27388 24.512339,14.898459 C 24.512339,14.187417 25.416609,14.197693 26.012339,14.915504 C 26.269097,15.224879 26.701676,15.478004 26.973624,15.478004 C 27.245573,15.478004 27.563242,15.631986 27.679556,15.820186 C 27.79587,16.008386 27.432569,16.112041 26.872219,16.05053 C 26.311869,15.989019 25.787744,15.741718 25.707495,15.500972 C 25.613965,15.220382 25.387829,15.300883 25.077544,15.725223 C 24.680353,16.268414 24.491276,16.302357 24.023804,15.91439 C 23.611751,15.572416 23.38237,15.557663 23.194851,15.861074 C 23.05226,16.091793 22.573174,16.420109 22.130216,16.590665 C 21.356287,16.888658 21.366889,16.917233 22.401703,17.322446 C 23.202487,17.636018 23.61053,17.634606 23.993298,17.316937 C 24.2764,17.081983 24.955188,16.975227 25.501716,17.079703 C 26.048243,17.184178 26.988545,17.128226 27.591276,16.955366 C 28.387461,16.727022 28.646684,16.764057 28.539181,17.090789 C 28.457798,17.338132 27.560653,17.592816 26.545526,17.656752 C 25.530398,17.720689 24.539526,17.931627 24.343589,18.125502 C 23.979769,18.485495 23.49007,18.502913 21.958158,18.21035 z M 20.823647,16.228004 C 21.590583,16.228004 22.338484,16.033181 22.485649,15.795064 C 22.659859,15.513185 22.58753,15.464525 22.278353,15.655607 C 22.001725,15.826573 21.666839,15.73335 21.476155,15.432297 C 21.239119,15.058063 21.147239,15.04481 21.143081,15.384254 C 21.139923,15.642067 20.884214,15.853004 20.574839,15.853004 C 20.265464,15.853004 20.012339,15.674295 20.012339,15.455873 C 20.012339,15.237451 20.181089,15.163035 20.387339,15.290504 C 20.593589,15.417974 20.762339,15.353517 20.762339,15.147267 C 20.762339,14.236031 19.998302,14.45748 18.925118,15.67977 C 17.553374,17.2421 17.443829,17.618625 18.595779,16.811768 C 19.054171,16.490698 20.056712,16.228004 20.823647,16.228004 z M 23.157431,14.659387 C 23.049128,14.484148 22.803426,14.437857 22.611427,14.556519 C 22.120784,14.859753 22.17603,14.978004 22.808343,14.978004 C 23.108646,14.978004 23.265735,14.834627 23.157431,14.659387 z M 15.512339,15.451273 C 15.512339,15.287523 15.841228,15.04916 16.243203,14.921578 C 16.730586,14.766888 16.900242,14.477382 16.752464,14.052557 C 16.5461,13.459313 16.576255,13.458159 17.190971,14.035769 C 17.554033,14.376914 17.749234,14.820828 17.624752,15.022243 C 17.340302,15.482494 15.512339,15.853752 15.512339,15.451273 z M 25.845754,14.011845 C 25.498627,13.450182 26.047876,12.477588 26.70871,12.483747 C 27.047581,12.486905 27.577964,12.663206 27.887339,12.875528 C 28.334924,13.182702 28.265435,13.238986 27.547196,13.151036 C 27.050743,13.090243 26.582138,13.222882 26.505852,13.445789 C 26.419691,13.697547 26.83265,13.803012 27.595994,13.724199 C 28.592729,13.62129 28.683175,13.663715 28.074839,13.948808 C 27.090877,14.409935 26.108949,14.437703 25.845754,14.011845 z M 18.512339,11.819838 C 18.512339,11.613588 18.765464,11.234763 19.074839,10.978004 C 19.388617,10.717592 19.637339,10.676986 19.637339,10.886171 C 19.637339,11.092421 19.384214,11.471246 19.074839,11.728004 C 18.761062,11.988417 18.512339,12.029023 18.512339,11.819838 z M 18.762339,9.9780042 C 18.271713,9.4873786 18.524553,9.1764132 19.258121,9.3682455 C 19.668302,9.4755102 19.911467,9.7128368 19.79849,9.8956381 C 19.554724,10.290061 19.109766,10.325432 18.762339,9.9780042 z M 21.437339,9.7780043 C 21.684839,9.5305043 21.887339,8.9736293 21.887339,8.5405043 C 21.887339,7.7175136 22.531876,6.8530043 23.145459,6.8530043 C 23.342426,6.8530043 23.24632,7.1483168 22.931892,7.5092543 C 22.617464,7.8701918 22.438514,8.3821155 22.534225,8.6468625 C 22.734119,9.1997937 21.990959,10.228004 21.391422,10.228004 C 21.128154,10.228004 21.144155,10.071188 21.437339,9.7780043 z M 22.824839,8.3530043 C 22.697369,8.1467543 22.761826,7.9780043 22.968076,7.9780043 C 23.174326,7.9780043 23.447369,8.1467543 23.574839,8.3530043 C 23.702309,8.5592543 23.637852,8.7280043 23.431602,8.7280043 C 23.225352,8.7280043 22.952309,8.5592543 22.824839,8.3530043 z M 20.012339,4.3963692 C 20.012339,4.1675333 22.442057,3.0942827 22.906544,3.1179465 C 23.170355,3.1313866 20.421792,4.6030043 20.132879,4.6030043 C 20.066582,4.6030043 20.012339,4.5100185 20.012339,4.3963692 z M 19.132141,35.791322 C 18.79035,35.413647 18.595446,34.991772 18.699021,34.853822 C 18.802596,34.715873 18.774471,34.687748 18.636521,34.791323 C 18.498571,34.894898 18.034508,34.687557 17.605271,34.330567 C 17.176033,33.973576 17.40638,34.310708 18.117152,35.079749 C 18.827924,35.848789 19.48689,36.478004 19.581522,36.478004 C 19.676154,36.478004 19.473932,36.168998 19.132141,35.791322 z M 16.048549,34.697751 C 15.447198,33.779973 15.450484,33.74885 16.121923,34.00274 C 16.8085,34.262355 16.80854,34.252808 16.123627,33.592019 C 15.614014,33.100355 15.37493,33.043585 15.248627,33.384254 C 15.153044,33.642067 14.851003,33.853004 14.577425,33.853004 C 14.271131,33.853004 14.452865,34.277916 15.05041,34.958891 C 16.201795,36.271034 16.950975,36.075028 16.048549,34.697751 z M 17.35791,32.446754 C 16.895582,31.673317 16.354912,30.871754 16.156423,30.665504 C 15.745109,30.238107 16.480945,31.744457 17.301321,33.009254 C 18.212434,34.413944 18.258731,33.953751 17.35791,32.446754 z M 13.262339,32.580625 C 13.262339,32.499567 13.000449,32.332749 12.680362,32.20992 C 12.34664,32.081859 12.196117,32.144727 12.327494,32.3573 C 12.547715,32.713626 13.262339,32.884343 13.262339,32.580625 z M 14.762339,32.380501 C 14.762339,32.189374 15.01102,31.978436 15.314964,31.911751 C 15.618908,31.845065 15.745471,31.619545 15.596215,31.410594 C 15.429606,31.177352 15.004274,31.358318 14.494489,31.879344 C 13.890694,32.496454 13.813957,32.728004 14.213239,32.728004 C 14.515244,32.728004 14.762339,32.571628 14.762339,32.380501 z M 13.58833,31.266229 C 14.019654,30.99299 14.006852,30.648875 13.508321,29.115722 C 11.337391,22.439362 11.249842,17.190246 13.215413,11.554202 C 13.84497,9.7490243 14.805115,7.6885647 15.34907,6.9754028 C 15.893026,6.2622409 16.249092,5.5897568 16.140329,5.480994 C 15.762112,5.1027769 13.684307,8.4084057 12.496553,11.277962 C 11.839194,12.86611 11.212087,14.249879 11.102982,14.353004 C 10.859889,14.582773 11.23028,12.560904 11.612305,11.572737 C 11.806341,11.070833 11.75785,10.936516 11.451066,11.126119 C 10.702121,11.588993 10.964538,10.958787 12.137339,9.4780043 C 13.328854,7.9735935 13.481169,7.6030043 12.907978,7.6030043 C 12.267907,7.6030043 9.546659,11.7561 9.7830643,12.372162 C 9.9792136,12.883319 10.072148,12.870446 10.510149,12.271443 C 11.227595,11.290277 11.134033,12.137382 10.410931,13.169755 C 10.080157,13.642001 9.5905344,13.944351 9.3228819,13.841643 C 8.648729,13.582947 8.3911543,14.836859 8.6571309,17.082615 C 8.8134009,18.402072 8.7572405,18.894116 8.4705924,18.716958 C 7.9206492,18.377074 7.4744139,21.429462 7.8114234,23.225877 C 8.2990828,25.825325 9.5035246,28.416962 10.963942,30.009254 C 12.493412,31.676835 12.747817,31.798684 13.58833,31.266229 z M 11.041944,26.571754 C 11.025661,26.176442 11.114292,25.954958 11.238902,26.079567 C 11.363511,26.204176 11.376833,26.527614 11.268507,26.798317 C 11.148797,27.097467 11.059938,27.008608 11.041944,26.571754 z M 9.7713028,25.422767 C 9.9141403,24.542564 9.7815335,23.809879 9.3640816,23.172767 C 8.8635012,22.408785 8.8453685,22.228004 9.2693191,22.228004 C 9.8126488,22.228004 10.262339,23.777604 10.262339,25.649879 C 10.262339,26.242848 10.104198,26.728004 9.9109156,26.728004 C 9.7176324,26.728004 9.6548068,26.140647 9.7713028,25.422767 z M 10.512339,23.103004 C 10.374839,22.965504 10.277558,22.332692 10.296159,21.696754 L 10.32998,20.540504 L 10.692538,21.800376 C 11.054875,23.059486 10.983656,23.574321 10.512339,23.103004 z M 8.762339,21.466235 C 8.762339,21.266458 9.015464,21.103004 9.324839,21.103004 C 9.634214,21.103004 9.887339,21.169325 9.887339,21.250383 C 9.887339,21.331442 9.634214,21.494896 9.324839,21.613614 C 9.015464,21.732333 8.762339,21.666012 8.762339,21.466235 z M 10.337099,18.290504 C 10.337099,17.671754 10.472207,16.743629 10.637339,16.228004 C 10.929272,15.316442 10.937579,15.321629 10.937579,16.415504 C 10.937579,17.034254 10.802471,17.962379 10.637339,18.478004 C 10.345406,19.389567 10.337099,19.384379 10.337099,18.290504 z M 14.613902,26.079567 C 14.489292,25.954958 14.400661,26.176442 14.416944,26.571754 C 14.434938,27.008608 14.523797,27.097467 14.643507,26.798317 C 14.751833,26.527614 14.738511,26.204176 14.613902,26.079567 z M 14.057494,21.266954 C 13.829428,18.2922 13.729423,17.783594 13.693453,19.415504 C 13.643467,21.683251 14.010865,25.729478 14.245461,25.494882 C 14.315025,25.425318 14.23044,23.52275 14.057494,21.266954 z M 13.113902,23.454567 C 12.989292,23.329958 12.900661,23.551442 12.916944,23.946754 C 12.934938,24.383608 13.023797,24.472467 13.143507,24.173317 C 13.251833,23.902614 13.238511,23.579176 13.113902,23.454567 z M 8.1417429,17.524331 C 8.019611,17.206061 7.8392593,17.026084 7.7409612,17.124382 C 7.6426633,17.22268 7.6734695,17.483083 7.8094194,17.703055 C 8.1791881,18.301353 8.3953119,18.185121 8.1417429,17.524331 z M 14.260694,15.384254 C 14.156664,15.126442 14.07155,15.337379 14.07155,15.853004 C 14.07155,16.368629 14.156664,16.579567 14.260694,16.321754 C 14.364724,16.063942 14.364724,15.642067 14.260694,15.384254 z M 16.250854,10.040504 C 16.250854,9.8342543 16.087273,9.9186293 15.887339,10.228004 C 15.687405,10.537379 15.523824,10.959254 15.523824,11.165504 C 15.523824,11.371754 15.687405,11.287379 15.887339,10.978004 C 16.087273,10.668629 16.250854,10.246754 16.250854,10.040504 z M 17.949839,4.2280043 C 18.323146,3.8155043 18.544205,3.4780043 18.44108,3.4780043 C 18.337955,3.4780043 17.948146,3.8155043 17.574839,4.2280043 C 17.201532,4.6405043 16.980473,4.9780043 17.083598,4.9780043 C 17.186723,4.9780043 17.576532,4.6405043 17.949839,4.2280043 z M 21.324839,46.566648 C 20.087339,46.439189 18.484214,46.067028 17.762339,45.739623 L 16.449839,45.144344 L 18.137339,45.404924 C 19.065464,45.548242 22.157852,45.665504 25.009312,45.665504 C 29.237967,45.665504 29.998459,45.743617 29.134312,46.089194 C 27.757918,46.639623 24.165645,46.859246 21.324839,46.566648 z M 5.4889014,43.376441 C 5.6135109,43.251832 5.9369484,43.238512 6.2076515,43.346838 C 6.5068014,43.466546 6.4179425,43.555406 5.9810889,43.573398 C 5.5857766,43.589681 5.3642923,43.501053 5.4889014,43.376441 z M 21.324839,43.036289 L 20.199839,42.503403 L 21.699839,42.679139 L 23.199839,42.854872 L 21.742661,42.385188 C 20.373865,41.943993 20.51602,41.915504 24.086411,41.915504 C 26.176922,41.915504 27.699494,41.978118 27.469907,42.054648 C 27.185469,42.149459 27.204708,42.287879 27.530291,42.489101 C 27.845499,42.683909 27.508991,42.922983 26.541473,43.191614 C 24.572627,43.738259 22.688356,43.682156 21.324839,43.036289 z M 26.481089,42.604649 C 26.223277,42.500621 25.801402,42.500621 25.543589,42.604649 C 25.285777,42.708678 25.496714,42.793796 26.012339,42.793796 C 26.527964,42.793796 26.738902,42.708678 26.481089,42.604649 z"
       id="path2409" />
  </g>
</svg>
