<?xml version="1.0" encoding="UTF-8" standalone="no"?>
<!-- Created with Inkscape (http://www.inkscape.org/) -->
<svg
   xmlns:dc="http://purl.org/dc/elements/1.1/"
   xmlns:cc="http://creativecommons.org/ns#"
   xmlns:rdf="http://www.w3.org/1999/02/22-rdf-syntax-ns#"
   xmlns:svg="http://www.w3.org/2000/svg"
   xmlns="http://www.w3.org/2000/svg"
   xmlns:xlink="http://www.w3.org/1999/xlink"
   xmlns:sodipodi="http://sodipodi.sourceforge.net/DTD/sodipodi-0.dtd"
   xmlns:inkscape="http://www.inkscape.org/namespaces/inkscape"
   inkscape:export-ydpi="90"
   inkscape:export-xdpi="90"
   inkscape:export-filename="/home/andreas/project/gnome-icon-theme/scalable/actions/bookmark-new.png"
   sodipodi:docname="bookmark-new.svg"
   sodipodi:docbase="/home/tim/Baroque/actions"
   inkscape:version="0.46"
   sodipodi:version="0.32"
   id="svg249"
   height="48"
   width="48"
   version="1.0"
   inkscape:output_extension="org.inkscape.output.svg.inkscape">
  <defs
     id="defs3">
    <inkscape:perspective
       sodipodi:type="inkscape:persp3d"
       inkscape:vp_x="0 : 24 : 1"
       inkscape:vp_y="0 : 1000 : 0"
       inkscape:vp_z="48 : 24 : 1"
       inkscape:persp3d-origin="24 : 16 : 1"
       id="perspective88" />
    <linearGradient
       inkscape:collect="always"
       id="linearGradient2833">
      <stop
         style="stop-color:white;stop-opacity:1;"
         offset="0"
         id="stop2835" />
      <stop
         style="stop-color:white;stop-opacity:0.56273764"
         offset="1"
         id="stop2837" />
    </linearGradient>
    <linearGradient
       id="linearGradient3702">
      <stop
         style="stop-color:black;stop-opacity:0;"
         offset="0"
         id="stop3704" />
      <stop
         id="stop3710"
         offset="0.5"
         style="stop-color:black;stop-opacity:1;" />
      <stop
         style="stop-color:black;stop-opacity:0;"
         offset="1"
         id="stop3706" />
    </linearGradient>
    <linearGradient
       inkscape:collect="always"
       xlink:href="#linearGradient3702"
       id="linearGradient2098"
       gradientUnits="userSpaceOnUse"
       x1="25.058096"
       y1="47.027729"
       x2="25.058096"
       y2="39.999443" />
    <radialGradient
       inkscape:collect="always"
       xlink:href="#linearGradient3688"
       id="radialGradient2096"
       gradientUnits="userSpaceOnUse"
       gradientTransform="matrix(2.003784,0,0,1.4,-20.01187,-104.4)"
       cx="4.9929786"
       cy="43.5"
       fx="4.9929786"
       fy="43.5"
       r="2.5" />
    <linearGradient
       inkscape:collect="always"
       id="linearGradient3688">
      <stop
         style="stop-color:black;stop-opacity:1;"
         offset="0"
         id="stop3690" />
      <stop
         style="stop-color:black;stop-opacity:0;"
         offset="1"
         id="stop3692" />
    </linearGradient>
    <radialGradient
       inkscape:collect="always"
       xlink:href="#linearGradient3688"
       id="radialGradient2094"
       gradientUnits="userSpaceOnUse"
       gradientTransform="matrix(2.003784,0,0,1.4,27.98813,-17.4)"
       cx="4.9929786"
       cy="43.5"
       fx="4.9929786"
       fy="43.5"
       r="2.5" />
    <linearGradient
       id="linearGradient5345">
      <stop
         style="stop-color:#ddbb66;stop-opacity:1;"
         offset="0"
         id="stop5347" />
      <stop
         id="stop1936"
         offset="0.42469135"
         style="stop-color:#cc8800;stop-opacity:1;" />
      <stop
         id="stop7129"
         offset="0.9041152"
         style="stop-color:#994400;stop-opacity:1;" />
      <stop
         style="stop-color:#ddbb66;stop-opacity:1;"
         offset="1"
         id="stop5349" />
    </linearGradient>
    <linearGradient
       id="linearGradient2378">
      <stop
         style="stop-color:#ffffff;stop-opacity:1;"
         offset="0"
         id="stop2380" />
      <stop
         id="stop4146"
         offset="0.25"
         style="stop-color:#fefede;stop-opacity:0.91836733;" />
      <stop
         id="stop2386"
         offset="0.5"
         style="stop-color:#f5f328;stop-opacity:1;" />
      <stop
         style="stop-color:#f5f32d;stop-opacity:0.12234043;"
         offset="1"
         id="stop2382" />
    </linearGradient>
    <linearGradient
       inkscape:collect="always"
       id="linearGradient4790">
      <stop
         style="stop-color:#000000;stop-opacity:1;"
         offset="0"
         id="stop4792" />
      <stop
         style="stop-color:#000000;stop-opacity:0;"
         offset="1"
         id="stop4794" />
    </linearGradient>
    <linearGradient
       inkscape:collect="always"
       id="linearGradient2251">
      <stop
         style="stop-color:#ffffff;stop-opacity:1;"
         offset="0"
         id="stop2253" />
      <stop
         style="stop-color:#ffffff;stop-opacity:0;"
         offset="1"
         id="stop2255" />
    </linearGradient>
    <linearGradient
       inkscape:collect="always"
       xlink:href="#linearGradient2251"
       id="linearGradient8166"
       gradientUnits="userSpaceOnUse"
       gradientTransform="matrix(-3.277938e-2,-0.999463,0.999463,-3.277938e-2,-0.709646,45.06274)"
       x1="33.396004"
       y1="36.921333"
       x2="34.170048"
       y2="38.070381" />
    <linearGradient
       id="linearGradient15662">
      <stop
         id="stop15664"
         offset="0.0000000"
         style="stop-color:#ffffff;stop-opacity:1.0000000;" />
      <stop
         id="stop15666"
         offset="1.0000000"
         style="stop-color:#f8f8f8;stop-opacity:1.0000000;" />
    </linearGradient>
    <linearGradient
       id="linearGradient269">
      <stop
         id="stop270"
         offset="0.0000000"
         style="stop-color:#a3a3a3;stop-opacity:1.0000000;" />
      <stop
         id="stop271"
         offset="1"
         style="stop-color:#8a8a8a;stop-opacity:1;" />
    </linearGradient>
    <linearGradient
       id="linearGradient259">
      <stop
         id="stop260"
         offset="0.0000000"
         style="stop-color:#fafafa;stop-opacity:1.0000000;" />
      <stop
         id="stop261"
         offset="1.0000000"
         style="stop-color:#bbbbbb;stop-opacity:1.0000000;" />
    </linearGradient>
    <radialGradient
       inkscape:collect="always"
       xlink:href="#linearGradient269"
       id="radialGradient15656"
       gradientUnits="userSpaceOnUse"
       gradientTransform="matrix(0.9717435,0,0,1.0360674,3.2383519,0.5060885)"
       cx="8.824419"
       cy="3.7561285"
       fx="8.824419"
       fy="3.7561285"
       r="37.751713" />
    <radialGradient
       inkscape:collect="always"
       xlink:href="#linearGradient259"
       id="radialGradient15658"
       gradientUnits="userSpaceOnUse"
       gradientTransform="matrix(0.9639356,0,0,1.0444591,-0.127221,-0.1424244)"
       cx="33.966679"
       cy="35.736916"
       fx="33.966679"
       fy="35.736916"
       r="86.70845" />
    <radialGradient
       inkscape:collect="always"
       xlink:href="#linearGradient15662"
       id="radialGradient15668"
       gradientUnits="userSpaceOnUse"
       gradientTransform="matrix(0.9731786,0,0,1.034993,3.1656505,0.5540137)"
       cx="8.1435566"
       cy="7.2678967"
       fx="8.1435566"
       fy="7.2678967"
       r="38.158695" />
    <radialGradient
       inkscape:collect="always"
       xlink:href="#linearGradient269"
       id="radialGradient5350"
       gradientUnits="userSpaceOnUse"
       gradientTransform="matrix(0.331735,0,0,0.3585438,20.10526,9.5269319)"
       cx="31.863327"
       cy="2.3667307"
       fx="31.863327"
       fy="2.3667307"
       r="37.751713" />
    <radialGradient
       inkscape:collect="always"
       xlink:href="#linearGradient259"
       id="radialGradient5352"
       gradientUnits="userSpaceOnUse"
       gradientTransform="matrix(0.148355,1.022578e-2,-1.104438e-2,0.1645276,25.06011,12.804777)"
       cx="30.653816"
       cy="14.9373"
       fx="30.653816"
       fy="14.9373"
       r="86.70845" />
    <radialGradient
       inkscape:collect="always"
       xlink:href="#linearGradient4790"
       id="radialGradient4796"
       cx="37.030354"
       cy="12.98915"
       fx="37.030354"
       fy="12.98915"
       r="4.2929163"
       gradientTransform="matrix(1.744653,2.313551e-22,-1.663e-22,1.283833,-26.58256,-3.478359)"
       gradientUnits="userSpaceOnUse" />
    <radialGradient
       inkscape:collect="always"
       xlink:href="#linearGradient2378"
       id="radialGradient3271"
       cx="38.658855"
       cy="9.3411446"
       fx="38.658855"
       fy="9.3411446"
       r="8.341651"
       gradientUnits="userSpaceOnUse" />
    <linearGradient
       inkscape:collect="always"
       xlink:href="#linearGradient5345"
       id="linearGradient5351"
       x1="17.948223"
       y1="17.797228"
       x2="17.948223"
       y2="4.361907"
       gradientUnits="userSpaceOnUse"
       gradientTransform="matrix(0.9309477,0,0,1,0.6917802,-4.41941e-2)" />
    <linearGradient
       inkscape:collect="always"
       xlink:href="#linearGradient2833"
       id="linearGradient2839"
       x1="13.46875"
       y1="3.0304594"
       x2="13.46875"
       y2="5.5014644"
       gradientUnits="userSpaceOnUse" />
    <linearGradient
       gradientUnits="userSpaceOnUse"
       y2="-23.197165"
       x2="-4.173214"
       y1="16.574726"
       x1="20.374401"
       id="linearGradient1892"
       xlink:href="#linearGradient1886"
       inkscape:collect="always" />
    <radialGradient
       gradientUnits="userSpaceOnUse"
       gradientTransform="matrix(1.30147,0,0,1.224913,-7.536765,-3.448096)"
       r="17"
       fy="22"
       fx="25"
       cy="22"
       cx="25"
       id="radialGradient2792"
       xlink:href="#linearGradient2786"
       inkscape:collect="always" />
    <radialGradient
       gradientUnits="userSpaceOnUse"
       gradientTransform="matrix(1.928522,0,0,1.843022,-1.841365,2.4769)"
       r="15.17675"
       fy="1.09216"
       fx="4.8321624"
       cy="1.09216"
       cx="4.8321624"
       id="radialGradient2766"
       xlink:href="#linearGradient2760"
       inkscape:collect="always" />
    <linearGradient
       id="linearGradient2760">
      <stop
         id="stop2762"
         offset="0"
         style="stop-color:white;stop-opacity:1;" />
      <stop
         style="stop-color:white;stop-opacity:1;"
         offset="0.36585367"
         id="stop1884" />
      <stop
         id="stop2764"
         offset="1"
         style="stop-color:#fce94f;stop-opacity:1;" />
    </linearGradient>
    <linearGradient
       id="linearGradient2786">
      <stop
         id="stop2788"
         offset="0"
         style="stop-color:#fce94f;stop-opacity:1;" />
      <stop
         id="stop2790"
         offset="1"
         style="stop-color:#fce94f;stop-opacity:0;" />
    </linearGradient>
    <linearGradient
       id="linearGradient1886">
      <stop
         id="stop1888"
         offset="0"
         style="stop-color:#ffcd01;stop-opacity:0.80000001;" />
      <stop
         id="stop1890"
         offset="1"
         style="stop-color:#ffdd65;stop-opacity:0.60000002;" />
    </linearGradient>
    <radialGradient
       inkscape:collect="always"
       xlink:href="#linearGradient2786"
       id="radialGradient3234"
       gradientUnits="userSpaceOnUse"
       gradientTransform="matrix(0.6844077,0,0,0.7555717,18.492451,-4.7020495)"
       cx="25"
       cy="22"
       fx="25"
       fy="22"
       r="17" />
  </defs>
  <sodipodi:namedview
     inkscape:window-y="27"
     inkscape:window-x="50"
     inkscape:window-height="958"
     inkscape:window-width="1278"
     inkscape:document-units="px"
     inkscape:grid-bbox="true"
     showgrid="false"
     inkscape:current-layer="layer5"
     inkscape:cy="24"
     inkscape:cx="24"
     inkscape:zoom="14.5625"
     inkscape:pageshadow="2"
     inkscape:pageopacity="0.0"
     borderopacity="0.3254902"
     bordercolor="#666666"
     pagecolor="#ffffff"
     id="base"
     inkscape:showpageshadow="false"
     showborder="true" />
  <metadata
     id="metadata4">
    <rdf:RDF>
      <cc:Work
         rdf:about="">
        <dc:format>image/svg+xml</dc:format>
        <dc:type
           rdf:resource="http://purl.org/dc/dcmitype/StillImage" />
        <dc:title>New Bookmark</dc:title>
        <dc:subject>
          <rdf:Bag>
            <rdf:li>text</rdf:li>
            <rdf:li>plaintext</rdf:li>
            <rdf:li>regular</rdf:li>
            <rdf:li>document</rdf:li>
          </rdf:Bag>
        </dc:subject>
        <cc:license
           rdf:resource="http://creativecommons.org/licenses/GPL/2.0/" />
        <dc:creator>
          <cc:Agent>
            <dc:title>Andreas Nilsson</dc:title>
          </cc:Agent>
        </dc:creator>
        <dc:source>http://www.gnome.org</dc:source>
        <dc:contributor>
          <cc:Agent>
            <dc:title>Luca Ferretti
Jakub Steiner
Lapo Calamandrei</dc:title>
          </cc:Agent>
        </dc:contributor>
        <dc:date>December 2006</dc:date>
      </cc:Work>
      <cc:License
         rdf:about="http://creativecommons.org/licenses/GPL/2.0/">
        <cc:permits
           rdf:resource="http://web.resource.org/cc/Reproduction" />
        <cc:permits
           rdf:resource="http://web.resource.org/cc/Distribution" />
        <cc:requires
           rdf:resource="http://web.resource.org/cc/Notice" />
        <cc:permits
           rdf:resource="http://web.resource.org/cc/DerivativeWorks" />
        <cc:requires
           rdf:resource="http://web.resource.org/cc/ShareAlike" />
        <cc:requires
           rdf:resource="http://web.resource.org/cc/SourceCode" />
      </cc:License>
    </rdf:RDF>
  </metadata>
  <g
     inkscape:groupmode="layer"
     id="layer6"
     inkscape:label="Shadow">
    <g
       id="g2043"
       inkscape:label="Shadow"
       transform="matrix(1,0,0,0.555556,-1.8e-5,19.888883)">
      <g
         style="display:inline"
         id="g2036"
         inkscape:label="Shadow">
        <g
           id="g3712"
           style="opacity:0.4"
           transform="matrix(1.052632,0,0,1.285713,-1.263158,-13.42854)">
          <rect
             y="40"
             x="38"
             height="7"
             width="5"
             id="rect2801"
             style="opacity:1;fill:url(#radialGradient2094);fill-opacity:1;stroke:none;stroke-width:1;stroke-linecap:round;stroke-linejoin:miter;stroke-miterlimit:4;stroke-dasharray:none;stroke-opacity:1" />
          <rect
             transform="scale(-1,-1)"
             y="-47"
             x="-10"
             height="7"
             width="5"
             id="rect3696"
             style="opacity:1;fill:url(#radialGradient2096);fill-opacity:1;stroke:none;stroke-width:1;stroke-linecap:round;stroke-linejoin:miter;stroke-miterlimit:4;stroke-dasharray:none;stroke-opacity:1" />
          <rect
             y="40"
             x="10"
             height="7.0000005"
             width="28"
             id="rect3700"
             style="opacity:1;fill:url(#linearGradient2098);fill-opacity:1;stroke:none;stroke-width:1;stroke-linecap:round;stroke-linejoin:miter;stroke-miterlimit:4;stroke-dasharray:none;stroke-opacity:1" />
        </g>
      </g>
    </g>
  </g>
  <g
     style="display:inline"
     inkscape:groupmode="layer"
     inkscape:label="Base"
     id="layer1">
    <path
       style="color:#000000;fill:url(#radialGradient15658);fill-opacity:1;fill-rule:nonzero;stroke:url(#radialGradient15656);stroke-width:0.99999994;stroke-linecap:round;stroke-linejoin:round;marker:none;marker-start:none;marker-mid:none;marker-end:none;stroke-miterlimit:4;stroke-dashoffset:0;stroke-opacity:1;visibility:visible;display:block;overflow:visible"
       d="M 7.6531674,3.5156747 L 31.184222,3.4999998 C 31.184222,3.4999998 41.5,13.07421 41.5,13.712818 L 41.5,43.414218 C 41.5,44.052825 40.985687,44.566938 40.346833,44.566938 L 7.6531674,44.566938 C 7.0143129,44.566938 6.5000004,44.052825 6.5000004,43.414218 L 6.5000004,4.6683954 C 6.5000004,4.0297882 7.0143129,3.5156747 7.6531674,3.5156747 z "
       id="rect15391"
       sodipodi:nodetypes="ccccccccc" />
    <path
       style="color:#000000;fill:none;fill-opacity:1;fill-rule:nonzero;stroke:url(#radialGradient15668);stroke-width:0.99999994;stroke-linecap:round;stroke-linejoin:round;marker:none;marker-start:none;marker-mid:none;marker-end:none;stroke-miterlimit:4;stroke-dashoffset:0;stroke-opacity:1;visibility:visible;display:block;overflow:visible"
       d="M 7.6498034,4.4999998 L 32.652226,4.4999998 C 32.652226,4.4999998 40.441938,12.538716 40.441938,12.621467 L 40.441938,43.380959 C 40.441938,43.46371 40.375127,43.53033 40.292135,43.53033 L 7.6498034,43.53033 C 7.5668121,43.53033 7.4999997,43.46371 7.4999997,43.380959 L 7.4999997,4.6493697 C 7.4999997,4.5666188 7.5668121,4.4999998 7.6498034,4.4999998 z "
       id="rect15660"
       sodipodi:nodetypes="ccccccccc" />
  </g>
  <g
     inkscape:groupmode="layer"
     id="layer5"
     inkscape:label="Text"
     style="display:inline">
    <path
       inkscape:r_cy="true"
       inkscape:r_cx="true"
       style="opacity:0.35714285;color:#000000;fill:url(#radialGradient4796);fill-opacity:1;fill-rule:evenodd;stroke:none;stroke-width:1.00000024;stroke-linecap:butt;stroke-linejoin:miter;marker:none;marker-start:none;marker-mid:none;marker-end:none;stroke-miterlimit:4;stroke-dasharray:none;stroke-dashoffset:0;stroke-opacity:1;visibility:visible;display:inline;overflow:visible"
       d="M 40.985189,13.861445 C 40.256827,12.514817 34.882221,10.130934 32.084635,9.3314083 C 32.254143,10.904354 31.961856,15.649439 31.961856,15.649439 C 34.024356,14.274439 40.204485,13.699331 40.985189,13.861445 z "
       id="path5348"
       sodipodi:nodetypes="cccc" />
    <path
       style="opacity:1;color:#000000;fill:url(#radialGradient5352);fill-opacity:1;fill-rule:nonzero;stroke:url(#radialGradient5350);stroke-width:1;stroke-linecap:butt;stroke-linejoin:round;marker:none;marker-start:none;marker-mid:none;marker-end:none;stroke-miterlimit:4;stroke-dasharray:none;stroke-dashoffset:0;stroke-opacity:1;visibility:visible;display:block;overflow:visible"
       d="M 41.410559,13.739267 C 41.423724,12.305276 35.058025,3.3960606 31.175441,3.500918 C 32.148479,3.7370164 32.925796,9.7511015 31.536076,12.601062 C 34.286076,12.601062 40.446694,11.856343 41.410559,13.739267 z "
       id="path2210"
       sodipodi:nodetypes="cccc"
       inkscape:r_cx="true"
       inkscape:r_cy="true" />
    <path
       sodipodi:nodetypes="cccc"
       id="path2247"
       d="M 39.121563,11.586207 C 38.393201,10.239579 34.963027,6.5166576 33.040441,5.2796316 C 33.279381,6.7054805 33.577496,8.9620596 32.961856,11.524439 C 32.961856,11.524439 38.340859,11.424093 39.121563,11.586207 z "
       style="opacity:1;color:#000000;fill:none;fill-opacity:1;fill-rule:evenodd;stroke:url(#linearGradient8166);stroke-width:1.00000024;stroke-linecap:butt;stroke-linejoin:miter;marker:none;marker-start:none;marker-mid:none;marker-end:none;stroke-miterlimit:4;stroke-dasharray:none;stroke-dashoffset:0;stroke-opacity:1;visibility:visible;display:inline;overflow:visible"
       inkscape:r_cx="true"
       inkscape:r_cy="true" />
    <path
       style="fill:#2e3436;fill-opacity:1;fill-rule:evenodd;stroke:none;stroke-width:0.99999994px;stroke-linecap:butt;stroke-linejoin:round;stroke-opacity:1;display:inline;opacity:0.15"
       d="M 8.518214,2.986098 L 22,2.986098 L 22,23.928002 L 16.515644,17.234797 L 10.96121,24 L 10.96121,3.9419039 C 10.96121,3.404299 9.435316,2.986098 8.518214,2.986098 z "
       id="path7273"
       sodipodi:nodetypes="ccccccc" />
    <path
       style="fill:url(#linearGradient5351);fill-opacity:1;fill-rule:evenodd;stroke:#542500;stroke-width:0.99999994000000003px;stroke-linecap:butt;stroke-linejoin:round;stroke-opacity:1"
       d="M 10.018213,2.5 L 21.422873,2.5 C 22.994417,2.5 23.499999,3.0073903 23.499999,4.470952 L 23.499999,23.441904 L 18.015643,16.748699 L 12.461209,23.513902 L 12.508084,4.4558059 C 12.508084,2.8706328 10.935315,2.5 10.018213,2.5 z "
       id="path4386"
       sodipodi:nodetypes="cccccccc" />
    <path
       sodipodi:type="inkscape:offset"
       inkscape:radius="-1.03125"
       inkscape:original="M 10.03125 2.5 C 10.948352 2.5 12.5 2.883577 12.5 4.46875 L 12.46875 23.5 L 18.03125 16.75 L 23.5 23.4375 L 23.5 4.46875 C 23.5 3.0051883 23.009044 2.5 21.4375 2.5 L 10.03125 2.5 z "
       style="fill:none;fill-opacity:1.0;fill-rule:evenodd;stroke:url(#linearGradient2839);stroke-width:0.99999994px;stroke-linecap:butt;stroke-linejoin:miter;stroke-opacity:1;display:inline;opacity:0.6"
       id="path1934"
       d="M 13.25,3.53125 C 13.362221,3.8338001 13.53125,4.1151264 13.53125,4.46875 L 13.5,20.625 L 17.25,16.09375 C 17.445904,15.855316 17.738283,15.717133 18.046875,15.717133 C 18.355467,15.717133 18.647846,15.855316 18.84375,16.09375 L 22.46875,20.53125 L 22.46875,4.46875 C 22.46875,3.8522811 22.365083,3.7081684 22.34375,3.6875 C 22.322417,3.6668316 22.11277,3.53125 21.4375,3.53125 L 13.25,3.53125 z " />
    <rect
       style="fill:url(#radialGradient3234);fill-opacity:1;stroke:none;stroke-width:1.15199995;stroke-linecap:butt;stroke-linejoin:round;stroke-miterlimit:4;stroke-dasharray:none;stroke-dashoffset:0;stroke-opacity:1"
       id="rect2776"
       width="23.269871"
       height="25.689445"
       x="23.967716"
       y="-0.92419028" />
    <path
       sodipodi:type="inkscape:offset"
       inkscape:radius="-0.87152946"
       inkscape:original="M 11 -7.25 C 9.2185557 -7.25 7.222469 -0.10960666 5.78125 0.9375 C 4.3400313 1.9846066 -3.0745035 1.6807459 -3.625 3.375 C -4.1754966 5.0692543 1.9807534 9.1807461 2.53125 10.875 C 3.0817465 12.569254 0.52753133 19.515393 1.96875 20.5625 C 3.4099688 21.609607 9.2185557 17.03125 11 17.03125 C 12.781444 17.03125 18.590031 21.609606 20.03125 20.5625 C 21.472469 19.515393 18.918253 12.569255 19.46875 10.875 C 20.019247 9.1807459 26.175496 5.0692541 25.625 3.375 C 25.074503 1.6807458 17.659969 1.9846068 16.21875 0.9375 C 14.777531 -0.1096067 12.781445 -7.25 11 -7.25 z "
       style="fill:none;fill-opacity:1;stroke:#ffffff;stroke-width:1.03528154;stroke-linecap:butt;stroke-linejoin:round;stroke-miterlimit:4;stroke-dasharray:none;stroke-dashoffset:0;stroke-opacity:1"
       id="path2758"
       d="M 11,-6.375 C 11.068425,-6.375 11.041453,-6.3983015 10.90625,-6.28125 C 10.771047,-6.1641985 10.579154,-5.9292436 10.375,-5.625 C 9.9666925,-5.0165128 9.5079224,-4.1337983 9.0625,-3.1875 C 8.6170776,-2.2412017 8.1534284,-1.2249793 7.71875,-0.375 C 7.2840716,0.47497932 6.9452218,1.1738463 6.28125,1.65625 C 5.6172417,2.1386802 4.8495304,2.223853 3.90625,2.375 C 2.9629696,2.526147 1.8822315,2.6495234 0.84375,2.78125 C -0.19473149,2.9129766 -1.169386,3.0493077 -1.875,3.25 C -2.227807,3.3503462 -2.5028832,3.469923 -2.65625,3.5625 C -2.8096168,3.655077 -2.8024594,3.7215258 -2.78125,3.65625 C -2.7602936,3.5917527 -2.8193381,3.6161835 -2.75,3.78125 C -2.6806619,3.9463165 -2.5067697,4.2115526 -2.28125,4.5 C -1.8302106,5.0768949 -1.1350979,5.783178 -0.375,6.5 C 0.38509792,7.216822 1.2027541,7.9483634 1.875,8.625 C 2.5472459,9.3016366 3.1218643,9.8146785 3.375,10.59375 C 3.6279154,11.372144 3.4889393,12.151161 3.34375,13.09375 C 3.1985607,14.036339 2.9736536,15.098158 2.78125,16.125 C 2.5888464,17.151842 2.4312607,18.142979 2.40625,18.875 C 2.3937447,19.241011 2.3963719,19.544245 2.4375,19.71875 C 2.4786281,19.893255 2.5234633,19.883502 2.46875,19.84375 C 2.4141259,19.804063 2.446681,19.858585 2.625,19.84375 C 2.803319,19.828915 3.0936958,19.750078 3.4375,19.625 C 4.1251083,19.374844 5.0214021,18.938125 5.9375,18.4375 C 6.8535979,17.936875 7.8053768,17.367167 8.65625,16.9375 C 9.5071232,16.507833 10.18133,16.15625 11,16.15625 C 11.81867,16.15625 12.492877,16.507833 13.34375,16.9375 C 14.194623,17.367167 15.146402,17.936875 16.0625,18.4375 C 16.978598,18.938125 17.874892,19.374844 18.5625,19.625 C 18.906304,19.750078 19.196681,19.828915 19.375,19.84375 C 19.553319,19.858585 19.585874,19.804063 19.53125,19.84375 C 19.476537,19.883501 19.521372,19.893255 19.5625,19.71875 C 19.603628,19.544245 19.606255,19.241011 19.59375,18.875 C 19.568739,18.142979 19.411154,17.151841 19.21875,16.125 C 19.026346,15.098159 18.801439,14.036339 18.65625,13.09375 C 18.511061,12.151161 18.372084,11.372144 18.625,10.59375 C 18.878136,9.8146787 19.452754,9.3016367 20.125,8.625 C 20.797246,7.9483633 21.614902,7.216822 22.375,6.5 C 23.135098,5.783178 23.830211,5.0768949 24.28125,4.5 C 24.50677,4.2115526 24.680662,3.9463165 24.75,3.78125 C 24.819338,3.6161835 24.760294,3.5917527 24.78125,3.65625 C 24.802459,3.7215257 24.809617,3.655077 24.65625,3.5625 C 24.502883,3.469923 24.227807,3.3503462 23.875,3.25 C 23.169386,3.0493077 22.194731,2.9129766 21.15625,2.78125 C 20.117769,2.6495234 19.03703,2.526147 18.09375,2.375 C 17.15047,2.223853 16.382758,2.1386802 15.71875,1.65625 C 15.054778,1.1738463 14.715928,0.47497932 14.28125,-0.375 C 13.846572,-1.2249793 13.382922,-2.2412018 12.9375,-3.1875 C 12.492078,-4.1337982 12.033307,-5.0165128 11.625,-5.625 C 11.420846,-5.9292436 11.228953,-6.1641985 11.09375,-6.28125 C 10.958547,-6.3983015 10.931575,-6.375 11,-6.375 z"
       transform="matrix(0.5891858,0,0,0.68169,29.121611,6.4045547)" />
    <path
       sodipodi:type="star"
       style="fill:url(#radialGradient2766);fill-opacity:1;stroke:url(#linearGradient1892);stroke-width:1.03510201;stroke-linecap:butt;stroke-linejoin:miter;stroke-miterlimit:4;stroke-dasharray:none;stroke-dashoffset:0;stroke-opacity:1"
       id="path1869"
       sodipodi:sides="5"
       sodipodi:cx="11"
       sodipodi:cy="8.125"
       sodipodi:r1="16.539814"
       sodipodi:r2="5.8689728"
       sodipodi:arg1="-1.564494"
       sodipodi:arg2="-0.91312904"
       inkscape:flatsided="false"
       inkscape:rounded="-0.01"
       inkscape:randomized="0"
       d="M 11.104239,-8.4144855 C 10.98035,-8.418123 14.687351,3.5536574 14.587541,3.4801758 C 14.489454,3.4079629 26.79642,3.2300499 26.762197,3.1131547 C 26.727373,2.9942055 16.487059,10.219257 16.526101,10.101624 C 16.564469,9.9860235 20.536736,21.635665 20.637335,21.566995 C 20.739701,21.497118 10.703838,13.990664 10.827778,13.991445 C 10.949577,13.992213 1.0976073,21.37 1.1940035,21.444455 C 1.2920935,21.520218 5.3299026,9.6559232 5.3674593,9.7740381 C 5.4043675,9.8901135 -4.6567516,2.8001951 -4.697774,2.9148811 C -4.7395171,3.0315822 7.791849,3.2054982 7.6911207,3.2777163 C 7.5921318,3.3486873 11.225988,-8.4109108 11.104239,-8.4144855 z"
       transform="matrix(0.5891858,0,0,0.68169,29.121611,6.4045547)" />
  </g>
</svg>
