<?xml version="1.0" encoding="UTF-8" standalone="no"?>
<!-- Created with Inkscape (http://www.inkscape.org/) -->
<svg
   xmlns:dc="http://purl.org/dc/elements/1.1/"
   xmlns:cc="http://creativecommons.org/ns#"
   xmlns:rdf="http://www.w3.org/1999/02/22-rdf-syntax-ns#"
   xmlns:svg="http://www.w3.org/2000/svg"
   xmlns="http://www.w3.org/2000/svg"
   xmlns:xlink="http://www.w3.org/1999/xlink"
   xmlns:sodipodi="http://sodipodi.sourceforge.net/DTD/sodipodi-0.dtd"
   xmlns:inkscape="http://www.inkscape.org/namespaces/inkscape"
   width="48"
   height="48"
   id="svg2"
   sodipodi:version="0.32"
   inkscape:version="0.46"
   version="1.0"
   sodipodi:docbase="/home/lapo/Desktop/kenneth"
   sodipodi:docname="call-stop.svg"
   inkscape:output_extension="org.inkscape.output.svg.inkscape">
  <defs
     id="defs4">
    <inkscape:perspective
       sodipodi:type="inkscape:persp3d"
       inkscape:vp_x="0 : 24 : 1"
       inkscape:vp_y="0 : 1000 : 0"
       inkscape:vp_z="48 : 24 : 1"
       inkscape:persp3d-origin="24 : 16 : 1"
       id="perspective66" />
    <linearGradient
       inkscape:collect="always"
       id="linearGradient4444">
      <stop
         style="stop-color:#000000;stop-opacity:1;"
         offset="0"
         id="stop4446" />
      <stop
         style="stop-color:#000000;stop-opacity:0;"
         offset="1"
         id="stop4448" />
    </linearGradient>
    <linearGradient
       inkscape:collect="always"
       id="linearGradient4436">
      <stop
         style="stop-color:#000000;stop-opacity:1;"
         offset="0"
         id="stop4438" />
      <stop
         style="stop-color:#000000;stop-opacity:0;"
         offset="1"
         id="stop4440" />
    </linearGradient>
    <linearGradient
       inkscape:collect="always"
       id="linearGradient4428">
      <stop
         style="stop-color:#000000;stop-opacity:1;"
         offset="0"
         id="stop4430" />
      <stop
         style="stop-color:#000000;stop-opacity:0;"
         offset="1"
         id="stop4432" />
    </linearGradient>
    <linearGradient
       inkscape:collect="always"
       id="linearGradient2844">
      <stop
         style="stop-color:white;stop-opacity:1;"
         offset="0"
         id="stop2846" />
      <stop
         style="stop-color:white;stop-opacity:0;"
         offset="1"
         id="stop2848" />
    </linearGradient>
    <linearGradient
       id="linearGradient2910">
      <stop
         id="stop2912"
         offset="0"
         style="stop-color:#dd6666;stop-opacity:1;" />
      <stop
         id="stop2914"
         offset="1"
         style="stop-color:#990000;stop-opacity:1;" />
    </linearGradient>
    <linearGradient
       id="linearGradient2894">
      <stop
         style="stop-color:white;stop-opacity:1;"
         offset="0"
         id="stop2896" />
      <stop
         style="stop-color:white;stop-opacity:0.43629342"
         offset="1"
         id="stop2898" />
    </linearGradient>
    <radialGradient
       inkscape:collect="always"
       xlink:href="#linearGradient4444"
       id="radialGradient2496"
       gradientUnits="userSpaceOnUse"
       gradientTransform="matrix(0.6111111,0,0,0.2222221,73.666667,31.140002)"
       cx="-51"
       cy="35.370022"
       fx="-51"
       fy="35.370022"
       r="9" />
    <radialGradient
       inkscape:collect="always"
       xlink:href="#linearGradient4444"
       id="radialGradient2499"
       gradientUnits="userSpaceOnUse"
       gradientTransform="matrix(0.6111111,0,0,0.2222221,37.666667,31.140002)"
       cx="-51"
       cy="35.370022"
       fx="-51"
       fy="35.370022"
       r="9" />
    <radialGradient
       inkscape:collect="always"
       xlink:href="#linearGradient2910"
       id="radialGradient2509"
       gradientUnits="userSpaceOnUse"
       gradientTransform="matrix(1.172449,1.635808e-7,-1.396764e-7,1.001117,-0.689313,0.375097)"
       cx="5.5431213"
       cy="19.583324"
       fx="5.5431213"
       fy="19.583324"
       r="5.4701443" />
    <radialGradient
       inkscape:collect="always"
       xlink:href="#linearGradient2910"
       id="radialGradient2511"
       gradientUnits="userSpaceOnUse"
       gradientTransform="matrix(1.065299,0,0,1.069873,-2.349853,-1.383156)"
       cx="35.986053"
       cy="19.67079"
       fx="35.986053"
       fy="19.67079"
       r="5.4555612" />
    <radialGradient
       inkscape:collect="always"
       xlink:href="#linearGradient2894"
       id="radialGradient2513"
       gradientUnits="userSpaceOnUse"
       gradientTransform="matrix(2.0055393,-0.537381,0.1076452,0.4017375,-12.008424,17.149937)"
       cx="10.714277"
       cy="1.3471706"
       fx="10.714277"
       fy="1.3471706"
       r="19.954109" />
    <linearGradient
       inkscape:collect="always"
       xlink:href="#linearGradient2844"
       id="linearGradient2515"
       gradientUnits="userSpaceOnUse"
       x1="8.550292"
       y1="28.996506"
       x2="8.550292"
       y2="32.225834" />
    <linearGradient
       inkscape:collect="always"
       xlink:href="#linearGradient2844"
       id="linearGradient2517"
       gradientUnits="userSpaceOnUse"
       x1="8.550292"
       y1="28.996506"
       x2="8.550292"
       y2="32.225834" />
    <radialGradient
       inkscape:collect="always"
       xlink:href="#linearGradient2894"
       id="radialGradient2522"
       gradientUnits="userSpaceOnUse"
       gradientTransform="matrix(2.0055393,-0.537381,0.1076452,0.4017375,-12.008424,28.149937)"
       cx="10.714277"
       cy="1.3471706"
       fx="10.714277"
       fy="1.3471706"
       r="19.954109" />
    <radialGradient
       inkscape:collect="always"
       xlink:href="#linearGradient2910"
       id="radialGradient2530"
       gradientUnits="userSpaceOnUse"
       gradientTransform="matrix(1.82365,0,-3.597168e-8,0.352977,-69.24312,21.94153)"
       cx="44.230965"
       cy="1.2280405"
       fx="44.230965"
       fy="1.2280405"
       r="20.988943" />
    <radialGradient
       inkscape:collect="always"
       xlink:href="#linearGradient4428"
       id="radialGradient2535"
       gradientUnits="userSpaceOnUse"
       gradientTransform="matrix(1,0,0,0.1551494,60,28.328574)"
       cx="-35.781593"
       cy="43"
       fx="-35.781593"
       fy="43"
       r="25.781593" />
    <radialGradient
       inkscape:collect="always"
       xlink:href="#linearGradient4436"
       id="radialGradient2538"
       gradientUnits="userSpaceOnUse"
       gradientTransform="matrix(1,0,0,0.4033312,60,23.104189)"
       cx="-21"
       cy="35.370022"
       fx="-21"
       fy="35.370022"
       r="9" />
    <radialGradient
       inkscape:collect="always"
       xlink:href="#linearGradient4444"
       id="radialGradient2541"
       gradientUnits="userSpaceOnUse"
       gradientTransform="matrix(1,0,0,0.4033312,60,23.104189)"
       cx="-51"
       cy="35.370022"
       fx="-51"
       fy="35.370022"
       r="9" />
  </defs>
  <sodipodi:namedview
     id="base"
     pagecolor="#7d7d7d"
     bordercolor="#666666"
     borderopacity="1.0"
     inkscape:pageopacity="0"
     inkscape:pageshadow="2"
     inkscape:zoom="9.6875"
     inkscape:cx="24"
     inkscape:cy="23.948387"
     inkscape:document-units="px"
     inkscape:current-layer="layer1"
     width="48px"
     height="48px"
     inkscape:showpageshadow="false"
     showgrid="false"
     inkscape:window-width="1043"
     inkscape:window-height="725"
     inkscape:window-x="45"
     inkscape:window-y="233"
     showguides="true"
     inkscape:guide-bbox="true"
     showborder="true"
     objecttolerance="10000"
     inkscape:object-nodes="false"
     inkscape:snap-nodes="false"
     gridtolerance="10000"
     guidetolerance="10000"
     inkscape:snap-bbox="true">
    <sodipodi:guide
       orientation="horizontal"
       position="26"
       id="guide2780" />
    <sodipodi:guide
       orientation="vertical"
       position="10.9375"
       id="guide2782" />
    <inkscape:grid
       id="GridFromPre046Settings"
       type="xygrid"
       originx="0px"
       originy="0px"
       spacingx="0.5px"
       spacingy="0.5px"
       color="#0000ff"
       empcolor="#0000ff"
       opacity="0.2"
       empopacity="0.4"
       empspacing="2"
       visible="true"
       enabled="true" />
  </sodipodi:namedview>
  <metadata
     id="metadata7">
    <rdf:RDF>
      <cc:Work
         rdf:about="">
        <dc:format>image/svg+xml</dc:format>
        <dc:type
           rdf:resource="http://purl.org/dc/dcmitype/StillImage" />
        <cc:license
           rdf:resource="http://www.gnu.org/licenses/lgpl.html" />
        <dc:creator>
          <cc:Agent>
            <dc:title>Lapo Calamandrei</dc:title>
          </cc:Agent>
        </dc:creator>
        <dc:title>Call Stop</dc:title>
        <dc:subject>
          <rdf:Bag>
            <rdf:li>receiver</rdf:li>
            <rdf:li>phone</rdf:li>
            <rdf:li>call</rdf:li>
            <rdf:li>stop</rdf:li>
            <rdf:li>hang-up</rdf:li>
          </rdf:Bag>
        </dc:subject>
      </cc:Work>
    </rdf:RDF>
  </metadata>
  <g
     inkscape:label="Livello 1"
     inkscape:groupmode="layer"
     id="layer1"
     style="display:inline">
    <rect
       style="opacity:0.2;fill:url(#radialGradient2499);fill-opacity:1;stroke:none;stroke-width:1;stroke-linecap:round;stroke-linejoin:miter;stroke-miterlimit:4;stroke-dasharray:none;stroke-dashoffset:0;stroke-opacity:1;display:inline"
       id="rect6289"
       width="11"
       height="3.9999971"
       x="1"
       y="37" />
    <rect
       style="opacity:0.2;fill:url(#radialGradient2496);fill-opacity:1;stroke:none;stroke-width:1;stroke-linecap:round;stroke-linejoin:miter;stroke-miterlimit:4;stroke-dasharray:none;stroke-dashoffset:0;stroke-opacity:1;display:inline"
       id="rect6293"
       width="11"
       height="3.9999971"
       x="37"
       y="37" />
    <rect
       y="33.740036"
       x="0"
       height="7.2599611"
       width="18"
       id="rect3075"
       style="opacity:0.2;fill:url(#radialGradient2541);fill-opacity:1;stroke:none;stroke-width:1;stroke-linecap:round;stroke-linejoin:miter;stroke-miterlimit:4;stroke-dasharray:none;stroke-dashoffset:0;stroke-opacity:1;display:inline" />
    <rect
       y="33.740036"
       x="30"
       height="7.2599611"
       width="18"
       id="rect3083"
       style="opacity:0.2;fill:url(#radialGradient2538);fill-opacity:1;stroke:none;stroke-width:1;stroke-linecap:round;stroke-linejoin:miter;stroke-miterlimit:4;stroke-dasharray:none;stroke-dashoffset:0;stroke-opacity:1;display:inline" />
    <rect
       y="31"
       x="-1.5631866"
       height="8"
       width="51.563187"
       id="rect2954"
       style="opacity:0.06756759;fill:url(#radialGradient2535);fill-opacity:1;stroke:none;stroke-width:1;stroke-linecap:round;stroke-linejoin:miter;stroke-miterlimit:4;stroke-dasharray:none;stroke-dashoffset:0;stroke-opacity:1" />
    <rect
       inkscape:transform-center-x="-0.26691096"
       transform="matrix(0.9659258,-0.258819,0.258819,0.9659258,0,0)"
       inkscape:transform-center-y="0.99612571"
       ry="1.4805118"
       rx="1.4805118"
       y="34.788815"
       x="-5.7455311"
       height="4.0000105"
       width="12.034308"
       id="rect2814"
       style="fill:#cc0000;fill-opacity:1;stroke:#a40000;stroke-width:1.0000037;stroke-linecap:round;stroke-linejoin:miter;stroke-miterlimit:4;stroke-dasharray:none;stroke-dashoffset:0;stroke-opacity:1" />
    <rect
       inkscape:transform-center-x="-0.26691096"
       transform="matrix(-0.9659258,-0.258819,-0.258819,0.9659258,0,0)"
       inkscape:transform-center-y="0.99612571"
       ry="1.4805118"
       rx="1.4805118"
       y="22.361513"
       x="-52.116657"
       height="4.0000105"
       width="12.034308"
       id="rect2828"
       style="fill:#cc0000;fill-opacity:1;stroke:#a40000;stroke-width:1.00000358;stroke-linecap:round;stroke-linejoin:miter;stroke-miterlimit:4;stroke-dasharray:none;stroke-dashoffset:0;stroke-opacity:1" />
    <path
       id="path2759"
       d="M 24,21.5 C 13.540342,21.5 4.936995,26.115197 4.0625,32 C 3.494525,33.229253 3.341141,34.653245 3.71875,36.0625 C 3.806208,36.388899 3.927034,36.702183 4.0625,37 L 15.46875,33.9375 C 15.437158,33.61185 15.399959,33.263899 15.3125,32.9375 C 15.104309,32.160519 14.74048,31.477891 14.28125,30.875 C 15.658933,28.324703 19.487863,26.5 24,26.5 C 28.512138,26.5 32.341068,28.324703 33.71875,30.875 C 33.261083,31.476943 32.926458,32.162323 32.71875,32.9375 C 32.631291,33.263899 32.562841,33.611851 32.53125,33.9375 L 43.9375,37 C 44.072966,36.702183 44.193789,36.388898 44.28125,36.0625 C 44.666771,34.623715 44.503631,33.15269 43.90625,31.90625 C 42.954722,26.066284 34.403892,21.5 24,21.5 z"
       style="fill:url(#radialGradient2530);fill-opacity:1;stroke:#a40000;stroke-width:1;stroke-linecap:round;stroke-linejoin:miter;stroke-miterlimit:4;stroke-dasharray:none;stroke-dashoffset:0;stroke-opacity:1" />
    <path
       transform="translate(0,11)"
       d="M 10.28125,18.03125 C 9.5736169,17.93258 8.8345396,17.989006 8.09375,18.1875 C 5.1417658,18.978483 3.3968235,21.986655 4.1875,24.9375 C 4.2294144,25.093927 4.2860071,25.253209 4.34375,25.40625 L 14.9375,22.59375 C 14.913297,22.408905 14.887368,22.225284 14.84375,22.0625 C 14.250695,19.849188 12.415004,18.328774 10.28125,18.03125 z"
       id="path2855"
       style="fill:url(#radialGradient2509);fill-opacity:1;stroke:none;stroke-width:1.00000012;stroke-linecap:round;stroke-linejoin:miter;stroke-miterlimit:4;stroke-dasharray:none;stroke-dashoffset:0;stroke-opacity:1"
       inkscape:original="M 10.34375 17.5625 C 9.5718404 17.454867 8.7685364 17.504448 7.96875 17.71875 C 4.769604 18.57596 2.8615416 21.863355 3.71875 25.0625 C 3.8062083 25.388899 3.9270339 25.702183 4.0625 26 L 15.46875 22.9375 C 15.437158 22.61185 15.399959 22.263899 15.3125 21.9375 C 14.669594 19.538141 12.659479 17.885398 10.34375 17.5625 z "
       inkscape:radius="-0.47406253"
       sodipodi:type="inkscape:offset" />
    <path
       transform="translate(0,11)"
       d="M 37.75,18.03125 C 35.617916,18.328542 33.780097,19.850896 33.1875,22.0625 C 33.139948,22.239965 33.125627,22.41277 33.09375,22.59375 L 43.65625,25.40625 C 43.713949,25.253325 43.770626,25.093772 43.8125,24.9375 C 44.603318,21.986127 42.886463,18.977673 39.9375,18.1875 C 39.197252,17.989151 38.457043,17.932662 37.75,18.03125 z"
       id="path2875"
       style="fill:url(#radialGradient2511);fill-opacity:1;stroke:none;stroke-width:1.00000012;stroke-linecap:round;stroke-linejoin:miter;stroke-miterlimit:4;stroke-dasharray:none;stroke-dashoffset:0;stroke-opacity:1"
       inkscape:original="M 37.6875 17.5625 C 35.371771 17.885399 33.361656 19.538141 32.71875 21.9375 C 32.631291 22.263899 32.562841 22.611851 32.53125 22.9375 L 43.9375 26 C 44.072966 25.702183 44.193789 25.388898 44.28125 25.0625 C 45.138458 21.863355 43.261646 18.575959 40.0625 17.71875 C 39.262714 17.504448 38.45941 17.454867 37.6875 17.5625 z "
       inkscape:radius="-0.47841442"
       sodipodi:type="inkscape:offset" />
    <path
       transform="translate(0,11)"
       d="M 24,11.53125 C 18.921657,11.53125 14.291861,12.675735 10.90625,14.46875 C 7.5206391,16.261765 5.4645692,18.660869 5.09375,21.15625 C 5.0762252,21.25403 5.0446482,21.348761 5,21.4375 C 4.5294438,22.455912 4.4040816,23.606892 4.71875,24.78125 C 4.6773163,24.626617 4.7076549,24.66492 4.78125,24.90625 C 4.8062906,24.988364 4.7737549,24.972537 4.78125,25.03125 C 4.781408,25.041666 4.781408,25.052084 4.78125,25.0625 C 4.7845732,25.103196 4.8142632,25.128378 4.8125,25.15625 C 4.805474,25.06881 4.8126453,25.133916 4.84375,25.25 C 4.843908,25.260416 4.843908,25.270834 4.84375,25.28125 L 5.09375,26.28125 C 5.1622416,26.536864 5.354334,26.635025 5.625,26.5625 L 14.4375,24.21875 C 14.693114,24.150259 14.791275,23.958167 14.71875,23.6875 C 14.718592,23.677084 14.718592,23.666666 14.71875,23.65625 L 14.46875,22.65625 C 14.491254,22.740236 14.502581,22.724236 14.4375,22.59375 C 14.395536,22.514837 14.364022,22.430798 14.34375,22.34375 C 14.304919,22.159697 14.286823,22.122924 14.3125,22.21875 C 14.142918,21.58586 13.85979,21.01337 13.46875,20.5 C 13.216496,20.177036 13.179682,19.735262 13.375,19.375 C 15.034329,16.303335 19.210187,14.46875 24,14.46875 C 28.789814,14.46875 32.965672,16.303335 34.625,19.375 C 34.820318,19.735262 34.783504,20.177036 34.53125,20.5 C 34.155167,20.99464 33.894164,21.564097 33.71875,22.21875 C 33.713479,22.238423 33.700283,22.261112 33.6875,22.3125 C 33.667228,22.399548 33.635714,22.483587 33.59375,22.5625 C 33.535416,22.666858 33.518774,22.73406 33.53125,22.6875 L 33.28125,23.65625 C 33.281408,23.666666 33.281408,23.677084 33.28125,23.6875 C 33.208726,23.958166 33.338137,24.150259 33.59375,24.21875 L 42.34375,26.5625 C 42.614418,26.635025 42.837758,26.505615 42.90625,26.25 L 43.15625,25.28125 C 43.156092,25.270834 43.156092,25.260416 43.15625,25.25 C 43.187354,25.133919 43.194526,25.068809 43.1875,25.15625 C 43.187648,25.071952 43.198143,24.987991 43.21875,24.90625 C 43.292343,24.664932 43.322681,24.626633 43.28125,24.78125 C 43.602546,23.582157 43.461215,22.371283 42.96875,21.34375 C 42.924102,21.255011 42.892525,21.16028 42.875,21.0625 C 42.471132,18.583777 40.407544,16.213918 37.03125,14.4375 C 33.654956,12.661082 29.051262,11.53125 24,11.53125 z"
       id="path2892"
       style="opacity:0.34234236;fill:none;fill-opacity:1;stroke:url(#radialGradient2513);stroke-width:1;stroke-linecap:round;stroke-linejoin:miter;stroke-miterlimit:4;stroke-dasharray:none;stroke-dashoffset:0;stroke-opacity:1"
       inkscape:original="M 24 10.5 C 13.540342 10.5 4.9369948 15.115197 4.0625 21 C 3.4945247 22.229253 3.3411412 23.653245 3.71875 25.0625 C 3.7334834 25.117486 3.7647122 25.16452 3.78125 25.21875 C 3.7841345 25.228209 3.7783138 25.240565 3.78125 25.25 C 3.788405 25.339046 3.8197661 25.441741 3.84375 25.53125 L 4.09375 26.53125 C 4.3060333 27.323502 5.1139975 27.774783 5.90625 27.5625 L 14.6875 25.21875 C 15.479752 25.006467 15.931033 24.198503 15.71875 23.40625 L 15.46875 22.40625 C 15.442215 22.307218 15.387727 22.213173 15.34375 22.125 C 15.33063 22.062813 15.328837 21.998469 15.3125 21.9375 C 15.104309 21.160519 14.74048 20.477891 14.28125 19.875 C 15.658933 17.324703 19.487863 15.5 24 15.5 C 28.512138 15.5 32.341068 17.324703 33.71875 19.875 C 33.261083 20.476943 32.926458 21.162323 32.71875 21.9375 C 32.707694 21.978762 32.697913 22.020638 32.6875 22.0625 C 32.628492 22.168063 32.564047 22.283851 32.53125 22.40625 L 32.28125 23.40625 C 32.068968 24.198502 32.520248 25.006467 33.3125 25.21875 L 42.09375 27.5625 C 42.886004 27.774784 43.693967 27.323502 43.90625 26.53125 L 44.15625 25.53125 C 44.180234 25.441741 44.211595 25.339045 44.21875 25.25 C 44.219511 25.240527 44.218173 25.228207 44.21875 25.21875 C 44.235288 25.16452 44.266516 25.117486 44.28125 25.0625 C 44.666771 23.623715 44.503631 22.15269 43.90625 20.90625 C 42.954722 15.066284 34.403892 10.5 24 10.5 z "
       inkscape:radius="-1.0299597"
       sodipodi:type="inkscape:offset" />
    <path
       transform="matrix(1,0,0,1.077496,28.74435,-1.243619)"
       d="M 11.755651,30.852661 A 2.9831069,1.8561553 0 1 1 5.7894371,30.852661 A 2.9831069,1.8561553 0 1 1 11.755651,30.852661 z"
       sodipodi:ry="1.8561553"
       sodipodi:rx="2.9831069"
       sodipodi:cy="30.852661"
       sodipodi:cx="8.7725439"
       id="path2852"
       style="opacity:0.5;fill:url(#linearGradient2515);fill-opacity:1;stroke:none;stroke-width:1.29538584;stroke-linecap:round;stroke-linejoin:miter;stroke-miterlimit:4;stroke-dasharray:none;stroke-dashoffset:0;stroke-opacity:1;display:inline"
       sodipodi:type="arc" />
    <path
       transform="matrix(1,0,0,1.077496,-0.25565,-1.243619)"
       d="M 11.755651,30.852661 A 2.9831069,1.8561553 0 1 1 5.7894371,30.852661 A 2.9831069,1.8561553 0 1 1 11.755651,30.852661 z"
       sodipodi:ry="1.8561553"
       sodipodi:rx="2.9831069"
       sodipodi:cy="30.852661"
       sodipodi:cx="8.7725439"
       id="path2861"
       style="opacity:0.5;fill:url(#linearGradient2517);fill-opacity:1;stroke:none;stroke-width:1.29538584;stroke-linecap:round;stroke-linejoin:miter;stroke-miterlimit:4;stroke-dasharray:none;stroke-dashoffset:0;stroke-opacity:1;display:inline"
       sodipodi:type="arc" />
    <path
       style="opacity:0.2342342;fill:none;fill-opacity:1;stroke:url(#radialGradient2522);stroke-width:1;stroke-linecap:round;stroke-linejoin:miter;stroke-miterlimit:4;stroke-dashoffset:0;stroke-opacity:1;display:inline"
       d="M 42.34375,37.5625 C 42.614418,37.635025 42.837758,37.505615 42.90625,37.25 L 43.15625,36.28125 C 43.156092,36.270834 43.156092,36.260416 43.15625,36.25 C 43.187354,36.133919 43.194526,36.068809 43.1875,36.15625 C 43.187648,36.071952 43.198143,35.987991 43.21875,35.90625 C 43.292343,35.664932 43.322681,35.626633 43.28125,35.78125 C 43.602546,34.582157 43.461215,33.371283 42.96875,32.34375 C 42.924102,32.255011 42.892525,32.16028 42.875,32.0625 C 42.471132,29.583777 40.407544,27.213918 37.03125,25.4375 C 33.654956,23.661082 29.051262,22.53125 24,22.53125 C 18.921657,22.53125 14.291861,23.675735 10.90625,25.46875 C 7.520639,27.261765 5.464569,29.660869 5.09375,32.15625 C 5.076225,32.25403 5.044648,32.348761 5,32.4375 C 4.529444,33.455912 4.404082,34.606892 4.71875,35.78125 C 4.677316,35.626617 4.707655,35.66492 4.78125,35.90625 C 4.806291,35.988364 4.773755,35.972537 4.78125,36.03125 C 4.781408,36.041666 4.781408,36.052084 4.78125,36.0625 C 4.784573,36.103196 4.814263,36.128378 4.8125,36.15625 C 4.805474,36.06881 4.812645,36.133916 4.84375,36.25 C 4.843908,36.260416 4.843908,36.270834 4.84375,36.28125 L 5.09375,37.28125 C 5.162242,37.536864 5.354334,37.635025 5.625,37.5625"
       id="path2793"
       sodipodi:nodetypes="cccssssssscsssssssssccc" />
  </g>
  <g
     inkscape:groupmode="layer"
     id="layer2"
     inkscape:label="troiai"
     style="display:none">
    <path
       sodipodi:type="arc"
       style="opacity:0.9;fill:#ef2929;fill-opacity:1;stroke:#a40000;stroke-width:1.21590912;stroke-linecap:round;stroke-linejoin:miter;stroke-miterlimit:4;stroke-dasharray:none;stroke-dashoffset:0;stroke-opacity:1"
       id="path2763"
       sodipodi:cx="11.3125"
       sodipodi:cy="21.4375"
       sodipodi:rx="6.6875"
       sodipodi:ry="6.6875"
       d="M 18,21.4375 A 6.6875,6.6875 0 1 1 4.625,21.4375 A 6.6875,6.6875 0 1 1 18,21.4375 z"
       transform="matrix(0.82243,0,0,0.82243,-68.30374,4.369158)" />
    <path
       sodipodi:type="arc"
       style="opacity:0.9;fill:#ef2929;fill-opacity:1;stroke:#a40000;stroke-width:1.21590912;stroke-linecap:round;stroke-linejoin:miter;stroke-miterlimit:4;stroke-dasharray:none;stroke-dashoffset:0;stroke-opacity:1"
       id="path2765"
       sodipodi:cx="11.3125"
       sodipodi:cy="21.4375"
       sodipodi:rx="6.6875"
       sodipodi:ry="6.6875"
       d="M 18,21.4375 A 6.6875,6.6875 0 1 1 4.625,21.4375 A 6.6875,6.6875 0 1 1 18,21.4375 z"
       transform="matrix(0.82243,0,0,0.82243,-42.30374,4.369158)" />
    <path
       sodipodi:type="arc"
       style="opacity:0.6;fill:#ef2929;fill-opacity:1;stroke:#a40000;stroke-width:0.87122524;stroke-linecap:round;stroke-linejoin:miter;stroke-miterlimit:4;stroke-dasharray:none;stroke-dashoffset:0;stroke-opacity:1"
       id="path2767"
       sodipodi:cx="24.1875"
       sodipodi:cy="21.375"
       sodipodi:rx="16.5625"
       sodipodi:ry="9.75"
       d="M 40.75,21.375 A 16.5625,9.75 0 1 1 7.625,21.375 A 16.5625,9.75 0 1 1 40.75,21.375 z"
       transform="matrix(1.116981,0,0,1.179487,-73.01698,-3.211538)" />
    <path
       sodipodi:type="arc"
       style="opacity:0.6;fill:#ef2929;fill-opacity:1;stroke:#a40000;stroke-width:1.62041819;stroke-linecap:round;stroke-linejoin:miter;stroke-miterlimit:4;stroke-dasharray:none;stroke-dashoffset:0;stroke-opacity:1"
       id="path2769"
       sodipodi:cx="24.1875"
       sodipodi:cy="21.375"
       sodipodi:rx="16.5625"
       sodipodi:ry="9.75"
       d="M 40.75,21.375 A 16.5625,9.75 0 1 1 7.625,21.375 A 16.5625,9.75 0 1 1 40.75,21.375 z"
       transform="matrix(0.573586,0,0,0.663968,-59.87362,7.781372)" />
    <path
       style="opacity:0.6;fill:#ef2929;fill-opacity:1;stroke:#a40000;stroke-width:1;stroke-linecap:round;stroke-linejoin:miter;stroke-miterlimit:4;stroke-dasharray:none;stroke-dashoffset:0;stroke-opacity:1"
       d="M 23.99999,70.5 C 12.959975,70.5 3.9999611,75.652001 3.999961,82 L 13.729705,82 C 13.729624,81.989472 13.729705,81.97929 13.729705,81.96875 C 13.729705,78.395274 18.330782,75.5 23.99999,75.5 C 29.6692,75.5 34.270275,78.395274 34.270275,81.96875 C 34.270275,81.97929 34.270356,81.989472 34.270275,82 L 44.00002,82 C 44.00002,75.652001 35.040006,70.5 23.99999,70.5 z"
       id="path2805" />
    <path
       sodipodi:type="arc"
       style="opacity:0.9;fill:#ef2929;fill-opacity:1;stroke:#a40000;stroke-width:1.11458337;stroke-linecap:round;stroke-linejoin:miter;stroke-miterlimit:4;stroke-dasharray:none;stroke-dashoffset:0;stroke-opacity:1"
       id="path2807"
       sodipodi:cx="11.3125"
       sodipodi:cy="21.4375"
       sodipodi:rx="6.6875"
       sodipodi:ry="6.6875"
       d="M 18,21.4375 A 6.6875,6.6875 0 1 1 4.625,21.4375 A 6.6875,6.6875 0 1 1 18,21.4375 z"
       transform="matrix(0.897196,0,0,0.897196,-0.649528,64.26636)" />
    <path
       sodipodi:type="arc"
       style="opacity:0.9;fill:#ef2929;fill-opacity:1;stroke:#a40000;stroke-width:1.11458337;stroke-linecap:round;stroke-linejoin:miter;stroke-miterlimit:4;stroke-dasharray:none;stroke-dashoffset:0;stroke-opacity:1"
       id="path2809"
       sodipodi:cx="11.3125"
       sodipodi:cy="21.4375"
       sodipodi:rx="6.6875"
       sodipodi:ry="6.6875"
       d="M 18,21.4375 A 6.6875,6.6875 0 1 1 4.625,21.4375 A 6.6875,6.6875 0 1 1 18,21.4375 z"
       transform="matrix(0.897196,0,0,0.897196,28.35047,64.26636)" />
    <path
       style="fill:#ef2929;fill-opacity:1;stroke:#a40000;stroke-width:1.00000012;stroke-linecap:round;stroke-linejoin:miter;stroke-miterlimit:4;stroke-dasharray:none;stroke-dashoffset:0;stroke-opacity:1"
       d="M 7.9557575,-22.292184 C 4.7566116,-21.434975 2.8559071,-18.142859 3.7131155,-14.943714 C 3.8005738,-14.617315 3.927024,-14.299869 4.0624901,-14.002052 L 15.472491,-17.059351 C 15.440899,-17.385001 15.391686,-17.723143 15.304227,-18.049542 C 14.447019,-21.248687 11.154903,-23.149392 7.9557575,-22.292184 z"
       id="path2840"
       inkscape:transform-center-x="0.027159543"
       inkscape:transform-center-y="-1.7187079" />
    <path
       style="fill:#ef2929;fill-opacity:1;stroke:#a40000;stroke-width:1.00000012;stroke-linecap:round;stroke-linejoin:miter;stroke-miterlimit:4;stroke-dasharray:none;stroke-dashoffset:0;stroke-opacity:1"
       d="M 40.051683,-22.294327 C 43.250828,-21.437118 45.151533,-18.145002 44.294325,-14.945857 C 44.206866,-14.619458 44.080416,-14.302012 43.94495,-14.004195 L 32.534949,-17.061494 C 32.566541,-17.387144 32.615754,-17.725286 32.703213,-18.051685 C 33.560421,-21.25083 36.852537,-23.151535 40.051683,-22.294327 z"
       id="path2842"
       inkscape:transform-center-x="0.027159543"
       inkscape:transform-center-y="-1.7187079" />
  </g>
</svg>
