<?xml version="1.0" encoding="UTF-8" standalone="no"?>
<!-- Created with Inkscape (http://www.inkscape.org/) -->
<svg
   xmlns:dc="http://purl.org/dc/elements/1.1/"
   xmlns:cc="http://web.resource.org/cc/"
   xmlns:rdf="http://www.w3.org/1999/02/22-rdf-syntax-ns#"
   xmlns:svg="http://www.w3.org/2000/svg"
   xmlns="http://www.w3.org/2000/svg"
   xmlns:xlink="http://www.w3.org/1999/xlink"
   xmlns:sodipodi="http://sodipodi.sourceforge.net/DTD/sodipodi-0.dtd"
   xmlns:inkscape="http://www.inkscape.org/namespaces/inkscape"
   width="48px"
   height="48px"
   id="svg2178"
   sodipodi:version="0.32"
   inkscape:version="0.45.1"
   sodipodi:docname="document-print-preview.svg"
   sodipodi:docbase="/home/tim/Baroque/actions"
   inkscape:output_extension="org.inkscape.output.svg.inkscape"
   inkscape:export-filename="/home/pawel/Desktop/drukarka"
   inkscape:export-xdpi="90"
   inkscape:export-ydpi="90">
  <defs
     id="defs2180"><linearGradient
   inkscape:collect="always"
   id="linearGradient3174">
  <stop
     style="stop-color:#fbfcfb;stop-opacity:1;"
     offset="0"
     id="stop3176" />
  <stop
     style="stop-color:#fbfcfb;stop-opacity:0;"
     offset="1"
     id="stop3178" />
</linearGradient>
<linearGradient
   id="linearGradient3209">
  <stop
     style="stop-color:#fbfcfb;stop-opacity:1;"
     offset="0"
     id="stop3211" />
  <stop
     style="stop-color:#1d1d20;stop-opacity:1;"
     offset="1"
     id="stop3213" />
</linearGradient>
<linearGradient
   id="linearGradient3189">
  <stop
     style="stop-color:#252525;stop-opacity:1;"
     offset="0"
     id="stop3191" />
  <stop
     style="stop-color:#0b090e;stop-opacity:1;"
     offset="1"
     id="stop3193" />
</linearGradient>
<linearGradient
   inkscape:collect="always"
   id="linearGradient3179">
  <stop
     style="stop-color:#fbfcfb;stop-opacity:1;"
     offset="0"
     id="stop3181" />
  <stop
     style="stop-color:#fbfcfb;stop-opacity:0;"
     offset="1"
     id="stop3183" />
</linearGradient>
<linearGradient
   inkscape:collect="always"
   id="linearGradient3163">
  <stop
     style="stop-color:#141414;stop-opacity:1;"
     offset="0"
     id="stop3165" />
  <stop
     style="stop-color:#141414;stop-opacity:0;"
     offset="1"
     id="stop3167" />
</linearGradient>
<linearGradient
   id="linearGradient3151">
  <stop
     style="stop-color:#000000;stop-opacity:1;"
     offset="0"
     id="stop3153" />
  <stop
     style="stop-color:#141414;stop-opacity:0;"
     offset="1"
     id="stop3155" />
</linearGradient>
<linearGradient
   id="linearGradient3141">
  <stop
     style="stop-color:#252525;stop-opacity:1;"
     offset="0"
     id="stop3143" />
  <stop
     style="stop-color:#504957;stop-opacity:1;"
     offset="1"
     id="stop3145" />
</linearGradient>
<linearGradient
   inkscape:collect="always"
   xlink:href="#linearGradient3141"
   id="linearGradient3147"
   x1="3.4579997"
   y1="48.529636"
   x2="3.9705696"
   y2="23.458"
   gradientUnits="userSpaceOnUse" />
<linearGradient
   inkscape:collect="always"
   xlink:href="#linearGradient3151"
   id="linearGradient3157"
   x1="26.928572"
   y1="32.714283"
   x2="26.642859"
   y2="40.642857"
   gradientUnits="userSpaceOnUse" />
<linearGradient
   inkscape:collect="always"
   xlink:href="#linearGradient3163"
   id="linearGradient3169"
   x1="-5.9705715"
   y1="30.815351"
   x2="7.1466904"
   y2="24.672495"
   gradientUnits="userSpaceOnUse" />
<linearGradient
   inkscape:collect="always"
   xlink:href="#linearGradient3163"
   id="linearGradient3173"
   gradientUnits="userSpaceOnUse"
   x1="-5.6848574"
   y1="30.38678"
   x2="7.1466904"
   y2="24.672495"
   gradientTransform="matrix(-1,0,0,1,48.458,0)" />
<linearGradient
   inkscape:collect="always"
   xlink:href="#linearGradient3179"
   id="linearGradient3185"
   x1="36.357143"
   y1="23.625"
   x2="36.42857"
   y2="24.982141"
   gradientUnits="userSpaceOnUse" />
<linearGradient
   inkscape:collect="always"
   xlink:href="#linearGradient3189"
   id="linearGradient3195"
   x1="24.285713"
   y1="34.857143"
   x2="24.285713"
   y2="49.571426"
   gradientUnits="userSpaceOnUse" />
<linearGradient
   inkscape:collect="always"
   xlink:href="#linearGradient3209"
   id="linearGradient3215"
   x1="24.357138"
   y1="42.411938"
   x2="24.357138"
   y2="33.697655"
   gradientUnits="userSpaceOnUse"
   gradientTransform="matrix(1.0611686,0,0,1.0938539,-1.6919233,-3.4691965)" />
<linearGradient
   inkscape:collect="always"
   xlink:href="#linearGradient3209"
   id="linearGradient3223"
   x1="25.364286"
   y1="10.159489"
   x2="25.492859"
   y2="46.016632"
   gradientUnits="userSpaceOnUse" />
<linearGradient
   inkscape:collect="always"
   xlink:href="#linearGradient3174"
   id="linearGradient3180"
   x1="-1.6428572"
   y1="26.464287"
   x2="6.2142857"
   y2="28.464286"
   gradientUnits="userSpaceOnUse" />
<linearGradient
   gradientTransform="matrix(1.1187335,0,0,1.1029024,-1.5197889,-1.0765172)"
   y2="19.3164"
   x2="17.5176"
   y1="17.0322"
   x1="19.8018"
   gradientUnits="userSpaceOnUse"
   id="linearGradient3299"
   xlink:href="#aigrd1"
   inkscape:collect="always" />
<radialGradient
   gradientTransform="matrix(1.1187335,0,0,1.1029024,-1.5197889,-1.0765172)"
   r="8.6705"
   fy="13.3359"
   fx="13.2148"
   cy="13.3359"
   cx="13.2148"
   gradientUnits="userSpaceOnUse"
   id="radialGradient3293"
   xlink:href="#aigrd2"
   inkscape:collect="always" />
<linearGradient
   gradientTransform="matrix(1.1187335,0,0,1.1029024,-1.5197889,-1.0765172)"
   y2="11.2965"
   x2="11.9571"
   y1="7.0679"
   x1="7.7285"
   gradientUnits="userSpaceOnUse"
   id="linearGradient3290"
   xlink:href="#aigrd3"
   inkscape:collect="always" />
<linearGradient
   gradientTransform="matrix(1.1187335,0,0,1.1029024,-1.5197889,-1.0765172)"
   y2="11.2965"
   x2="11.9571"
   y1="7.0679"
   x1="7.7285"
   gradientUnits="userSpaceOnUse"
   id="linearGradient3287"
   xlink:href="#aigrd3"
   inkscape:collect="always" />
<linearGradient
   gradientUnits="userSpaceOnUse"
   y2="15.483729"
   x2="11.86329"
   y1="15.483729"
   x1="9.2235518"
   id="linearGradient3282"
   xlink:href="#linearGradient3252"
   inkscape:collect="always" />
<linearGradient
   gradientUnits="userSpaceOnUse"
   y2="15.483729"
   x2="11.86329"
   y1="15.483729"
   x1="9.2235518"
   id="linearGradient3274"
   xlink:href="#linearGradient3260"
   inkscape:collect="always" />
<linearGradient
   gradientUnits="userSpaceOnUse"
   y2="9.8153035"
   x2="13.718959"
   y1="9.8153035"
   x1="6.3390501"
   id="linearGradient3266"
   xlink:href="#linearGradient3260"
   inkscape:collect="always" />
<linearGradient
   gradientUnits="userSpaceOnUse"
   y2="9.8153035"
   x2="13.718959"
   y1="9.8153035"
   x1="6.3390501"
   id="linearGradient3258"
   xlink:href="#linearGradient3252"
   inkscape:collect="always" />

		
		
		
	<linearGradient
   id="aigrd3"
   gradientUnits="userSpaceOnUse"
   x1="7.7285"
   y1="7.0679"
   x2="11.9571"
   y2="11.2965">
			<stop
   offset="0"
   style="stop-color:#FFFFFF"
   id="stop38" />

			<stop
   offset="1"
   style="stop-color:#a8bddb;stop-opacity:0;"
   id="stop40" />

		</linearGradient>

		
		<radialGradient
   id="aigrd2"
   cx="13.2148"
   cy="13.3359"
   r="8.6705"
   fx="13.2148"
   fy="13.3359"
   gradientUnits="userSpaceOnUse">
			<stop
   offset="0"
   style="stop-color:#FFFFFF"
   id="stop25" />

			<stop
   offset="0.7303"
   style="stop-color:#3F4A8E"
   id="stop27" />

			<stop
   offset="0.8388"
   style="stop-color:#3A4A92"
   id="stop29" />

			<stop
   offset="0.997"
   style="stop-color:#2C499E"
   id="stop31" />

			<stop
   offset="1"
   style="stop-color:#2C499E"
   id="stop33" />

		</radialGradient>

		
		
		
		
		<linearGradient
   id="aigrd1"
   gradientUnits="userSpaceOnUse"
   x1="19.8018"
   y1="17.0322"
   x2="17.5176"
   y2="19.3164">
			<stop
   offset="0"
   style="stop-color:#304A2F"
   id="stop10" />

			<stop
   offset="0.3315"
   style="stop-color:#6FAB6C"
   id="stop12" />

			<stop
   offset="1"
   style="stop-color:#304A2F"
   id="stop14" />

		</linearGradient>

		
		
		<linearGradient
   id="linearGradient3252">
  <stop
     id="stop3254"
     offset="0"
     style="stop-color:#ffcc33;stop-opacity:1;" />
  <stop
     id="stop3256"
     offset="1"
     style="stop-color:#a17f16;stop-opacity:1;" />
</linearGradient>
<linearGradient
   id="linearGradient3260">
  <stop
     id="stop3262"
     offset="0"
     style="stop-color:#382c07;stop-opacity:1;" />
  <stop
     id="stop3264"
     offset="1"
     style="stop-color:#b9aa7c;stop-opacity:0.75294119;" />
</linearGradient>
</defs>
  <sodipodi:namedview
     id="base"
     pagecolor="#ffffff"
     bordercolor="#666666"
     borderopacity="1.0"
     inkscape:pageopacity="0.0"
     inkscape:pageshadow="2"
     inkscape:zoom="4.9497475"
     inkscape:cx="18.215569"
     inkscape:cy="20.324569"
     inkscape:current-layer="layer1"
     showgrid="true"
     inkscape:grid-bbox="false"
     inkscape:document-units="px"
     inkscape:window-width="872"
     inkscape:window-height="621"
     inkscape:window-x="406"
     inkscape:window-y="104"
     inkscape:object-paths="false"
     inkscape:guide-bbox="false" />
  <metadata
     id="metadata2183">
    <rdf:RDF>
      <cc:Work
         rdf:about="">
        <dc:format>image/svg+xml</dc:format>
        <dc:type
           rdf:resource="http://purl.org/dc/dcmitype/StillImage" />
        <dc:title>Kamel icons</dc:title>
        <dc:creator>
          <cc:Agent>
            <dc:title>Pawel Krupski</dc:title>
          </cc:Agent>
        </dc:creator>
        <cc:license
           rdf:resource="http://creativecommons.org/licenses/by-nc/2.5/" />
      </cc:Work>
      <cc:License
         rdf:about="http://creativecommons.org/licenses/by-nc/2.5/">
        <cc:permits
           rdf:resource="http://web.resource.org/cc/Reproduction" />
        <cc:permits
           rdf:resource="http://web.resource.org/cc/Distribution" />
        <cc:requires
           rdf:resource="http://web.resource.org/cc/Notice" />
        <cc:requires
           rdf:resource="http://web.resource.org/cc/Attribution" />
        <cc:prohibits
           rdf:resource="http://web.resource.org/cc/CommercialUse" />
        <cc:permits
           rdf:resource="http://web.resource.org/cc/DerivativeWorks" />
      </cc:License>
    </rdf:RDF>
  </metadata>
  <g
     id="layer1"
     inkscape:label="Layer 1"
     inkscape:groupmode="layer">
    <path
       style="fill:url(#linearGradient3195);fill-opacity:1;fill-rule:evenodd;stroke:#141414;stroke-width:1;stroke-linecap:round;stroke-linejoin:round;stroke-miterlimit:4;stroke-dashoffset:0;stroke-opacity:1"
       d="M 40.999999,40.538163 L 41.857142,44.604695 C 41.857142,45.77341 40.916263,46.714289 39.747548,46.714289 L 8.82388,46.714289 C 7.6551648,46.714289 6.7142859,45.77341 6.7142859,44.604695 L 7.7142859,40.252449 C 10.573571,35.558569 39.778944,36.635032 40.999999,40.538163 z "
       id="rect3187"
       sodipodi:nodetypes="ccccccc" />
    <rect
       style="opacity:1;fill:url(#linearGradient3147);fill-opacity:1.0;fill-rule:evenodd;stroke:#232428;stroke-width:0.784;stroke-linecap:round;stroke-linejoin:round;stroke-miterlimit:4;stroke-dasharray:none;stroke-dashoffset:0;stroke-opacity:1"
       id="rect2157"
       width="46.42857"
       height="24.202127"
       x="0.99999982"
       y="16.285715"
       rx="2.1095941" />
    <path
       style="fill:url(#linearGradient3223);fill-opacity:1.0;fill-rule:evenodd;stroke:#232c3b;stroke-width:0.8;stroke-linecap:round;stroke-linejoin:round;stroke-miterlimit:4;stroke-dashoffset:0;stroke-opacity:1;stroke-dasharray:none"
       d="M 6.2857143,18.818978 L 6.2857143,2.8953084 C 6.2857143,2.1223075 6.9080218,1.5 7.6810227,1.5 L 35.318978,1.5 L 42.000001,9.3238798 L 42.000001,18.818978"
       id="rect3128"
       sodipodi:nodetypes="cccccc" />
    <rect
       style="opacity:1;fill:#141414;fill-opacity:1;fill-rule:evenodd;stroke:#141414;stroke-width:0.64745796;stroke-linecap:round;stroke-linejoin:round;stroke-miterlimit:4;stroke-dasharray:none;stroke-dashoffset:0;stroke-opacity:1"
       id="rect3131"
       width="37.638256"
       height="0.92397052"
       x="5.1094432"
       y="18.32373"
       rx="1.356527" />
    <path
       style="fill:url(#linearGradient3157);fill-opacity:1;fill-rule:evenodd;stroke:#000000;stroke-width:1;stroke-linecap:round;stroke-linejoin:round;stroke-miterlimit:4;stroke-dashoffset:0;stroke-opacity:1"
       d="M 6.8571429,40.318977 L 6.8571429,32.538166 C 6.8571429,31.369451 7.7980219,30.428572 8.966737,30.428572 L 39.461836,30.428572 C 40.630551,30.428572 41.57143,31.369451 41.57143,32.538166 L 41.57143,40.318977"
       id="rect3149"
       sodipodi:nodetypes="cccccc" />
    <path
       style="fill:url(#linearGradient3169);fill-opacity:1.0;fill-rule:evenodd;stroke:#000000;stroke-width:0.584;stroke-linecap:round;stroke-linejoin:round;stroke-miterlimit:4;stroke-dashoffset:0;stroke-opacity:1;stroke-dasharray:none"
       d="M 5.318976,40.487843 L 3.1095939,40.487843 C 1.9408788,40.487843 0.99999982,39.546964 0.99999982,38.378248 L 0.99999982,18.395309 C 0.99999982,17.226594 1.9408788,16.285715 3.1095939,16.285715 L 5.318976,16.285715"
       id="rect3160"
       sodipodi:nodetypes="cccccc" />
    <path
       style="fill:url(#linearGradient3173);fill-opacity:1;fill-rule:evenodd;stroke:#000000;stroke-width:0.584;stroke-linecap:round;stroke-linejoin:round;stroke-miterlimit:4;stroke-dashoffset:0;stroke-opacity:1;stroke-dasharray:none"
       d="M 43.139024,40.487843 L 45.348406,40.487843 C 46.517121,40.487843 47.458,39.546964 47.458,38.378248 L 47.458,18.395309 C 47.458,17.226594 46.517121,16.285715 45.348406,16.285715 L 43.139024,16.285715"
       id="path3171"
       sodipodi:nodetypes="cccccc" />
    <path
       sodipodi:type="arc"
       style="opacity:1;fill:#14c3ff;fill-opacity:1;fill-rule:evenodd;stroke:#000000;stroke-width:0.7;stroke-linecap:round;stroke-linejoin:round;stroke-miterlimit:4;stroke-dasharray:none;stroke-dashoffset:0;stroke-opacity:0.49289098"
       id="path3175"
       sodipodi:cx="34.142857"
       sodipodi:cy="24.857143"
       sodipodi:rx="1.6428572"
       sodipodi:ry="1.6428572"
       d="M 35.785714,24.857143 A 1.6428572,1.6428572 0 1 1 35.785058,24.810741"
       sodipodi:start="0"
       sodipodi:end="6.2549367"
       sodipodi:open="true"
       transform="translate(2.0142862,-0.5714286)" />
    <path
       sodipodi:type="arc"
       style="opacity:1;fill:url(#linearGradient3185);fill-opacity:1.0;fill-rule:evenodd;stroke:none;stroke-width:0.69999999;stroke-linecap:round;stroke-linejoin:round;stroke-miterlimit:4;stroke-dasharray:none;stroke-dashoffset:0;stroke-opacity:0.49289096"
       id="path3177"
       sodipodi:cx="36.160713"
       sodipodi:cy="24.017857"
       sodipodi:rx="0.875"
       sodipodi:ry="0.58928573"
       d="M 37.035713,24.017857 A 0.875,0.58928573 0 1 1 37.035364,24.001212"
       sodipodi:start="0"
       sodipodi:end="6.2549367"
       sodipodi:open="true"
       transform="translate(-3.5713196e-2,-0.4285709)" />
    <path
       style="fill:url(#linearGradient3215);fill-opacity:1;fill-rule:evenodd;stroke:#565e74;stroke-width:0.75417101;stroke-linecap:round;stroke-linejoin:round;stroke-miterlimit:4;stroke-dashoffset:0;stroke-opacity:1"
       d="M 39.495314,37.279537 L 41.2096,44.384215 C 41.2096,45.316335 40.481614,46.066744 39.577347,46.066744 L 8.7328696,46.066744 C 7.8286016,46.066744 7.1006166,45.316335 7.1006166,44.384215 L 8.8149024,37.279537"
       id="rect3197"
       sodipodi:nodetypes="cccccc" />
    <rect
       style="opacity:1;fill:#252525;fill-opacity:0.85308057;fill-rule:evenodd;stroke:none;stroke-width:0.40000001;stroke-linecap:round;stroke-linejoin:round;stroke-miterlimit:4;stroke-dasharray:none;stroke-dashoffset:0;stroke-opacity:1"
       id="rect3247"
       width="11.515739"
       height="1.6162441"
       x="8.9903574"
       y="3.1002061" />
    <path
       style="fill:#e2347a;fill-opacity:0.6445498;fill-rule:evenodd;stroke:#913c40;stroke-width:0.57644421;stroke-linecap:round;stroke-linejoin:round;stroke-miterlimit:4;stroke-dashoffset:0;stroke-opacity:1"
       d="M 9.1795946,18.011262 L 9.1795946,6.2197565 L 38.003276,6.2197565 L 38.003276,18.011262"
       id="rect3253"
       sodipodi:nodetypes="cccc" />
    <path
       style="fill:#2690c4;fill-opacity:1;fill-rule:evenodd;stroke:none;stroke-width:0.40000001;stroke-linecap:round;stroke-linejoin:round;stroke-miterlimit:4;stroke-dashoffset:0;stroke-opacity:1"
       d="M 25.338325,15.390928 L 37.566554,15.31814 L 37.566553,18.011262 L 24.610453,18.011262 L 25.338325,15.390928 z "
       id="path3261"
       sodipodi:nodetypes="ccccc" />
    <path
       style="fill:#efcb0d;fill-opacity:1;fill-rule:evenodd;stroke:none;stroke-width:0.40000001;stroke-linecap:round;stroke-linejoin:round;stroke-miterlimit:4;stroke-dashoffset:0;stroke-opacity:1"
       d="M 12.818948,13.935186 L 22.572416,14.371909 L 31.889161,18.011262 L 9.1795946,18.011262 L 12.818948,13.935186 z "
       id="rect3255"
       sodipodi:nodetypes="ccccc" />
    <path
       sodipodi:type="arc"
       style="opacity:1;fill:#fffbd8;fill-opacity:1;fill-rule:evenodd;stroke:none;stroke-width:0.40000001;stroke-linecap:round;stroke-linejoin:round;stroke-miterlimit:4;stroke-dasharray:none;stroke-dashoffset:0;stroke-opacity:1"
       id="path3258"
       sodipodi:cx="26.162951"
       sodipodi:cy="12.846691"
       sodipodi:rx="1.3131983"
       sodipodi:ry="1.3131983"
       d="M 27.476149,12.846691 A 1.3131983,1.3131983 0 1 1 27.475625,12.8096"
       sodipodi:start="0"
       sodipodi:end="6.2549367"
       sodipodi:open="true"
       transform="matrix(1.8845291,0,0,1.8845291,-16.105514,-13.18626)" />
    <path
       style="fill:#252525;fill-opacity:0.22274882;fill-rule:evenodd;stroke:none;stroke-width:0.74447262;stroke-linecap:round;stroke-linejoin:round;stroke-miterlimit:4;stroke-dashoffset:0;stroke-opacity:1"
       d="M 42.011025,9.556335 L 36.028407,9.7187542 C 35.110889,9.7187542 34.372236,8.9143164 34.372236,7.9150814 L 34.67987,1.6389743"
       id="path3228"
       sodipodi:nodetypes="cccc" />
    <path
       style="fill:#fbfcfb;fill-opacity:1;fill-rule:evenodd;stroke:#24303a;stroke-width:0.8;stroke-linecap:round;stroke-linejoin:round;stroke-miterlimit:4;stroke-dashoffset:0;stroke-opacity:1;stroke-dasharray:none"
       d="M 41.890404,9.2214286 L 36.466737,8.5071429 C 35.614593,8.5071429 34.928571,7.8211214 34.928571,6.9689777 L 35.214285,1.616738"
       id="rect3225"
       sodipodi:nodetypes="cccc" />
    <path
       style="fill:none;fill-opacity:0.75;fill-rule:evenodd;stroke:url(#linearGradient3180);stroke-width:1px;stroke-linecap:butt;stroke-linejoin:miter;stroke-opacity:1"
       d="M 5.7142857,16.928571 L 3.5,16.928571 C 2.6667808,17.262019 1.8717442,17.633649 1.7857143,18.714286 L 1.7857143,38 C 2.0790238,39.611708 3.2695649,39.653261 4.2857143,40"
       id="path2200"
       sodipodi:nodetypes="ccccc" />
    <g
       id="g2277"
       transform="matrix(1.4740451,0,0,1.5495423,12.655035,10.977436)">
      <g
         inkscape:label="question"
         id="g2279">
        <path
           sodipodi:nodetypes="cssccccsscc"
           id="path2277"
           d="M 8.1055409,9.4986808 C 8.1055409,9.4986808 8.9287597,7.646438 9.8153034,7.5356201 C 10.701847,7.4248021 11.57256,8.3746701 11.588391,9.2453826 C 11.604222,10.116095 9.878628,11.01847 9.878628,11.01847 L 9.4986808,13.741425 L 11.841689,13.741425 L 11.525066,11.208443 C 11.525066,11.208443 13.551451,10.163588 13.171504,8.8654354 C 12.791557,7.5672824 11.461741,5.889182 9.9419525,5.889182 C 8.4221635,5.889182 6.8390501,8.3588391 6.8390501,8.3588391 L 8.1055409,9.4986808 z "
           style="fill:url(#linearGradient3258);fill-opacity:1;fill-rule:evenodd;stroke:url(#linearGradient3266);stroke-width:0.80000001;stroke-linecap:butt;stroke-linejoin:miter;stroke-miterlimit:4;stroke-dasharray:none;stroke-opacity:1" />
        <path
           sodipodi:nodetypes="cssss"
           id="path2279"
           d="M 10.448549,14.881266 C 10.907652,14.912928 11.430079,15.340369 11.461741,15.641161 C 11.493403,15.941953 11.034301,16.116095 10.575198,16.084433 C 10.116095,16.052771 9.656992,15.815304 9.6253298,15.514512 C 9.5936676,15.21372 9.9894462,14.849604 10.448549,14.881266 z "
           style="fill:url(#linearGradient3282);fill-opacity:1;fill-rule:evenodd;stroke:url(#linearGradient3274);stroke-width:0.80000001;stroke-linecap:butt;stroke-linejoin:miter;stroke-miterlimit:4;stroke-dasharray:none;stroke-opacity:1" />
      </g>
      <path
         style="fill-rule:nonzero;stroke:#000000;stroke-width:0.84042352;stroke-miterlimit:4"
         d="M 1.6126649,10.503958 C 1.6126649,15.467019 5.7519789,19.547758 10.78628,19.547758 C 12.352507,19.547758 14.030607,19.106597 15.373087,18.334565 C 15.48496,18.665436 15.708707,18.996306 15.932454,19.216887 L 18.729287,21.974143 C 19.176781,22.415304 19.848021,22.746175 20.519261,22.746175 C 21.190501,22.746175 21.861741,22.525594 22.309235,21.974143 C 22.756728,21.422692 23.092348,20.871241 23.092348,20.209499 C 23.092348,19.547758 22.868601,18.886016 22.309235,18.444855 L 19.512401,15.687599 C 19.288654,15.467019 18.953034,15.246438 18.617414,15.136148 C 19.400528,13.702375 19.848021,12.158312 19.848021,10.503958 C 19.848021,5.5408972 15.708707,1.4601583 10.674406,1.4601583 C 5.6401055,1.4601583 1.5007916,5.5408972 1.5007916,10.503958 L 1.6126649,10.503958 z M 4.2976253,10.503958 C 4.2976253,6.9746703 7.2063324,4.1071241 10.78628,4.1071241 C 14.366227,4.1071241 17.274934,6.9746703 17.274934,10.503958 C 17.274934,14.033246 14.366227,16.900792 10.78628,16.900792 C 7.2063324,16.900792 4.2976253,14.033246 4.2976253,10.503958 z "
         id="path5" />
      <path
         style="fill:#919191;fill-rule:nonzero;stroke:none;stroke-miterlimit:4"
         d="M 22.085488,19.106597 L 19.176781,16.23905 C 18.729287,15.79789 17.946174,15.577309 17.274934,15.79789 C 18.505541,14.364116 19.288654,12.489182 19.288654,10.393668 C 19.288654,5.7614777 15.48496,1.9013193 10.674406,1.9013193 C 5.9757256,1.9013193 2.0601583,5.6511874 2.0601583,10.393668 C 2.0601583,15.025858 5.8638522,18.886016 10.674406,18.886016 C 12.688127,18.886016 14.589974,18.113985 16.1562,17.011082 C 15.932454,17.672824 16.044327,18.334565 16.603694,18.886016 L 19.512401,21.753562 C 20.183641,22.415304 21.414248,22.415304 22.085488,21.753562 C 22.756728,21.091821 22.756728,19.878628 22.085488,19.216887 L 22.085488,19.106597 z M 10.78628,17.783114 C 6.6469657,17.783114 3.4026385,14.474407 3.4026385,10.503958 C 3.4026385,6.4232191 6.758839,3.2248022 10.78628,3.2248022 C 14.925594,3.2248022 18.169921,6.5335094 18.169921,10.503958 C 18.169921,14.584697 14.81372,17.783114 10.78628,17.783114 L 10.78628,17.783114 z "
         id="path7" />
      <path
         style="fill:url(#linearGradient3299);fill-rule:nonzero;stroke:none;stroke-miterlimit:4"
         d="M 19.176781,16.23905 L 16.603694,18.775726 L 19.512401,21.643272 L 22.085488,19.106597 L 19.176781,16.23905 L 19.176781,16.23905 z "
         id="path16" />
      <path
         style="opacity:0.54000005;fill:none;fill-rule:nonzero;stroke:#ffffff;stroke-width:0.82442814;stroke-linecap:round;stroke-miterlimit:4"
         d="M 18.393667,17.121372 L 21.078628,19.768338"
         id="path18" />
      <path
         style="opacity:0.5;fill:none;fill-rule:nonzero;stroke:#ffffff;stroke-width:0.41221407;stroke-linecap:round;stroke-miterlimit:4"
         d="M 2.6195251,10.283378 C 2.6195251,5.9820582 6.1994723,2.4527705 10.562533,2.4527705"
         id="path20" />
      <path
         style="opacity:0.5;fill:none;fill-rule:nonzero;stroke:#ffffff;stroke-width:0.41221407;stroke-linecap:round;stroke-miterlimit:4"
         d="M 18.393667,11.055409 C 18.393667,14.915568 15.261214,18.003694 11.345646,18.003694"
         id="path22" />
      <path
         style="opacity:0.47000002;fill:url(#radialGradient3293);fill-rule:nonzero;stroke:none;stroke-miterlimit:4"
         d="M 16.82744,10.393668 C 16.82744,13.702375 14.14248,16.349341 10.78628,16.349341 C 7.4300791,16.349341 4.7451187,13.702375 4.7451187,10.393668 C 4.6332454,7.0849606 7.4300791,4.4379948 10.78628,4.4379948 C 14.14248,4.4379948 16.82744,7.0849606 16.82744,10.393668 z "
         id="path35" />
      <path
         style="fill:url(#linearGradient3290);fill-rule:nonzero;stroke:none;stroke-miterlimit:4"
         d="M 5.1926121,10.393668 C 5.1926121,7.4158313 7.6538258,4.8791558 10.78628,4.8791558 C 18.281794,4.8791558 5.1926121,17.011082 5.1926121,10.393668 z "
         id="path42" />
      <path
         style="opacity:0.47999998;fill:url(#linearGradient3287);fill-rule:nonzero;stroke:none;stroke-miterlimit:4"
         d="M 5.1926121,10.393668 C 5.1926121,7.4158313 7.6538258,4.8791558 10.78628,4.8791558 C 18.281794,4.8791558 5.1926121,17.011082 5.1926121,10.393668 z "
         id="path58" />
      <g
         transform="matrix(1.1187335,0,0,1.1029024,-1.5197889,-1.0765172)"
         style="fill-rule:nonzero;stroke:#000000;stroke-miterlimit:4"
         id="Layer_x0020_2">
		<path
   id="path61"
   d="M 24,24 L 0,24 L 0,0 L 24,0 L 24,24 z "
   style="fill:none;stroke:none" />

	</g>
    </g>
  </g>
</svg>
