<?xml version="1.0" encoding="UTF-8" standalone="no"?>
<!-- Created with Inkscape (http://www.inkscape.org/) -->
<svg
   xmlns:dc="http://purl.org/dc/elements/1.1/"
   xmlns:cc="http://web.resource.org/cc/"
   xmlns:rdf="http://www.w3.org/1999/02/22-rdf-syntax-ns#"
   xmlns:svg="http://www.w3.org/2000/svg"
   xmlns="http://www.w3.org/2000/svg"
   xmlns:xlink="http://www.w3.org/1999/xlink"
   xmlns:sodipodi="http://sodipodi.sourceforge.net/DTD/sodipodi-0.dtd"
   xmlns:inkscape="http://www.inkscape.org/namespaces/inkscape"
   width="48px"
   height="48px"
   id="svg2178"
   sodipodi:version="0.32"
   inkscape:version="0.45.1"
   sodipodi:docname="drive-removable-media.svg"
   sodipodi:docbase="/home/pawel/Desktop/Projekty/IKONY/alpha1/scalable/devices"
   inkscape:output_extension="org.inkscape.output.svg.inkscape"
   inkscape:export-filename="/home/pawel/Desktop/usb"
   inkscape:export-xdpi="90"
   inkscape:export-ydpi="90">
  <defs
     id="defs2180">
    <linearGradient
       id="linearGradient6117">
      <stop
         style="stop-color:#63686b;stop-opacity:1;"
         offset="0"
         id="stop6119" />
      <stop
         style="stop-color:#403b3f;stop-opacity:1;"
         offset="1"
         id="stop6121" />
    </linearGradient>
    <linearGradient
       inkscape:collect="always"
       id="linearGradient5140">
      <stop
         style="stop-color:#54414e;stop-opacity:1;"
         offset="0"
         id="stop5142" />
      <stop
         style="stop-color:#54414e;stop-opacity:0;"
         offset="1"
         id="stop5144" />
    </linearGradient>
    <linearGradient
       inkscape:collect="always"
       id="linearGradient4159">
      <stop
         style="stop-color:#fbfcfb;stop-opacity:1;"
         offset="0"
         id="stop4161" />
      <stop
         style="stop-color:#fbfcfb;stop-opacity:0;"
         offset="1"
         id="stop4163" />
    </linearGradient>
    <linearGradient
       inkscape:collect="always"
       id="linearGradient4149">
      <stop
         style="stop-color:#36414e;stop-opacity:1;"
         offset="0"
         id="stop4151" />
      <stop
         style="stop-color:#36414e;stop-opacity:0;"
         offset="1"
         id="stop4153" />
    </linearGradient>
    <linearGradient
       id="linearGradient4137">
      <stop
         style="stop-color:#bbbbbd;stop-opacity:1;"
         offset="0"
         id="stop4139" />
      <stop
         id="stop4145"
         offset="0.5"
         style="stop-color:#f2eaf0;stop-opacity:1;" />
      <stop
         style="stop-color:#bbbbbd;stop-opacity:1;"
         offset="1"
         id="stop4141" />
    </linearGradient>
    <linearGradient
       inkscape:collect="always"
       id="linearGradient3158">
      <stop
         style="stop-color:#ffffff;stop-opacity:1;"
         offset="0"
         id="stop3160" />
      <stop
         style="stop-color:#ffffff;stop-opacity:0;"
         offset="1"
         id="stop3162" />
    </linearGradient>
    <linearGradient
       id="linearGradient3147">
      <stop
         style="stop-color:#ad77ce;stop-opacity:1;"
         offset="0"
         id="stop3149" />
      <stop
         style="stop-color:#7a557e;stop-opacity:1;"
         offset="1"
         id="stop3151" />
    </linearGradient>
    <linearGradient
       inkscape:collect="always"
       xlink:href="#linearGradient3147"
       id="linearGradient3153"
       x1="27.785713"
       y1="18.500002"
       x2="34.07143"
       y2="45.642857"
       gradientUnits="userSpaceOnUse"
       gradientTransform="translate(0,-0.4285714)" />
    <linearGradient
       inkscape:collect="always"
       xlink:href="#linearGradient3158"
       id="linearGradient3164"
       x1="22.428572"
       y1="-26.415705"
       x2="27.85714"
       y2="20.727152"
       gradientUnits="userSpaceOnUse"
       gradientTransform="matrix(1,0,0,1.025822,0,-0.9124756)" />
    <linearGradient
       inkscape:collect="always"
       xlink:href="#linearGradient4137"
       id="linearGradient4143"
       x1="18.835714"
       y1="47.592857"
       x2="36.30714"
       y2="43.5"
       gradientUnits="userSpaceOnUse"
       gradientTransform="translate(-0.5714286,-0.4285714)" />
    <radialGradient
       inkscape:collect="always"
       xlink:href="#linearGradient4149"
       id="radialGradient4155"
       cx="25.857143"
       cy="46"
       fx="25.857143"
       fy="46"
       r="13.428572"
       gradientTransform="matrix(1,0,0,0.1276596,0,40.12766)"
       gradientUnits="userSpaceOnUse" />
    <linearGradient
       inkscape:collect="always"
       xlink:href="#linearGradient4159"
       id="linearGradient4165"
       x1="12.642858"
       y1="10.642857"
       x2="21.071428"
       y2="13.642858"
       gradientUnits="userSpaceOnUse"
       gradientTransform="translate(0.4285714,2.8571424e-8)" />
    <linearGradient
       inkscape:collect="always"
       xlink:href="#linearGradient5140"
       id="linearGradient5146"
       x1="39.214283"
       y1="30.714285"
       x2="33.642857"
       y2="29"
       gradientUnits="userSpaceOnUse"
       gradientTransform="translate(0.1428571,0.1428572)" />
    <linearGradient
       inkscape:collect="always"
       xlink:href="#linearGradient6117"
       id="linearGradient6123"
       x1="27.264286"
       y1="42.857143"
       x2="27.021429"
       y2="47.592857"
       gradientUnits="userSpaceOnUse"
       gradientTransform="translate(0,-0.4285714)" />
  </defs>
  <sodipodi:namedview
     id="base"
     pagecolor="#ffffff"
     bordercolor="#666666"
     borderopacity="1.0"
     inkscape:pageopacity="0.0"
     inkscape:pageshadow="2"
     inkscape:zoom="9.8994949"
     inkscape:cx="24"
     inkscape:cy="18.08"
     inkscape:current-layer="layer1"
     showgrid="true"
     inkscape:grid-bbox="true"
     inkscape:document-units="px"
     inkscape:window-width="872"
     inkscape:window-height="706"
     inkscape:window-x="225"
     inkscape:window-y="233"
     showguides="true"
     inkscape:guide-bbox="true" />
  <metadata
     id="metadata2183">
    <rdf:RDF>
      <cc:Work
         rdf:about="">
        <dc:format>image/svg+xml</dc:format>
        <dc:type
           rdf:resource="http://purl.org/dc/dcmitype/StillImage" />
        <dc:title>Kamel icons</dc:title>
        <dc:creator>
          <cc:Agent>
            <dc:title>Pawel Krupski</dc:title>
          </cc:Agent>
        </dc:creator>
        <cc:license
           rdf:resource="http://creativecommons.org/licenses/by-nc/2.5/" />
      </cc:Work>
      <cc:License
         rdf:about="http://creativecommons.org/licenses/by-nc/2.5/">
        <cc:permits
           rdf:resource="http://web.resource.org/cc/Reproduction" />
        <cc:permits
           rdf:resource="http://web.resource.org/cc/Distribution" />
        <cc:requires
           rdf:resource="http://web.resource.org/cc/Notice" />
        <cc:requires
           rdf:resource="http://web.resource.org/cc/Attribution" />
        <cc:prohibits
           rdf:resource="http://web.resource.org/cc/CommercialUse" />
        <cc:permits
           rdf:resource="http://web.resource.org/cc/DerivativeWorks" />
      </cc:License>
    </rdf:RDF>
  </metadata>
  <g
     id="layer1"
     inkscape:label="Layer 1"
     inkscape:groupmode="layer">
    <path
       sodipodi:type="arc"
       style="opacity:0.75892861;fill:url(#radialGradient4155);fill-opacity:1;fill-rule:evenodd;stroke:none;stroke-width:0.89999998;stroke-linecap:round;stroke-linejoin:round;stroke-miterlimit:4;stroke-dasharray:none;stroke-dashoffset:0;stroke-opacity:1"
       id="path4147"
       sodipodi:cx="25.857143"
       sodipodi:cy="46"
       sodipodi:rx="13.428572"
       sodipodi:ry="1.7142857"
       d="M 39.285715 46 A 13.428572 1.7142857 0 1 1  12.428572,46 A 13.428572 1.7142857 0 1 1  39.285715 46 z"
       transform="translate(0,0.2857143)" />
    <rect
       style="opacity:1;fill:url(#linearGradient4143);fill-opacity:1;fill-rule:evenodd;stroke:url(#linearGradient6123);stroke-width:0.89999998;stroke-linecap:round;stroke-linejoin:round;stroke-miterlimit:4;stroke-dasharray:none;stroke-dashoffset:0;stroke-opacity:1"
       id="rect3166"
       width="17.142857"
       height="8.5714264"
       x="17"
       y="38.14286"
       rx="1.9928211"
       ry="0" />
    <rect
       style="opacity:1;fill:url(#linearGradient3153);fill-opacity:1;fill-rule:evenodd;stroke:#313235;stroke-width:1;stroke-linecap:round;stroke-linejoin:round;stroke-miterlimit:4;stroke-dasharray:none;stroke-dashoffset:0;stroke-opacity:1"
       id="rect3145"
       width="24.42857"
       height="38.285713"
       x="13.142857"
       y="0.85714287"
       rx="1.9928211"
       ry="1.9928211"
       inkscape:export-xdpi="90"
       inkscape:export-ydpi="90" />
    <path
       style="fill:url(#linearGradient3164);fill-opacity:1;fill-rule:evenodd;stroke:none;stroke-width:0.60000002;stroke-linecap:round;stroke-linejoin:round;stroke-miterlimit:4;stroke-dashoffset:0;stroke-opacity:1"
       d="M 15.849964,1.2857143 L 35.007176,1.2857143 C 36.111199,1.2857143 36.999997,2.197463 36.999997,3.3299939 L 36.999997,16.680409 C 32.608395,23.479296 17.691619,6.1450624 13.857142,16.680409 L 13.857142,3.3299939 C 13.857142,2.197463 14.745941,1.2857143 15.849964,1.2857143 z "
       id="rect3155"
       sodipodi:nodetypes="ccccccc" />
    <path
       style="opacity:1;fill:#ffffff;fill-opacity:1;fill-rule:evenodd;stroke:#685a72;stroke-width:1.749;stroke-linecap:round;stroke-linejoin:round;stroke-miterlimit:4;stroke-dasharray:none;stroke-dashoffset:0;stroke-opacity:1"
       d="M 25.259125,2.8460769 C 23.859753,2.8460769 22.717429,3.9884011 22.717429,5.3877728 C 22.717429,6.4956088 23.436394,7.4230587 24.427298,7.7677244 C 24.415436,7.8115783 24.404192,7.8586553 24.404192,7.9063623 L 24.404192,16.548129 C 23.808203,17.483918 23.158499,18.376292 22.20909,18.650805 C 19.954286,19.30276 18.980565,21.837639 18.927992,24.773981 C 18.134369,25.022532 17.541612,25.724151 17.541612,26.599381 C 17.541612,27.678063 18.426968,28.563418 19.50565,28.563418 C 20.584333,28.563419 21.446582,27.678063 21.446582,26.599381 C 21.446582,25.772615 20.947854,25.082397 20.221946,24.797088 C 20.361164,22.248747 20.973028,20.673588 22.971599,20.037184 C 23.539298,19.856412 24.009835,19.523282 24.404192,19.112931 L 24.404192,31.659666 L 21.77007,31.659666 L 24.958743,35.587742 L 28.794393,31.659666 L 26.090953,31.659666 L 26.090953,12.181033 C 26.629029,13.203516 27.38678,14.31026 28.609542,14.699623 C 30.613892,15.337867 31.199218,16.921165 31.336089,19.482632 C 30.624168,19.774583 30.111454,20.468237 30.111454,21.284926 C 30.111454,22.363608 30.996808,23.225857 32.075492,23.225857 C 33.154174,23.225857 34.016423,22.363609 34.016423,21.284926 C 34.016423,20.407296 33.45014,19.659833 32.65315,19.413313 C 32.595746,16.486811 31.62095,13.963492 29.372051,13.313243 C 27.83925,12.870048 27.021877,10.857357 26.090953,9.5700177 L 26.090953,7.9063623 C 26.090953,7.8577925 26.080127,7.8122852 26.067847,7.7677244 C 27.069524,7.4290545 27.800821,6.5033099 27.800821,5.3877728 C 27.800821,3.9884009 26.658497,2.8460768 25.259125,2.8460769 z "
       id="path6128" />
    <path
       style="opacity:1;fill:#ffffff;fill-opacity:1;fill-rule:evenodd;stroke:none;stroke-width:0.54929662;stroke-linecap:round;stroke-linejoin:round;stroke-miterlimit:4;stroke-dasharray:none;stroke-dashoffset:0;stroke-opacity:1"
       d="M 25.259125,2.8460769 C 23.859753,2.8460769 22.717429,3.9884011 22.717429,5.3877728 C 22.717429,6.4956088 23.436394,7.4230587 24.427298,7.7677244 C 24.415436,7.8115783 24.404192,7.8586553 24.404192,7.9063623 L 24.404192,16.548129 C 23.808203,17.483918 23.158499,18.376292 22.20909,18.650805 C 19.954286,19.30276 18.980565,21.837639 18.927992,24.773981 C 18.134369,25.022532 17.541612,25.724151 17.541612,26.599381 C 17.541612,27.678063 18.426968,28.563418 19.50565,28.563418 C 20.584333,28.563419 21.446582,27.678063 21.446582,26.599381 C 21.446582,25.772615 20.947854,25.082397 20.221946,24.797088 C 20.361164,22.248747 20.973028,20.673588 22.971599,20.037184 C 23.539298,19.856412 24.009835,19.523282 24.404192,19.112931 L 24.404192,31.659666 L 21.77007,31.659666 L 24.958743,35.587742 L 28.794393,31.659666 L 26.090953,31.659666 L 26.090953,12.181033 C 26.629029,13.203516 27.38678,14.31026 28.609542,14.699623 C 30.613892,15.337867 31.199218,16.921165 31.336089,19.482632 C 30.624168,19.774583 30.111454,20.468237 30.111454,21.284926 C 30.111454,22.363608 30.996808,23.225857 32.075492,23.225857 C 33.154174,23.225857 34.016423,22.363609 34.016423,21.284926 C 34.016423,20.407296 33.45014,19.659833 32.65315,19.413313 C 32.595746,16.486811 31.62095,13.963492 29.372051,13.313243 C 27.83925,12.870048 27.021877,10.857357 26.090953,9.5700177 L 26.090953,7.9063623 C 26.090953,7.8577925 26.080127,7.8122852 26.067847,7.7677244 C 27.069524,7.4290545 27.800821,6.5033099 27.800821,5.3877728 C 27.800821,3.9884009 26.658497,2.8460768 25.259125,2.8460769 z "
       id="path2157" />
    <path
       style="fill:none;fill-opacity:0.75;fill-rule:evenodd;stroke:url(#linearGradient4165);stroke-width:1px;stroke-linecap:round;stroke-linejoin:miter;stroke-opacity:1"
       d="M 24,2 L 16.428571,2 C 15.668874,2.341059 14.691327,1.9196474 14.428571,4 L 14.428571,37"
       id="path4157"
       sodipodi:nodetypes="cccc" />
  </g>
</svg>
