<?xml version="1.0" encoding="UTF-8" standalone="no"?>
<!-- Created with Inkscape (http://www.inkscape.org/) -->
<svg
   xmlns:dc="http://purl.org/dc/elements/1.1/"
   xmlns:cc="http://creativecommons.org/ns#"
   xmlns:rdf="http://www.w3.org/1999/02/22-rdf-syntax-ns#"
   xmlns:svg="http://www.w3.org/2000/svg"
   xmlns="http://www.w3.org/2000/svg"
   xmlns:xlink="http://www.w3.org/1999/xlink"
   xmlns:sodipodi="http://sodipodi.sourceforge.net/DTD/sodipodi-0.dtd"
   xmlns:inkscape="http://www.inkscape.org/namespaces/inkscape"
   width="48"
   height="48"
   id="svg2"
   sodipodi:version="0.32"
   inkscape:version="0.46"
   version="1.0"
   sodipodi:docbase="/home/tim/pix/icons/Baroque/scalable/filesystems"
   sodipodi:docname="edit-delete.svg"
   inkscape:output_extension="org.inkscape.output.svg.inkscape">
  <defs
     id="defs4">
    <inkscape:perspective
       sodipodi:type="inkscape:persp3d"
       inkscape:vp_x="0 : 45 : 1"
       inkscape:vp_y="0 : 1000 : 0"
       inkscape:vp_z="90 : 45 : 1"
       inkscape:persp3d-origin="45 : 30 : 1"
       id="perspective32" />
    <linearGradient
       id="linearGradient3166">
      <stop
         style="stop-color:#83380d;stop-opacity:1;"
         offset="0"
         id="stop3168" />
      <stop
         style="stop-color:#8a4c1e;stop-opacity:1;"
         offset="1"
         id="stop3170" />
    </linearGradient>
    <linearGradient
       id="linearGradient3293">
      <stop
         style="stop-color:#633029;stop-opacity:0;"
         offset="0"
         id="stop3295" />
      <stop
         style="stop-color:#000000;stop-opacity:1;"
         offset="1"
         id="stop3297" />
    </linearGradient>
    <linearGradient
       inkscape:collect="always"
       xlink:href="#linearGradient3293"
       id="linearGradient3299"
       x1="13.510554"
       y1="13.891821"
       x2="74.589706"
       y2="13.891821"
       gradientUnits="userSpaceOnUse" />
    <filter
       inkscape:collect="always"
       id="filter3364">
      <feGaussianBlur
         inkscape:collect="always"
         stdDeviation="0.77906227"
         id="feGaussianBlur3366" />
    </filter>
    <linearGradient
       inkscape:collect="always"
       xlink:href="#linearGradient3166"
       id="linearGradient3172"
       x1="33.245384"
       y1="29.658312"
       x2="42.269131"
       y2="69.365433"
       gradientUnits="userSpaceOnUse"
       spreadMethod="pad" />
    <linearGradient
       inkscape:collect="always"
       xlink:href="#linearGradient3166"
       id="linearGradient2433"
       gradientUnits="userSpaceOnUse"
       spreadMethod="pad"
       x1="33.245384"
       y1="29.658312"
       x2="42.269131"
       y2="69.365433" />
    <linearGradient
       inkscape:collect="always"
       xlink:href="#linearGradient3293"
       id="linearGradient2435"
       gradientUnits="userSpaceOnUse"
       x1="13.510554"
       y1="13.891821"
       x2="74.589706"
       y2="13.891821" />
  </defs>
  <sodipodi:namedview
     id="base"
     pagecolor="#ffffff"
     bordercolor="#666666"
     borderopacity="1.0"
     gridtolerance="10000"
     guidetolerance="10"
     objecttolerance="10"
     inkscape:pageopacity="0.0"
     inkscape:pageshadow="2"
     inkscape:zoom="8.4222222"
     inkscape:cx="40.032855"
     inkscape:cy="20.831773"
     inkscape:document-units="px"
     inkscape:current-layer="layer3"
     width="90px"
     height="90px"
     inkscape:window-width="867"
     inkscape:window-height="686"
     inkscape:window-x="164"
     inkscape:window-y="146"
     showgrid="true">
    <inkscape:grid
       type="xygrid"
       id="grid2429"
       visible="true"
       enabled="true" />
    <inkscape:grid
       type="axonomgrid"
       id="grid2431"
       units="mm"
       visible="true"
       enabled="true" />
  </sodipodi:namedview>
  <metadata
     id="metadata7">
    <rdf:RDF>
      <cc:Work
         rdf:about="">
        <dc:format>image/svg+xml</dc:format>
        <dc:type
           rdf:resource="http://purl.org/dc/dcmitype/StillImage" />
      </cc:Work>
    </rdf:RDF>
  </metadata>
  <g
     inkscape:label="Layer 1"
     inkscape:groupmode="layer"
     id="layer1"
     style="display:inline"
     transform="translate(0.6975622,-4.2793465)" />
  <g
     inkscape:groupmode="layer"
     id="layer2"
     inkscape:label="colours"
     style="display:inline"
     transform="translate(0.6975622,-4.2793465)" />
  <g
     inkscape:groupmode="layer"
     id="layer4"
     inkscape:label="empty"
     style="display:inline"
     transform="translate(0.6975622,-4.2793465)" />
  <g
     inkscape:groupmode="layer"
     id="layer3"
     inkscape:label="trace"
     style="display:inline"
     transform="translate(0.6975622,-4.2793465)">
    <g
       id="g2415"
       transform="matrix(-0.5328233,0,0,0.5351401,46.884034,4.9892967)">
      <path
         transform="matrix(0.9985978,4.7993646e-2,0.3085498,0.9227117,-25.523845,3.835493)"
         id="path3354"
         d="M 7.3125,56.96875 C 6.8834287,56.997767 8.6511816,58.208523 9.78125,58.65625 C 10.42312,58.910554 11.151587,59.603356 11.46875,60.25 C 12.577989,62.511561 15.629235,68.474754 16.34375,69.78125 C 16.743983,70.513082 17.796316,72.419705 18.6875,74.03125 L 20.3125,76.96875 L 18.8125,77.15625 C 15.605362,77.605673 16.614023,77.990771 29.96875,81.34375 C 36.415133,82.962245 42.57833,84.521413 43.65625,84.78125 C 48.805811,86.022578 50.525336,86.51214 50.5,86.78125 C 50.452636,87.284376 51.437728,87.265543 55.65625,86.71875 C 56.052873,86.667341 56.310869,86.643162 56.6875,86.59375 L 53.65625,86.78125 L 65.75,77.4375 C 65.489355,77.28464 65.590469,77.172921 66.0625,77 C 66.6513,76.784302 66.737204,76.480783 66.3125,76.09375 L 75.4375,69.15625 C 75.818121,69.130496 76.199109,69.127308 76.59375,69.09375 L 77.65625,68.25 L 77.8125,68.15625 C 77.629845,68.166972 77.427522,68.201738 77.1875,68.1875 C 76.997215,68.176212 76.864197,68.168614 76.75,68.15625 L 76.9375,68.03125 L 76.75,68 C 76.828703,67.982468 76.884486,67.958335 77,67.9375 C 77.622109,67.825289 77.664701,67.702148 77.1875,67.46875 C 76.576505,67.169914 57.023027,62.771343 41.03125,59.34375 L 34.8125,58 L 21.1875,57.46875 C 13.682064,57.17669 7.4349165,56.960471 7.3125,56.96875 z M 19,60.34375 C 18.999813,60.337057 19.028789,60.342812 19.0625,60.34375 C 19.139555,60.345893 19.301962,60.394263 19.5625,60.4375 C 20.10521,60.527565 23.925014,61.343253 28.0625,62.28125 C 45.57867,66.252264 51.457743,67.586297 54.40625,68.21875 C 56.124108,68.587228 57.374892,68.935079 57.15625,69 C 56.509571,69.192014 56.591565,69.217441 29.03125,62.84375 C 22.788227,61.39997 19.002803,60.444142 19,60.34375 z"
         style="fill:#171717;fill-opacity:0.6;display:inline;filter:url(#filter3364)" />
      <path
         style="fill:#b4a08a;display:inline"
         d="M 47.55752,82.295111 C 45.594934,81.713291 39.305739,79.968414 33.58153,78.417598 C 27.857322,76.866787 22.839347,75.343982 22.430475,75.033591 C 21.28088,74.160891 21.550664,71.588959 22.946398,70.115134 C 24.345057,68.638218 24.282989,67.955607 21.735903,56.80251 C 20.04167,49.383859 15.889834,28.803142 15.392441,25.35787 C 15.086559,23.239126 14.502309,21.983797 13.306239,20.875424 C 11.32915,19.043293 10.567383,16.667792 11.687229,15.826684 C 12.117129,15.50379 14.20843,14.498903 16.334565,13.593602 C 18.460699,12.688301 23.79638,10.344288 28.191633,8.3846837 L 36.183002,4.8217678 L 41.870261,5.5494656 C 58.261934,7.6468178 78.457689,10.966508 78.884771,11.633748 C 79.60052,12.751989 79.528071,12.919307 77.376554,15.116963 C 75.637096,16.893723 75.247011,17.880934 74.368499,22.729629 C 73.2734,28.773673 70.286838,42.667431 67.464074,54.849607 C 65.31609,64.119645 65.305016,64.464202 67.140343,64.921166 C 68.966493,65.375835 69.499645,66.707134 68.450595,68.1929 C 68.002858,68.827033 64.635697,72.522292 60.968017,76.404596 C 53.544124,84.262915 53.806528,84.147658 47.55752,82.295111 z"
         id="path2301" />
      <path
         style="fill:#ae9374;display:inline"
         d="M 52.612665,82.011133 C 52.612665,81.050957 50.824816,80.504765 42.799736,79.013265 C 39.855857,78.466135 35.306227,77.407693 32.689446,76.661175 C 30.072665,75.914658 26.810416,75.009987 25.440005,74.650805 C 22.309629,73.830328 21.461704,71.987599 23.509462,70.455307 C 24.813386,69.479609 24.848003,69.258717 24.257696,65.680786 C 23.917279,63.617465 22.380247,56.221296 20.84207,49.244858 C 19.303894,42.268419 17.40767,33.160898 16.628239,29.005922 C 15.40435,22.481637 14.963284,21.171435 13.393937,19.398321 C 11.244467,16.96976 11.156019,16.418325 12.831353,15.890841 C 13.521368,15.673588 19.074594,13.232635 25.171854,10.466501 L 36.257783,5.4371669 L 54.396834,7.970767 C 64.373311,9.3642476 73.154146,10.72486 73.909795,10.994351 C 75.568465,11.585888 75.242075,12.210201 72.089913,14.47538 C 68.728967,16.890595 69.963213,16.644464 73.764557,14.141425 C 76.736495,12.184519 78.185752,11.626974 78.185752,12.440544 C 78.185752,12.998668 73.979395,16.920917 71.643799,18.540641 C 69.479025,20.0419 63.83611,24.497655 63.317678,25.11511 C 63.154129,25.309897 62.391022,25.798249 61.621891,26.200336 L 60.223459,26.931403 L 61.770571,28.533341 C 63.615598,30.443758 63.676593,31.588834 62.115172,35.002424 C 60.691459,38.114945 60.555065,40.985227 61.83087,40.985227 C 62.321517,40.985227 62.722955,40.586994 62.722955,40.100266 C 62.722955,38.683161 63.512545,39.074041 64.985757,41.220444 C 65.739651,42.318835 66.274902,43.843578 66.175203,44.608761 C 66.075503,45.373944 66.261556,46.043915 66.588654,46.097586 C 66.915752,46.151257 67.683634,44.346622 68.295063,42.087287 C 68.906486,39.827953 69.527192,38.098892 69.67441,38.244931 C 69.821622,38.39097 69.665453,39.531884 69.327365,40.780296 C 68.989277,42.028707 68.152966,45.908771 67.468898,49.40266 C 66.784829,52.89655 65.826731,56.613384 65.339789,57.662291 L 64.454449,59.569397 L 64.763283,57.209502 C 65.041298,55.08513 64.953547,55.189198 63.884027,58.25224 L 62.695937,61.654871 L 63.898889,62.93578 C 64.560518,63.64028 65.101847,64.427063 65.101847,64.684179 C 65.101847,64.941296 65.77091,65.318247 66.588654,65.521853 C 69.406969,66.223556 68.635078,67.34778 57.409408,78.891034 C 53.436398,82.976442 52.612665,83.51225 52.612665,82.011133 z M 62.729473,50.867285 C 64.539685,47.922034 64.167715,46.863492 62.110801,49.106672 C 60.353216,51.023415 59.796163,52.7847 60.947528,52.7847 C 61.279431,52.7847 62.081308,51.921863 62.729473,50.867285 z M 57.370448,26.278337 C 57.370448,25.977201 55.831603,25.560566 53.950791,25.352483 C 52.06998,25.144399 46.918192,24.341172 42.502374,23.567534 C 29.937531,21.36621 22.730169,20.28467 22.453623,20.559007 C 22.179984,20.830462 24.866806,21.426254 33.284169,22.960639 C 55.375134,26.987559 57.370448,27.262399 57.370448,26.278337 z"
         id="path2299" />
      <path
         style="fill:#937056;display:inline"
         d="M 52.906984,81.438233 C 52.406027,80.722678 44.265755,78.410943 27.336939,74.176666 C 22.346803,72.928518 21.876775,72.442781 23.766111,70.486487 L 25.296665,68.901688 L 21.48821,51.256123 C 17.16778,31.238447 15.005159,20.278332 15.315088,19.970879 C 15.431591,19.855306 18.719419,20.413594 22.621371,21.211519 C 32.851862,23.30359 53.54821,26.825859 55.610431,26.825859 C 56.778409,26.825859 57.370448,26.528174 57.370448,25.940898 C 57.370448,25.356498 56.781189,25.055938 55.635451,25.055938 C 54.681202,25.055938 45.27381,23.604918 34.730135,21.831451 C 24.186461,20.057983 15.338229,18.742819 15.067398,18.908865 C 14.297278,19.381024 12.171504,18.031572 12.171504,17.070536 C 12.171504,16.595224 12.454931,16.206333 12.801342,16.206333 C 13.147753,16.206333 15.623287,15.173316 18.30253,13.910741 C 33.87514,6.5722475 34.881625,6.1767188 37.9729,6.180679 C 41.23797,6.1848613 73.159159,10.662127 74.118846,11.250508 C 75.099823,11.851946 73.17957,13.410021 65.431799,18.299076 C 61.342323,20.879651 57.98936,23.190146 57.980777,23.43351 C 57.949744,24.313388 59.560008,23.845432 61.533509,22.401056 C 63.543928,20.929663 65.69657,20.444948 65.69657,21.463651 C 65.69657,22.239743 62.185938,25.055938 61.218472,25.055938 C 60.336932,25.055938 59.200267,28.377596 59.098652,31.250661 C 58.97858,34.645582 58.301246,35.948457 56.451845,36.341891 L 54.694195,36.715806 L 56.348349,36.785608 C 58.503304,36.876544 58.920845,38.106363 58.055354,41.813399 C 57.350642,44.831797 57.09234,46.705563 56.886574,50.291914 C 56.80069,51.788809 56.407387,52.377234 55.140237,52.904626 C 53.529639,53.574962 53.525797,53.588921 54.887762,53.821852 C 56.176744,54.042302 56.249319,54.265786 55.955202,57.108877 C 55.781636,58.786649 55.627625,60.208108 55.612954,60.267678 C 55.598283,60.327247 54.870948,60.459991 53.996656,60.562665 C 51.687577,60.833834 51.475346,62.224278 53.743035,62.224278 C 55.481944,62.224278 55.560038,62.327736 55.41306,64.436679 C 55.211668,67.326376 54.651902,68.124015 52.825367,68.124015 C 51.888673,68.124015 51.417288,68.401349 51.571899,68.861482 C 51.70819,69.267089 52.734087,69.606931 53.851671,69.616683 C 55.381064,69.630034 56.798771,68.93691 59.583609,66.814309 C 61.61859,65.26325 63.435897,63.994199 63.622069,63.994199 C 64.233474,63.994199 67.480738,66.565045 67.480738,67.049089 C 67.480738,67.813694 54.293748,82.283382 53.596923,82.283382 C 53.542882,82.283382 53.232409,81.903068 52.906984,81.438233 z"
         id="path2297" />
      <path
         style="fill:#8a4c1e;display:inline"
         d="M 47.854881,79.051613 C 45.074551,78.306388 38.651543,76.586137 33.58153,75.228825 C 28.511517,73.87152 24.112625,72.517661 23.806214,72.220243 C 23.462306,71.88643 23.756492,71.143706 24.57494,70.279466 C 26.089905,68.679734 26.33637,70.440434 21.749595,50.095737 C 18.499124,35.678235 15.586634,20.881448 15.931862,20.538978 C 16.087313,20.384768 17.245109,20.531195 18.504743,20.86437 C 19.764377,21.197546 23.203615,21.894423 26.147493,22.412985 C 58.154808,28.051058 57.544919,27.976375 58.571261,26.383379 C 59.131622,25.513637 59.174561,25.58337 58.843724,26.825859 C 58.627722,27.637073 58.309467,29.828041 58.13649,31.694676 C 57.840768,34.885886 57.713253,35.11651 56.001182,35.55661 C 53.622914,36.16796 53.28021,37.308913 55.40234,37.550316 C 56.911931,37.722039 57.090934,37.986433 57.25811,40.291362 C 57.462661,43.111572 56.755959,44.360816 54.799686,44.637143 C 53.095016,44.877931 53.128477,46.536964 54.842876,46.778503 C 55.578845,46.882193 56.181002,47.072302 56.181002,47.200967 C 56.181002,48.109307 53.889148,52.054746 52.966521,52.734714 C 51.85271,53.555583 51.852801,53.585483 52.971928,54.504634 C 54.680543,55.907938 54.374656,58.482213 52.304742,60.119523 C 50.962722,61.181069 50.715109,61.678912 51.219246,62.302007 C 52.594857,64.002205 52.749962,65.815601 51.625504,67.051732 C 50.919366,67.827995 50.511256,69.225743 50.475101,70.991776 C 50.444283,72.497118 50.21235,74.326113 49.959695,75.056205 C 49.547331,76.24781 49.6915,76.383646 51.368575,76.383646 C 52.773408,76.383646 53.366445,76.045449 53.759374,75.020217 C 54.421317,73.293081 63.260876,65.058299 64.144593,65.345522 C 64.507534,65.463487 64.885903,66.369887 64.985418,67.359739 C 65.136341,68.861033 64.504352,69.903534 61.174308,73.646392 C 58.978689,76.114193 56.714085,78.280712 56.141856,78.460878 C 55.569627,78.641044 54.951302,79.176581 54.767801,79.650961 C 54.34921,80.733079 54.022504,80.704754 47.854881,79.051613 z M 49.044327,23.551853 C 48.553681,23.448858 47.141211,23.200753 45.905504,23.000507 C 44.492391,22.771513 43.808143,22.396657 44.061359,21.990217 C 44.33675,21.548182 43.94769,21.472548 42.829987,21.750834 C 41.582332,22.061474 40.72747,21.803131 39.214213,20.658131 C 37.385052,19.274104 37.157986,19.23243 36.266218,20.117076 C 35.37445,21.001723 34.489471,20.950499 24.776533,19.452041 C 13.297317,17.681091 11.690843,17.313285 13.823484,16.944316 C 14.568524,16.815416 15.827579,16.065662 16.621385,15.278195 C 17.41519,14.490729 18.366976,13.846439 18.736464,13.846439 C 19.105953,13.846439 22.838692,12.255208 27.031441,10.310371 C 31.22419,8.3655337 35.639313,6.6492378 36.842825,6.496381 C 38.046338,6.3435241 43.491931,6.8845612 48.944143,7.6986859 C 54.396355,8.5128106 61.667322,9.563985 65.101847,10.034629 C 68.536372,10.505273 71.992057,11.04037 72.781153,11.223733 C 74.187661,11.550567 74.193507,11.577733 73.078515,12.605603 C 70.998995,14.522628 57.496786,22.742467 55.489013,23.31369 C 53.595768,23.852329 50.94279,23.95037 49.044327,23.551853 z M 48.561115,22.293024 C 48.131799,22.122598 47.61885,22.143558 47.421229,22.339601 C 47.223608,22.535644 47.574866,22.675084 48.201803,22.649467 C 48.894621,22.621157 49.035545,22.481359 48.561115,22.293024 z"
         id="path2295" />
      <path
         sodipodi:nodetypes="ccccc"
         id="path3156"
         d="M 15.197889,20.184696 L 58.416887,27.07124 C 54.786811,44.010554 51.254172,60.949868 50.105541,77.889182 L 25.408971,70.527704 L 15.197889,20.184696 z"
         style="fill:url(#linearGradient2433);fill-opacity:1;fill-rule:evenodd;stroke:none;stroke-width:1px;stroke-linecap:butt;stroke-linejoin:miter;stroke-opacity:1;display:inline" />
      <path
         style="fill:#6f4730;display:inline"
         d="M 47.854881,79.051613 C 45.074551,78.306388 38.651543,76.586137 33.58153,75.228825 C 28.511517,73.87152 24.112625,72.517661 23.806214,72.220243 C 23.462306,71.88643 23.756492,71.143706 24.57494,70.279466 C 26.089905,68.679734 26.33637,70.440434 21.749595,50.095737 C 18.499124,35.678235 15.586634,20.881448 15.931862,20.538978 C 16.087313,20.384768 17.245109,20.531195 18.504743,20.86437 C 19.764377,21.197546 23.203615,21.894423 26.147493,22.412985 C 58.162164,28.052353 57.57466,27.98028 58.512257,26.383379 C 59.289557,25.059493 59.330405,26.290379 58.574614,28.262386 C 58.255613,29.094724 57.574422,29.775727 57.060858,29.775727 C 56.328736,29.775727 56.205716,30.191413 56.491151,31.700763 C 56.788599,33.273633 56.575932,33.886058 55.328654,35.048459 C 53.388109,36.856947 53.408336,37.322063 55.437599,37.553691 C 56.906168,37.721319 57.09197,38.000726 57.25811,40.291362 C 57.462661,43.111572 56.755959,44.360816 54.799686,44.637143 C 53.641761,44.800702 53.489967,45.218273 53.365043,48.583706 C 53.288205,50.653714 52.930633,52.699617 52.57044,53.130158 C 52.210247,53.560698 52.042978,54.123705 52.198734,54.381283 C 52.354489,54.638862 52.237573,56.177048 51.938922,57.799476 C 51.640271,59.421903 51.277505,61.413064 51.132776,62.224278 C 50.268433,67.068977 49.646746,76.037296 50.141249,76.527853 C 51.097517,77.476483 52.864175,76.740362 53.679061,75.053739 C 54.10701,74.167982 55.043196,73.13213 55.759472,72.751856 C 56.475749,72.371577 58.64063,70.518317 60.570319,68.633498 C 62.500011,66.74868 64.309022,65.347675 64.590343,65.520154 C 64.871671,65.692639 65.101847,66.598355 65.101847,67.532867 C 65.101847,68.789269 64.070121,70.391602 61.142062,73.682634 C 58.964177,76.1305 56.714085,78.280712 56.141856,78.460878 C 55.569627,78.641044 54.951302,79.176581 54.767801,79.650961 C 54.34921,80.733079 54.022504,80.704754 47.854881,79.051613 z M 47.370721,71.36887 C 47.595079,69.097471 47.968808,64.502981 48.201229,61.158898 L 48.623812,55.07874 L 47.10745,55.456283 C 45.41122,55.87861 44.240098,54.563259 44.713483,52.767488 C 45.10446,51.284329 44.001027,50.843359 40.038245,50.899098 C 38.114225,50.926161 35.622268,50.567902 34.500565,50.102967 C 32.686194,49.350928 32.440885,48.980191 32.277914,46.743856 C 32.117929,44.548522 31.836846,44.102387 30.05904,43.222057 C 28.844468,42.620629 27.688894,41.430771 27.194165,40.272189 C 26.437684,38.500622 26.297539,38.420879 25.595947,39.362799 C 24.547859,40.769905 23.537606,40.65911 22.906201,39.067812 C 22.530102,38.119948 22.426369,38.752576 22.543432,41.280213 C 22.892441,48.816088 24.097154,55.335597 25.805282,58.932264 C 27.002998,61.454197 27.419443,63.086348 27.207815,64.429128 C 26.454135,69.211206 28.701838,71.124644 38.383988,73.943243 C 46.891566,76.419906 46.871227,76.425735 47.370721,71.36887 z M 43.097097,57.834294 C 43.097097,57.691201 43.364723,57.410045 43.69182,57.209502 C 44.018918,57.008959 44.286543,57.126035 44.286543,57.46967 C 44.286543,57.813306 44.018918,58.094463 43.69182,58.094463 C 43.364723,58.094463 43.097097,57.977387 43.097097,57.834294 z M 35.573458,48.378791 C 35.954789,47.392995 35.068759,46.632756 34.176253,47.17995 C 33.287057,47.725115 33.459081,49.244858 34.409986,49.244858 C 34.865636,49.244858 35.389199,48.855128 35.573458,48.378791 z M 49.044327,23.551853 C 48.553681,23.448858 47.141211,23.200753 45.905504,23.000507 C 44.492391,22.771513 43.808143,22.396657 44.061359,21.990217 C 44.33675,21.548182 43.94769,21.472548 42.829987,21.750834 C 41.582332,22.061474 40.72747,21.803131 39.214213,20.658131 C 37.385052,19.274104 37.157986,19.23243 36.266218,20.117076 C 35.37445,21.001723 34.489471,20.950499 24.776533,19.452041 C 13.297317,17.681091 11.690843,17.313285 13.823484,16.944316 C 14.568524,16.815416 15.827579,16.065662 16.621385,15.278195 C 17.41519,14.490729 18.366976,13.846439 18.736464,13.846439 C 19.105953,13.846439 22.838692,12.255208 27.031441,10.310371 C 31.22419,8.3655337 35.639313,6.6492378 36.842825,6.496381 C 38.046338,6.3435241 43.491931,6.8845612 48.944143,7.6986859 C 54.396355,8.5128106 61.667322,9.563985 65.101847,10.034629 C 68.536372,10.505273 71.992057,11.04037 72.781153,11.223733 C 74.187661,11.550567 74.193507,11.577733 73.078515,12.605603 C 70.998995,14.522628 57.496786,22.742467 55.489013,23.31369 C 53.595768,23.852329 50.94279,23.95037 49.044327,23.551853 z M 48.561115,22.293024 C 48.131799,22.122598 47.61885,22.143558 47.421229,22.339601 C 47.223608,22.535644 47.574866,22.675084 48.201803,22.649467 C 48.894621,22.621157 49.035545,22.481359 48.561115,22.293024 z"
         id="path2293" />
      <path
         style="fill:#83380d;display:inline"
         d="M 52.843486,78.006073 C 53.377329,77.275981 54.048454,76.147656 54.334874,75.498685 C 55.080986,73.808145 63.298557,66.272736 63.956273,66.675977 C 65.286455,67.49151 64.173484,69.343449 59.451811,74.171245 C 56.222254,77.473386 53.947169,79.333514 53.137939,79.333514 C 51.934898,79.333514 51.920459,79.268422 52.843486,78.006073 z M 44.583905,77.497841 C 42.621319,76.871902 38.874564,75.832386 36.257783,75.187805 C 29.008121,73.402025 25.111778,72.308007 24.760572,71.959604 C 24.585699,71.786129 24.747969,71.341283 25.121171,70.971056 C 25.629422,70.466865 26.025706,70.48398 26.700151,71.039251 C 27.195387,71.446976 28.47795,71.996136 29.55029,72.2596 C 30.622631,72.523065 34.651486,73.558758 38.503301,74.561135 C 42.355117,75.563518 46.059659,76.383646 46.735617,76.383646 C 47.411575,76.383646 48.645093,76.914622 49.476767,77.563593 L 50.988903,78.74354 L 49.570573,78.689723 C 48.790491,78.660124 46.546491,78.123779 44.583905,77.497841 z M 49.044327,64.029019 C 49.044327,63.360898 49.311952,62.814252 49.63905,62.814252 C 49.966148,62.814252 50.233773,63.196814 50.233773,63.664392 C 50.233773,64.13197 49.966148,64.678616 49.63905,64.87916 C 49.311952,65.079703 49.044327,64.697141 49.044327,64.029019 z M 48.753562,58.142043 C 48.371547,55.386638 48.229932,55.176808 46.964894,55.491777 C 45.414494,55.877795 44.261388,54.482496 44.713483,52.767488 C 45.10446,51.284329 44.001027,50.843359 40.038245,50.899098 C 38.114225,50.926161 35.622268,50.567902 34.500565,50.102967 C 32.686194,49.350928 32.440885,48.980191 32.277914,46.743856 C 32.117929,44.548522 31.836846,44.102387 30.05904,43.222057 C 28.844468,42.620629 27.688894,41.430771 27.194165,40.272189 C 26.437684,38.500622 26.297539,38.420879 25.595947,39.362799 C 24.550223,40.766732 23.550935,40.659749 22.840577,39.067812 C 22.293439,37.84166 22.266278,37.835266 22.484612,38.984016 C 22.614616,39.668021 22.512162,40.597823 22.256938,41.050242 C 22.001713,41.502661 22.012298,43.063079 22.280461,44.517836 C 22.707142,46.832541 22.666447,47.025036 21.954587,46.059284 C 21.507194,45.452324 20.976572,43.730498 20.775426,42.233006 C 20.574281,40.735514 20.1507,38.713828 19.834135,37.740371 C 19.131903,35.580965 16.294286,21.359395 16.520816,21.134674 C 16.610023,21.04618 18.389938,21.368795 20.476184,21.851596 C 22.56243,22.334398 25.896253,22.976791 27.884679,23.279136 C 29.873105,23.581482 36.317256,24.65627 42.205013,25.667554 C 48.09277,26.678839 53.947971,27.65818 55.216569,27.843868 L 57.523113,28.181482 L 56.108654,29.280969 C 54.782612,30.311728 54.759252,30.430159 55.73496,31.175586 C 57.590055,32.592852 56.576216,34.831544 53.603974,35.881085 C 52.132637,36.400636 52.660251,37.693355 54.443417,37.937822 C 56.548021,38.226356 56.9058,38.812488 56.449653,41.224545 C 56.122602,42.953951 55.63748,43.554571 54.02928,44.221154 C 51.798377,45.145841 51.645423,45.479463 52.82932,46.838508 C 53.999655,48.181984 53.402896,52.053656 51.955231,52.509457 C 50.796594,52.874258 50.359478,54.554621 51.423219,54.554621 C 52.657447,54.554621 52.040599,58.457639 50.593183,59.80656 L 49.168424,61.134361 L 48.753562,58.142043 z M 35.573458,48.378791 C 35.954789,47.392995 35.068759,46.632756 34.176253,47.17995 C 33.287057,47.725115 33.459081,49.244858 34.409986,49.244858 C 34.865636,49.244858 35.389199,48.855128 35.573458,48.378791 z M 43.097097,57.834294 C 43.097097,57.691201 43.364723,57.410045 43.69182,57.209502 C 44.018918,57.008959 44.286543,57.126035 44.286543,57.46967 C 44.286543,57.813306 44.018918,58.094463 43.69182,58.094463 C 43.364723,58.094463 43.097097,57.977387 43.097097,57.834294 z M 48.449604,21.200106 C 46.323469,20.794977 43.647216,20.430786 42.502374,20.390794 C 39.160125,20.27404 38.867648,19.817512 38.648467,14.375209 C 38.457361,9.6300473 38.390362,9.4216361 37.056014,9.4216361 C 35.690454,9.4216361 35.667279,9.5173558 35.877548,14.288919 C 35.995516,16.965924 35.933513,19.156201 35.739762,19.156201 C 34.639614,19.156201 17.29055,16.171395 17.05972,15.942408 C 16.472296,15.359675 33.433395,7.8358046 36.462258,7.3355253 C 38.923784,6.9289532 41.873806,7.1427773 49.546162,8.2838755 C 54.994361,9.0941777 62.392925,10.165479 65.987413,10.664545 C 69.581901,11.163611 72.659592,11.716605 72.826727,11.893422 C 72.993862,12.070238 72.62307,12.515629 72.00275,12.883179 C 71.382424,13.250729 67.903295,15.472486 64.271352,17.820417 C 56.935381,22.562874 56.30649,22.697211 48.449604,21.200106 z M 65.476112,14.021055 C 65.311332,13.857594 63.353242,13.592396 61.124803,13.431725 C 56.262073,13.081124 56.37442,13.676625 61.296,14.339174 C 64.631849,14.788251 66.134226,14.673916 65.476112,14.021055 z M 52.315303,12.666491 C 52.113146,12.342006 51.227569,12.080583 50.347355,12.085552 C 49.095602,12.092618 48.941301,12.219173 49.63905,12.666491 C 50.814137,13.419827 52.784638,13.419827 52.315303,12.666491 z"
         id="path2291" />
      <path
         style="fill:#642f1a;display:inline"
         d="M 52.843486,78.006073 C 53.377329,77.275981 54.05009,76.139521 54.338511,75.480614 C 55.012516,73.940819 63.629878,66.270483 64.129243,66.76586 C 65.139903,67.768455 64.093339,69.425396 59.451811,74.171245 C 56.222254,77.473386 53.947169,79.333514 53.137939,79.333514 C 51.934898,79.333514 51.920459,79.268422 52.843486,78.006073 z M 44.583905,77.497841 C 42.621319,76.871902 38.874564,75.832386 36.257783,75.187805 C 29.008121,73.402025 25.111778,72.308007 24.760572,71.959604 C 24.585699,71.786129 24.747969,71.341283 25.121171,70.971056 C 25.629422,70.466865 26.025706,70.48398 26.700151,71.039251 C 27.195387,71.446976 28.47795,71.996136 29.55029,72.2596 C 30.622631,72.523065 34.651486,73.558758 38.503301,74.561135 C 42.355117,75.563518 46.059659,76.383646 46.735617,76.383646 C 47.411575,76.383646 48.645093,76.914622 49.476767,77.563593 L 50.988903,78.74354 L 49.570573,78.689723 C 48.790491,78.660124 46.546491,78.123779 44.583905,77.497841 z M 49.044327,64.029019 C 49.044327,63.360898 49.311952,62.814252 49.63905,62.814252 C 49.966148,62.814252 50.233773,63.196814 50.233773,63.664392 C 50.233773,64.13197 49.966148,64.678616 49.63905,64.87916 C 49.311952,65.079703 49.044327,64.697141 49.044327,64.029019 z M 49.040663,56.898127 C 49.038372,54.141638 48.70409,51.856485 48.148578,50.799847 C 46.954919,48.529386 47.029113,47.335471 48.477366,45.509017 L 49.694575,43.973945 L 47.585282,43.099663 C 45.033969,42.042169 44.892028,40.769488 47.073484,38.510721 C 48.356074,37.182677 48.722499,36.150047 48.932335,33.27226 C 49.076081,31.300867 48.927679,29.424021 48.602553,29.101492 C 48.277428,28.778963 46.571162,28.291263 44.810853,28.017715 C 43.050543,27.744167 40.138351,27.130716 38.339314,26.654491 C 30.132198,24.481974 20.213445,22.900235 19.723963,23.685909 C 19.548983,23.966772 19.650955,25.916483 19.950567,28.018602 C 20.250178,30.12072 20.755931,33.96454 21.07446,36.560424 C 21.39299,39.156308 21.906543,42.606782 22.215691,44.228143 C 22.704445,46.791481 22.671017,47.031237 21.95946,46.065896 C 21.509387,45.455299 20.976572,43.730498 20.775426,42.233006 C 20.574281,40.735514 20.1507,38.713828 19.834135,37.740371 C 19.131903,35.580965 16.294286,21.359395 16.520816,21.134674 C 16.610023,21.04618 18.389938,21.368795 20.476184,21.851596 C 22.56243,22.334398 25.896253,22.976791 27.884679,23.279136 C 31.511414,23.83059 49.97702,26.960671 54.991556,27.873988 C 57.564654,28.342636 57.614454,28.390425 56.283557,29.113822 C 55.397572,29.595391 55.027253,30.196987 55.254763,30.785134 C 55.905767,32.468075 54.955668,35.547155 53.683535,35.877169 C 52.102206,36.287393 52.618557,37.687639 54.443417,37.937822 C 56.548021,38.226356 56.9058,38.812488 56.449653,41.224545 C 56.122602,42.953951 55.63748,43.554571 54.02928,44.221154 C 52.011897,45.057339 51.502413,45.909282 52.612665,46.589976 C 52.939762,46.79052 53.207388,48.115738 53.207388,49.534906 C 53.207388,51.597063 52.968536,52.190415 52.017942,52.489713 C 50.772961,52.881699 50.344758,54.554621 51.489406,54.554621 C 52.513106,54.554621 51.530828,58.785626 50.192001,60.142981 C 49.055992,61.294716 49.044289,61.26173 49.040663,56.898127 z M 48.449604,21.200106 C 46.323469,20.794977 43.647216,20.430786 42.502374,20.390794 C 39.160125,20.27404 38.867648,19.817512 38.648467,14.375209 C 38.457361,9.6300473 38.390362,9.4216361 37.056014,9.4216361 C 35.690454,9.4216361 35.667279,9.5173558 35.877548,14.288919 C 35.995516,16.965924 35.933513,19.156201 35.739762,19.156201 C 34.639614,19.156201 17.29055,16.171395 17.05972,15.942408 C 16.472296,15.359675 33.433395,7.8358046 36.462258,7.3355253 C 38.923784,6.9289532 41.873806,7.1427773 49.546162,8.2838755 C 54.994361,9.0941777 62.392925,10.165479 65.987413,10.664545 C 69.581901,11.163611 72.659592,11.716605 72.826727,11.893422 C 72.993862,12.070238 72.62307,12.515629 72.00275,12.883179 C 71.382424,13.250729 67.903295,15.472486 64.271352,17.820417 C 56.935381,22.562874 56.30649,22.697211 48.449604,21.200106 z M 65.476112,14.021055 C 65.311332,13.857594 63.353242,13.592396 61.124803,13.431725 C 56.262073,13.081124 56.37442,13.676625 61.296,14.339174 C 64.631849,14.788251 66.134226,14.673916 65.476112,14.021055 z M 52.315303,12.666491 C 52.113146,12.342006 51.227569,12.080583 50.347355,12.085552 C 49.095602,12.092618 48.941301,12.219173 49.63905,12.666491 C 50.814137,13.419827 52.784638,13.419827 52.315303,12.666491 z"
         id="path2289" />
      <path
         id="path2322"
         d="M 14.010554,15.91029 L 37.282322,5.4617414 L 74.08971,11.16095 L 56.754617,22.3219 L 14.010554,15.91029 z"
         style="fill:url(#linearGradient2435);fill-opacity:1;fill-rule:evenodd;stroke:none;stroke-width:1px;stroke-linecap:butt;stroke-linejoin:miter;stroke-opacity:1;display:inline" />
      <path
         id="path2315"
         d="M 47.854881,82.846176 C 45.728746,82.224845 38.988816,80.349124 32.877259,78.677906 L 21.765335,75.639329 L 21.357156,73.242632 C 21.004641,71.17278 21.138596,70.693615 22.339422,69.729008 L 23.729867,68.612088 L 22.058696,60.845887 C 20.660951,54.350343 14.020037,22.165019 13.971058,21.648987 C 13.962596,21.559834 13.320019,21.247147 12.543109,20.954124 C 11.544729,20.577572 11.009424,19.780874 10.71746,18.237001 C 10.490262,17.035604 10.523758,15.855504 10.791896,15.614556 C 11.060034,15.373608 16.889156,12.724616 23.745501,9.7279074 L 36.211582,4.2793463 L 55.768326,7.0610076 C 79.506078,10.437356 79.375198,10.406348 79.375198,12.654049 C 79.375198,13.854681 78.872365,14.711253 77.668271,15.561798 C 75.88478,16.821613 75.78338,17.121031 74.275341,25.580451 C 73.026774,32.584351 67.160504,58.876519 65.949261,62.897302 C 65.745866,63.572474 66.203274,64.053999 67.461279,64.489039 C 70.640626,65.588514 69.959615,67.506654 64.102409,73.949674 C 57.723026,80.967092 54.249952,84.065044 52.818766,84.014589 C 52.214764,83.993297 49.981016,83.467513 47.854881,82.846176 z M 53.995396,81.700848 C 54.265251,81.45339 53.84673,81.250928 53.065349,81.250928 C 52.283968,81.250928 49.119298,80.521656 46.03275,79.630324 C 36.372406,76.84061 23.186279,73.525359 22.89374,73.812723 C 22.330721,74.365788 24.427339,75.140742 32.929977,77.522342 C 37.704149,78.859588 43.751293,80.594117 46.368074,81.376841 C 50.810118,82.705532 52.807241,82.79037 53.995396,81.700848 z M 52.017942,77.959725 C 52.017942,77.204146 52.802286,75.411251 53.76093,73.975527 C 55.541157,71.309335 63.46373,63.404225 64.355588,63.404225 C 64.626812,63.404225 64.893355,62.939621 64.947903,62.371772 C 65.002445,61.803922 66.555356,54.834858 68.398812,46.884963 C 72.960528,27.212587 73.344861,25.415749 74.077441,20.336149 C 74.628898,16.512434 74.963614,15.703072 76.541372,14.378172 C 77.594657,13.493698 78.188119,12.557611 77.943997,12.165771 C 77.373116,11.249448 74.618514,11.297611 74.61312,12.224011 C 74.609177,12.900346 65.849741,18.833324 59.962959,22.146919 L 57.500326,23.533104 L 48.960585,22.183589 C 36.783649,20.259295 37.726771,20.554873 37.852656,18.702306 C 38.11644,14.82037 37.704745,10.306597 37.086896,10.306597 C 36.643253,10.306597 36.49952,11.842696 36.645263,15.026386 C 36.89994,20.589711 37.6588,20.282404 27.817193,18.601384 C 19.023981,17.099437 12.16683,16.498214 13.36095,17.333885 C 13.851596,17.677251 15.189723,17.962297 16.334565,17.967321 C 17.479406,17.972346 20.557097,18.387529 23.173878,18.889952 C 31.910354,20.567359 37.370061,21.549164 47.452807,23.25597 C 55.119176,24.553733 57.652243,25.203508 58.287586,26.035279 C 58.774487,26.672715 59.124597,26.816413 59.135703,26.383379 C 59.146105,25.977772 59.451255,25.645912 59.813814,25.645912 C 60.243466,25.645912 60.319299,26.210874 60.031596,27.268339 C 59.788818,28.160674 59.290731,30.483696 58.924738,32.430609 C 58.304139,35.731911 58.139176,35.986934 56.476746,36.215056 L 54.694195,36.459661 L 56.478364,36.80761 C 57.951825,37.094965 58.294182,37.478318 58.444273,39.008928 C 58.54423,40.028281 58.394952,41.752792 58.112543,42.841176 C 57.705607,44.409477 57.257174,44.859716 55.951214,45.01121 C 54.826998,45.141622 54.404851,45.464748 54.622755,46.028061 C 54.798425,46.482194 54.517465,47.089528 53.998399,47.377692 C 53.347481,47.739055 53.263555,48.02971 53.727921,48.314412 C 54.098648,48.541704 54.244938,49.34482 54.053466,50.101612 C 53.862213,50.85754 53.999409,51.656079 54.358346,51.876143 C 55.437653,52.537865 54.443231,53.374673 52.577566,53.374673 C 50.620698,53.374673 50.469974,53.009551 51.739494,51.344497 C 52.707103,50.07542 52.904395,47.723433 52.085361,47.221285 C 50.069891,45.985603 51.223816,36.83585 53.679898,34.577807 C 54.616392,33.716824 55.322983,33.416949 55.4593,33.822634 C 55.889285,35.102288 57.370448,34.518085 57.370448,33.068834 C 57.370448,32.28416 57.532894,31.222207 57.731439,30.70894 C 57.990225,30.03994 57.737656,29.775727 56.839354,29.775727 C 55.982762,29.775727 55.586279,30.149071 55.586279,30.955674 C 55.586279,32.346562 54.512951,32.532307 54.008678,31.228688 C 53.815724,30.729874 54.10718,29.829218 54.656356,29.227231 C 55.620462,28.170414 55.521522,28.139196 51.784212,28.321006 C 47.920739,28.508955 42.676066,27.665268 46.070712,27.401902 C 47.083308,27.323342 46.703938,27.112874 44.881266,26.742018 C 43.409327,26.442524 41.402137,26.338498 40.420844,26.510847 C 39.429338,26.68499 38.963498,26.614641 39.372306,26.352502 C 39.803157,26.076227 36.96956,25.32594 32.532992,24.541571 C 28.366772,23.804999 23.426613,22.904086 21.554858,22.539543 C 19.683105,22.175001 17.98165,22.0454 17.773849,22.251541 C 17.089114,22.930809 20.391787,41.848003 23.568009,55.439581 C 24.250471,58.359951 25.139589,62.740505 25.543828,65.174146 C 25.948066,67.607788 26.496442,70.109642 26.762442,70.733828 C 27.168282,71.686158 27.062059,71.799161 26.102062,71.436339 C 25.273292,71.123116 25.136424,71.182432 25.605372,71.651585 C 25.961401,72.00777 30.778657,73.480863 36.310386,74.925125 C 41.842114,76.369386 47.438575,77.932557 48.746965,78.398842 C 51.952659,79.541279 52.017942,79.532518 52.017942,77.959725 z M 48.755446,77.577204 C 48.557953,77.260205 48.692317,75.910552 49.054032,74.577967 C 49.415748,73.245387 49.543722,71.396416 49.338419,70.469142 C 49.133117,69.541869 49.261821,68.233272 49.624428,67.561144 C 50.17915,66.532915 50.483487,66.445156 51.543288,67.007814 C 52.681708,67.612212 52.706705,67.729912 51.80317,68.23152 C 51.25334,68.536766 50.96596,69.047312 51.164549,69.366068 C 51.363137,69.684819 51.271096,70.265855 50.960014,70.657244 C 49.85307,72.049965 49.703424,76.19466 50.723546,77.206635 C 51.599803,78.075897 51.572962,78.153567 50.396312,78.153567 C 49.691329,78.153567 48.952939,77.894203 48.755446,77.577204 z M 42.979053,76.069886 C 42.805096,75.897319 40.151145,75.152624 37.081384,74.41501 C 31.297765,73.025303 28.019929,71.717538 30.230734,71.681798 C 30.841028,71.671927 32.580593,72.06705 34.096433,72.559844 C 35.612274,73.052637 38.79279,74.007704 41.164248,74.682215 C 43.535706,75.356726 45.475989,76.015485 45.475989,76.146122 C 45.475989,76.498956 43.346023,76.433923 42.979053,76.069886 z M 50.577346,63.605931 C 49.955612,61.99866 50.218083,60.021777 51.155705,59.249836 C 51.916516,58.623462 52.24678,58.658602 53.045462,59.450906 C 53.939412,60.337719 53.935976,60.440434 53.000435,60.796565 C 52.295617,61.064868 52.166514,61.396008 52.57593,61.885385 C 52.982654,62.371541 52.818014,62.882748 52.042598,63.541377 C 51.057106,64.378443 50.879204,64.386284 50.577346,63.605931 z M 51.966428,56.619528 C 51.91729,56.295043 51.908779,55.830439 51.947514,55.587074 C 51.98625,55.34371 51.750316,55.144594 51.423219,55.144594 C 51.096121,55.144594 50.828496,54.879106 50.828496,54.554621 C 50.828496,54.230135 51.497559,53.964647 52.315303,53.964647 C 53.133047,53.964647 53.802111,54.179393 53.802111,54.441859 C 53.802111,55.208192 52.064804,57.269158 51.966428,56.619528 z M 56.337311,47.569915 C 56.400371,46.739461 56.633656,46.508039 57.020696,46.891988 C 57.407736,47.275937 57.375052,47.706359 56.924953,48.152864 C 56.410255,48.663452 56.265201,48.519557 56.337311,47.569915 z M 34.622295,25.845157 C 35.031167,25.681491 35.700231,25.681491 36.109103,25.845157 C 36.517975,26.008823 36.183443,26.142731 35.365699,26.142731 C 34.547955,26.142731 34.213423,26.008823 34.622295,25.845157 z M 62.128232,24.486722 C 62.128232,23.929757 64.008645,22.696043 64.857564,22.696043 C 65.093312,22.696043 64.801803,23.22702 64.209762,23.875991 C 63.056511,25.140143 62.128232,25.412504 62.128232,24.486722 z M 60.938786,22.929334 C 60.938786,22.441524 62.838105,20.970754 63.501459,20.944885 C 63.766087,20.934566 63.818084,21.190183 63.617014,21.512924 C 63.13866,22.280739 60.938786,23.444166 60.938786,22.929334 z M 60.54543,71.877374 C 62.455222,69.813027 63.829116,68.124015 63.598536,68.124015 C 62.838408,68.124015 56.021413,74.682356 54.558128,76.821406 L 53.123685,78.918296 L 55.098385,77.274512 C 56.184471,76.37043 58.635642,73.941721 60.54543,71.877374 z M 67.344446,67.054687 C 67.473923,66.669358 67.156121,66.354094 66.638212,66.354094 C 66.12031,66.354094 65.69657,66.77445 65.69657,67.288217 C 65.69657,68.330069 66.976865,68.148628 67.344446,67.054687 z M 53.488864,41.52555 C 53.079605,40.246388 54.681621,39.876971 55.192406,41.13272 C 55.35739,41.538327 55.513504,41.244434 55.539328,40.479626 C 55.571402,39.529693 55.326567,39.18793 54.766665,39.401068 C 54.315877,39.57267 53.646814,39.415233 53.279858,39.051207 C 52.786749,38.562037 52.612665,39.04496 52.612665,40.90205 C 52.612665,42.492432 52.839846,43.275474 53.231579,43.035302 C 53.571983,42.826602 53.68776,42.147213 53.488864,41.52555 z M 58.258323,28.012564 C 58.466677,27.678131 58.227957,27.579224 57.698698,27.780698 C 56.66839,28.172907 56.479881,28.59578 57.33535,28.59578 C 57.643143,28.59578 58.058481,28.333332 58.258323,28.012564 z M 49.787731,27.615078 C 49.378859,27.451412 48.709795,27.451412 48.300923,27.615078 C 47.892051,27.778744 48.226583,27.912652 49.044327,27.912652 C 49.862071,27.912652 50.196603,27.778744 49.787731,27.615078 z M 56.726165,26.019091 C 56.589874,25.899853 54.738799,25.655546 52.612665,25.476185 C 50.176951,25.270708 49.406959,25.325083 50.531134,25.623177 C 52.348212,26.105006 57.177113,26.413613 56.726165,26.019091 z M 47.854881,24.711886 C 47.364235,24.597939 40.004538,23.283475 31.5,21.790855 C 22.995462,20.298235 15.761668,19.028449 15.424904,18.969108 C 15.088139,18.909766 14.765951,19.126703 14.708929,19.451188 C 14.651907,19.775674 15.195066,19.97715 15.915951,19.898913 C 16.636835,19.820676 23.515844,20.927732 31.202638,22.359037 C 38.889433,23.790342 45.981504,24.951882 46.962797,24.940236 C 47.944089,24.928591 48.345527,24.825833 47.854881,24.711886 z M 62.425593,18.273899 C 69.523737,14.046661 69.523677,14.046805 64.419402,13.56911 C 57.120535,12.886027 45.875783,11.197874 43.573713,10.439586 C 42.820928,10.191623 41.53595,9.9938893 40.718206,10.000177 C 39.372587,10.010524 39.236695,10.235708 39.287181,12.371504 C 39.317862,13.669446 39.451675,15.70651 39.584543,16.898313 L 39.826121,19.065227 L 44.881266,19.982096 C 47.661596,20.486374 50.471662,21.020765 51.125857,21.169632 C 54.409967,21.916954 57.742307,21.06299 62.425593,18.273899 z M 35.365699,15.328695 C 35.365699,13.702428 34.997347,12.385363 34.367877,11.76092 C 33.00095,10.404908 34.001616,8.9391557 36.616734,8.466847 C 38.335738,8.1563833 38.402644,8.0904609 37.065819,8.0243667 C 36.201847,7.9816514 33.124156,9.0826379 30.226505,10.471003 C 27.328853,11.85937 23.753733,13.568573 22.281794,14.269233 C 19.649136,15.522409 19.635412,15.543758 21.43927,15.57976 C 22.447821,15.59989 23.471891,15.815476 23.714981,16.05884 C 24.24012,16.584571 34.27503,18.431796 34.919657,18.121395 C 35.16498,18.003267 35.365699,16.746553 35.365699,15.328695 z M 23.768601,15.026386 C 23.970759,14.7019 24.403786,14.436412 24.730883,14.436412 C 25.057981,14.436412 25.160205,14.7019 24.958047,15.026386 C 24.75589,15.350871 24.322863,15.616359 23.995765,15.616359 C 23.668668,15.616359 23.566444,15.350871 23.768601,15.026386 z M 71.643799,12.282521 C 71.643799,12.14077 71.309268,12.086135 70.900395,12.16111 C 70.491523,12.236085 68.283614,11.99522 65.993931,11.625854 C 63.704248,11.256488 57.816491,10.39971 52.910026,9.7219014 C 48.003562,9.0440925 43.052493,8.3321678 41.907652,8.1398464 C 40.76281,7.9475244 39.984778,7.9606561 40.178693,8.1690277 C 40.830586,8.8695223 52.838309,10.948653 61.18082,11.805535 C 65.729755,12.272769 69.569584,12.772076 69.713769,12.915108 C 70.011784,13.210744 71.643799,12.675835 71.643799,12.282521 z"
         style="fill:#1f1e1c;fill-opacity:1;display:inline" />
      <path
         id="path2319"
         d="M 14.248021,15.197889 L 36.094987,5.6992084 L 74.327177,11.398417 L 57.704485,22.559367 L 14.248021,15.197889 z"
         style="fill:none;fill-opacity:0.75;fill-rule:evenodd;stroke:#000000;stroke-width:1px;stroke-linecap:butt;stroke-linejoin:miter;stroke-opacity:1" />
    </g>
  </g>
</svg>
