<?xml version="1.0" encoding="UTF-8" standalone="no"?>
<!-- Created with Inkscape (http://www.inkscape.org/) -->
<svg
   xmlns:dc="http://purl.org/dc/elements/1.1/"
   xmlns:cc="http://creativecommons.org/ns#"
   xmlns:rdf="http://www.w3.org/1999/02/22-rdf-syntax-ns#"
   xmlns:svg="http://www.w3.org/2000/svg"
   xmlns="http://www.w3.org/2000/svg"
   xmlns:sodipodi="http://sodipodi.sourceforge.net/DTD/sodipodi-0.dtd"
   xmlns:inkscape="http://www.inkscape.org/namespaces/inkscape"
   width="48"
   height="48"
   id="svg4404"
   sodipodi:version="0.32"
   inkscape:version="0.46"
   version="1.0"
   sodipodi:docbase="/home/tim/pix/icons/Baroque/scalable/emblems"
   sodipodi:docname="emblem-symbolic-link.svg"
   inkscape:output_extension="org.inkscape.output.svg.inkscape">
  <sodipodi:namedview
     id="base"
     pagecolor="#ffffff"
     bordercolor="#666666"
     borderopacity="1.0"
     inkscape:pageopacity="0.0"
     inkscape:pageshadow="2"
     inkscape:zoom="7.0833333"
     inkscape:cx="24"
     inkscape:cy="24"
     inkscape:current-layer="layer1"
     showgrid="true"
     inkscape:document-units="px"
     inkscape:grid-bbox="true"
     width="90px"
     height="90px"
     inkscape:window-width="818"
     inkscape:window-height="725"
     inkscape:window-x="115"
     inkscape:window-y="260" />
  <defs
     id="defs4406">
    <inkscape:perspective
       sodipodi:type="inkscape:persp3d"
       inkscape:vp_x="0 : 45 : 1"
       inkscape:vp_y="0 : 1000 : 0"
       inkscape:vp_z="90 : 45 : 1"
       inkscape:persp3d-origin="45 : 30 : 1"
       id="perspective18" />
  </defs>
  <metadata
     id="metadata4409">
    <rdf:RDF>
      <cc:Work
         rdf:about="">
        <dc:format>image/svg+xml</dc:format>
        <dc:type
           rdf:resource="http://purl.org/dc/dcmitype/StillImage" />
      </cc:Work>
    </rdf:RDF>
  </metadata>
  <g
     inkscape:groupmode="layer"
     id="layer1"
     inkscape:label="Layer 1">
    <g
       id="g2391"
       transform="matrix(0.5892423,0,0,0.6034071,0.4004161,-6.8607753)">
      <path
         sodipodi:nodetypes="cssssscssssccssssssssssccc"
         style="fill:#e0d5cc;fill-opacity:1;fill-rule:evenodd;stroke:#31271c;stroke-width:2.8485589;stroke-linecap:butt;stroke-linejoin:miter;stroke-miterlimit:4;stroke-dasharray:none;stroke-opacity:1"
         d="M 21.634457,59.337982 C 20.097995,59.372035 18.38769,59.43276 16.36581,59.542695 C 11.781325,59.791963 8.0659429,61.972201 5.5876637,64.748248 C 3.1093837,67.524295 1.7340241,70.878702 1.7340241,74.106545 C 1.7340241,77.357363 3.1406434,80.715317 5.6779834,83.494086 C 8.2153225,86.272856 12.056739,88.425693 16.727089,88.494926 C 24.457558,88.612935 28.661077,88.48012 36.115711,88.260969 C 40.769159,88.119835 44.662386,85.953495 47.104717,83.172109 C 49.547049,80.390723 50.839707,77.032283 50.747611,73.813812 C 50.657452,70.663036 49.195551,67.339199 46.683112,64.57278 C 44.170673,61.80636 40.329605,59.683331 35.573793,59.542695 C 32.615321,59.457613 30.426717,59.409411 28.378326,59.367227 L 28.378326,64.982205 C 30.343058,65.024425 32.463709,65.073425 35.393153,65.157673 C 38.538694,65.250692 40.74989,66.527448 42.347768,68.286854 C 43.945646,70.046259 44.80014,72.365514 44.846612,73.989566 C 44.891148,75.545925 44.115372,77.836598 42.58862,79.575299 C 41.061869,81.314001 38.928127,82.555214 35.935071,82.645991 C 28.481002,82.865125 24.453199,82.996511 16.817408,82.879948 C 13.872222,82.836288 11.617325,81.569603 9.9832199,79.780012 C 8.349116,77.990421 7.5144823,75.630557 7.5144823,74.106545 C 7.5144823,72.559556 8.3473145,70.231815 9.9531134,68.433077 C 11.558912,66.634339 13.774025,65.3166 16.696982,65.157673 C 19.550676,65.002512 21.631412,64.968415 23.591383,64.95296 L 23.591383,59.337982 C 22.940179,59.342197 22.337733,59.322396 21.634457,59.337982 z"
         id="path4412" />
      <path
         sodipodi:nodetypes="cccc"
         style="fill:#6d5b43;fill-opacity:1;fill-rule:evenodd;stroke:none;stroke-width:1px;stroke-linecap:butt;stroke-linejoin:miter;stroke-opacity:1"
         d="M 22.195361,61.97897 C 10.780086,62.204314 6.2177433,66.348957 6.0868439,74.033643 C 7.217359,70.954732 6.2347186,64.534861 22.182651,63.843223 L 22.195361,61.97897 z"
         id="path4453" />
      <path
         sodipodi:nodetypes="cccc"
         style="fill:#6d5b43;fill-opacity:1;fill-rule:evenodd;stroke:none;stroke-width:1px;stroke-linecap:butt;stroke-linejoin:miter;stroke-opacity:1"
         d="M 29.714533,61.867857 C 41.244197,62.204315 43.633148,66.682301 46.280606,73.47807 C 45.150091,70.39916 43.387395,63.090374 29.727243,63.620994 L 29.714533,61.867857 z"
         id="path4455" />
      <path
         sodipodi:nodetypes="csssc"
         style="fill:#6d5b43;fill-opacity:1;fill-rule:evenodd;stroke:none;stroke-width:1px;stroke-linecap:butt;stroke-linejoin:miter;stroke-opacity:1"
         d="M 9.5566452,84.954948 C 13.511132,87.577091 33.766619,86.082225 37.899704,85.177177 C 47.261179,83.127233 48.912255,73.337943 49.39396,74.144757 C 49.875665,74.951571 48.255358,84.406045 38.568244,86.737716 C 36.762352,87.172391 13.307025,89.334965 9.5566452,84.954948 z"
         id="path4457" />
      <path
         style="fill:#e0d5cc;fill-opacity:1;fill-rule:evenodd;stroke:#31271c;stroke-width:2.84855866;stroke-linecap:butt;stroke-linejoin:miter;stroke-miterlimit:4;stroke-dasharray:none;stroke-opacity:1"
         d="M 49.622053,88.328604 C 48.085592,88.294551 46.375287,88.233826 44.353406,88.123891 C 39.768921,87.874623 36.053539,85.694387 33.57526,82.918339 C 31.09698,80.142292 29.72162,76.787883 29.72162,73.560041 C 29.72162,70.309223 31.12824,66.951269 33.665579,64.172501 C 36.202919,61.393731 40.044335,59.240893 44.714685,59.171661 C 52.445155,59.053651 56.648673,59.186466 64.103306,59.405617 C 68.756755,59.546752 72.529441,61.683561 74.971772,64.464946 C 77.414104,67.246333 78.706762,70.604772 78.614666,73.823243 C 78.524507,76.97402 77.183146,80.327388 74.670707,83.093807 C 72.158269,85.860227 68.3172,87.983255 63.561388,88.123891 C 60.602917,88.208973 58.414313,88.257176 56.365921,88.29936 L 56.365921,82.684381 C 58.330655,82.642161 60.451305,82.593161 63.380749,82.508913 C 66.526289,82.415895 68.737485,81.139139 70.335363,79.379732 C 71.933241,77.620327 72.787736,75.301073 72.834208,73.67702 C 72.878743,72.120662 72.102966,69.829988 70.576215,68.091287 C 69.049464,66.352586 66.915722,65.111372 63.922667,65.020596 C 56.468598,64.801462 52.440795,64.670076 44.805004,64.786638 C 41.859818,64.830298 39.60492,66.096983 37.970817,67.886574 C 36.336712,69.676165 35.502079,72.03603 35.502079,73.560041 C 35.502079,75.10703 36.33491,77.434772 37.94071,79.23351 C 39.546509,81.032246 41.761621,82.349987 44.684578,82.508913 C 47.538272,82.664074 49.619008,82.698173 51.578979,82.713626 L 51.578979,88.328604 C 50.927775,88.324389 50.325328,88.34419 49.622053,88.328604 z"
         id="path4467" />
      <path
         sodipodi:nodetypes="cccc"
         style="fill:#6d5b43;fill-opacity:1;fill-rule:evenodd;stroke:none;stroke-width:1px;stroke-linecap:butt;stroke-linejoin:miter;stroke-opacity:1"
         d="M 50.182957,86.773464 C 38.631306,88.218656 31.955138,81.568209 31.346925,75.387006 C 32.682003,80.971722 35.722448,86.222217 50.306624,85.828008 L 50.182957,86.773464 z"
         id="path4469" />
      <path
         sodipodi:nodetypes="cccc"
         style="fill:#6d5b43;fill-opacity:1;fill-rule:evenodd;stroke:none;stroke-width:1px;stroke-linecap:butt;stroke-linejoin:miter;stroke-opacity:1"
         d="M 57.770316,86.550471 C 73.323067,88.552763 77.416716,77.97732 77.26847,73.770882 C 76.683457,77.267426 73.625192,86.246749 57.783026,85.214969 L 57.770316,86.550471 z"
         id="path4471" />
      <path
         sodipodi:nodetypes="csssc"
         style="fill:#6d5b43;fill-opacity:1;fill-rule:evenodd;stroke:none;stroke-width:1px;stroke-linecap:butt;stroke-linejoin:miter;stroke-opacity:1"
         d="M 37.953369,65.217443 C 41.907855,62.5953 64.26382,63.259325 65.273609,63.491732 C 74.167529,65.538712 74.287129,74.687315 74.248337,73.688884 C 74.184539,72.0468 72.661163,63.954684 65.19208,62.181772 C 60.647959,61.103149 35.975963,58.999835 37.953369,65.217443 z"
         id="path4473" />
      <path
         style="fill:#e0d5cc;fill-opacity:1;fill-rule:evenodd;stroke:#31271c;stroke-width:2.82906008;stroke-linecap:butt;stroke-linejoin:miter;stroke-miterlimit:4;stroke-dasharray:none;stroke-opacity:1"
         d="M 28.4849,59.391496 L 28.4849,64.976675 C 30.449635,65.018315 32.551536,65.041866 35.480981,65.124954 C 38.626522,65.216694 40.83827,66.454198 42.436148,68.189389 C 44.034029,69.924582 44.885354,72.222295 44.931826,73.823995 C 44.932748,73.855753 44.9316,73.890459 44.931826,73.922848 L 50.700524,73.922848 C 50.699995,73.840139 50.702918,73.758234 50.700524,73.675716 C 50.610366,70.568305 49.285339,67.260185 46.7729,64.531838 C 44.260459,61.803493 40.441356,59.727902 35.685544,59.589201 C 32.727072,59.505292 30.533293,59.433099 28.4849,59.391496 z"
         id="path4487" />
      <path
         sodipodi:nodetypes="cccc"
         style="fill:#6d5b43;fill-opacity:1;fill-rule:evenodd;stroke:none;stroke-width:1px;stroke-linecap:butt;stroke-linejoin:miter;stroke-opacity:1"
         d="M 29.807296,61.880538 C 41.336959,62.212367 45.413476,65.919976 46.276936,73.330967 C 45.242853,69.940055 43.480158,63.086231 29.820006,63.609548 L 29.807296,61.880538 z"
         id="path4491" />
      <rect
         style="fill:#e0d5cc;fill-opacity:1;stroke:none;stroke-width:1.96599996;stroke-linecap:square;stroke-linejoin:miter;stroke-miterlimit:4;stroke-dasharray:none;stroke-opacity:1"
         height="3.2074299"
         width="3.3546257"
         y="72.270172"
         x="46.015388"
         id="rect4545" />
    </g>
  </g>
</svg>
