<?xml version="1.0" encoding="UTF-8" standalone="no"?>
<!-- Created with Inkscape (http://www.inkscape.org/) -->
<svg
   xmlns:dc="http://purl.org/dc/elements/1.1/"
   xmlns:cc="http://creativecommons.org/ns#"
   xmlns:rdf="http://www.w3.org/1999/02/22-rdf-syntax-ns#"
   xmlns:svg="http://www.w3.org/2000/svg"
   xmlns="http://www.w3.org/2000/svg"
   xmlns:sodipodi="http://sodipodi.sourceforge.net/DTD/sodipodi-0.dtd"
   xmlns:inkscape="http://www.inkscape.org/namespaces/inkscape"
   width="48"
   height="48"
   id="svg4720"
   sodipodi:version="0.32"
   inkscape:version="0.46"
   version="1.0"
   sodipodi:docbase="/home/tim/pix/icons/Baroque/scalable/mimetypes"
   sodipodi:docname="emblem-package.svg"
   inkscape:output_extension="org.inkscape.output.svg.inkscape">
  <sodipodi:namedview
     id="base"
     pagecolor="#000000"
     bordercolor="#666666"
     borderopacity="1.0"
     inkscape:pageopacity="0"
     inkscape:pageshadow="2"
     inkscape:zoom="8.1555556"
     inkscape:cx="21.457766"
     inkscape:cy="40.217984"
     inkscape:current-layer="layer11"
     showgrid="true"
     inkscape:document-units="px"
     inkscape:grid-bbox="true"
     width="90px"
     height="90px"
     inkscape:window-width="1014"
     inkscape:window-height="947"
     inkscape:window-x="50"
     inkscape:window-y="27" />
  <defs
     id="defs4722">
    <inkscape:perspective
       sodipodi:type="inkscape:persp3d"
       inkscape:vp_x="0 : 45 : 1"
       inkscape:vp_y="0 : 1000 : 0"
       inkscape:vp_z="90 : 45 : 1"
       inkscape:persp3d-origin="45 : 30 : 1"
       id="perspective17" />
  </defs>
  <metadata
     id="metadata4725">
    <rdf:RDF>
      <cc:Work
         rdf:about="">
        <dc:format>image/svg+xml</dc:format>
        <dc:type
           rdf:resource="http://purl.org/dc/dcmitype/StillImage" />
      </cc:Work>
    </rdf:RDF>
  </metadata>
  <g
     inkscape:groupmode="layer"
     id="layer12"
     inkscape:label="new box"
     style="display:inline" />
  <g
     inkscape:groupmode="layer"
     id="layer13"
     inkscape:label="new ribbon"
     style="display:inline" />
  <g
     inkscape:groupmode="layer"
     id="layer11"
     inkscape:label="edges"
     style="display:inline">
    <g
       id="g2390"
       transform="matrix(-0.5764242,0,0,0.5764242,49.798728,-1.5189905)">
      <path
         sodipodi:nodetypes="ccccc"
         style="fill:#a9923d;fill-opacity:1;fill-rule:evenodd;stroke:#000000;stroke-width:1.08956778px;stroke-linecap:butt;stroke-linejoin:round;stroke-opacity:1;display:inline"
         d="M 33.735446,41.356806 C 32.67827,55.918604 35.434963,70.060403 37.217931,84.309433 C 29.992982,78.962708 14.572426,64.062682 10.518876,58.742393 C 10.184879,45.291523 4.0040393,25.985314 5.8755618,20.903174 L 33.735446,41.356806 z"
         id="path4819" />
      <path
         sodipodi:nodetypes="ccccc"
         style="fill:#decf90;fill-opacity:1;fill-rule:evenodd;stroke:#000000;stroke-width:1.08956778px;stroke-linecap:butt;stroke-linejoin:round;stroke-opacity:1;display:inline"
         d="M 33.735446,41.356806 L 84.179296,26.016582 L 81.901921,65.901164 L 37.217931,84.309433 C 35.315081,69.603723 33.914408,55.272348 33.735446,41.356806 z"
         id="path4817" />
      <path
         sodipodi:nodetypes="ccsccc"
         style="fill:#a9923d;fill-opacity:1;fill-rule:evenodd;stroke:#000000;stroke-width:1.08956778px;stroke-linecap:butt;stroke-linejoin:round;stroke-opacity:1;display:inline"
         d="M 34.219388,41.356806 L 5.8755618,20.903174 C 19.766379,17.910755 32.164324,14.392254 44.457128,10.8367 C 46.301238,10.303312 48.142982,9.769091 49.987045,9.2356869 C 59.818223,15.80944 76.360307,20.001022 83.651071,26.016582 L 34.219388,41.356806 z"
         id="path4821" />
      <path
         sodipodi:nodetypes="ccccccc"
         style="fill:#a40f0f;fill-opacity:1;fill-rule:evenodd;stroke:#e6bb85;stroke-width:0.54478389;stroke-linecap:butt;stroke-linejoin:miter;stroke-miterlimit:4;stroke-dasharray:none;stroke-opacity:1;display:inline"
         d="M 56.952016,76.12798 L 61.168323,74.065897 C 61.48475,60.1297 62.972237,46.388437 61.59533,32.152672 C 52.227324,25.083535 40.227769,22.3113 29.825952,14.892481 L 26.390912,15.789766 C 34.404858,22.704674 47.441521,27.282716 55.791187,34.198035 C 57.421194,47.986986 57.02521,62.640725 56.952016,76.12798 z"
         id="path4869" />
      <path
         sodipodi:nodetypes="ccccccc"
         style="fill:#a40f0f;fill-opacity:1;fill-rule:evenodd;stroke:#ecbb83;stroke-width:0.54478389;stroke-linecap:butt;stroke-linejoin:round;stroke-miterlimit:4;stroke-dasharray:none;stroke-opacity:1;display:inline"
         d="M 17.768519,66.296861 C 15.83592,50.784799 14.857435,27.607687 15.715718,28.061945 C 32.769374,25.071416 48.015105,19.498245 64.059323,15.915163 L 67.82648,17.709732 C 51.562153,21.033651 36.050299,27.423449 19.805504,31.12999 C 20.731205,44.717444 21.188394,56.800134 21.984825,70.387588 L 17.768519,66.296861 z"
         id="path4867" />
      <path
         sodipodi:nodetypes="ccccccscc"
         style="fill:#a40f0f;fill-opacity:1;fill-rule:evenodd;stroke:#e6bb85;stroke-width:0.54478389;stroke-linecap:butt;stroke-linejoin:miter;stroke-miterlimit:4;stroke-dasharray:none;stroke-opacity:1;display:inline"
         d="M 39.797375,22.490142 C 45.319611,21.099616 54.146161,20.120536 54.630359,14.767084 C 53.778559,11.483161 48.93526,13.051531 47.665388,13.744403 C 44.464142,15.704939 45.709842,19.157938 44.894582,23.154746 L 48.163563,25.389597 C 48.431893,22.199406 48.252426,18.61471 48.968552,15.819025 C 51.156635,12.756216 56.959171,12.003171 57.491311,14.767084 C 58.484776,19.927103 49.298354,22.97714 42.261367,24.680407 L 39.797375,22.490142 z"
         id="path4873" />
      <path
         sodipodi:nodetypes="cccsssccss"
         style="fill:#a40f0f;fill-opacity:1;fill-rule:evenodd;stroke:#e6bb85;stroke-width:0.54478389;stroke-linecap:butt;stroke-linejoin:miter;stroke-miterlimit:4;stroke-dasharray:none;stroke-opacity:1;display:inline"
         d="M 44.25407,21.153968 C 46.687114,20.434842 47.16656,21.248024 48.541545,21.675062 C 48.756607,24.349269 46.35967,21.153098 45.557235,25.828487 C 45.399951,26.744903 41.288238,30.473268 38.521096,31.651084 C 36.237807,32.622953 35.601237,30.178822 33.521942,29.774311 C 28.443311,28.7863 40.550066,23.649592 43.151758,25.056599 C 44.876825,25.989524 46.18293,24.807728 48.857848,21.945362 C 48.255058,19.375971 31.885907,21.960176 33.779728,29.065121 C 35.38921,29.610812 41.179002,26.563081 43.591418,24.429614 C 47.606953,20.878398 42.649766,21.628147 44.25407,21.153968 z"
         id="path4871" />
      <path
         style="fill:#000000;display:inline"
         d="M 32.862054,82.055808 C 29.541492,79.007213 26.959431,76.370269 24.830458,73.853497 C 24.078735,72.964847 22.901872,71.863482 22.215204,71.406019 C 20.807248,70.468032 17.214099,66.998646 16.598766,65.983036 C 15.898352,64.826997 16.60003,64.867663 17.830872,66.054443 C 18.481183,66.681472 19.170745,67.251195 19.363232,67.32049 C 19.555718,67.389782 20.955163,68.883865 22.473109,70.640672 C 23.991054,72.397478 27.728104,76.102729 30.777664,78.874564 C 35.17312,82.869726 36.517652,83.912429 37.264786,83.905419 C 37.783143,83.900554 42.088617,82.243578 46.832499,80.223251 C 51.576382,78.202925 55.667876,76.54993 55.924713,76.54993 C 56.181547,76.54993 56.391686,76.437085 56.391686,76.299163 C 56.391686,76.161237 57.278557,75.624623 58.362513,75.10668 C 59.49209,74.566939 60.408298,73.89 60.508949,73.520787 C 60.760911,72.596537 61.051404,67.258727 61.300188,58.981866 C 61.418999,55.029053 61.659951,51.219977 61.835632,50.517254 C 62.02705,49.751587 62.062571,53.655674 61.924273,60.259543 C 61.797344,66.320525 61.680342,72.065426 61.664264,73.025987 C 61.635925,74.719305 61.591013,74.794668 60.188594,75.502183 C 59.393051,75.903526 58.009136,76.428975 57.113228,76.669845 C 56.217322,76.910713 51.540289,78.850872 46.719826,80.98131 C 41.713403,83.193931 37.517009,84.854831 36.933063,84.854831 C 36.120807,84.854831 35.284412,84.279768 32.862054,82.055808 z M 37.207464,80.223251 C 37.097639,79.87189 36.978391,78.003287 36.942468,76.0708 C 36.893582,73.441091 36.969473,72.75195 37.244145,73.331396 C 37.445992,73.757211 37.565244,75.625814 37.509145,77.483847 C 37.453044,79.341881 37.317288,80.574612 37.207464,80.223251 z M 36.170058,79.291611 C 36.154357,78.954891 36.23982,78.766233 36.359983,78.872373 C 36.480142,78.978513 36.492987,79.254012 36.388529,79.484594 C 36.273095,79.739404 36.187408,79.663718 36.170058,79.291611 z M 36.088407,78.306735 C 35.95976,78.131055 35.746815,76.837406 35.6152,75.431962 C 35.483584,74.026517 35.231035,72.229783 35.05398,71.43922 C 33.997467,66.72185 32.887016,53.870368 32.887016,46.360462 L 32.887016,41.501915 L 26.35989,36.746422 C 22.76997,34.130906 19.31207,31.661583 18.675671,31.259044 C 17.231559,30.345614 10.828787,25.426259 10.828787,25.230159 C 10.828787,25.026698 11.413544,25.343395 13.970231,26.931526 C 15.397367,27.818017 16.29611,28.194909 16.451912,27.972229 C 16.586256,27.780217 16.992732,27.691623 17.35519,27.775346 C 17.717649,27.859072 18.366713,27.709478 18.797553,27.442916 C 19.473694,27.024586 19.786199,27.016926 21.081011,27.386948 L 22.581123,27.815643 L 20.338857,27.986773 C 17.251454,28.222402 16.95157,28.613422 18.986771,29.749766 C 19.893864,30.256237 21.073676,31.047675 21.608576,31.508517 C 23.10376,32.796694 26.92387,35.615842 30.685804,38.207287 L 34.089551,40.551994 L 36.290764,39.894728 C 38.326615,39.286838 42.281214,38.029472 50.967532,35.228251 C 53.547064,34.396388 54.388716,33.98594 54.346176,33.580588 C 54.304767,33.186011 54.397203,33.135872 54.689706,33.394248 C 55.053084,33.715229 56.391686,33.90469 56.391686,33.635137 C 56.391686,33.573209 54.80512,32.137704 52.865985,30.445126 C 50.92685,28.752549 49.507544,27.365831 49.711977,27.363534 C 49.916406,27.361234 51.675481,28.692035 53.621035,30.320869 L 57.158404,33.282384 L 59.396718,32.594345 C 68.428803,29.817959 70.440911,29.154563 71.398514,28.637333 C 71.99517,28.315065 73.215605,27.802285 74.110591,27.497831 C 75.97082,26.865017 77.732115,25.558565 77.715194,24.824093 C 77.706202,24.433737 77.591538,24.464183 77.1894,24.963708 C 76.278784,26.094839 75.44459,26.720754 74.860944,26.710801 C 74.353224,26.702142 74.354945,26.668289 74.876792,26.398951 C 75.198763,26.232776 75.665997,25.662192 75.915092,25.130987 C 76.164191,24.599782 76.59234,24.16516 76.866538,24.16516 C 77.752347,24.16516 77.391966,23.38575 76.165004,22.647918 C 75.507676,22.252637 74.847354,21.929224 74.697618,21.929224 C 74.547883,21.929224 72.523892,20.944112 70.199865,19.740085 C 64.696371,16.888849 62.833469,16.260877 61.347968,16.75617 C 60.736542,16.960031 60.162306,17.061477 60.071884,16.981607 C 59.981467,16.901737 60.343415,16.689988 60.876214,16.511052 C 61.716224,16.228944 61.791819,16.098033 61.445143,15.525839 C 61.225252,15.162908 60.689848,14.739444 60.255359,14.58481 C 58.909767,14.105913 59.957981,14.235793 61.849742,14.782363 C 62.838113,15.067923 64.611808,15.750683 65.791283,16.299604 C 70.409824,18.449049 80.188313,23.020541 82.246823,23.992653 C 84.766061,25.18234 85.247097,26.109459 83.621264,26.641676 C 83.064206,26.824029 78.214868,28.340578 72.844955,30.011783 C 67.475042,31.682991 62.511941,33.227639 61.815841,33.444336 C 61.119741,33.661033 59.980668,34.024161 59.284568,34.251291 C 58.588468,34.478417 53.299918,36.129011 47.532234,37.91928 C 41.764549,39.709545 36.582004,41.319064 36.015466,41.495987 C 35.09673,41.782899 35.011021,41.925308 35.222498,42.813557 C 35.352901,43.361297 35.532567,46.827961 35.621755,50.517254 C 35.710943,54.206548 35.945733,58.006088 36.143516,58.960676 C 36.594708,61.13834 36.589497,67.71931 36.137303,66.80764 C 35.963026,66.456278 35.713934,64.757542 35.583765,63.032668 C 35.453596,61.307798 35.265529,59.968587 35.165837,60.056648 C 34.928035,60.266702 35.683906,68.775521 36.17699,71.43922 C 36.573001,73.578498 36.504678,78.875186 36.088407,78.306735 z M 34.954071,56.186947 C 34.871219,55.703825 34.803428,56.099107 34.803428,57.065351 C 34.803428,58.031594 34.871219,58.426875 34.954071,57.943753 C 35.036927,57.460631 35.036927,56.670069 34.954071,56.186947 z M 34.770431,53.631593 C 34.593408,51.204332 34.420739,50.994901 34.375404,53.152464 C 34.352333,54.250468 34.456672,55.148834 34.607272,55.148834 C 34.757869,55.148834 34.83129,54.466076 34.770431,53.631593 z M 34.493893,46.444658 C 34.361461,44.46825 34.236314,42.599647 34.215793,42.292207 C 34.195272,41.984765 34.032149,41.733222 33.8533,41.733222 C 33.674451,41.733222 33.623938,42.344112 33.741049,43.090754 C 33.858157,43.837398 34.061736,45.706001 34.193445,47.243206 C 34.325155,48.780412 34.50081,50.038125 34.5838,50.038125 C 34.666785,50.038125 34.626329,48.421065 34.493893,46.444658 z M 80.701723,26.139936 L 82.772723,25.568764 L 80.784113,24.707253 C 78.529097,23.730327 78.32487,23.688004 78.55361,24.245015 C 78.643792,24.464616 78.50293,25.111439 78.240585,25.682401 C 77.67075,26.922586 77.786143,26.944034 80.701723,26.139936 z M 56.753296,74.971684 C 56.753296,74.785636 56.916021,74.633413 57.114907,74.633413 C 57.313793,74.633413 57.476516,74.696799 57.476516,74.774271 C 57.476516,74.851742 57.313793,75.003965 57.114907,75.112542 C 56.916021,75.221119 56.753296,75.157734 56.753296,74.971684 z M 56.753296,72.73575 C 56.753296,72.570437 56.916021,72.346345 57.114907,72.237768 C 57.313793,72.129191 57.476516,72.264446 57.476516,72.538335 C 57.476516,72.812225 57.313793,73.036317 57.114907,73.036317 C 56.916021,73.036317 56.753296,72.901062 56.753296,72.73575 z M 21.909305,69.28314 C 21.811328,68.975698 21.73829,68.005463 21.746996,67.127059 L 21.762825,65.529963 L 22.246597,67.446478 C 22.839285,69.794472 22.842827,69.842123 22.424686,69.842123 C 22.239202,69.842123 22.007281,69.59058 21.909305,69.28314 z M 20.592266,64.571705 C 20.592266,64.308183 20.656218,64.092575 20.734383,64.092575 C 20.812547,64.092575 20.970164,64.308183 21.084644,64.571705 C 21.199124,64.835225 21.13517,65.050833 20.942527,65.050833 C 20.749883,65.050833 20.592266,64.835225 20.592266,64.571705 z M 20.259203,62.362386 C 20.243502,62.025667 20.328968,61.837008 20.449129,61.943148 C 20.569288,62.049291 20.582135,62.324787 20.477677,62.555369 C 20.362241,62.810181 20.276555,62.734494 20.259203,62.362386 z M 18.493099,59.141575 C 18.48573,58.614534 18.560744,58.360257 18.659797,58.576513 C 18.758851,58.79277 18.76488,59.223986 18.673197,59.534772 C 18.581512,59.845557 18.500469,59.668617 18.493099,59.141575 z M 57.828292,31.665103 C 56.39297,30.729709 55.518885,29.647932 56.62708,30.178469 C 57.320106,30.510249 59.556156,32.470062 59.241671,32.470062 C 59.143657,32.470062 58.507637,32.107831 57.828292,31.665103 z M 41.240572,29.397555 C 42.951184,27.837342 44.550666,26.225523 44.794974,25.815735 C 45.219117,25.104309 45.261848,25.097097 45.741384,25.656025 C 46.0176,25.977974 46.24877,26.115981 46.255098,25.96271 C 46.269179,25.621478 47.351428,26.378639 47.351428,26.729723 C 47.351428,26.867444 47.034951,26.907021 46.648147,26.817672 C 46.173779,26.708096 45.496993,27.030603 44.568887,27.808498 C 39.522421,32.038211 37.052423,33.217474 41.240572,29.397555 z M 34.907897,30.72195 C 34.226196,29.932474 33.64835,29.595288 32.977096,29.595288 C 31.725997,29.595288 32.325098,29.094819 33.935733,28.794479 C 34.938598,28.607471 35.127351,28.652465 34.959629,29.038541 C 34.846535,29.298873 35.074961,29.978071 35.467243,30.547864 C 36.452164,31.978476 36.090171,32.091142 34.907897,30.72195 z M 5.5940423,29.196014 C 5.4749587,28.449372 5.3429447,26.278879 5.3006777,24.372699 L 5.2238274,20.906916 L 7.393489,20.340769 C 9.9605254,19.670932 14.836036,18.478795 20.592266,17.113467 C 22.879451,16.570966 25.32032,15.943706 26.01642,15.719557 C 28.726776,14.846799 29.636171,14.648799 29.807785,14.894074 C 30.128114,15.351906 28.98318,15.906627 26.482784,16.505034 C 23.805828,17.145696 14.560232,19.492742 12.817644,19.974003 C 12.220987,20.138786 10.487004,20.591177 8.9643488,20.979318 C 5.7027249,21.810738 5.8192558,21.58468 5.8954549,26.932666 C 5.9238314,28.92422 5.9163382,30.553645 5.8788028,30.553611 C 5.8412674,30.553575 5.7131247,29.942657 5.5940423,29.196014 z M 26.257494,28.424083 C 26.124903,28.306964 26.01642,27.93564 26.01642,27.598918 C 26.01642,26.770519 26.889774,27.065561 27.035999,27.943357 C 27.147869,28.614926 26.750989,28.860001 26.257494,28.424083 z M 36.297554,28.352996 C 36.406858,28.196777 36.931541,27.972466 37.463516,27.854527 C 37.995493,27.736587 39.159013,27.07384 40.049117,26.381755 C 41.542137,25.220881 42.65978,24.78208 42.643975,25.362982 C 42.630349,25.863768 39.766439,27.67945 38.258419,28.143368 C 36.437201,28.703633 36.021103,28.748118 36.297554,28.352996 z M 41.204053,28.355313 C 41.204053,28.179631 41.366778,27.947059 41.565664,27.838482 C 41.764549,27.729905 41.927273,27.78481 41.927273,27.960491 C 41.927273,28.136171 41.764549,28.368743 41.565664,28.477321 C 41.366778,28.585898 41.204053,28.530993 41.204053,28.355313 z M 66.155164,28.317611 C 64.544158,28.096372 64.550475,28.093663 66.787983,28.046165 C 68.089826,28.018532 69.048047,28.133619 69.048047,28.317611 C 69.048047,28.661971 68.662704,28.661971 66.155164,28.317611 z M 61.180227,27.162367 C 60.134541,26.715496 59.104328,26.06161 58.890865,25.709288 C 58.415391,24.924512 58.837796,24.429568 59.325734,25.199738 C 59.678572,25.756664 62.506245,27.364454 63.113248,27.353284 C 63.294661,27.349946 62.670144,26.918465 61.725438,26.394439 C 60.416886,25.668589 60.007789,25.250162 60.007789,24.637616 C 60.007789,23.939466 59.888725,23.859966 59.103763,24.033992 C 58.597317,24.146272 58.199737,24.09591 58.199737,23.919479 C 58.199737,23.217231 59.454482,22.77225 61.738963,22.664335 C 63.857261,22.564269 64.068207,22.603927 63.470638,22.989897 C 62.518062,23.605169 63.081137,24.210625 64.465714,24.059872 C 65.096582,23.991182 65.327981,23.996769 64.979931,24.072286 C 63.986739,24.287784 64.239414,24.896659 65.251139,24.725821 C 65.748353,24.641862 66.155164,24.696974 66.155164,24.848293 C 66.155164,24.999612 65.943517,25.123418 65.684839,25.123418 C 65.036681,25.123418 63.26856,25.8714 63.265103,26.147057 C 63.261422,26.44085 65.762061,26.854804 66.042751,26.606865 C 66.161261,26.502182 66.052388,26.197451 65.800808,25.929686 C 65.266192,25.360674 65.809848,25.265578 66.435908,25.818593 C 66.762018,26.106655 67.017622,26.069381 67.531131,25.658883 C 67.899543,25.364377 68.459736,25.123418 68.776007,25.123418 C 69.092278,25.123418 69.811728,24.923762 70.37478,24.679738 C 71.311894,24.273598 72.960107,23.731341 74.562604,23.301955 C 75.997337,22.917522 75.056777,23.785792 73.296967,24.470318 C 69.279492,26.033024 68.86002,26.217457 68.622088,26.525777 C 68.487251,26.700499 68.612282,26.995464 68.899931,27.181258 C 69.283553,27.429041 68.650243,27.519063 66.52341,27.519063 C 64.928677,27.519063 63.623893,27.626867 63.623893,27.758627 C 63.623893,28.132964 63.221926,28.034883 61.180227,27.162367 z M 61.933826,25.51559 C 61.501504,25.212055 61.082643,24.604361 61.003021,24.16516 C 60.877306,23.471707 60.820064,23.442317 60.568079,23.941847 C 60.363213,24.347966 60.522508,24.747076 61.109905,25.299379 C 61.567508,25.729642 62.11695,26.07848 62.330885,26.074573 C 62.544825,26.070666 62.36615,25.819124 61.933826,25.51559 z M 62.469748,24.505241 C 62.229371,24.165243 61.894639,23.962432 61.725904,24.054549 C 61.381142,24.242763 62.090118,25.123418 62.586403,25.123418 C 62.762619,25.123418 62.710128,24.845238 62.469748,24.505241 z M 27.922408,27.485789 C 28.042568,27.379649 28.354457,27.368303 28.615494,27.460574 C 28.903962,27.562539 28.818278,27.638229 28.397021,27.653555 C 28.015824,27.667423 27.802248,27.591932 27.922408,27.485789 z M 72.121734,27.359353 C 72.244653,27.183672 72.507945,27.039933 72.70683,27.039933 C 72.905716,27.039933 72.967874,27.183672 72.844955,27.359353 C 72.722036,27.535034 72.458745,27.678772 72.259859,27.678772 C 72.060973,27.678772 71.998815,27.535034 72.121734,27.359353 z M 23.579855,26.180543 C 23.916067,25.88356 24.312354,25.747637 24.460495,25.878492 C 24.608634,26.009347 24.490465,26.250134 24.197897,26.413572 C 23.31753,26.905372 22.926287,26.757857 23.579855,26.180543 z M 47.713039,25.971776 C 47.713039,25.887405 48.363937,24.821128 49.15948,23.602273 C 49.955022,22.383418 50.605921,21.230239 50.605921,21.039653 C 50.605921,20.186724 51.371577,18.964167 51.715489,19.267953 C 52.140942,19.643767 51.266959,22.915368 50.445138,24.023285 C 49.9373,24.707916 47.713039,26.294224 47.713039,25.971776 z M 72.762226,25.657268 C 72.838884,25.45149 73.273047,25.235105 73.727038,25.176411 C 74.727451,25.047072 74.432923,25.61329 73.372356,25.858276 C 72.894687,25.968615 72.673399,25.895712 72.762226,25.657268 z M 31.400678,25.203273 C 31.635505,24.807991 31.984629,24.484579 32.176517,24.484579 C 32.690235,24.484579 32.611479,24.637478 31.749568,25.313476 C 30.977887,25.918704 30.976017,25.918113 31.400678,25.203273 z M 30.717354,23.845741 C 30.717354,23.670059 31.164847,23.536424 31.711783,23.548771 C 32.592969,23.568666 32.623854,23.602483 31.982991,23.845741 C 30.995295,24.220648 30.717354,24.220648 30.717354,23.845741 z M 70.737993,23.395759 C 70.612521,23.106931 70.288605,22.977318 69.96576,23.086751 C 69.659903,23.190426 69.409657,23.132898 69.409657,22.958911 C 69.409657,22.433816 70.763161,22.290707 71.487994,22.739162 C 71.925141,23.009627 72.351719,23.055642 72.68662,22.868456 C 73.589261,22.363948 74.364612,22.510461 73.528781,23.027593 C 72.297271,23.789536 70.984303,23.962745 70.737993,23.395759 z M 26.406578,23.07381 C 26.390877,22.737089 26.476343,22.548432 26.596504,22.654572 C 26.716663,22.760713 26.72951,23.036213 26.625052,23.266793 C 26.509616,23.521604 26.42393,23.445915 26.406578,23.07381 z M 63.985502,23.350313 C 63.985502,23.162022 66.303913,22.247844 66.776367,22.249838 C 66.931921,22.250495 66.5264,22.537972 65.875216,22.888676 C 64.707309,23.51767 63.985502,23.693998 63.985502,23.350313 z M 44.812903,22.720054 C 44.561323,22.452287 44.436748,22.161426 44.536065,22.073696 C 44.863527,21.78444 45.904987,22.308052 45.904987,22.761947 C 45.904987,23.347948 45.384066,23.327965 44.812903,22.720054 z M 47.695771,22.232459 C 47.303489,22.013252 47.290384,21.93777 47.643979,21.934116 C 47.904323,21.931426 48.023384,21.79495 47.908558,21.630837 C 47.793736,21.466724 47.140342,21.412642 46.456573,21.510656 C 45.772808,21.608671 44.921483,21.589539 44.564748,21.468144 C 43.352456,21.055609 44.999674,20.608207 46.907671,20.83178 C 48.261103,20.990372 48.660913,21.169694 48.700676,21.635974 C 48.764609,22.385683 48.379283,22.614401 47.695771,22.232459 z M 63.758458,13.265583 C 64.696205,12.716916 65.5446,12.339683 65.643778,12.427289 C 65.97096,12.716298 63.584068,14.263161 62.810931,14.263161 C 62.244301,14.263161 62.483033,14.011822 63.758458,13.265583 z M 55.668466,12.506355 C 55.091491,11.892255 55.680156,11.885792 56.593779,12.496196 C 57.183479,12.890181 57.201607,12.96679 56.707169,12.975325 C 56.383473,12.980912 55.916056,12.769875 55.668466,12.506355 z M 61.45423,12.027225 C 61.752558,11.856925 62.240733,11.717589 62.539061,11.717589 C 63.021207,11.717589 63.021207,11.751993 62.539061,12.027225 C 62.240733,12.197526 61.752558,12.336862 61.45423,12.336862 C 60.972084,12.336862 60.972084,12.302458 61.45423,12.027225 z M 53.664739,11.686555 C 53.270827,11.123553 53.686089,11.044617 54.429227,11.541239 C 55.041024,11.950087 55.051439,12.008148 54.514574,12.017067 C 54.178263,12.022654 53.795838,11.873923 53.664739,11.686555 z M 41.377177,10.970329 C 41.770725,10.761059 42.699952,10.021172 43.442124,9.3261359 C 44.184296,8.631099 44.918652,8.1747222 45.074022,8.3119671 C 45.469775,8.6615432 42.112808,11.392507 41.315505,11.369603 C 40.716436,11.352392 40.721607,11.31893 41.377177,10.970329 z M 38.311171,10.490921 C 38.311171,10.319397 38.568854,10.091712 38.883803,9.9849566 C 39.235978,9.8655821 39.401295,9.9369673 39.313214,10.170383 C 39.133031,10.647863 38.311171,10.910764 38.311171,10.490921 z M 49.34393,10.435339 C 49.219008,10.256793 49.370487,10.11071 49.680554,10.11071 C 50.315732,10.11071 50.409256,10.302379 49.907688,10.576197 C 49.722543,10.677272 49.468852,10.613885 49.34393,10.435339 z M 50.78472,10.108751 C 49.895447,9.2407655 50.360999,8.9372224 51.537317,9.6180502 C 52.227461,10.017489 52.6006,10.073623 52.886561,9.8210279 C 53.103965,9.6289908 53.452698,9.4766532 53.661528,9.4824978 C 54.190444,9.4973011 52.437185,10.749548 51.88754,10.749548 C 51.642072,10.749548 51.145801,10.46119 50.78472,10.108751 z M 46.266598,9.171303 C 46.266598,8.9852537 46.429323,8.8330326 46.628207,8.8330326 C 46.827093,8.8330326 46.989818,8.8964184 46.989818,8.9738906 C 46.989818,9.0513629 46.827093,9.2035849 46.628207,9.312161 C 46.429323,9.4207381 46.266598,9.3573512 46.266598,9.171303 z M 54.222025,9.1778737 C 54.222025,8.9963109 54.669517,8.5962225 55.216453,8.2887901 C 55.763388,7.9813567 56.324076,7.5869247 56.462428,7.4122732 C 56.600776,7.2376227 56.827372,7.1948951 56.96597,7.3173213 C 57.104568,7.4397486 57.044563,7.7230641 56.832627,7.9469097 C 56.214436,8.5998438 54.222025,9.5393149 54.222025,9.1778737 z M 56.196011,6.5758455 C 55.806821,6.0195946 56.250079,5.901794 56.746042,6.4296685 C 57.031262,6.7332392 57.058698,6.916516 56.818914,6.916516 C 56.607416,6.916516 56.327109,6.763214 56.196011,6.5758455 z M 57.129733,5.9766492 C 56.696723,5.4394918 56.512492,5.0000005 56.720335,5.0000005 C 57.175617,5.0000005 58.37735,6.5466806 58.107364,6.7851659 C 58.002678,6.8776378 57.562743,6.5138055 57.129733,5.9766492 z"
         id="path4811" />
    </g>
  </g>
</svg>
