<?xml version="1.0" encoding="UTF-8" standalone="no"?>
<!-- Created with Inkscape (http://www.inkscape.org/) -->
<svg
   xmlns:dc="http://purl.org/dc/elements/1.1/"
   xmlns:cc="http://creativecommons.org/ns#"
   xmlns:rdf="http://www.w3.org/1999/02/22-rdf-syntax-ns#"
   xmlns:svg="http://www.w3.org/2000/svg"
   xmlns="http://www.w3.org/2000/svg"
   xmlns:xlink="http://www.w3.org/1999/xlink"
   xmlns:sodipodi="http://sodipodi.sourceforge.net/DTD/sodipodi-0.dtd"
   xmlns:inkscape="http://www.inkscape.org/namespaces/inkscape"
   width="48"
   height="48"
   id="svg17524"
   sodipodi:version="0.32"
   inkscape:version="0.46"
   version="1.0"
   sodipodi:docbase="/home/tim/pix/icons/Baroque/scalable/status"
   sodipodi:docname="folder-open.svg"
   inkscape:output_extension="org.inkscape.output.svg.inkscape">
  <sodipodi:namedview
     id="base"
     pagecolor="#ffffff"
     bordercolor="#666666"
     borderopacity="1.0"
     inkscape:pageopacity="0.0"
     inkscape:pageshadow="2"
     inkscape:zoom="7.8555556"
     inkscape:cx="20.558699"
     inkscape:cy="38.651867"
     inkscape:current-layer="layer1"
     showgrid="true"
     inkscape:document-units="px"
     inkscape:grid-bbox="true"
     width="90px"
     height="90px"
     inkscape:window-width="1008"
     inkscape:window-height="920"
     inkscape:window-x="69"
     inkscape:window-y="48" />
  <defs
     id="defs17526">
    <inkscape:perspective
       sodipodi:type="inkscape:persp3d"
       inkscape:vp_x="0 : 45 : 1"
       inkscape:vp_y="0 : 1000 : 0"
       inkscape:vp_z="90 : 45 : 1"
       inkscape:persp3d-origin="45 : 30 : 1"
       id="perspective41" />
    <linearGradient
       inkscape:collect="always"
       id="linearGradient3315">
      <stop
         style="stop-color:#90714c;stop-opacity:1;"
         offset="0"
         id="stop3317" />
      <stop
         style="stop-color:#90714c;stop-opacity:0;"
         offset="1"
         id="stop3319" />
    </linearGradient>
    <linearGradient
       id="linearGradient3303">
      <stop
         style="stop-color:#83380d;stop-opacity:1;"
         offset="0"
         id="stop3305" />
      <stop
         id="stop3167"
         offset="0.89999998"
         style="stop-color:#472e1e;stop-opacity:0.87450981;" />
      <stop
         style="stop-color:#4e3d33;stop-opacity:0.80000001;"
         offset="1"
         id="stop3307" />
    </linearGradient>
    <filter
       inkscape:collect="always"
       id="filter27086">
      <feGaussianBlur
         inkscape:collect="always"
         stdDeviation="1.2089882"
         id="feGaussianBlur27088" />
    </filter>
    <linearGradient
       inkscape:collect="always"
       xlink:href="#linearGradient3303"
       id="linearGradient3309"
       x1="26.385223"
       y1="60.013542"
       x2="74.149422"
       y2="43.39085"
       gradientUnits="userSpaceOnUse" />
    <linearGradient
       inkscape:collect="always"
       xlink:href="#linearGradient3315"
       id="linearGradient3321"
       x1="64.811432"
       y1="46.17065"
       x2="52.84993"
       y2="9.600729"
       gradientUnits="userSpaceOnUse" />
    <linearGradient
       inkscape:collect="always"
       xlink:href="#linearGradient3303"
       id="linearGradient3332"
       gradientUnits="userSpaceOnUse"
       x1="26.385223"
       y1="60.013542"
       x2="74.149422"
       y2="43.39085" />
    <linearGradient
       inkscape:collect="always"
       xlink:href="#linearGradient3303"
       id="linearGradient3203"
       gradientUnits="userSpaceOnUse"
       x1="26.385223"
       y1="60.013542"
       x2="74.149422"
       y2="43.39085" />
    <linearGradient
       inkscape:collect="always"
       xlink:href="#linearGradient3303"
       id="linearGradient2432"
       gradientUnits="userSpaceOnUse"
       x1="26.385223"
       y1="60.013542"
       x2="74.149422"
       y2="43.39085" />
    <linearGradient
       inkscape:collect="always"
       xlink:href="#linearGradient3303"
       id="linearGradient2450"
       gradientUnits="userSpaceOnUse"
       x1="26.385223"
       y1="60.013542"
       x2="74.149422"
       y2="43.39085" />
    <linearGradient
       inkscape:collect="always"
       xlink:href="#linearGradient3303"
       id="linearGradient2457"
       gradientUnits="userSpaceOnUse"
       x1="26.385223"
       y1="60.013542"
       x2="74.149422"
       y2="43.39085"
       gradientTransform="matrix(0.5734786,0,0,0.5885129,-2.585308,-1.7503866)" />
    <linearGradient
       inkscape:collect="always"
       xlink:href="#linearGradient3303"
       id="linearGradient2486"
       gradientUnits="userSpaceOnUse"
       gradientTransform="matrix(0.5734786,0,0,0.5885129,-2.585308,-1.7503866)"
       x1="26.385223"
       y1="60.013542"
       x2="74.149422"
       y2="43.39085" />
  </defs>
  <metadata
     id="metadata17529">
    <rdf:RDF>
      <cc:Work
         rdf:about="">
        <dc:format>image/svg+xml</dc:format>
        <dc:type
           rdf:resource="http://purl.org/dc/dcmitype/StillImage" />
      </cc:Work>
    </rdf:RDF>
  </metadata>
  <g
     inkscape:groupmode="layer"
     id="layer10"
     inkscape:label="SHADOW"
     style="display:inline" />
  <g
     inkscape:groupmode="layer"
     id="layer3"
     inkscape:label="yellow"
     style="display:inline" />
  <g
     inkscape:groupmode="layer"
     id="layer9"
     inkscape:label="shade1"
     style="display:inline" />
  <g
     inkscape:groupmode="layer"
     id="layer5"
     inkscape:label="woodwork"
     style="display:inline" />
  <g
     inkscape:groupmode="layer"
     id="layer2"
     inkscape:label="shade2"
     style="display:inline" />
  <g
     inkscape:groupmode="layer"
     id="layer1"
     inkscape:label="outline"
     style="display:inline">
    <g
       id="g2469"
       transform="matrix(0.9767206,0,0,0.9767206,-0.4170504,0.5002945)">
      <path
         transform="matrix(0.5831793,0,0,0.5778776,-3.5023651,-0.2873761)"
         style="fill:#000000;fill-opacity:0.6;display:inline;filter:url(#filter27086)"
         d="M 15.020243,84.374893 C 14.378738,83.789779 13.477397,81.546204 13.017261,79.389182 C 12.557125,77.232149 11.760984,74.740652 11.248058,73.852524 C 9.4301844,70.704891 8.8157685,61.765236 9.0197155,41.430505 L 9.2231788,21.144011 L 10.964037,20.387676 C 15.960772,18.216786 41.530008,10.951446 53.440993,8.31811 C 55.164443,7.9370814 58.896484,6.7376557 61.734419,5.6527194 C 69.214846,2.7929659 70.559888,2.9829839 71.880367,7.0860688 C 72.483238,8.9593479 75.021933,13.732808 77.521917,17.69376 C 81.773255,24.429545 82.222222,24.857664 84.46128,24.310828 C 88.808727,23.24907 89.204758,24.898941 88.772649,42.272157 C 88.50457,53.050496 88.123692,57.779035 87.440801,58.806776 C 86.914784,59.598426 84.925038,60.746487 83.019138,61.35803 C 81.113246,61.969573 78.300457,62.942578 76.768502,63.52026 C 75.236545,64.097953 71.577573,65.261471 68.637452,66.105868 C 65.697331,66.950253 60.056947,69.097245 56.103268,70.87696 C 52.149589,72.656685 47.19131,74.499584 45.084871,74.97231 C 42.978432,75.445026 39.374853,76.625773 37.07692,77.596179 C 34.778986,78.566585 31.917416,79.719256 30.717874,80.157661 C 29.518333,80.596067 28.168879,81.297055 27.719089,81.715423 C 27.269299,82.13379 25.273873,82.876741 23.28481,83.366434 C 21.295747,83.856128 18.884946,84.522722 17.927473,84.847755 C 16.97,85.172789 15.661748,84.960005 15.020243,84.374893 z M 25.975241,32.899367 C 27.676791,32.254548 29.06897,31.279578 29.06897,30.73277 C 29.06897,30.18596 28.520599,29.970942 27.850369,30.254947 C 27.180138,30.538954 25.616958,31.078612 24.376636,31.454187 C 23.136314,31.82976 21.942741,32.572361 21.724252,33.104409 C 21.203034,34.373636 22.213563,34.324894 25.975241,32.899367 z M 40.90681,31.695016 C 41.864282,31.13564 42.334314,30.500701 41.951325,30.284042 C 40.647423,29.546417 35.098426,31.476722 34.812566,32.76737 C 34.504351,34.15895 37.631089,33.608762 40.90681,31.695016 z M 52.222392,31.920687 C 56.069656,30.3127 55.399767,28.964959 51.351962,30.169476 C 49.437018,30.739312 47.870245,31.614646 47.870245,32.114661 C 47.870245,33.306319 49.030902,33.254589 52.222392,31.920687 z M 67.626108,28.787654 C 67.959636,28.32679 66.871838,28.409832 65.208777,28.972194 C 63.545715,29.534555 62.01941,30.246683 61.816986,30.5547 C 61.225524,31.454699 66.957878,29.711005 67.626108,28.787654 z M 39.827478,24.579772 C 40.705873,23.268024 39.165468,23.312734 35.858319,24.694978 C 34.42211,25.295249 33.247031,26.185678 33.247031,26.673711 C 33.247031,27.757878 38.904892,25.957511 39.827478,24.579772 z M 50.948758,18.366312 C 51.684469,17.971859 51.997824,17.413776 51.645102,17.126127 C 50.691566,16.348506 45.084871,18.322128 45.084871,19.435405 C 45.084871,20.375171 48.292813,19.790305 50.948758,18.366312 z"
         id="path27068" />
      <path
         sodipodi:nodetypes="cssssssssssssscccssssssssssc"
         style="fill:#040301;fill-opacity:0.90178576;display:inline"
         d="M 6.3245492,45.123163 C 5.6049235,44.485091 4.6572783,40.765619 5.0002483,39.925329 C 5.1199241,39.63212 4.8890875,39.262039 4.4872786,39.102935 C 3.2909592,38.629223 2.8497972,33.687786 2.9334141,21.698181 C 3.0211051,9.1243784 2.3323733,10.626213 8.9188516,8.6464541 C 11.270244,7.9396743 14.33094,7.0019808 15.720398,6.5626912 C 17.109857,6.1234016 19.033724,5.6047894 19.995657,5.4102205 C 20.95759,5.2156511 22.665105,4.7640598 23.790135,4.4066842 C 25.382627,3.9008144 25.911957,4.8750516 26.771227,4.51509 C 28.715106,3.7007685 29.111849,4.170923 30.869386,3.3838629 C 31.51432,3.0950483 32.013438,2.0371571 33.225198,1.6436497 C 36.153821,0.69260872 36.624418,0.81868348 37.276848,2.7291029 C 37.600676,3.6773243 38.745983,5.9764876 39.821973,7.8383553 C 40.897966,9.7002224 41.719065,11.506506 41.646642,11.852317 C 41.574215,12.198128 40.652022,12.950611 39.59732,13.524502 L 37.67968,14.567938 L 39.428649,14.191799 C 40.390582,13.984923 41.439964,13.616534 41.760608,13.373157 C 42.081252,13.129781 43.183713,12.794224 44.210518,12.627475 C 46.992657,12.175669 47.193614,12.945926 46.774301,22.454336 C 46.564203,27.218608 46.253683,30.34399 45.945589,30.795287 C 45.449258,31.522318 36.296823,35.133456 34.921151,35.145033 C 34.514476,35.148458 31.99553,36.106751 29.323493,37.274578 C 26.651457,38.4424 23.503312,39.611186 22.327616,39.871874 C 20.150411,40.354631 17.45623,41.389878 13.971429,43.082759 C 12.902615,43.601975 11.153646,44.241776 10.084831,44.504542 C 9.0160167,44.767301 7.8791866,45.143855 7.5585421,45.341336 C 7.2378975,45.538812 6.6826011,45.440636 6.3245492,45.123163 z"
         id="path17602" />
      <path
         style="fill:none;fill-opacity:1;display:inline"
         d="M 6.7703227,43.230864 C 6.7643281,42.50258 6.6944371,37.999656 6.6150086,33.224368 C 6.5355807,28.449075 6.6219466,24.400378 6.8069335,24.227262 C 6.99192,24.054146 6.9008911,23.061831 6.604647,22.022119 C 6.3084034,20.982407 5.6749579,18.45237 5.1969893,16.399814 C 4.7190213,14.347259 4.0929048,12.531317 3.8056201,12.364387 C 3.5183348,12.197459 3.2832837,11.85703 3.2832837,11.607879 C 3.2832837,10.694035 21.632825,5.0690731 25.205573,4.8877088 C 27.246488,4.7841052 26.758978,6.1643698 24.482147,6.9359096 C 22.136787,7.730671 21.32512,8.6838694 21.707821,10.193996 C 21.910118,10.992252 22.298113,11.089277 23.956159,10.756231 C 26.728782,10.199301 27.455677,9.5118506 27.307346,7.5868937 C 27.195854,6.1400107 27.320455,5.9830454 28.822573,5.6781116 C 29.880182,5.4634139 30.783979,4.8153452 31.376974,3.8464741 C 32.597334,1.8525753 35.91478,0.96935515 36.508876,2.4801831 C 36.725292,3.0305468 37.818619,5.3687257 38.93849,7.6761364 C 40.925293,11.769797 40.953541,11.883786 40.104471,12.381552 C 39.625886,12.66212 37.835143,12.960573 36.125041,13.04478 C 32.447468,13.225869 30.878132,14.021031 30.878132,15.70332 C 30.878132,16.662001 31.131948,16.894912 32.176672,16.894912 C 32.890868,16.894912 34.319901,16.509978 35.352301,16.039503 C 36.3847,15.569028 37.35992,15.306249 37.519457,15.455548 C 37.678994,15.604848 38.917138,15.307613 40.270891,14.795026 C 44.753336,13.097783 45.586945,12.919477 46.014268,13.566539 C 46.834353,14.808314 46.361703,30.334749 45.491813,30.72922 C 45.256634,30.835865 42.61566,31.768269 39.622979,32.801233 C 36.630298,33.834191 31.908081,35.602248 29.129163,36.730257 C 26.350245,37.858259 23.114652,38.986356 21.938956,39.237133 C 20.76326,39.487905 18.4896,40.250894 16.886379,40.932657 C 12.763864,42.685742 7.8399348,44.535327 7.2670469,44.545985 C 6.9998437,44.550952 6.7763172,43.959149 6.7703227,43.230864 z M 29.614988,33.968236 C 30.355294,33.284761 30.878132,32.319859 30.878132,31.63709 C 30.878132,30.996358 31.216082,30.198253 31.62913,29.863527 C 32.605201,29.072538 33.011835,27.07337 32.417293,25.98862 C 31.193937,23.756593 29.141992,26.243382 29.714209,29.264537 C 30.141051,31.518151 29.515596,32.584225 27.477359,33.07721 C 25.987453,33.437574 25.825555,33.359014 25.825555,32.275667 C 25.825555,30.573506 25.047704,28.202277 24.357837,27.801425 C 23.428672,27.261527 21.872542,29.1282 22.012309,30.615031 C 22.103869,31.589055 22.44043,31.946836 23.396431,32.086407 C 24.09116,32.187838 24.659575,32.598325 24.659575,32.998602 C 24.659575,35.314671 27.545044,35.879273 29.614988,33.968236 z M 12.777662,17.819791 C 13.79226,17.357429 14.842377,16.523572 15.111255,15.966777 C 15.547626,15.063138 15.627494,15.161629 15.854976,16.883907 C 16.103579,18.766091 16.15092,18.806381 17.786027,18.527311 C 18.707938,18.369966 19.975767,17.869619 20.603427,17.41543 C 21.89447,16.4812 22.360074,14.1601 21.371644,13.585766 C 20.994016,13.366343 20.834123,12.822206 20.9645,12.200202 C 21.082577,11.636868 20.95074,10.888874 20.671528,10.537993 C 19.914664,9.5868548 15.283582,11.455764 15.050312,12.806478 C 14.920916,13.555729 14.290997,13.940093 12.698819,14.241314 C 9.784919,14.792589 8.7245215,15.470549 8.7245215,16.78226 C 8.7245215,18.92669 9.7645215,19.192911 12.777662,17.819791 z M 28.512822,16.92194 C 28.997999,16.528762 29.323493,15.682563 29.323493,14.814411 C 29.323493,13.132275 28.937409,13.047904 25.718792,14.026676 C 23.519628,14.695436 22.927808,15.511193 23.371532,17.262116 C 23.567835,18.036722 24.001115,18.157292 25.657941,17.898362 C 26.782256,17.722654 28.066952,17.283264 28.512822,16.92194 z M 3.5191962,30.08832 C 3.1677777,28.701635 3.2337753,16.422196 3.5944601,16.084655 C 4.3240579,15.401872 5.5775319,27.772583 5.0069041,30.024263 C 4.6891723,31.278026 3.8300686,31.315014 3.5191962,30.08832 z"
         id="path17596" />
      <path
         sodipodi:nodetypes="csscccsssssssssssssssssc"
         style="fill:none;fill-opacity:0;display:inline"
         d="M 5.9358895,45.731868 C 5.5778376,45.403289 5.0747598,44.143377 4.8179377,42.93207 C 4.5611156,41.720758 4.116754,40.321621 3.8304678,39.82288 C 2.8158329,38.055282 2.4729004,33.03509 2.5867322,21.61583 L 2.700294,10.223658 L 3.6719434,9.798926 C 6.4608398,8.5798321 24.323233,3.7775762 26.5631,0.50554501 C 27.90325,-1.4521647 32.024911,0.25732433 32.009118,1.5242999 C 31.952088,6.0996128 36.934999,0.025071485 37.672017,2.3292178 C 38.008505,3.3811846 39.425462,6.0617902 40.820813,8.2861195 C 43.193671,12.068696 43.444259,12.309112 44.693976,12.002029 C 47.120476,11.405783 47.341519,12.332292 47.100339,22.088471 C 46.950713,28.141202 46.738128,30.796581 46.356977,31.373724 C 46.063383,31.818287 44.952819,32.462997 43.889053,32.806418 C 42.825291,33.149838 41.25535,33.696243 40.400299,34.020649 C 39.545247,34.345061 37.503014,34.998452 35.862004,35.472634 C 34.220993,35.946811 31.072848,37.152485 28.866126,38.15191 C 26.659405,39.15134 23.891972,40.186246 22.716276,40.451712 C 21.54058,40.717173 19.529265,41.380238 18.246688,41.925184 C 16.96411,42.470129 15.366942,43.117428 14.697426,43.363621 C 14.027909,43.609814 13.27472,44.003464 13.023672,44.238404 C 12.772624,44.473345 11.65889,44.890559 10.548706,45.165553 C 9.4385236,45.440548 8.0929496,45.814883 7.5585421,45.997411 C 7.0241345,46.179938 6.2939415,46.060446 5.9358895,45.731868 z"
         id="path17604" />
      <rect
         y="25.594236"
         x="19.461578"
         height="9.8140974"
         width="15.914639"
         id="rect3170"
         style="fill:#dfa81e;fill-opacity:0.90178576;stroke:#6c5a24;stroke-width:0.5809471;stroke-linecap:butt;stroke-linejoin:miter;stroke-miterlimit:4;stroke-dasharray:none;stroke-opacity:1;display:inline" />
      <path
         sodipodi:nodetypes="ccccccccccccccccccccccccccccccccc"
         id="path17600"
         d="M 35.56894,1.22896 C 33.248968,1.4306181 31.376867,2.8054959 30.209218,4.7795277 C 28.511644,6.4280542 26.802845,4.8127157 25.348921,4.1163316 C 19.898454,5.7826427 14.369636,7.2158028 8.9232823,8.9138979 C 7.1337728,9.6747392 5.2489092,10.130678 3.3466113,10.479647 C 3.060834,18.206139 2.974317,25.955437 3.5437445,33.670734 C 3.1847865,33.757416 3.3861543,35.11164 3.2435056,35.687647 C 3.1300621,36.457622 3.0942494,37.212393 3.577367,37.865531 C 4.166263,39.262534 5.0159937,40.580874 5.4294139,42.030797 C 5.3582526,44.136607 6.7256636,46.122294 8.8535542,44.674613 C 13.47146,43.294414 17.771766,41.005523 22.415713,39.70185 C 27.075332,38.13024 31.475673,35.798993 36.240259,34.569018 C 39.274419,33.468049 42.292983,32.31117 45.317887,31.190038 C 47.00416,29.610505 46.110806,26.493127 46.599457,24.311465 C 46.70663,20.868097 47.050032,17.377114 46.513717,13.960071 C 45.385327,11.862413 42.581286,13.5756 40.878346,14.091414 C 38.350155,15.130127 42.121032,12.618218 40.627423,9.9686737 C 39.177672,7.1190931 37.80015,4.2085419 36.242516,1.4288086 L 35.956818,1.260619 L 35.56894,1.22896 z M 31.321614,25.928111 C 32.071579,26.343003 32.873854,26.764618 32.422208,27.749889 C 32.242893,29.198125 31.811379,30.633876 31.229406,31.958895 C 30.770423,32.82591 30.404188,33.777347 29.477447,34.2186 C 28.902848,34.837582 28.174536,34.965945 27.374742,34.86615 C 26.560016,34.827589 25.643206,35.096245 25.070459,34.329464 C 24.029774,33.470152 22.767734,32.649381 22.468538,31.224727 C 22.91689,30.247073 22.996385,29.095786 23.83055,28.429291 C 24.90152,29.547325 25.847058,30.769665 26.697943,32.070714 C 27.424698,32.294278 28.187241,32.749026 28.762079,31.991232 C 29.613601,31.697692 29.519649,30.784333 29.677616,30.036124 C 29.868622,28.943972 30.04541,27.849285 30.228421,26.755707 C 30.592819,26.479842 30.957216,26.203976 31.321614,25.928111 z"
         style="fill:none;fill-opacity:1;display:inline" />
      <path
         id="path27026"
         d="M 23.834049,28.575885 L 26.421512,31.929942 L 27.919517,32.488953 L 29.281339,31.370933 L 29.689886,28.436133 L 32.277349,27.675258 L 30.643162,33.187715 L 28.956015,34.724991 L 25.604419,34.864743 L 23.221229,32.90821 L 22.608409,31.091428 L 23.834049,28.575885 z"
         style="fill:none;fill-opacity:0.75;fill-rule:evenodd;stroke:none;stroke-width:1px;stroke-linecap:butt;stroke-linejoin:miter;stroke-opacity:1;display:inline" />
      <path
         id="path27031"
         d="M 6.5389028,44.787164 L 6.8112673,23.544798 L 4.0876225,10.687578 L 3.149478,14.880149 L 3.149478,36.821277 L 6.5389028,44.787164 z"
         style="fill:none;fill-opacity:0.75;fill-rule:evenodd;stroke:none;stroke-width:1px;stroke-linecap:butt;stroke-linejoin:miter;stroke-opacity:1;display:inline" />
      <path
         id="path27036"
         d="M 6.8112673,22.985789 L 6.4027206,44.647411 L 2.8619821,36.502952 L 3.149478,11.246587 L 4.4961692,12.962436 L 6.8112673,22.985789 z"
         style="fill:none;fill-opacity:0.75;fill-rule:evenodd;stroke:none;stroke-width:1px;stroke-linecap:butt;stroke-linejoin:miter;stroke-opacity:1;display:inline" />
      <path
         sodipodi:nodetypes="ccccc"
         id="path3325"
         d="M 8.2091856,26.179399 C 21.172131,21.497371 32.398286,17.820625 46.041434,13.186166 L 43.29298,13.203121 C 42.912639,11.899117 19.314014,20.63329 7.0836318,24.732694 L 8.2091856,26.179399 z"
         style="fill:#b4a08a;fill-opacity:1;fill-rule:evenodd;stroke:none;stroke-width:1px;stroke-linecap:butt;stroke-linejoin:miter;stroke-opacity:1;display:inline" />
      <path
         sodipodi:nodetypes="ccccccccccccccccsscccccccccccccccsccc"
         id="path17594"
         d="M 19.08143,6.5255761 C 14.5339,7.919982 9.8663559,9.001112 5.4792348,10.88425 C 10.0133,9.4313585 14.547365,7.9784673 19.08143,6.5255761 z M 3.6871142,10.019871 C 3.6333506,12.741744 3.5795869,15.463616 3.5258233,18.185488 C 3.1249391,21.68267 3.4942803,25.218112 3.3084973,28.732674 C 3.2870687,31.354979 3.1362675,34.00384 3.1953758,36.609614 C 4.3091125,39.197847 5.4228492,41.786079 6.536586,44.374312 C 6.5963235,42.639425 6.6560605,40.904538 6.715798,39.169651 C 6.9815859,40.842765 6.274223,43.046453 7.1903436,44.394517 C 10.239847,43.844882 13.047088,42.33165 15.976142,41.33025 C 20.311532,39.759036 24.673425,38.268738 28.941564,36.508939 C 33.990944,34.49155 39.199214,32.895019 44.170631,30.677551 C 46.449626,30.201066 45.837753,27.565345 46.093843,25.796743 C 46.233157,22.058169 46.563964,18.285653 46.139025,14.558904 C 45.663406,12.233154 42.743806,14.427968 41.423717,14.912576 C 38.65516,15.609282 36.790998,15.996519 34.060822,16.858227 C 32.941894,17.211387 32.055069,17.369235 30.49392,17.964285 C 29.106292,18.493195 27.257412,19.118948 26.292064,19.752345 C 23.622656,20.914084 22.292358,20.221022 20.740873,21.65516 C 18.848535,21.741765 17.130598,22.589637 15.478868,23.476962 C 13.762451,24.066789 12.194003,25.099622 10.353803,25.229252 C 8.9633071,25.701264 6.7968529,25.640613 7.1992239,24.162068 C 6.8728067,21.771981 6.0597913,19.471183 5.5205253,17.119968 C 4.9093886,14.753269 4.2982514,12.38657 3.6871142,10.019871 z M 37.128085,16.97168 C 39.055076,17.472133 35.814523,17.604606 37.128085,16.97168 z M 18.866376,22.856809 C 20.793367,23.357262 17.552813,23.489735 18.866376,22.856809 z M 31.232008,25.137297 C 33.25109,25.423547 32.875877,28.102319 32.186059,29.464078 C 31.246224,31.216677 31.259262,33.863528 29.176538,34.543082 C 27.434077,35.566658 24.683922,35.560594 23.609972,33.527599 C 22.686203,31.992681 21.08686,30.156014 22.784538,28.450886 C 25.042762,26.181208 25.346337,30.700536 26.497016,31.918311 C 28.282885,33.575214 30.014306,31.420473 29.654942,29.49597 C 29.718708,28.068865 29.479308,25.566674 31.232008,25.137297 z"
         style="fill:url(#linearGradient2486);fill-opacity:1;stroke:none;stroke-opacity:1;display:inline" />
      <path
         sodipodi:nodetypes="cccccccccszzssccccc"
         id="path17592"
         d="M 3.9559323,11.104942 C 3.0730029,15.55182 4.1006536,16.509331 3.4449583,19.078808 C 3.0419134,23.495557 3.6181591,27.946197 3.3013747,32.375307 C 3.1886529,34.925222 2.8135499,37.577305 4.3499092,39.793136 C 4.9578069,40.947515 5.8388936,43.52697 6.2789685,43.805914 C 6.5141848,38.048948 6.6763972,32.366898 6.9116135,26.609931 C 9.7294814,25.753614 12.810589,24.796137 16.296853,23.379838 C 20.673178,21.896416 26.559789,19.719612 29.432426,18.528039 C 34.921638,16.520932 41.077759,15.363363 46.132439,13.364333 C 42.664854,12.888323 45.118696,12.161713 38.677668,14.133961 C 34.539852,15.400965 32.943916,15.861448 29.504381,17.115788 C 25.912128,18.425821 26.592221,18.099099 23.588815,19.113329 C 20.606358,20.120485 23.143396,19.177781 18.906363,20.318854 C 15.0723,21.351403 15.040801,21.841575 13.153298,22.538282 C 11.012627,23.328438 11.684618,23.299967 7.2979568,24.544851 C 6.3637831,20.393539 4.9516678,15.240721 3.9559323,11.104942 z M 46.142452,14.433718 C 46.040898,18.951781 45.939345,23.469843 45.837791,27.987906 C 46.264805,23.487398 46.515204,18.948377 46.142452,14.433718 z"
         style="opacity:0.8;fill:#4d291f;fill-opacity:0.8;stroke:#000000;stroke-width:0.5809471;stroke-opacity:0.8;display:inline" />
      <path
         transform="matrix(0.5782314,-1.1338543,0.6485294,0.4568938,-39.141625,59.237511)"
         d="M 48.37341,54.165489 A 1.2729844,1.0820367 0 1 1 45.827441,54.165489 A 1.2729844,1.0820367 0 1 1 48.37341,54.165489 z"
         sodipodi:ry="1.0820367"
         sodipodi:rx="1.2729844"
         sodipodi:cy="54.165489"
         sodipodi:cx="47.100426"
         id="path3169"
         style="opacity:0.8;fill:#ffffff;fill-opacity:1;stroke:none;stroke-width:0.5;stroke-linecap:square;stroke-linejoin:round;stroke-miterlimit:4;stroke-dasharray:none;stroke-opacity:0.8;display:inline"
         sodipodi:type="arc" />
      <path
         transform="matrix(0.5159602,-0.9111968,0.5786877,0.3671726,-25.095775,50.871414)"
         d="M 48.37341,54.165489 A 1.2729844,1.0820367 0 1 1 45.827441,54.165489 A 1.2729844,1.0820367 0 1 1 48.37341,54.165489 z"
         sodipodi:ry="1.0820367"
         sodipodi:rx="1.2729844"
         sodipodi:cy="54.165489"
         sodipodi:cx="47.100426"
         id="path3171"
         style="opacity:0.8;fill:#ffffff;fill-opacity:1;stroke:none;stroke-width:0.5;stroke-linecap:square;stroke-linejoin:round;stroke-miterlimit:4;stroke-dasharray:none;stroke-opacity:0.8;display:inline"
         sodipodi:type="arc" />
      <path
         sodipodi:nodetypes="ccccccccccccccccccccccccccccccccccccccccccccccccccccccccccccccccscccccccccc"
         id="path17606"
         d="M 37.038479,-0.31588641 C 29.072351,1.56137 33.673009,0.25809823 22.495156,3.1873221 C 21.196011,4.0001786 21.361088,3.3530544 17.272279,4.8506207 C 12.553962,6.171841 7.97662,7.7266061 3.3679659,9.4154439 C 1.455943,11.584151 2.7166333,14.768215 2.2188893,17.385871 C 2.1759676,23.997295 1.9000725,30.652432 2.6804775,37.227912 C 3.4470245,39.720913 4.2284092,42.209919 4.9397578,44.71188 C 6.2610129,47.819723 9.7517295,45.351529 11.992159,44.985699 C 16.032744,43.548009 19.898413,41.498614 24.151941,40.776226 C 26.323916,39.879179 28.369603,38.686313 30.609037,37.946719 C 35.578931,35.956479 40.610031,34.081198 45.739334,32.593787 C 47.751087,30.675408 46.936345,27.381605 47.367696,24.83563 C 47.53336,20.89465 47.802821,16.916317 47.278351,12.993333 C 46.038747,10.730901 42.210446,12.036786 41.637083,8.8469693 C 39.783262,5.9772421 38.268186,2.8850877 37.038479,-0.31588641 z M 34.726643,2.9393256 C 37.516576,3.62985 37.157124,7.4779418 39.357017,8.9646154 C 40.820499,10.481142 40.347132,12.981117 38.723969,14.149744 C 31.269674,19.347771 42.652384,14.626446 44.956683,14.14288 C 47.120934,15.774862 45.534737,18.965883 45.886327,21.279822 C 45.73402,24.048381 45.647501,26.830649 45.192628,29.569534 C 40.439858,31.811552 35.399115,33.290724 30.440111,34.958949 C 32.236465,33.023587 32.296089,30.149162 33.441663,27.865275 C 34.546358,24.598446 29.574051,23.107498 29.108802,26.63082 C 28.801639,28.303886 29.958612,32.485263 27.133009,31.794244 C 25.753839,30.289175 25.216885,25.079068 22.38489,27.923008 C 20.170397,30.311766 22.206589,33.405461 24.522084,34.641949 C 25.611581,35.144526 29.341516,35.729578 26.331402,36.633851 C 21.038059,38.630944 15.690071,40.505818 10.446721,42.621339 C 9.0357902,43.151186 6.9030847,43.781104 7.5457724,41.495922 C 7.4801401,36.202573 7.1334241,30.907289 7.3913885,25.61402 C 8.1412978,22.500028 6.6676379,19.458871 6.0988784,16.445898 C 5.1527798,14.402312 4.2673122,10.553482 7.6293156,10.649298 C 12.585966,9.1854343 17.55846,7.7545028 22.489292,6.2125784 C 28.912351,4.4072639 29.087215,4.5670016 34.726643,2.9393256 z M 4.3143564,13.661295 C 5.0573754,16.299332 5.4769914,19.050444 5.8717259,21.754814 C 6.2382922,26.983064 6.285064,32.247322 6.0440292,37.477447 C 5.4895924,38.661078 4.70284,32.549592 4.5382574,35.6293 C 4.6430141,36.744845 5.7477834,39.244268 4.921434,39.545021 C 3.3783986,36.688983 4.017728,33.305447 3.7880682,30.190423 C 3.7728963,27.082117 3.7455379,23.972651 3.8488621,20.8655 C 4.1960403,24.236552 4.0001503,27.664453 4.6834363,30.997378 C 6.4252658,30.70731 5.1526881,27.195928 5.4775431,25.661147 C 5.4007038,22.727818 5.3792677,19.720872 4.4118868,16.921845 C 3.5622111,16.074976 3.5455791,14.567122 4.3143564,13.661295 z M 42.683659,16.456731 C 40.79142,16.819707 37.391387,17.558662 36.653024,18.485587 C 38.66894,18.579638 41.306074,17.39883 42.683659,16.456731 z M 35.156752,18.737219 C 33.807031,18.288634 32.638116,20.586794 34.56548,19.460568 C 35.257923,19.259615 36.876527,18.560914 35.156752,18.737219 z M 26.35744,19.619988 C 23.692136,19.962772 27.099437,21.085057 26.557266,19.601442 L 26.35744,19.619988 z M 24.242738,20.594713 C 20.817581,21.043461 17.517378,22.206729 14.394026,23.689579 C 14.405937,25.60013 18.274333,22.860488 19.686668,22.657902 C 21.221804,22.032197 22.917047,21.652666 24.242738,20.594713 z M 24.009762,22.194732 C 21.195298,23.002837 18.440508,24.045532 15.819771,25.37638 C 18.075556,25.710051 20.065166,23.940392 22.212445,23.416286 C 22.645193,23.120745 24.376025,22.93275 24.009762,22.194732 z M 12.504348,24.677521 C 11.107108,24.865242 5.6426126,27.314708 7.9617256,26.42817 C 10.560364,25.434776 11.084041,25.46718 12.504348,24.677521 z M 31.321614,26.902835 C 32.810445,28.27311 31.029185,30.876612 30.587365,32.555366 C 29.217301,34.551481 26.200641,34.809928 24.550278,33.047541 C 22.597815,32.884356 22.39085,27.990664 24.353485,29.639024 C 24.731296,31.833969 26.557726,34.362995 28.943102,32.657175 C 31.630794,31.765464 28.538769,27.076376 31.321614,26.902835 z M 5.3358652,32.89831 C 4.5435947,34.073947 6.3871908,36.704182 5.667864,34.017716 C 5.5789576,33.638677 5.4956799,33.254517 5.3358652,32.89831 z"
         style="fill:#211917;fill-opacity:1" />
    </g>
  </g>
</svg>
