<?xml version="1.0" encoding="UTF-8" standalone="no"?>
<!-- Created with Inkscape (http://www.inkscape.org/) -->
<svg
   xmlns:dc="http://purl.org/dc/elements/1.1/"
   xmlns:cc="http://creativecommons.org/ns#"
   xmlns:rdf="http://www.w3.org/1999/02/22-rdf-syntax-ns#"
   xmlns:svg="http://www.w3.org/2000/svg"
   xmlns="http://www.w3.org/2000/svg"
   xmlns:sodipodi="http://sodipodi.sourceforge.net/DTD/sodipodi-0.dtd"
   xmlns:inkscape="http://www.inkscape.org/namespaces/inkscape"
   width="48"
   height="48"
   id="svg17524"
   sodipodi:version="0.32"
   inkscape:version="0.46"
   version="1.0"
   sodipodi:docbase="/home/tim/pix/icons/Baroque/scalable/filesystems"
   sodipodi:docname="folder-drag-accept.svg"
   inkscape:output_extension="org.inkscape.output.svg.inkscape">
  <sodipodi:namedview
     id="base"
     pagecolor="#ffffff"
     bordercolor="#666666"
     borderopacity="1.0"
     inkscape:pageopacity="0.0"
     inkscape:pageshadow="2"
     inkscape:zoom="6.5416667"
     inkscape:cx="24"
     inkscape:cy="24"
     inkscape:current-layer="layer1"
     showgrid="true"
     inkscape:document-units="px"
     inkscape:grid-bbox="true"
     width="90px"
     height="90px"
     inkscape:window-width="792"
     inkscape:window-height="686"
     inkscape:window-x="72"
     inkscape:window-y="279" />
  <defs
     id="defs17526">
    <inkscape:perspective
       sodipodi:type="inkscape:persp3d"
       inkscape:vp_x="0 : 45 : 1"
       inkscape:vp_y="0 : 1000 : 0"
       inkscape:vp_z="90 : 45 : 1"
       inkscape:persp3d-origin="45 : 30 : 1"
       id="perspective29" />
    <filter
       inkscape:collect="always"
       id="filter27086">
      <feGaussianBlur
         inkscape:collect="always"
         stdDeviation="1.2089882"
         id="feGaussianBlur27088" />
    </filter>
  </defs>
  <metadata
     id="metadata17529">
    <rdf:RDF>
      <cc:Work
         rdf:about="">
        <dc:format>image/svg+xml</dc:format>
        <dc:type
           rdf:resource="http://purl.org/dc/dcmitype/StillImage" />
      </cc:Work>
    </rdf:RDF>
  </metadata>
  <g
     inkscape:groupmode="layer"
     id="layer10"
     inkscape:label="SHADOW" />
  <g
     inkscape:groupmode="layer"
     id="layer3"
     inkscape:label="a"
     style="display:inline" />
  <g
     inkscape:groupmode="layer"
     id="layer9"
     inkscape:label="g"
     style="display:inline" />
  <g
     inkscape:groupmode="layer"
     id="layer4"
     inkscape:label="b"
     style="display:inline" />
  <g
     inkscape:groupmode="layer"
     id="layer5"
     inkscape:label="c"
     style="display:inline" />
  <g
     inkscape:groupmode="layer"
     id="layer2"
     inkscape:label="colours"
     style="display:inline" />
  <g
     inkscape:groupmode="layer"
     id="layer1"
     inkscape:label="outline"
     style="display:inline">
    <g
       id="g2415"
       transform="matrix(0.55,0,0,0.55,-1.850661,-0.5851386)">
      <path
         transform="matrix(1.0207977,0,0,1.0116867,-1.9442662,-4.3505947e-2)"
         style="fill:#000000;fill-opacity:0.6;display:inline;filter:url(#filter27086)"
         d="M 15.020243,84.374893 C 14.378738,83.789779 13.477397,81.546204 13.017261,79.389182 C 12.557125,77.232149 11.760984,74.740652 11.248058,73.852524 C 9.4301844,70.704891 8.8157685,61.765236 9.0197155,41.430505 L 9.2231788,21.144011 L 10.964037,20.387676 C 15.960772,18.216786 41.530008,10.951446 53.440993,8.31811 C 55.164443,7.9370814 58.896484,6.7376557 61.734419,5.6527194 C 69.214846,2.7929659 70.559888,2.9829839 71.880367,7.0860688 C 72.483238,8.9593479 75.021933,13.732808 77.521917,17.69376 C 81.773255,24.429545 82.222222,24.857664 84.46128,24.310828 C 88.808727,23.24907 89.204758,24.898941 88.772649,42.272157 C 88.50457,53.050496 88.123692,57.779035 87.440801,58.806776 C 86.914784,59.598426 84.925038,60.746487 83.019138,61.35803 C 81.113246,61.969573 78.300457,62.942578 76.768502,63.52026 C 75.236545,64.097953 71.577573,65.261471 68.637452,66.105868 C 65.697331,66.950253 60.056947,69.097245 56.103268,70.87696 C 52.149589,72.656685 47.19131,74.499584 45.084871,74.97231 C 42.978432,75.445026 39.374853,76.625773 37.07692,77.596179 C 34.778986,78.566585 31.917416,79.719256 30.717874,80.157661 C 29.518333,80.596067 28.168879,81.297055 27.719089,81.715423 C 27.269299,82.13379 25.273873,82.876741 23.28481,83.366434 C 21.295747,83.856128 18.884946,84.522722 17.927473,84.847755 C 16.97,85.172789 15.661748,84.960005 15.020243,84.374893 z M 25.975241,32.899367 C 27.676791,32.254548 29.06897,31.279578 29.06897,30.73277 C 29.06897,30.18596 28.520599,29.970942 27.850369,30.254947 C 27.180138,30.538954 25.616958,31.078612 24.376636,31.454187 C 23.136314,31.82976 21.942741,32.572361 21.724252,33.104409 C 21.203034,34.373636 22.213563,34.324894 25.975241,32.899367 z M 40.90681,31.695016 C 41.864282,31.13564 42.334314,30.500701 41.951325,30.284042 C 40.647423,29.546417 35.098426,31.476722 34.812566,32.76737 C 34.504351,34.15895 37.631089,33.608762 40.90681,31.695016 z M 52.222392,31.920687 C 56.069656,30.3127 55.399767,28.964959 51.351962,30.169476 C 49.437018,30.739312 47.870245,31.614646 47.870245,32.114661 C 47.870245,33.306319 49.030902,33.254589 52.222392,31.920687 z M 67.626108,28.787654 C 67.959636,28.32679 66.871838,28.409832 65.208777,28.972194 C 63.545715,29.534555 62.01941,30.246683 61.816986,30.5547 C 61.225524,31.454699 66.957878,29.711005 67.626108,28.787654 z M 39.827478,24.579772 C 40.705873,23.268024 39.165468,23.312734 35.858319,24.694978 C 34.42211,25.295249 33.247031,26.185678 33.247031,26.673711 C 33.247031,27.757878 38.904892,25.957511 39.827478,24.579772 z M 50.948758,18.366312 C 51.684469,17.971859 51.997824,17.413776 51.645102,17.126127 C 50.691566,16.348506 45.084871,18.322128 45.084871,19.435405 C 45.084871,20.375171 48.292813,19.790305 50.948758,18.366312 z"
         id="path27068" />
      <path
         style="fill:#d0ad84;fill-opacity:0.90178576;display:inline"
         d="M 15.536512,79.647446 C 14.281669,78.563236 12.629218,72.243116 13.22727,70.815296 C 13.435954,70.317076 13.033434,69.688236 12.332782,69.417886 C 10.246707,68.612956 9.4774334,60.216476 9.6232399,39.843762 C 9.7761505,18.47838 8.5751784,21.030295 20.060312,17.666292 C 24.160538,16.465333 29.497609,14.872006 31.92047,14.125566 C 34.343331,13.379126 37.698062,12.497901 39.375427,12.16729 C 41.052793,11.836678 44.030262,11.069335 45.992026,10.462083 C 48.768925,9.60251 49.920177,9.643305 51.190289,10.646286 C 53.306933,12.317755 57.435808,11.207164 58.336429,8.724107 C 58.754805,7.570622 60.331363,6.435787 62.444364,5.76714 C 67.551132,4.151133 68.371733,4.365359 69.509404,7.61154 C 70.074077,9.222756 72.071201,13.12949 73.947451,16.293172 C 75.823708,19.456853 77.255494,22.526086 77.129207,23.113688 C 77.002913,23.70129 75.394845,24.979908 73.555714,25.955061 L 70.21184,27.728066 L 73.261595,27.088932 C 74.938961,26.737408 76.768814,26.111442 77.327935,25.697897 C 77.887057,25.284352 79.809467,24.714174 81.599951,24.430835 C 86.451291,23.663127 86.801708,24.971946 86.070533,41.128618 C 85.704176,49.22406 85.162709,54.534703 84.625471,55.301546 C 83.759998,56.536916 67.800492,62.672956 65.401671,62.692626 C 64.692534,62.698446 60.300136,64.326776 55.640788,66.311146 C 50.98144,68.295506 45.491881,70.281506 43.441768,70.724466 C 39.645279,71.544766 34.947316,73.303856 28.870715,76.180396 C 27.006976,77.062646 23.957221,78.149796 22.093482,78.596286 C 20.229743,79.042766 18.247402,79.682606 17.68828,80.018166 C 17.129158,80.353716 16.160863,80.186896 15.536512,79.647446 z M 46.759709,55.767666 C 48.040512,54.571017 47.148284,51.445992 45.646418,51.868365 C 44.245354,52.262389 43.574647,56.689776 44.919509,56.666746 C 45.411369,56.658326 46.239459,56.253736 46.759709,55.767666 z M 60.020974,51.07611 C 61.527951,48.852523 60.169235,46.246772 58.280517,47.738253 C 56.993277,48.754759 56.601711,50.766591 57.44805,52.015389 C 58.157379,53.062023 58.845266,52.810901 60.020974,51.07611 z M 26.375676,32.143315 C 29.716955,30.679218 30.619921,29.468186 29.280818,28.247023 C 28.489941,27.525801 21.643825,29.445537 20.854786,30.609787 C 20.106895,31.713321 20.847467,33.682056 22.010472,33.682056 C 22.479941,33.682056 24.444282,32.989623 26.375676,32.143315 z M 40.222582,31.520114 C 41.247638,30.92573 42.086321,29.767159 42.086321,28.945512 C 42.086321,27.712855 41.404851,27.573268 38.189412,28.147299 C 34.135907,28.870945 32.082097,30.64088 32.934477,32.675901 C 33.47218,33.959641 36.972855,33.404485 40.222582,31.520114 z M 51.71939,31.639452 C 54.48499,30.506116 55.471022,29.031561 54.460422,27.540393 C 53.434473,26.026576 46.54246,28.934006 46.273588,30.994049 C 46.013373,32.987768 47.887262,33.209849 51.71939,31.639452 z M 66.831477,29.039009 C 67.38606,28.724997 67.839808,27.78371 67.839808,26.947259 C 67.839808,25.736808 67.29469,25.555058 65.168703,26.056677 C 61.478223,26.927433 59.029405,28.415024 59.029405,29.786136 C 59.029405,30.918718 64.424051,30.402126 66.831477,29.039009 z M 38.431197,25.641465 C 40.231732,24.631375 40.653797,21.682056 38.997813,21.682056 C 37.183795,21.682056 31.915324,23.885326 31.530092,24.805051 C 30.29937,27.743344 33.905429,28.180398 38.431197,25.641465 z M 50.388432,18.530743 C 51.683058,17.527525 51.926309,16.120961 50.957903,15.237846 C 50.618803,14.928612 48.78895,15.204341 46.891562,15.850577 C 44.220956,16.760167 43.441768,17.458344 43.441768,18.941702 C 43.441768,20.639765 43.769592,20.777723 46.322092,20.153824 C 47.90627,19.766609 49.736123,19.036223 50.388432,18.530743 z"
         id="path17602" />
      <path
         style="fill:#496d60;fill-opacity:1;display:inline"
         d="M 16.313827,76.432056 C 16.303374,75.194556 16.181502,67.543196 16.042999,59.429036 C 15.904497,51.314867 16.055097,44.43533 16.377667,44.141171 C 16.700236,43.847012 16.541505,42.160873 16.024931,40.394196 C 15.508358,38.627519 14.403791,34.328485 13.570336,30.840786 C 12.736882,27.353088 11.645095,24.267443 11.144144,23.983797 C 10.643192,23.700152 10.233323,23.121696 10.233323,22.69834 C 10.233323,21.145538 42.230229,11.587613 48.460188,11.279439 C 52.019023,11.103396 51.168929,13.448739 47.198718,14.759738 C 43.109011,16.110195 41.693671,17.729868 42.361003,20.295873 C 42.713757,21.652268 43.390322,21.817132 46.28153,21.25122 C 51.116276,20.304887 52.383795,19.136772 52.125143,15.865889 C 51.930729,13.407348 52.148002,13.140633 54.767311,12.62249 C 56.611511,12.257676 58.187501,11.156479 59.221533,9.510175 C 61.349529,6.122146 67.134307,4.62138 68.170257,7.188576 C 68.547632,8.123753 70.454114,12.096782 72.406884,16.01753 C 75.871359,22.973471 75.920616,23.16716 74.440055,24.012963 C 73.605526,24.489703 70.482929,24.996834 67.500947,25.139919 C 61.088201,25.447625 58.351681,26.798762 58.351681,29.657305 C 58.351681,31.286294 58.794271,31.682056 60.616002,31.682056 C 61.861378,31.682056 64.353246,31.027977 66.153486,30.228546 C 67.953726,29.429116 69.654261,28.982602 69.932453,29.236292 C 70.210644,29.489982 72.36965,28.984921 74.730249,28.113933 C 82.546487,25.229981 84.000088,24.927004 84.745231,26.026491 C 86.175248,28.136513 85.351068,54.519001 83.834202,55.189286 C 83.424111,55.370496 78.818927,56.954836 73.600457,58.710046 C 68.381987,60.465246 60.147648,63.469526 55.301926,65.386236 C 50.456204,67.302936 44.814157,69.219796 42.764044,69.645916 C 40.713931,70.072026 36.749249,71.368496 33.953641,72.526946 C 26.76503,75.505786 18.178957,78.648596 17.179987,78.666706 C 16.714053,78.675146 16.32428,77.669556 16.313827,76.432056 z M 56.14908,60.693016 C 57.439985,59.531656 58.351681,57.892096 58.351681,56.731936 C 58.351681,55.643206 58.940978,54.287068 59.661229,53.718301 C 61.363247,52.374254 62.072313,48.977273 61.035584,47.134068 C 58.902364,43.341411 55.324297,47.566958 56.322096,52.700499 C 57.066399,56.529836 55.975766,58.341306 52.421602,59.178986 C 49.823587,59.791316 49.541278,59.657826 49.541278,57.817006 C 49.541278,54.924696 48.184905,50.895509 46.981954,50.214382 C 45.361728,49.296989 42.648235,52.468835 42.891952,54.995256 C 43.05161,56.650316 43.638486,57.258256 45.305507,57.495416 C 46.516937,57.667766 47.508108,58.365266 47.508108,59.045416 C 47.508108,62.980876 52.539628,63.940246 56.14908,60.693016 z M 26.789091,33.253609 C 28.55829,32.467964 30.389425,31.051076 30.85828,30.10497 C 31.619199,28.569509 31.758469,28.736865 32.155139,31.663357 C 32.588639,34.86156 32.67119,34.930021 35.522398,34.455826 C 37.129974,34.188465 39.340745,33.338277 40.435223,32.566519 C 42.686471,30.979078 43.498366,27.035069 41.774796,26.059161 C 41.116311,25.686318 40.837498,24.761722 41.064841,23.704814 C 41.270738,22.747598 41.040848,21.476608 40.553974,20.880391 C 39.234197,19.264219 31.158774,22.439866 30.752011,24.734997 C 30.526377,26.008122 29.427959,26.661233 26.651609,27.173067 C 21.570512,28.109793 19.72145,29.261781 19.72145,31.490638 C 19.72145,35.13445 21.534944,35.586812 26.789091,33.253609 z M 54.227184,31.727982 C 55.073209,31.059894 55.640788,29.622035 55.640788,28.146872 C 55.640788,25.288591 54.967556,25.145228 49.355111,26.808355 C 45.520331,27.94471 44.488349,29.330844 45.26209,32.306008 C 45.604393,33.622217 46.359922,33.827089 49.249003,33.387117 C 51.20952,33.088554 53.449702,32.341943 54.227184,31.727982 z M 10.644694,54.100269 C 10.03191,51.744017 10.146993,30.878817 10.775935,30.305268 C 12.048167,29.145085 14.233905,50.165373 13.238876,53.991424 C 12.684833,56.121816 11.186776,56.184666 10.644694,54.100269 z"
         id="path17596" />
      <path
         style="fill:#f3cb6a;fill-opacity:1;display:inline"
         d="M 14.858789,80.681756 C 14.234438,80.123436 13.357199,77.982596 12.909367,75.924346 C 12.461535,73.866086 11.686682,71.488676 11.187472,70.641216 C 9.4182083,67.637716 8.8202218,59.107416 9.0187153,39.70383 L 9.216738,20.346273 L 10.911046,19.62457 C 15.774168,17.553088 40.659685,10.620434 52.252171,8.107681 C 53.929536,7.7441 57.561783,6.599597 60.323831,5.564341 C 67.604232,2.835538 68.913308,3.016855 70.198478,6.932056 C 70.785228,8.719556 73.256038,13.274436 75.689173,17.054012 C 79.82683,23.481359 80.263792,23.889874 82.442978,23.368078 C 86.674174,22.354939 87.059616,23.929261 86.639061,40.506942 C 86.378151,50.791731 86.007457,55.303746 85.342827,56.284426 C 84.830875,57.039826 82.894335,58.135316 81.039399,58.718856 C 79.18447,59.302396 76.446895,60.230846 74.955904,60.782076 C 73.464912,61.333316 69.90378,62.443556 67.042278,63.249286 C 64.180775,64.055006 58.691215,66.103686 54.843257,67.801906 C 50.995299,69.500136 46.169604,71.258646 44.119491,71.709726 C 42.069378,72.160796 38.562159,73.287476 36.325672,74.213446 C 34.089185,75.139416 31.304133,76.239306 30.136667,76.657636 C 28.969201,77.075966 27.655832,77.744856 27.218069,78.144066 C 26.780306,78.543276 24.838238,79.252206 22.902362,79.719476 C 20.966487,80.186746 18.62015,80.822816 17.68828,81.132966 C 16.75641,81.443116 15.48314,81.240076 14.858789,80.681756 z M 25.520851,31.563341 C 27.176902,30.948048 28.531854,30.017723 28.531854,29.495953 C 28.531854,28.974183 27.998147,28.76901 27.345838,29.040011 C 26.693529,29.311013 25.172149,29.825959 23.964993,30.184336 C 22.757837,30.542712 21.59618,31.251308 21.383533,31.758993 C 20.876253,32.970101 21.85976,32.923591 25.520851,31.563341 z M 40.053151,30.414138 C 40.98502,29.880376 41.442484,29.274512 41.069736,29.067774 C 39.8007,28.363925 34.400083,30.205839 34.121867,31.437388 C 33.821893,32.765246 36.865023,32.240252 40.053151,30.414138 z M 51.066155,30.629475 C 54.810544,29.09512 54.158568,27.809092 50.219001,28.958454 C 48.355262,29.502197 46.830384,30.337448 46.830384,30.814567 C 46.830384,31.951658 47.960006,31.902297 51.066155,30.629475 z M 66.057977,27.639907 C 66.382587,27.200146 65.323876,27.279386 63.705285,27.815996 C 62.086694,28.352606 60.601202,29.032125 60.404191,29.326038 C 59.828544,30.184825 65.407616,28.520976 66.057977,27.639907 z M 39.00268,23.624707 C 39.857587,22.373025 38.358373,22.415688 35.139656,23.734637 C 33.741852,24.307422 32.598194,25.157078 32.598194,25.622763 C 32.598194,26.657284 38.104764,24.939358 39.00268,23.624707 z M 49.826578,17.695767 C 50.542616,17.319376 50.847592,16.786848 50.504302,16.512371 C 49.576264,15.770358 44.119491,17.653607 44.119491,18.715905 C 44.119491,19.612638 47.241653,19.054554 49.826578,17.695767 z"
         id="path17604" />
      <path
         id="path17600"
         d="M 66.53125,5.0625 C 65.894652,5.1089867 64.988019,5.3714703 63.625,5.78125 C 60.928963,6.59179 59.43817,7.6377837 58.75,9.1875 C 57.39535,12.238092 52.56542,13.392759 50.84375,11.09375 C 49.798303,9.697728 49.115893,9.6490646 46.34375,10.59375 C 44.553112,11.20396 37.967634,13.085597 31.6875,14.78125 C 25.407366,16.476902 19.457199,18.225593 18.46875,18.6875 C 17.4803,19.149407 15.236604,19.814408 13.5,20.15625 L 10.34375,20.78125 L 10.1875,25.46875 C 9.7120237,37.94689 10.015875,52.560017 10.6875,60.1875 L 10.4375,60 L 10,65.78125 L 13.90625,73.8125 C 13.988973,74.575811 14.109745,75.389471 14.28125,76.15625 C 14.810041,78.52042 15.503508,79.687503 16.34375,79.6875 C 18.072604,79.6875 25.866969,77.117533 31.59375,74.65625 C 34.202985,73.53485 38.453265,72.000359 41.0625,71.25 C 43.671735,70.49964 49.746429,68.261599 54.5625,66.28125 C 59.378573,64.30091 63.817478,62.670701 64.40625,62.65625 C 64.995021,62.6418 68.522522,61.49644 72.25,60.09375 C 75.977479,58.69105 80.181174,57.15675 81.59375,56.71875 C 83.006329,56.28076 84.346957,55.645391 84.59375,55.28125 C 85.218868,54.358863 86.052069,42.598589 86.09375,34.0625 C 86.118087,29.077877 85.859777,26.573261 85.1875,25.75 C 84.089256,24.405117 80.770379,24.86453 75.28125,27.125 C 70.795067,28.972448 69.684467,29.066321 70.03125,27.53125 C 70.175486,26.892777 71.71818,25.75317 73.46875,25 C 75.219316,24.24683 76.660974,23.302107 76.65625,22.90625 C 76.651533,22.510393 75.045956,19.180527 73.09375,15.5 C 71.141548,11.819472 69.090372,7.8691131 68.53125,6.71875 C 67.935704,5.4934475 67.592246,4.9850222 66.53125,5.0625 z M 50.46875,14.6875 C 50.615607,14.67509 50.731226,14.676851 50.84375,14.6875 C 51.593913,14.758497 51.606378,15.337816 51.46875,16.75 C 51.321798,18.257842 50.615091,19.339018 49.53125,19.78125 C 46.330208,21.087345 42.749998,20.796025 42.75,19.21875 C 42.75,17.243778 44.780178,15.796201 48.5625,15.03125 C 49.408339,14.860185 50.028178,14.724731 50.46875,14.6875 z M 39.125,21 C 39.430338,20.980502 39.652392,21.020789 39.78125,21.09375 C 40.934471,21.746719 40.995731,23.86119 39.90625,25.46875 C 39.273708,26.402083 39.427987,26.6875 40.53125,26.6875 C 42.706219,26.6875 42.975148,29.43417 41,31.34375 C 40.058926,32.253583 37.780051,33.207513 35.9375,33.46875 C 32.708595,33.926543 32.59375,33.85031 32.59375,31.375 C 32.59375,29.962484 32.278999,28.527419 31.90625,28.1875 C 31.533503,27.847581 31.250001,26.716015 31.25,25.6875 C 31.25,24.276546 32.190139,23.419591 35.0625,22.1875 C 36.632853,21.5139 38.208985,21.058494 39.125,21 z M 67.34375,25.09375 C 67.605056,25.102099 67.811979,25.132781 67.90625,25.21875 C 69.317379,26.505597 68.35441,28.670881 65.96875,29.59375 C 59.891856,31.944537 59.732069,31.952225 59.28125,30.21875 C 59.041909,29.298442 59.108444,28.17305 59.4375,27.71875 C 60.17046,26.706812 65.514608,25.035304 67.34375,25.09375 z M 53.4375,26.3125 C 54.098792,26.340405 54.512537,26.620347 54.90625,27.1875 C 56.362949,29.285906 54.807799,31.360712 50.8125,32.625 C 46.433853,34.010598 46.171011,33.984174 45.6875,32.125 C 45.087534,29.818032 46.440434,28.337706 50.40625,27 C 51.856921,26.510675 52.776208,26.284595 53.4375,26.3125 z M 27.96875,27.15625 C 29.554171,27.104967 30.739584,28.695941 30.03125,30.3125 C 29.773011,30.901852 28.492117,31.857197 27.1875,32.4375 C 21.306385,35.053471 20.406249,34.953741 20.40625,31.5625 C 20.40625,29.830516 21.304606,29.257462 27.28125,27.28125 C 27.520332,27.202196 27.742261,27.163576 27.96875,27.15625 z M 59.125,47.03125 L 59.625,47.34375 C 59.883143,47.404295 60.077095,47.562284 60.25,47.78125 L 61.28125,48.4375 L 60.78125,52 L 59.375,56.53125 L 57.46875,60 L 54.375,62.21875 L 49.40625,62.21875 L 46.53125,60 L 44.40625,57.9375 L 43.6875,56.03125 L 44.21875,55 C 44.285465,53.710646 44.834669,52.106054 45.65625,51.875 C 45.702461,51.862004 45.742163,51.879541 45.78125,51.875 L 46.0625,51.28125 L 48.6875,54.15625 L 51.0625,57.46875 L 53.4375,58.1875 L 55.8125,56.53125 L 56.53125,52.46875 L 57.21875,48.4375 L 59.125,47.03125 z"
         style="fill:#90714c;fill-opacity:1;display:inline" />
      <path
         id="path27026"
         d="M 46.068602,51.530343 L 50.580475,57.229551 L 53.192612,58.17942 L 55.567282,56.279683 L 56.279683,51.292876 L 60.791557,50 L 57.941953,59.366755 L 55,61.978892 L 49.155673,62.216359 L 45,58.891821 L 43.931398,55.804749 L 46.068602,51.530343 z"
         style="fill:none;fill-opacity:0.75;fill-rule:evenodd;stroke:none;stroke-width:1px;stroke-linecap:butt;stroke-linejoin:miter;stroke-opacity:1;display:inline" />
      <path
         id="path27031"
         d="M 15.91029,79.076517 L 16.385224,42.98153 L 11.635884,21.134565 L 10,28.258575 L 10,65.540897 L 15.91029,79.076517 z"
         style="fill:none;fill-opacity:0.75;fill-rule:evenodd;stroke:none;stroke-width:1px;stroke-linecap:butt;stroke-linejoin:miter;stroke-opacity:1;display:inline" />
      <path
         id="path27036"
         d="M 16.385224,42.031662 L 15.672823,78.83905 L 9.4986807,65 L 10,22.084433 L 12.348285,25 L 16.385224,42.031662 z"
         style="fill:none;fill-opacity:0.75;fill-rule:evenodd;stroke:none;stroke-width:1px;stroke-linecap:butt;stroke-linejoin:miter;stroke-opacity:1;display:inline" />
      <path
         id="path17598"
         d="M 66.53125,5.0625 C 65.894652,5.1089867 64.988019,5.3714703 63.625,5.78125 C 60.928963,6.59179 59.43817,7.6377837 58.75,9.1875 C 57.39535,12.238092 52.56542,13.392759 50.84375,11.09375 C 49.798303,9.697728 49.115893,9.6490646 46.34375,10.59375 C 44.553112,11.20396 37.967634,13.085597 31.6875,14.78125 C 25.407366,16.476902 19.457199,18.225593 18.46875,18.6875 C 17.4803,19.149407 15.237307,19.807338 13.46875,20.15625 C 10.386098,20.764413 10.250723,20.942301 10.28125,24 C 10.282072,24.082355 10.281336,24.340742 10.28125,24.4375 L 11.625,21.625 L 16.375,42.03125 L 15.9375,78.59375 C 16.380851,79.301755 17.169897,79.529867 17.96875,79.15625 C 18.740285,78.79541 20.602759,78.151857 22.09375,77.71875 C 23.584741,77.28565 26.638514,76.17601 28.875,75.25 C 38.256067,71.36578 43.093041,69.687503 44.875,69.6875 C 45.916079,69.6875 47.456279,69.262773 48.3125,68.75 C 50.791689,67.26525 71.487185,59.796339 83.1875,56.15625 C 85.149739,55.54578 85.300567,54.639867 85.84375,40.9375 C 86.431424,26.1127 86.011892,24.443734 81.875,25.125 C 80.30523,25.383509 77.331366,26.286465 75.28125,27.125 C 70.789571,28.962179 69.685044,29.06377 70.03125,27.53125 C 70.175486,26.892777 71.71818,25.75317 73.46875,25 C 75.219316,24.24683 76.660974,23.302107 76.65625,22.90625 C 76.651533,22.510393 75.045956,19.180527 73.09375,15.5 C 71.141548,11.819472 69.090372,7.8691131 68.53125,6.71875 C 67.935704,5.4934475 67.592246,4.9850222 66.53125,5.0625 z M 50.46875,14.6875 C 50.615607,14.67509 50.731226,14.676851 50.84375,14.6875 C 51.593913,14.758497 51.606378,15.337816 51.46875,16.75 C 51.321798,18.257842 50.615091,19.339018 49.53125,19.78125 C 46.330208,21.087345 42.749998,20.796025 42.75,19.21875 C 42.75,17.243778 44.780178,15.796201 48.5625,15.03125 C 49.408339,14.860185 50.028178,14.724731 50.46875,14.6875 z M 39.125,21 C 39.430338,20.980502 39.652392,21.020789 39.78125,21.09375 C 40.934471,21.746719 40.995731,23.86119 39.90625,25.46875 C 39.273708,26.402083 39.427987,26.6875 40.53125,26.6875 C 42.706219,26.6875 42.975148,29.43417 41,31.34375 C 40.058926,32.253583 37.780051,33.207513 35.9375,33.46875 C 32.708595,33.926543 32.59375,33.85031 32.59375,31.375 C 32.59375,29.962484 32.278999,28.527419 31.90625,28.1875 C 31.533503,27.847581 31.250001,26.716015 31.25,25.6875 C 31.25,24.276546 32.190139,23.419591 35.0625,22.1875 C 36.632853,21.5139 38.208985,21.058494 39.125,21 z M 67.34375,25.09375 C 67.605056,25.102099 67.811979,25.132781 67.90625,25.21875 C 69.317379,26.505597 68.35441,28.670881 65.96875,29.59375 C 59.891856,31.944537 59.732069,31.952225 59.28125,30.21875 C 59.041909,29.298442 59.108444,28.17305 59.4375,27.71875 C 60.17046,26.706812 65.514608,25.035304 67.34375,25.09375 z M 53.4375,26.3125 C 54.098792,26.340405 54.512537,26.620347 54.90625,27.1875 C 56.362949,29.285906 54.807799,31.360712 50.8125,32.625 C 46.433853,34.010598 46.171011,33.984174 45.6875,32.125 C 45.087534,29.818032 46.440434,28.337706 50.40625,27 C 51.856921,26.510675 52.776208,26.284595 53.4375,26.3125 z M 27.96875,27.15625 C 29.554171,27.104967 30.739584,28.695941 30.03125,30.3125 C 29.773011,30.901852 28.492117,31.857197 27.1875,32.4375 C 21.306385,35.053471 20.406249,34.953741 20.40625,31.5625 C 20.40625,29.830516 21.304606,29.257462 27.28125,27.28125 C 27.520332,27.202196 27.742261,27.163576 27.96875,27.15625 z M 9.875,34.625 C 9.8613268,34.879134 9.857824,35.12402 9.84375,35.375 C 9.6594714,38.661213 9.6282556,43.499709 9.71875,47.6875 L 9.875,34.625 z M 59.1875,46.03125 C 59.971963,45.978906 60.59951,46.450813 60.9375,47.21875 L 61.03125,47.25 L 61.09375,47.78125 C 61.159532,48.060339 61.213922,48.366567 61.21875,48.6875 L 61.5,50.8125 L 60,55 L 58.1875,59.375 L 55,62.21875 L 51.0625,62.46875 L 45,58.40625 L 44.53125,57.375 C 43.85479,57.101887 43.332819,56.683775 43.1875,56.125 C 42.49896,53.477445 43.981026,50.6875 46.09375,50.6875 C 47.62925,50.6875 48.448874,51.932027 48.71875,54.5625 L 49.15625,55 L 51.0625,57.46875 L 54.375,57.71875 L 56.03125,55.8125 L 56.40625,51.4375 C 56.142837,49.278904 56.568449,47.553086 57.625,46.71875 C 58.197372,46.26676 58.718435,46.062549 59.1875,46.03125 z"
         style="fill:#009635;fill-opacity:0.74117647;display:inline" />
      <path
         id="path3855"
         d="M 43.931398,26.121372 L 71.240106,17.572559 L 43.931398,26.121372 z"
         style="fill:none;fill-opacity:0.75;fill-rule:evenodd;stroke:#333333;stroke-width:1px;stroke-linecap:butt;stroke-linejoin:miter;stroke-opacity:0.49803922;display:inline" />
      <path
         id="path3857"
         d="M 51.76781,18.522427 L 69.340369,12.348285 L 51.76781,18.522427 z"
         style="fill:none;fill-opacity:0.75;fill-rule:evenodd;stroke:#333333;stroke-width:1px;stroke-linecap:butt;stroke-linejoin:miter;stroke-opacity:0.49803922;display:inline" />
      <path
         id="path17594"
         d="M 37.78125,14.0625 C 23.62286,18.028751 16.718566,20.113317 14.0625,21.46875 L 37.78125,14.0625 z M 10.9375,20 L 10.65625,33.875 C 10.296234,34.902544 10.248319,40.513103 10.40625,45.65625 L 10,65 L 15.90625,78.375 L 16.21875,69.53125 C 16.25284,71.851271 16.306986,75.923521 16.3125,76.46875 C 16.333775,78.57238 16.545781,78.719697 18.875,78.09375 C 20.272804,77.71811 24.14527,76.344628 27.5,75.03125 C 30.85473,73.71786 36.364017,71.735128 39.71875,70.625 C 43.073481,69.51486 46.725506,68.214897 47.84375,67.75 C 51.160097,66.37124 62.738717,62.102168 73.5625,58.28125 C 79.126765,56.31701 83.881221,54.187859 84.15625,53.53125 C 84.91349,51.723373 85.669698,32.40931 85.125,28.75 C 84.657907,25.612021 84.595694,25.54641 81.84375,26.21875 C 80.295071,26.597116 78.556588,27.295435 77.96875,27.75 C 77.38092,28.204565 75.240156,28.842683 73.21875,29.1875 C 71.197352,29.532315 67.289923,30.541491 64.5625,31.4375 C 61.807143,32.342686 60.239738,32.645771 59.25,32.40625 L 59.21875,32.40625 L 58.65625,32.59375 C 58.651838,32.954484 58.519818,33.414886 58.1875,33.96875 C 57.495638,35.095062 54.984856,35.015144 54.15625,35.84375 C 53.671206,36.328794 50.819124,36.159447 50,36.34375 C 50.129285,37.064697 49.868231,37.73776 48.90625,38.21875 C 48.082685,38.630532 47.217202,38.718751 45.84375,38.71875 C 44.950236,38.71875 44.001143,38.695144 43.1875,38.59375 C 43.116916,38.634307 43.040147,38.683052 42.96875,38.71875 C 41.633338,39.386457 40.789782,40 38.9375,40 C 37.638861,40 37.175161,40.510897 35.84375,40.84375 C 34.470192,41.18714 33.899446,41.722152 32.78125,42.28125 C 31.632523,42.855611 30.502639,43.261445 29.4375,43.6875 C 28.427164,44.091634 27.294252,44.405936 26.34375,45 C 25.623656,45.450059 22.987313,45.737546 22.5625,45.84375 C 21.167759,46.192435 19.840753,46.3125 18.28125,46.3125 C 17.832062,46.3125 17.461127,45.601402 17.21875,44.78125 C 17.153857,44.921472 17.098093,45.09412 17.03125,45.21875 L 17.0625,44 C 16.941537,43.406059 16.875,42.828228 16.875,42.5 C 16.875,42.46325 16.874869,42.442014 16.875,42.40625 L 10.9375,20 z M 69.25,31.8125 C 69.485438,31.798191 69.755383,31.855565 70,32 C 70.540642,32.319226 70.383262,32.545768 69.59375,32.59375 C 68.879318,32.637171 68.4623,32.394793 68.6875,32.0625 C 68.800101,31.896355 69.014562,31.826809 69.25,31.8125 z M 37.40625,41.8125 C 37.641688,41.798191 37.911635,41.855564 38.15625,42 C 38.696892,42.319226 38.53951,42.545768 37.75,42.59375 C 37.035567,42.637171 36.618549,42.394793 36.84375,42.0625 C 36.956351,41.896355 37.170812,41.826809 37.40625,41.8125 z M 58.96875,45.6875 C 61.518177,45.6875 62.390709,49.473557 60.90625,52.125 C 60.887511,52.158471 60.863243,52.185654 60.84375,52.21875 C 60.820117,52.296948 60.798855,52.39833 60.78125,52.46875 C 60.378605,54.079333 60.036889,54.941891 59.375,56.03125 C 58.880951,56.84437 58.592952,57.90944 58.40625,58.65625 C 58.072473,59.991362 57.841624,60.703656 56.53125,61.03125 C 56.327829,61.082105 56.146002,61.152203 55.96875,61.21875 C 54.466707,62.532612 52.484905,62.951606 50.8125,62.625 C 50.375275,62.656447 49.933767,62.6875 49.40625,62.6875 C 48.066538,62.687501 46.97164,61.44039 46.3125,60.78125 C 45.247262,59.716011 45.234863,58.393276 44.15625,57.46875 C 43.990266,57.326478 43.871008,57.151737 43.78125,56.96875 C 43.254107,56.58262 43.00075,55.979617 42.90625,55 C 42.662533,52.473579 45.348525,49.301357 46.96875,50.21875 C 47.694958,50.629939 48.490965,52.285388 49,54.15625 C 49.129161,54.445139 49.270774,54.75539 49.40625,55 C 50.274388,56.567469 50.087299,56.996775 51.53125,57.71875 C 52.900609,58.403428 54.099578,58.217446 55,57.71875 C 55.505084,57.43901 55.949264,54.908104 56.25,54.25 C 56.242141,53.897341 56.234035,53.529433 56.21875,53.09375 C 56.059205,48.545938 57.115581,45.6875 58.96875,45.6875 z"
         style="fill:#982e00;fill-opacity:1;display:inline" />
      <path
         id="path17592"
         d="M 66.28125,6.28125 C 65.622471,6.2398292 64.658824,6.4892091 63.25,6.90625 C 60.626148,7.682964 59.718751,8.3974562 59.71875,9.65625 C 59.71875,11.599587 57.061424,13.6875 54.59375,13.6875 C 53.567859,13.6875 52.937502,14.26184 52.9375,15.1875 C 52.9375,17.150173 52.782552,17.17287 61.21875,13.96875 C 67.808958,11.465749 68.463595,11.004873 68.09375,9.1875 C 67.685779,7.1827981 67.379215,6.3502847 66.28125,6.28125 z M 47.8125,11.59375 C 46.825034,11.655712 45.576938,11.878688 44.125,12.28125 C 16.086838,20.055053 11.369909,21.725136 12.8125,23.34375 C 13.435528,24.0428 15.23695,24.638758 16.78125,24.65625 C 18.657071,24.677497 19.703868,25.200233 19.96875,26.21875 C 20.37437,27.77843 21.724069,27.647978 26.0625,25.625 C 27.130374,25.127059 28.255479,24.93877 28.5625,25.21875 C 28.869521,25.498731 29.392884,25.015434 29.71875,24.15625 C 30.383713,22.402992 36.509983,19.705632 39.875,19.6875 C 41.353878,19.679531 42.093748,19.202263 42.09375,18.21875 C 42.09375,16.630824 44.084281,14.6875 45.71875,14.6875 C 46.278111,14.6875 47.576915,14.226689 48.59375,13.65625 C 50.758873,12.441628 50.487101,11.660087 48.71875,11.59375 C 48.453497,11.583799 48.141655,11.573096 47.8125,11.59375 z M 69.21875,19.84375 C 68.022885,19.946474 65.45764,21.086815 63.90625,22.34375 L 62.09375,23.8125 L 64.4375,23.125 C 67.444797,22.244292 69.875,20.905285 69.875,20.125 C 69.875,19.89781 69.617372,19.809509 69.21875,19.84375 z M 11.40625,21.84375 L 11.03125,33.78125 C 10.973198,33.723606 10.900967,33.6875 10.84375,33.6875 C 10.202246,33.6875 10.04663,46.162322 10.5,50 C 10.50289,50.024465 10.497059,50.038743 10.5,50.0625 L 10,66.03125 L 15.4375,77.875 L 16.6875,48.0625 C 17.404508,48.134635 18.647298,47.838145 20.4375,47.1875 C 22.474572,46.447131 27.934402,44.611265 32.59375,43.125 C 37.253098,41.638735 43.477739,39.595239 46.4375,38.5625 C 49.129746,37.623105 52.233683,36.852804 53.71875,36.71875 L 84.1875,25.9375 C 83.553743,25.915122 82.285155,26.173311 80.9375,26.65625 C 79.140625,27.300167 75.987616,28.273616 73.9375,28.8125 C 71.887386,29.351382 67.828685,30.509919 64.90625,31.40625 C 60.977223,32.611307 59.278923,32.772905 58.40625,31.96875 C 57.515655,31.148083 56.333593,31.338338 53.5625,32.75 C 51.542817,33.778876 48.591995,34.638295 47.03125,34.65625 L 44.21875,34.6875 L 44.59375,31.1875 C 44.843566,28.916022 44.71614,27.6875 44.21875,27.6875 C 43.797231,27.6875 43.437499,28.719014 43.4375,30 C 43.4375,35.418609 32.655769,38.73883 31.5625,33.65625 C 31.209609,32.015665 31.003608,31.972287 29.34375,33.25 C 28.334237,34.027096 27.068428,34.684111 26.53125,34.6875 C 25.82144,34.691978 25.922039,35.068035 26.84375,36.0625 C 28.068587,37.384017 28.034276,37.456199 26.59375,38.59375 C 24.687446,40.099118 23.389028,39.086315 24.5625,37 C 25.307868,35.674808 25.04623,35.501087 22.40625,35.8125 C 19.433017,36.163222 19.365105,36.1337 19.15625,32.9375 C 19.020441,30.859145 18.585719,29.6875 17.9375,29.6875 C 17.379996,29.6875 17.113378,29.2375 17.34375,28.6875 C 17.582247,28.118099 17.01029,27.6875 16,27.6875 C 15.024133,27.6875 14.341064,28.025 14.5,28.4375 C 15.368233,30.690901 16.96594,36.45468 17.1875,38.1875 C 17.328148,39.2875 17.821491,40.051601 18.28125,39.90625 C 19.185449,39.620391 18.328559,42.59005 16.78125,45.375 L 16.875,43.21875 L 11.40625,21.84375 z M 42.75,22.6875 C 42.377252,22.6875 42.093748,23.16754 42.09375,23.75 C 42.09375,24.332459 42.37725,24.527419 42.75,24.1875 C 43.122748,23.847581 43.437499,23.367541 43.4375,23.125 C 43.4375,22.882459 43.122746,22.6875 42.75,22.6875 z M 59.96875,23.78125 C 58.168754,23.94526 56.312499,24.926908 56.3125,25.8125 C 56.3125,26.937615 56.80585,26.842679 59.71875,25.1875 C 61.302222,24.287734 61.623591,23.82292 60.71875,23.78125 C 60.468807,23.769739 60.225892,23.75782 59.96875,23.78125 z M 84.96875,27.5 L 84.4375,50.53125 C 85.226417,44.180767 85.576276,31.839314 84.96875,27.5 z M 21.21875,38.75 C 21.306545,38.753813 21.385334,38.798028 21.4375,38.875 C 21.646163,39.182887 21.262134,39.749468 20.59375,40.125 C 19.62786,40.667685 19.5544,40.550116 20.21875,39.5625 C 20.563542,39.049937 20.955366,38.738561 21.21875,38.75 z"
         style="opacity:0.44966299;fill:#4c2137;fill-opacity:1;display:inline" />
      <path
         sodipodi:nodetypes="ccccccccccccccccccccccccccccccccccccccccccccccccccccccccccccccccccccccccccccccccccccccccccccccccccccccccccccccccccccccccccccccccccccc"
         style="opacity:1;fill:#1f1e1c;fill-opacity:1"
         id="path17606"
         d="M 69.09375,2.4375 C 65.175107,3.2668953 60.775965,3.3933022 57.584657,6.0540434 C 58.27107,9.8505783 52.32141,12.849094 51.221441,8.1331177 C 47.236653,7.1503389 43.215367,9.6145168 39.291867,10.289574 C 29.567083,12.880219 19.842452,15.545815 10.380987,18.972958 C 7.274877,21.685331 9.1630494,27.132297 8.3978594,30.958979 C 8.2576042,42.031502 7.9681849,53.142143 8.875,64.1875 C 9.1540926,67.900412 11.017103,71.147106 11.90625,74.6875 C 12.473335,78.326108 14.179833,83.493998 18.86286,81.136269 C 27.832248,79.579686 35.719804,74.496587 44.59375,72.6875 C 48.326505,72.306149 51.308283,69.677255 54.859515,68.623122 C 64.068039,65.055803 73.30614,61.472663 82.821872,58.805123 C 87.335219,58.289794 86.236993,51.979799 86.940455,48.734736 C 87.259146,41.148541 87.876227,33.503528 87.104909,25.933472 C 86.681892,20.701057 79.500933,24.374413 78.135998,19.510313 C 74.427648,14.207384 71.464227,8.448392 69.09375,2.4375 z M 65.0625,7.96875 C 68.889849,8.4912106 69.328822,13.715036 71.397922,16.40138 C 72.91806,19.020942 76.634724,24.441673 70.763629,23.859939 C 66.587007,23.559332 61.497404,23.210545 58.415745,26.591642 C 57.647053,29.508197 58.225985,33.347074 56.560799,35.614943 C 59.380071,34.517563 62.258966,32.19454 65.723434,31.791339 C 71.485919,30.337516 77.012134,27.919406 82.901073,27.005809 C 86.335557,28.539137 84.117857,34.443618 84.609006,37.673551 C 84.281226,42.858096 84.186753,48.092368 83.3125,53.21875 C 75.034922,57.024807 66.228606,59.544028 57.587883,62.376434 C 60.3212,59.671296 60.565023,55.710636 62,52.28125 C 64.23343,49.280855 62.236183,42.994419 57.786693,44.939653 C 53.569038,46.808831 55.802079,52.148828 55.065081,55.622746 C 51.630412,60.782665 49.769441,53.262565 48.65087,50.521653 C 45.477871,45.662762 40.324645,53.044105 42.274699,56.725545 C 43.750263,59.661292 43.761629,58.976542 47.268359,61.837788 C 50.820265,63.519827 55.712454,63.286007 50.423346,65.222424 C 41.430815,68.609099 32.254178,71.516974 23.39432,75.239048 C 21.713776,75.587534 19.099824,76.585448 17.684132,76.276047 C 17.687788,66.349404 16.90044,56.41711 17.396807,46.497548 C 18.672794,41.973929 16.545806,37.381066 15.676418,32.95198 C 15.061769,29.412828 12.215236,25.408452 14.375583,21.993538 C 23.5493,19.589104 32.629,16.667256 41.804765,14.199774 C 46.285418,12.881148 40.515088,16.087315 40.925786,18.294704 C 36.525273,19.107331 31.516501,20.271656 28.7231,24.140339 C 25.464765,26.368963 19.504716,26.231576 18.844309,31.114609 C 17.543097,36.299676 23.221047,37.309625 26.625,34.84375 C 29.185599,33.214602 31.349168,33.510178 33.199097,35.516125 C 36.984264,35.981906 43.067893,34.704714 43.419847,30.127646 C 44.28845,26.892477 39.942855,22.72914 45.343571,22.389505 C 49.030148,21.816684 53.851877,20.550162 53.272729,15.834289 C 56.09374,13.650873 59.873756,12.426071 61.947869,9.0503219 C 62.856525,8.3905974 63.956844,8.0774164 65.0625,7.96875 z M 64.125,11.71875 C 61.90844,11.997767 61.240798,15.039654 63.78125,12.6875 C 63.689659,12.942838 64.755754,11.710487 64.125,11.71875 z M 46.21875,12.8125 C 49.578928,13.662867 43.928235,13.887967 46.21875,12.8125 z M 49.1875,16.84375 C 52.103318,17.409122 44.36144,19.247731 44.875256,18.280553 C 46.250215,17.639876 47.645902,16.939976 49.1875,16.84375 z M 66,18.71875 C 63.047579,19.303809 64.148041,22.104576 66.15625,19.6875 C 66.333289,19.574763 66.470171,18.686701 66,18.71875 z M 78.375,22.6875 C 78.910856,24.939008 74.604488,26.963895 77.335251,23.605078 C 77.652289,23.288711 77.910747,22.819702 78.375,22.6875 z M 38.875,23.125 C 39.519739,23.975669 33.027701,26.359747 33.549397,25.138601 C 35.217508,24.240807 37.018884,23.51777 38.875,23.125 z M 53.59375,24.90625 C 50.283711,25.474388 45.139889,25.82539 44.356875,29.873156 C 44.174957,31.912959 44.70655,33.921332 44.9375,35.9375 C 48.781298,35.201959 52.870972,34.785629 56.223398,32.641469 C 57.70566,30.440554 57.471611,24.414475 53.59375,24.90625 z M 74,25.8125 C 77.360179,26.662868 71.709483,26.887967 74,25.8125 z M 12.03125,26.1875 C 13.271165,29.242923 13.328634,33.723959 14.507903,37.266181 C 15.452576,46.765302 15.35543,56.351523 15.165593,65.887084 C 14.55991,70.886534 13.549325,60.960896 12.4375,61.84375 C 11.90823,64.699716 14.477165,68.30618 13.336799,70.555664 C 10.590689,66.468451 11.474705,61.198796 11.12289,56.53723 C 11.10525,50.502692 11.013758,44.455818 11.219547,38.428871 C 11.82432,44.149888 11.484508,49.996096 12.674831,55.644939 C 14.961565,57.153812 13.90313,51.00153 14.15534,49.350247 C 13.882854,43.4652 14.197333,37.351488 12.201318,31.72782 C 10.708991,30.25515 10.695556,27.742142 12.03125,26.1875 z M 71.28125,26.8125 C 74.641427,27.662868 68.990734,27.887967 71.28125,26.8125 z M 37.6875,26.875 C 40.114945,27.839437 29.910536,29.456303 35.391813,27.374773 C 36.133561,27.124643 36.899005,26.9002 37.6875,26.875 z M 65.625,27.375 C 67.26968,28.489785 56.996254,30.742767 62.011306,28.445428 C 63.179136,27.984966 64.366561,27.511181 65.625,27.375 z M 52.71875,28.59375 C 56.050546,29.67876 45.40237,32.247923 48.402239,30.030824 C 49.744737,29.326021 51.203473,28.762127 52.71875,28.59375 z M 40.53125,29.03125 C 42.086683,29.869785 34.841493,32.477465 35.005912,31.128821 C 36.691805,30.114106 38.60547,29.419209 40.53125,29.03125 z M 27.65625,29.375 C 29.241308,30.426869 19.297937,33.435625 23.479519,30.88512 C 24.806799,30.230975 26.194746,29.645811 27.65625,29.375 z M 78.9375,30.9375 C 75.166993,31.585017 71.358495,32.593293 67.90625,34.25 C 70.556498,35.171302 74.83991,32.766522 77.907897,31.788624 C 77.920401,31.732725 79.661039,31.092411 78.9375,30.9375 z M 65.8125,34.8125 C 63.969015,34.205255 60.70463,37.645717 64.313344,36.272731 C 65.172189,35.717122 69.643468,34.596671 65.8125,34.8125 z M 50.46875,36.3125 C 47.63986,36.340181 48.048406,38.648084 50.572339,37.348984 C 51.260907,37.199982 51.56851,36.068906 50.46875,36.3125 z M 46.78125,37.96875 C 40.826376,38.726012 35.038204,40.713306 29.607615,43.227541 C 27.395447,46.411863 35.205108,42.659731 36.966387,42.219117 C 40.001671,40.878369 44.883322,39.666861 46.78125,37.96875 z M 46.375,40.6875 C 41.483683,42.054666 36.646614,43.83909 32.09375,46.09375 C 34.003219,47.151223 38.550686,44.169202 41.321619,43.536356 C 42.408174,42.864852 47.694664,41.606527 46.375,40.6875 z M 26.3125,44.90625 C 23.661685,45.50486 18.460251,44.820344 17.863822,47.930549 C 20.594094,47.774848 24.736892,45.818538 26.3125,44.90625 z M 59.125,48.6875 C 61.88581,50.009508 59.252576,52.033342 58.802509,56.455468 C 57.408679,59.504766 56.754237,59.858807 53.567879,61.049638 C 51.853425,61.255937 49.834014,61.357198 48.717731,59.969179 C 46.148738,58.468565 43.823083,57.104674 44.651208,54.219126 C 45.383426,50.060546 48.139408,54.040196 48.236244,57.226352 C 50.565299,60.464884 54.715416,59.87498 56.959954,56.434893 C 57.432754,52.999511 55.899466,47.921192 59.125,48.6875 z M 13.8125,58.875 C 12.615155,60.628669 15.329067,65.85421 14.55542,61.419131 C 14.31831,60.571342 14.18308,59.679575 13.8125,58.875 z" />
    </g>
  </g>
</svg>
