<?xml version="1.0" encoding="UTF-8" standalone="no"?>
<!-- Created with Inkscape (http://www.inkscape.org/) -->
<svg
   xmlns:dc="http://purl.org/dc/elements/1.1/"
   xmlns:cc="http://creativecommons.org/ns#"
   xmlns:rdf="http://www.w3.org/1999/02/22-rdf-syntax-ns#"
   xmlns:svg="http://www.w3.org/2000/svg"
   xmlns="http://www.w3.org/2000/svg"
   xmlns:xlink="http://www.w3.org/1999/xlink"
   xmlns:sodipodi="http://sodipodi.sourceforge.net/DTD/sodipodi-0.dtd"
   xmlns:inkscape="http://www.inkscape.org/namespaces/inkscape"
   width="48"
   height="48"
   id="svg17524"
   sodipodi:version="0.32"
   inkscape:version="0.46"
   version="1.0"
   sodipodi:docbase="/home/tim/pix/icons/Baroque-1.0/scalable/places"
   sodipodi:docname="folder-saved-search.svg"
   inkscape:output_extension="org.inkscape.output.svg.inkscape">
  <sodipodi:namedview
     id="base"
     pagecolor="#ffffff"
     bordercolor="#666666"
     borderopacity="1.0"
     inkscape:pageopacity="0.0"
     inkscape:pageshadow="2"
     inkscape:zoom="7.8555556"
     inkscape:cx="20.558699"
     inkscape:cy="45.006599"
     inkscape:current-layer="layer4"
     showgrid="true"
     inkscape:document-units="px"
     inkscape:grid-bbox="true"
     width="90px"
     height="90px"
     inkscape:window-width="1008"
     inkscape:window-height="920"
     inkscape:window-x="69"
     inkscape:window-y="47" />
  <defs
     id="defs17526">
    <inkscape:perspective
       sodipodi:type="inkscape:persp3d"
       inkscape:vp_x="0 : 45 : 1"
       inkscape:vp_y="0 : 1000 : 0"
       inkscape:vp_z="90 : 45 : 1"
       inkscape:persp3d-origin="45 : 30 : 1"
       id="perspective79" />
    <linearGradient
       inkscape:collect="always"
       id="linearGradient3315">
      <stop
         style="stop-color:#90714c;stop-opacity:1;"
         offset="0"
         id="stop3317" />
      <stop
         style="stop-color:#90714c;stop-opacity:0;"
         offset="1"
         id="stop3319" />
    </linearGradient>
    <linearGradient
       id="linearGradient3303">
      <stop
         style="stop-color:#83380d;stop-opacity:1;"
         offset="0"
         id="stop3305" />
      <stop
         id="stop3167"
         offset="0.89999998"
         style="stop-color:#472e1e;stop-opacity:0.87450981;" />
      <stop
         style="stop-color:#4e3d33;stop-opacity:0.80000001;"
         offset="1"
         id="stop3307" />
    </linearGradient>
    <filter
       inkscape:collect="always"
       id="filter27086">
      <feGaussianBlur
         inkscape:collect="always"
         stdDeviation="1.2089882"
         id="feGaussianBlur27088" />
    </filter>
    <linearGradient
       inkscape:collect="always"
       xlink:href="#linearGradient3303"
       id="linearGradient3309"
       x1="26.385223"
       y1="60.013542"
       x2="74.149422"
       y2="43.39085"
       gradientUnits="userSpaceOnUse" />
    <linearGradient
       inkscape:collect="always"
       xlink:href="#linearGradient3315"
       id="linearGradient3321"
       x1="64.811432"
       y1="46.17065"
       x2="52.84993"
       y2="9.600729"
       gradientUnits="userSpaceOnUse" />
    <linearGradient
       inkscape:collect="always"
       xlink:href="#linearGradient3303"
       id="linearGradient3332"
       gradientUnits="userSpaceOnUse"
       x1="26.385223"
       y1="60.013542"
       x2="74.149422"
       y2="43.39085" />
    <linearGradient
       inkscape:collect="always"
       xlink:href="#linearGradient3315"
       id="linearGradient3335"
       gradientUnits="userSpaceOnUse"
       x1="64.811432"
       y1="46.17065"
       x2="52.84993"
       y2="9.600729" />
    <linearGradient
       inkscape:collect="always"
       xlink:href="#aigrd3"
       id="linearGradient2291"
       gradientUnits="userSpaceOnUse"
       x1="7.7284999"
       y1="7.0679002"
       x2="11.9571"
       y2="11.2965" />
    <linearGradient
       inkscape:collect="always"
       xlink:href="#aigrd3"
       id="linearGradient2293"
       gradientUnits="userSpaceOnUse"
       x1="7.7284999"
       y1="7.0679002"
       x2="11.9571"
       y2="11.2965" />
    <linearGradient
       inkscape:collect="always"
       xlink:href="#aigrd3"
       id="linearGradient2395"
       gradientUnits="userSpaceOnUse"
       x1="7.7284999"
       y1="7.0679002"
       x2="11.9571"
       y2="11.2965" />
    <linearGradient
       inkscape:collect="always"
       xlink:href="#aigrd3"
       id="linearGradient2397"
       gradientUnits="userSpaceOnUse"
       x1="7.7284999"
       y1="7.0679002"
       x2="11.9571"
       y2="11.2965" />
    <linearGradient
       inkscape:collect="always"
       xlink:href="#linearGradient3315"
       id="linearGradient2519"
       gradientUnits="userSpaceOnUse"
       x1="64.811432"
       y1="46.17065"
       x2="52.84993"
       y2="9.600729" />
    <linearGradient
       inkscape:collect="always"
       xlink:href="#linearGradient3303"
       id="linearGradient2521"
       gradientUnits="userSpaceOnUse"
       x1="26.385223"
       y1="60.013542"
       x2="74.149422"
       y2="43.39085" />
    <linearGradient
       inkscape:collect="always"
       xlink:href="#aigrd1"
       id="linearGradient2523"
       gradientUnits="userSpaceOnUse"
       x1="19.8018"
       y1="17.0322"
       x2="17.517599"
       y2="19.316401" />
    <radialGradient
       inkscape:collect="always"
       xlink:href="#aigrd2"
       id="radialGradient2525"
       gradientUnits="userSpaceOnUse"
       cx="13.2148"
       cy="13.3359"
       fx="13.2148"
       fy="13.3359"
       r="8.6704998" />
    <linearGradient
       inkscape:collect="always"
       xlink:href="#aigrd3"
       id="linearGradient2527"
       gradientUnits="userSpaceOnUse"
       x1="7.7284999"
       y1="7.0679002"
       x2="11.9571"
       y2="11.2965" />
    <linearGradient
       inkscape:collect="always"
       xlink:href="#aigrd3"
       id="linearGradient2529"
       gradientUnits="userSpaceOnUse"
       x1="7.7284999"
       y1="7.0679002"
       x2="11.9571"
       y2="11.2965" />
  </defs>
  <metadata
     id="metadata17529">
    <rdf:RDF>
      <cc:Work
         rdf:about="">
        <dc:format>image/svg+xml</dc:format>
        <dc:type
           rdf:resource="http://purl.org/dc/dcmitype/StillImage" />
      </cc:Work>
    </rdf:RDF>
  </metadata>
  <g
     inkscape:groupmode="layer"
     id="layer10"
     inkscape:label="SHADOW"
     style="display:inline" />
  <g
     inkscape:groupmode="layer"
     id="layer3"
     inkscape:label="yellow"
     style="display:inline" />
  <g
     inkscape:groupmode="layer"
     id="layer9"
     inkscape:label="shade1"
     style="display:inline" />
  <g
     inkscape:groupmode="layer"
     id="layer5"
     inkscape:label="woodwork"
     style="display:inline" />
  <g
     inkscape:groupmode="layer"
     id="layer2"
     inkscape:label="shade2"
     style="display:inline" />
  <g
     inkscape:groupmode="layer"
     id="layer1"
     inkscape:label="outline"
     style="display:inline" />
  <g
     inkscape:groupmode="layer"
     id="layer4"
     inkscape:label="magnify">
    <g
       id="g2468"
       transform="matrix(0.5083311,0,0,0.4425614,-0.9544746,3.4759506)">
      <path
         transform="matrix(1.0446884,0,0,0.9819285,-4.0683365,2.4859447)"
         style="fill:#000000;fill-opacity:0.6;display:inline;filter:url(#filter27086)"
         d="M 15.020243,84.374893 C 14.378738,83.789779 13.477397,81.546204 13.017261,79.389182 C 12.557125,77.232149 11.760984,74.740652 11.248058,73.852524 C 9.4301844,70.704891 8.8157685,61.765236 9.0197155,41.430505 L 9.2231788,21.144011 L 10.964037,20.387676 C 15.960772,18.216786 41.530008,10.951446 53.440993,8.31811 C 55.164443,7.9370814 58.896484,6.7376557 61.734419,5.6527194 C 69.214846,2.7929659 70.559888,2.9829839 71.880367,7.0860688 C 72.483238,8.9593479 75.021933,13.732808 77.521917,17.69376 C 81.773255,24.429545 82.222222,24.857664 84.46128,24.310828 C 88.808727,23.24907 89.204758,24.898941 88.772649,42.272157 C 88.50457,53.050496 88.123692,57.779035 87.440801,58.806776 C 86.914784,59.598426 84.925038,60.746487 83.019138,61.35803 C 81.113246,61.969573 78.300457,62.942578 76.768502,63.52026 C 75.236545,64.097953 71.577573,65.261471 68.637452,66.105868 C 65.697331,66.950253 60.056947,69.097245 56.103268,70.87696 C 52.149589,72.656685 47.19131,74.499584 45.084871,74.97231 C 42.978432,75.445026 39.374853,76.625773 37.07692,77.596179 C 34.778986,78.566585 31.917416,79.719256 30.717874,80.157661 C 29.518333,80.596067 28.168879,81.297055 27.719089,81.715423 C 27.269299,82.13379 25.273873,82.876741 23.28481,83.366434 C 21.295747,83.856128 18.884946,84.522722 17.927473,84.847755 C 16.97,85.172789 15.661748,84.960005 15.020243,84.374893 z M 25.975241,32.899367 C 27.676791,32.254548 29.06897,31.279578 29.06897,30.73277 C 29.06897,30.18596 28.520599,29.970942 27.850369,30.254947 C 27.180138,30.538954 25.616958,31.078612 24.376636,31.454187 C 23.136314,31.82976 21.942741,32.572361 21.724252,33.104409 C 21.203034,34.373636 22.213563,34.324894 25.975241,32.899367 z M 40.90681,31.695016 C 41.864282,31.13564 42.334314,30.500701 41.951325,30.284042 C 40.647423,29.546417 35.098426,31.476722 34.812566,32.76737 C 34.504351,34.15895 37.631089,33.608762 40.90681,31.695016 z M 52.222392,31.920687 C 56.069656,30.3127 55.399767,28.964959 51.351962,30.169476 C 49.437018,30.739312 47.870245,31.614646 47.870245,32.114661 C 47.870245,33.306319 49.030902,33.254589 52.222392,31.920687 z M 67.626108,28.787654 C 67.959636,28.32679 66.871838,28.409832 65.208777,28.972194 C 63.545715,29.534555 62.01941,30.246683 61.816986,30.5547 C 61.225524,31.454699 66.957878,29.711005 67.626108,28.787654 z M 39.827478,24.579772 C 40.705873,23.268024 39.165468,23.312734 35.858319,24.694978 C 34.42211,25.295249 33.247031,26.185678 33.247031,26.673711 C 33.247031,27.757878 38.904892,25.957511 39.827478,24.579772 z M 50.948758,18.366312 C 51.684469,17.971859 51.997824,17.413776 51.645102,17.126127 C 50.691566,16.348506 45.084871,18.322128 45.084871,19.435405 C 45.084871,20.375171 48.292813,19.790305 50.948758,18.366312 z"
         id="path27068" />
      <path
         style="fill:#d0ad84;fill-opacity:0.90178576;display:inline"
         d="M 15.536512,79.647446 C 14.281669,78.563236 12.629218,72.243116 13.22727,70.815296 C 13.435954,70.317076 13.033434,69.688236 12.332782,69.417886 C 10.246707,68.612956 9.4774334,60.216476 9.6232399,39.843762 C 9.7761505,18.47838 8.5751784,21.030295 20.060312,17.666292 C 24.160538,16.465333 29.497609,14.872006 31.92047,14.125566 C 34.343331,13.379126 37.698062,12.497901 39.375427,12.16729 C 41.052793,11.836678 44.030262,11.069335 45.992026,10.462083 C 48.768925,9.60251 49.920177,9.643305 51.190289,10.646286 C 53.306933,12.317755 57.435808,11.207164 58.336429,8.724107 C 58.754805,7.570622 60.331363,6.435787 62.444364,5.76714 C 67.551132,4.151133 68.371733,4.365359 69.509404,7.61154 C 70.074077,9.222756 72.071201,13.12949 73.947451,16.293172 C 75.823708,19.456853 77.255494,22.526086 77.129207,23.113688 C 77.002913,23.70129 75.394845,24.979908 73.555714,25.955061 L 70.21184,27.728066 L 73.261595,27.088932 C 74.938961,26.737408 76.768814,26.111442 77.327935,25.697897 C 77.887057,25.284352 79.809467,24.714174 81.599951,24.430835 C 86.451291,23.663127 86.801708,24.971946 86.070533,41.128618 C 85.704176,49.22406 85.162709,54.534703 84.625471,55.301546 C 83.759998,56.536916 67.800492,62.672956 65.401671,62.692626 C 64.692534,62.698446 60.300136,64.326776 55.640788,66.311146 C 50.98144,68.295506 45.491881,70.281506 43.441768,70.724466 C 39.645279,71.544766 34.947316,73.303856 28.870715,76.180396 C 27.006976,77.062646 23.957221,78.149796 22.093482,78.596286 C 20.229743,79.042766 18.247402,79.682606 17.68828,80.018166 C 17.129158,80.353716 16.160863,80.186896 15.536512,79.647446 z M 46.759709,55.767666 C 48.040512,54.571017 47.148284,51.445992 45.646418,51.868365 C 44.245354,52.262389 43.574647,56.689776 44.919509,56.666746 C 45.411369,56.658326 46.239459,56.253736 46.759709,55.767666 z M 60.020974,51.07611 C 61.527951,48.852523 60.169235,46.246772 58.280517,47.738253 C 56.993277,48.754759 56.601711,50.766591 57.44805,52.015389 C 58.157379,53.062023 58.845266,52.810901 60.020974,51.07611 z M 26.375676,32.143315 C 29.716955,30.679218 30.619921,29.468186 29.280818,28.247023 C 28.489941,27.525801 21.643825,29.445537 20.854786,30.609787 C 20.106895,31.713321 20.847467,33.682056 22.010472,33.682056 C 22.479941,33.682056 24.444282,32.989623 26.375676,32.143315 z M 40.222582,31.520114 C 41.247638,30.92573 42.086321,29.767159 42.086321,28.945512 C 42.086321,27.712855 41.404851,27.573268 38.189412,28.147299 C 34.135907,28.870945 32.082097,30.64088 32.934477,32.675901 C 33.47218,33.959641 36.972855,33.404485 40.222582,31.520114 z M 51.71939,31.639452 C 54.48499,30.506116 55.471022,29.031561 54.460422,27.540393 C 53.434473,26.026576 46.54246,28.934006 46.273588,30.994049 C 46.013373,32.987768 47.887262,33.209849 51.71939,31.639452 z M 66.831477,29.039009 C 67.38606,28.724997 67.839808,27.78371 67.839808,26.947259 C 67.839808,25.736808 67.29469,25.555058 65.168703,26.056677 C 61.478223,26.927433 59.029405,28.415024 59.029405,29.786136 C 59.029405,30.918718 64.424051,30.402126 66.831477,29.039009 z M 38.431197,25.641465 C 40.231732,24.631375 40.653797,21.682056 38.997813,21.682056 C 37.183795,21.682056 31.915324,23.885326 31.530092,24.805051 C 30.29937,27.743344 33.905429,28.180398 38.431197,25.641465 z M 50.388432,18.530743 C 51.683058,17.527525 51.926309,16.120961 50.957903,15.237846 C 50.618803,14.928612 48.78895,15.204341 46.891562,15.850577 C 44.220956,16.760167 43.441768,17.458344 43.441768,18.941702 C 43.441768,20.639765 43.769592,20.777723 46.322092,20.153824 C 47.90627,19.766609 49.736123,19.036223 50.388432,18.530743 z"
         id="path17602" />
      <path
         style="fill:#496d60;fill-opacity:1;display:inline"
         d="M 16.313827,76.432056 C 16.303374,75.194556 16.181502,67.543196 16.042999,59.429036 C 15.904497,51.314867 16.055097,44.43533 16.377667,44.141171 C 16.700236,43.847012 16.541505,42.160873 16.024931,40.394196 C 15.508358,38.627519 14.403791,34.328485 13.570336,30.840786 C 12.736882,27.353088 11.645095,24.267443 11.144144,23.983797 C 10.643192,23.700152 10.233323,23.121696 10.233323,22.69834 C 10.233323,21.145538 42.230229,11.587613 48.460188,11.279439 C 52.019023,11.103396 51.168929,13.448739 47.198718,14.759738 C 43.109011,16.110195 41.693671,17.729868 42.361003,20.295873 C 42.713757,21.652268 43.390322,21.817132 46.28153,21.25122 C 51.116276,20.304887 52.383795,19.136772 52.125143,15.865889 C 51.930729,13.407348 52.148002,13.140633 54.767311,12.62249 C 56.611511,12.257676 58.187501,11.156479 59.221533,9.510175 C 61.349529,6.122146 67.134307,4.62138 68.170257,7.188576 C 68.547632,8.123753 70.454114,12.096782 72.406884,16.01753 C 75.871359,22.973471 75.920616,23.16716 74.440055,24.012963 C 73.605526,24.489703 70.482929,24.996834 67.500947,25.139919 C 61.088201,25.447625 58.351681,26.798762 58.351681,29.657305 C 58.351681,31.286294 58.794271,31.682056 60.616002,31.682056 C 61.861378,31.682056 64.353246,31.027977 66.153486,30.228546 C 67.953726,29.429116 69.654261,28.982602 69.932453,29.236292 C 70.210644,29.489982 72.36965,28.984921 74.730249,28.113933 C 82.546487,25.229981 84.000088,24.927004 84.745231,26.026491 C 86.175248,28.136513 85.351068,54.519001 83.834202,55.189286 C 83.424111,55.370496 78.818927,56.954836 73.600457,58.710046 C 68.381987,60.465246 60.147648,63.469526 55.301926,65.386236 C 50.456204,67.302936 44.814157,69.219796 42.764044,69.645916 C 40.713931,70.072026 36.749249,71.368496 33.953641,72.526946 C 26.76503,75.505786 18.178957,78.648596 17.179987,78.666706 C 16.714053,78.675146 16.32428,77.669556 16.313827,76.432056 z M 56.14908,60.693016 C 57.439985,59.531656 58.351681,57.892096 58.351681,56.731936 C 58.351681,55.643206 58.940978,54.287068 59.661229,53.718301 C 61.363247,52.374254 62.072313,48.977273 61.035584,47.134068 C 58.902364,43.341411 55.324297,47.566958 56.322096,52.700499 C 57.066399,56.529836 55.975766,58.341306 52.421602,59.178986 C 49.823587,59.791316 49.541278,59.657826 49.541278,57.817006 C 49.541278,54.924696 48.184905,50.895509 46.981954,50.214382 C 45.361728,49.296989 42.648235,52.468835 42.891952,54.995256 C 43.05161,56.650316 43.638486,57.258256 45.305507,57.495416 C 46.516937,57.667766 47.508108,58.365266 47.508108,59.045416 C 47.508108,62.980876 52.539628,63.940246 56.14908,60.693016 z M 26.789091,33.253609 C 28.55829,32.467964 30.389425,31.051076 30.85828,30.10497 C 31.619199,28.569509 31.758469,28.736865 32.155139,31.663357 C 32.588639,34.86156 32.67119,34.930021 35.522398,34.455826 C 37.129974,34.188465 39.340745,33.338277 40.435223,32.566519 C 42.686471,30.979078 43.498366,27.035069 41.774796,26.059161 C 41.116311,25.686318 40.837498,24.761722 41.064841,23.704814 C 41.270738,22.747598 41.040848,21.476608 40.553974,20.880391 C 39.234197,19.264219 31.158774,22.439866 30.752011,24.734997 C 30.526377,26.008122 29.427959,26.661233 26.651609,27.173067 C 21.570512,28.109793 19.72145,29.261781 19.72145,31.490638 C 19.72145,35.13445 21.534944,35.586812 26.789091,33.253609 z M 54.227184,31.727982 C 55.073209,31.059894 55.640788,29.622035 55.640788,28.146872 C 55.640788,25.288591 54.967556,25.145228 49.355111,26.808355 C 45.520331,27.94471 44.488349,29.330844 45.26209,32.306008 C 45.604393,33.622217 46.359922,33.827089 49.249003,33.387117 C 51.20952,33.088554 53.449702,32.341943 54.227184,31.727982 z M 10.644694,54.100269 C 10.03191,51.744017 10.146993,30.878817 10.775935,30.305268 C 12.048167,29.145085 14.233905,50.165373 13.238876,53.991424 C 12.684833,56.121816 11.186776,56.184666 10.644694,54.100269 z"
         id="path17596" />
      <path
         sodipodi:nodetypes="csscccsssssssssssssssssc"
         style="fill:#ffc83d;fill-opacity:1;display:inline"
         d="M 14.858789,80.681756 C 14.234438,80.123436 13.357199,77.982596 12.909367,75.924346 C 12.461535,73.866086 11.686682,71.488676 11.187472,70.641216 C 9.4182083,67.637716 8.8202218,59.107416 9.0187153,39.70383 L 9.216738,20.346273 L 10.911046,19.62457 C 15.774168,17.553088 46.921613,9.3931038 50.827369,3.8332747 C 53.164247,0.50673814 60.351369,3.4114986 60.323831,5.564341 C 60.224385,13.338704 68.913308,3.016855 70.198478,6.932056 C 70.785228,8.719556 73.256038,13.274436 75.689173,17.054012 C 79.82683,23.481359 80.263792,23.889874 82.442978,23.368078 C 86.674174,22.354939 87.059616,23.929261 86.639061,40.506942 C 86.378151,50.791731 86.007457,55.303746 85.342827,56.284426 C 84.830875,57.039826 82.894335,58.135316 81.039399,58.718856 C 79.18447,59.302396 76.446895,60.230846 74.955904,60.782076 C 73.464912,61.333316 69.90378,62.443556 67.042278,63.249286 C 64.180775,64.055006 58.691215,66.103686 54.843257,67.801906 C 50.995299,69.500136 46.169604,71.258646 44.119491,71.709726 C 42.069378,72.160796 38.562159,73.287476 36.325672,74.213446 C 34.089185,75.139416 31.304133,76.239306 30.136667,76.657636 C 28.969201,77.075966 27.655832,77.744856 27.218069,78.144066 C 26.780306,78.543276 24.838238,79.252206 22.902362,79.719476 C 20.966487,80.186746 18.62015,80.822816 17.68828,81.132966 C 16.75641,81.443116 15.48314,81.240076 14.858789,80.681756 z"
         id="path17604" />
      <path
         sodipodi:nodetypes="ccccccccccccccccccccccccccccccccc"
         id="path17600"
         d="M 66.53125,5.0625 C 62.485812,5.4051572 59.221346,7.7413468 57.185265,11.095618 C 54.22513,13.896791 51.245422,11.152011 48.71015,9.9687164 C 39.205931,12.800109 29.565085,15.235332 20.068038,18.120732 C 16.947591,19.413552 13.660871,20.188283 10.34375,20.78125 C 9.8454275,33.91009 9.694564,47.077683 10.6875,60.1875 C 10.061569,60.334791 10.412703,62.635886 10.16396,63.614636 C 9.9661436,64.922976 9.9036955,66.205481 10.746129,67.315291 C 11.773013,69.689076 13.254726,71.929198 13.975625,74.392904 C 13.851538,77.971093 16.235953,81.345168 19.94645,78.885271 C 27.998896,76.540039 35.49753,72.65076 43.595386,70.435561 C 51.720569,67.765085 59.393639,63.803835 67.701859,61.713863 C 72.992657,59.843098 78.256261,57.877333 83.53092,55.972307 C 86.471349,53.288368 84.913568,47.991324 85.76565,44.284249 C 85.952533,38.433284 86.551338,32.501413 85.616141,26.695179 C 83.648518,23.130844 78.758987,26.041887 75.789496,26.918358 C 71.380978,28.683337 77.956423,24.415106 75.35195,19.913005 C 72.823955,15.071003 70.42191,10.1254 67.705794,5.4020824 L 67.207609,5.116295 L 66.53125,5.0625 z M 59.125,47.03125 C 60.432747,47.736235 61.831709,48.452641 61.044154,50.126812 C 60.731475,52.587652 59.979025,55.027277 58.964213,57.278747 C 58.163863,58.751978 57.525244,60.368658 55.909244,61.118434 C 54.90729,62.170207 53.637301,62.388321 52.242664,62.21875 C 50.821991,62.153227 49.223308,62.609727 48.224585,61.306813 C 46.409895,59.846672 44.209221,58.45202 43.6875,56.03125 C 44.469311,54.370023 44.60793,52.413758 46.0625,51.28125 C 47.929998,53.181012 49.578774,55.258009 51.0625,57.46875 C 52.329775,57.84863 53.659455,58.621337 54.661826,57.333694 C 56.146661,56.834912 55.982833,55.282934 56.258288,54.011578 C 56.591354,52.155795 56.899626,50.295705 57.21875,48.4375 C 57.854167,47.96875 58.489583,47.5 59.125,47.03125 z"
         style="fill:url(#linearGradient2519);fill-opacity:1;display:inline" />
      <path
         id="path27026"
         d="M 46.068602,51.530343 L 50.580475,57.229551 L 53.192612,58.17942 L 55.567282,56.279683 L 56.279683,51.292876 L 60.791557,50 L 57.941953,59.366755 L 55,61.978892 L 49.155673,62.216359 L 45,58.891821 L 43.931398,55.804749 L 46.068602,51.530343 z"
         style="fill:none;fill-opacity:0.75;fill-rule:evenodd;stroke:none;stroke-width:1px;stroke-linecap:butt;stroke-linejoin:miter;stroke-opacity:1;display:inline" />
      <path
         id="path27031"
         d="M 15.91029,79.076517 L 16.385224,42.98153 L 11.635884,21.134565 L 10,28.258575 L 10,65.540897 L 15.91029,79.076517 z"
         style="fill:none;fill-opacity:0.75;fill-rule:evenodd;stroke:none;stroke-width:1px;stroke-linecap:butt;stroke-linejoin:miter;stroke-opacity:1;display:inline" />
      <path
         id="path27036"
         d="M 16.385224,42.031662 L 15.672823,78.83905 L 9.4986807,65 L 10,22.084433 L 12.348285,25 L 16.385224,42.031662 z"
         style="fill:none;fill-opacity:0.75;fill-rule:evenodd;stroke:none;stroke-width:1px;stroke-linecap:butt;stroke-linejoin:miter;stroke-opacity:1;display:inline" />
      <path
         sodipodi:nodetypes="ccccc"
         id="path3325"
         d="M 18.822836,47.458238 C 41.426897,39.502545 61.002441,33.255026 84.792601,25.380161 L 80,25.408971 C 79.336782,23.193211 38.186816,38.034301 16.860158,45 L 18.822836,47.458238 z"
         style="fill:#b4a08a;fill-opacity:1;fill-rule:evenodd;stroke:none;stroke-width:1px;stroke-linecap:butt;stroke-linejoin:miter;stroke-opacity:1;display:inline" />
      <path
         sodipodi:nodetypes="ccccccccccccccccsscccccccccccccccsccc"
         id="path17594"
         d="M 37.78125,14.0625 C 29.851521,16.431872 21.712517,18.268926 14.0625,21.46875 C 21.96875,19 29.875,16.53125 37.78125,14.0625 z M 10.9375,20 C 10.84375,24.625 10.75,29.25 10.65625,33.875 C 9.9572104,39.817406 10.601247,45.824821 10.277289,51.796758 C 10.239923,56.252574 9.9769643,60.753514 10.080034,65.18124 C 12.022106,69.57916 13.964178,73.97708 15.90625,78.375 C 16.010417,75.427083 16.114583,72.479167 16.21875,69.53125 C 16.682216,72.374203 15.448756,76.118704 17.046236,78.409332 C 22.36379,77.475393 27.2589,74.904113 32.366422,73.202536 C 39.926233,70.532732 47.532259,68.00042 54.974801,65.010174 C 63.779629,61.582229 72.86152,58.869408 81.530398,55.10149 C 85.504384,54.291848 84.437434,49.813235 84.883988,46.808031 C 85.126916,40.455452 85.70376,34.0452 84.962775,27.712716 C 84.133416,23.760805 79.042381,27.490229 76.740484,28.313675 C 71.912829,29.497516 68.662206,30.155508 63.901478,31.61972 C 61.950353,32.21981 60.403958,32.488025 57.681713,33.499132 C 55.262044,34.397855 52.03807,35.461133 50.354751,36.5374 C 45.699986,38.511425 43.380286,37.333776 40.674893,39.77066 C 37.37514,39.917819 34.379498,41.358521 31.499302,42.866262 C 28.50631,43.868495 25.771339,45.623483 22.5625,45.84375 C 20.137831,46.645792 16.360089,46.542735 17.061721,44.030393 C 16.492533,39.969162 15.074842,36.059651 14.1345,32.06447 C 13.068834,28.04298 12.003167,24.02149 10.9375,20 z M 69.25,31.8125 C 72.61018,32.662869 66.959484,32.887967 69.25,31.8125 z M 37.40625,41.8125 C 40.766429,42.662868 35.115733,42.887967 37.40625,41.8125 z M 58.96875,45.6875 C 62.489513,46.173896 61.835236,50.72566 60.63237,53.039559 C 58.993538,56.017571 59.016274,60.515096 55.384536,61.669793 C 52.346129,63.409051 47.550563,63.398747 45.677869,59.944286 C 44.067052,57.336156 41.278207,54.215296 44.238522,51.317945 C 48.176288,47.461312 48.705645,55.140546 50.712134,57.209787 C 53.826234,60.025193 56.845388,56.363862 56.21875,53.09375 C 56.329941,50.668815 55.912489,46.417097 58.96875,45.6875 z"
         style="fill:url(#linearGradient2521);fill-opacity:1;stroke:none;stroke-opacity:1;display:inline" />
      <path
         sodipodi:nodetypes="cccccccccszzssccccc"
         id="path17592"
         d="M 11.40625,21.84375 C 9.866647,29.399876 11.658607,31.026878 10.515242,35.392927 C 9.8124348,42.89786 10.81726,50.460378 10.264869,57.986314 C 10.068311,62.319125 9.4142273,66.825538 12.093245,70.590675 C 13.153263,72.552193 14.689653,76.935199 15.457031,77.40918 C 15.867188,67.626953 16.150045,57.972025 16.560202,48.189798 C 21.473843,46.734746 26.846506,45.107803 32.92566,42.701229 C 40.55685,40.180602 50.821594,36.48178 55.830739,34.457063 C 65.402521,31.04659 76.137221,29.079651 84.951291,25.682903 C 78.904709,24.874068 83.183582,23.639413 71.952076,26.990654 C 64.736784,29.143544 61.95388,29.925996 55.95621,32.057368 C 49.69224,34.283373 50.878148,33.728208 45.640976,35.451586 C 40.440333,37.162944 44.864279,35.561102 37.475978,37.500011 C 30.790352,39.254517 30.735426,40.087416 27.444103,41.27126 C 23.71132,42.613891 24.883102,42.565514 17.233886,44.680818 C 15.604926,37.626916 13.142558,28.871258 11.40625,21.84375 z M 84.96875,27.5 C 84.791667,35.177083 84.614583,42.854167 84.4375,50.53125 C 85.182102,42.883995 85.618734,35.171299 84.96875,27.5 z"
         style="opacity:0.8;fill:#4d291f;fill-opacity:0.8;stroke:#000000;stroke-opacity:0.8;display:inline" />
      <path
         transform="matrix(1.0082876,-1.926643,1.1308694,0.7763531,-63.744867,103.63052)"
         d="M 48.37341,54.165489 A 1.2729844,1.0820367 0 1 1 45.827441,54.165489 A 1.2729844,1.0820367 0 1 1 48.37341,54.165489 z"
         sodipodi:ry="1.0820367"
         sodipodi:rx="1.2729844"
         sodipodi:cy="54.165489"
         sodipodi:cx="47.100426"
         id="path3169"
         style="opacity:0.8;fill:#ffffff;fill-opacity:1;stroke:none;stroke-width:0.5;stroke-linecap:square;stroke-linejoin:round;stroke-miterlimit:4;stroke-dasharray:none;stroke-opacity:0.8;display:inline"
         sodipodi:type="arc" />
      <path
         transform="matrix(0.8997026,-1.5483038,1.0090833,0.6238989,-39.252497,89.414864)"
         d="M 48.37341,54.165489 A 1.2729844,1.0820367 0 1 1 45.827441,54.165489 A 1.2729844,1.0820367 0 1 1 48.37341,54.165489 z"
         sodipodi:ry="1.0820367"
         sodipodi:rx="1.2729844"
         sodipodi:cy="54.165489"
         sodipodi:cx="47.100426"
         id="path3171"
         style="opacity:0.8;fill:#ffffff;fill-opacity:1;stroke:none;stroke-width:0.5;stroke-linecap:square;stroke-linejoin:round;stroke-miterlimit:4;stroke-dasharray:none;stroke-opacity:0.8;display:inline"
         sodipodi:type="arc" />
      <path
         sodipodi:nodetypes="csccccccccccccccccccccccccccccccccccssccccccccccccccccccccccccccccccscccccccccc"
         id="path17606"
         d="M 69.09375,2.4375 C 66.314268,2.2949585 60.201128,5.4858641 60.331137,4.4056627 C 60.783394,0.64800226 54.470959,1.8184233 51.912931,2.536914 C 48.68314,3.7343154 44.497823,4.3284603 43.22472,7.8809514 C 42.359626,9.5167525 41.75639,8.6717573 34.626552,11.216419 C 26.399015,13.461434 18.417301,16.103288 10.380987,18.972958 C 7.0469082,22.658021 9.2452296,28.068377 8.3772913,32.516293 C 8.3024469,43.750411 7.8213563,55.058807 9.182183,66.231851 C 10.518845,70.467953 11.88138,74.697268 13.12179,78.948595 C 15.425721,84.229436 21.512638,80.035486 25.419374,79.413868 C 32.465121,76.970948 39.205859,73.488619 46.622924,72.26114 C 50.410293,70.736878 53.977447,68.709963 57.882448,67.453246 C 66.548672,64.071435 75.321624,60.884961 84.265815,58.357554 C 87.773798,55.097849 86.353097,49.501025 87.105262,45.174909 C 87.394139,38.478403 87.86401,31.718427 86.949468,25.0525 C 84.787916,21.20818 78.112337,23.427137 77.11254,18.007007 C 73.87995,13.130772 71.238044,7.8765891 69.09375,2.4375 z M 65.0625,7.96875 C 69.927429,9.1420878 69.300637,15.680758 73.136687,18.206911 C 75.688625,20.78379 74.863195,25.031743 72.032813,27.017472 C 59.03443,35.84995 78.882965,27.827483 82.901073,27.005809 C 86.674973,29.778869 83.90905,35.201046 84.522134,39.132886 C 84.25655,43.837216 84.105683,48.564842 83.3125,53.21875 C 75.024885,57.028383 66.235119,59.541788 57.587883,62.376434 C 60.720265,59.087869 60.824234,54.203653 62.821823,50.322876 C 64.748129,44.771886 56.077697,42.238471 55.266422,48.225293 C 54.730808,51.068163 56.748273,58.173151 51.821144,56.998972 C 49.416224,54.441562 48.479914,45.588559 43.541639,50.420975 C 39.680129,54.479948 43.230728,59.736749 47.268359,61.837788 C 49.168162,62.691766 55.672215,63.685885 50.423346,65.222424 C 41.19311,68.61588 31.867586,71.801663 22.724526,75.396352 C 20.264223,76.296666 16.54533,77.367022 17.666013,73.484045 C 17.551567,64.489596 16.946983,55.49186 17.396807,46.497548 C 18.704457,41.206259 16.134771,36.038731 15.143,30.919092 C 13.493246,27.446635 11.949217,20.90671 17.811691,21.06952 C 26.454821,18.582126 35.12558,16.15069 43.723689,13.530655 C 48.905552,12.31081 43.704942,6.8087564 51.965508,4.54506 C 57.356231,3.0678051 57.961757,3.2629235 58.021042,6.5462923 C 58.097854,10.800397 62.637613,8.5034371 65.0625,7.96875 z M 12.03125,26.1875 C 13.326885,30.670048 14.058588,35.344732 14.746904,39.939992 C 15.386102,48.823824 15.46766,57.768842 15.047357,66.65586 C 14.080561,68.667084 12.708666,58.282459 12.421676,63.515493 C 12.604345,65.411025 14.53078,69.658039 13.089838,70.169078 C 10.399179,65.316103 11.514006,59.566806 11.113538,54.273763 C 11.087082,48.992136 11.039376,43.708537 11.219547,38.428871 C 11.824937,44.156956 11.483355,49.981639 12.674831,55.644939 C 15.712136,55.152057 13.493086,49.185523 14.05955,46.577625 C 13.925562,41.593319 13.888183,36.483922 12.201318,31.72782 C 10.719701,30.288823 10.690699,27.726679 12.03125,26.1875 z M 78.9375,30.9375 C 75.637919,31.554268 69.709132,32.809898 68.421615,34.384927 C 71.936857,34.544739 76.535344,32.538312 78.9375,30.9375 z M 65.8125,34.8125 C 63.458932,34.050266 61.420642,37.955295 64.781472,36.041614 C 65.988916,35.700154 68.811347,34.512923 65.8125,34.8125 z M 50.46875,36.3125 C 45.821141,36.894957 51.762603,38.801942 50.817195,36.280987 L 50.46875,36.3125 z M 46.78125,37.96875 C 40.808652,38.731263 35.053943,40.707885 29.607615,43.227541 C 29.628386,46.473945 36.373878,41.818751 38.836629,41.474518 C 41.513514,40.411321 44.469584,39.766422 46.78125,37.96875 z M 46.375,40.6875 C 41.467295,42.06063 36.663645,43.832375 32.09375,46.09375 C 36.027263,46.660724 39.496633,43.653722 43.240939,42.763163 C 43.995541,42.26098 47.013669,41.941538 46.375,40.6875 z M 26.3125,44.90625 C 23.876072,45.225225 14.347389,49.387354 18.391329,47.880949 C 22.92269,46.192976 23.835849,46.248038 26.3125,44.90625 z M 59.125,48.6875 C 61.72114,51.015869 58.615078,55.439734 57.844657,58.292269 C 55.455616,61.684064 50.195332,62.123217 47.317522,59.128573 C 43.912925,58.851288 43.552032,50.535937 46.974364,53.336827 C 47.633171,57.066473 50.817998,61.36379 54.977483,58.465264 C 59.664131,56.95007 54.272429,48.98238 59.125,48.6875 z M 13.8125,58.875 C 12.430983,60.872639 15.645743,65.34193 14.391421,60.777092 C 14.236391,60.133029 14.091176,59.480265 13.8125,58.875 z"
         style="opacity:1;fill:#211917;fill-opacity:1;display:inline" />
      <path
         sodipodi:nodetypes="cccscccccccscccccc"
         id="path3311"
         d="M 14.722955,31.438685 C 14.304199,28.812907 17.718592,29.238579 19.354937,28.525378 C 23.612846,27.255257 27.898685,25.861349 31.803101,23.713404 C 33.918364,22.796914 33.229808,20.463919 33.607271,18.595837 C 34.125102,16.033067 36.716416,15.7723 38.551209,14.970687 C 41.247275,14.078635 44.050328,12.938491 46.941935,13.259158 C 49.604393,13.424844 48.354588,17.655073 51.112845,17.540307 C 54.234827,17.344886 57.058806,15.755366 60.103247,15.136243 C 63.122912,14.478478 66.038697,13.467253 68.878523,12.26077 C 69.714949,11.744874 72.284716,11.587187 70.285572,12.648863 C 65.813302,14.839452 60.986276,16.219513 56.201332,17.55232 C 53.63376,18.093772 49.842686,20.473038 48.160678,18.338841 C 46.545276,16.289157 50.510092,13.047288 44.844205,13.747937 C 42.144226,14.435637 38.403417,15.494255 36.24593,17.332114 C 34.497139,19.031462 36.535645,21.774152 34.534475,23.358488 C 31.272603,26.230483 26.912401,27.325288 22.86132,28.61339 C 20.895357,29.25798 18.6176,29.390307 17.15584,31.03826 C 16.461413,31.640526 14.695649,33.724054 14.722955,31.438685 z"
         style="fill:#211917;fill-opacity:1;fill-rule:evenodd;stroke:#000000;stroke-width:1px;stroke-linecap:butt;stroke-linejoin:miter;stroke-opacity:1;display:inline" />
      <path
         sodipodi:nodetypes="cssscccczscc"
         id="path3313"
         d="M 16.095894,37.27106 C 15.111286,36.615637 22.737828,36.762737 21.944183,29.944013 C 21.434625,25.566075 30.89719,25.892715 34.550904,24.96142 C 38.294631,24.007183 35.376415,29.279105 38.505672,29.787527 C 41.634928,30.295948 44.030174,28.6933 47.73744,27.714484 C 56.45163,24.982912 65.138324,22.169471 73.798437,19.319526 C 77.912939,18.579791 72.386025,21.331377 71.131058,21.537737 C 60.631739,25.121454 50.155466,28.975835 39.133698,31.148522 C 36.268248,32.013807 35.060283,30.526591 34.91968,27.536514 C 34.768398,24.319356 23.004473,28.271511 23.323163,31.003447 C 23.921119,36.129373 21.198013,35.742465 18.771716,37.565521 C 15.535416,39.307867 17.308525,37.756716 16.095894,37.27106 z"
         style="fill:#211917;fill-opacity:1;fill-rule:evenodd;stroke:#000000;stroke-width:0.93313116px;stroke-linecap:butt;stroke-linejoin:miter;stroke-opacity:1;display:inline" />
      <g
         transform="matrix(3.2542433,0,0,3.4717115,16.005657,10.786422)"
         id="g2257"
         style="display:inline">
        <g
           id="Layer_x0020_1"
           style="fill-rule:nonzero;stroke:#000000;stroke-miterlimit:4">
          <path
             style="stroke-width:0.75660002"
             d="M 2.8,10.5 C 2.8,15 6.5,18.7 11,18.7 C 12.4,18.7 13.9,18.3 15.1,17.6 C 15.2,17.9 15.4,18.2 15.6,18.4 L 18.1,20.9 C 18.5,21.3 19.1,21.6 19.7,21.6 C 20.3,21.6 20.9,21.4 21.3,20.9 C 21.7,20.4 22,19.9 22,19.3 C 22,18.7 21.8,18.1 21.3,17.7 L 18.8,15.2 C 18.6,15 18.3,14.8 18,14.7 C 18.7,13.4 19.1,12 19.1,10.5 C 19.1,6 15.4,2.3 10.9,2.3 C 6.4,2.3 2.7,6 2.7,10.5 L 2.8,10.5 z M 5.2,10.5 C 5.2,7.3 7.8,4.7 11,4.7 C 14.2,4.7 16.8,7.3 16.8,10.5 C 16.8,13.7 14.2,16.3 11,16.3 C 7.8,16.3 5.2,13.7 5.2,10.5 z"
             id="path2194" />
          <path
             style="fill:#919191;stroke:none"
             d="M 21.1,18.3 L 18.5,15.7 C 18.1,15.3 17.4,15.1 16.8,15.3 C 17.9,14 18.6,12.3 18.6,10.4 C 18.6,6.2 15.2,2.7 10.9,2.7 C 6.7,2.7 3.2,6.1 3.2,10.4 C 3.2,14.6 6.6,18.1 10.9,18.1 C 12.7,18.1 14.4,17.4 15.8,16.4 C 15.6,17 15.7,17.6 16.2,18.1 L 18.8,20.7 C 19.4,21.3 20.5,21.3 21.1,20.7 C 21.7,20.1 21.7,19 21.1,18.4 L 21.1,18.3 z M 11,17.1 C 7.3,17.1 4.4,14.1 4.4,10.5 C 4.4,6.8 7.4,3.9 11,3.9 C 14.7,3.9 17.6,6.9 17.6,10.5 C 17.6,14.2 14.6,17.1 11,17.1 L 11,17.1 z"
             id="path2196" />
          <linearGradient
             id="aigrd1"
             gradientUnits="userSpaceOnUse"
             x1="19.8018"
             y1="17.0322"
             x2="17.517599"
             y2="19.316401">
            <stop
               offset="0"
               style="stop-color:#304A2F"
               id="stop2199" />
            <stop
               offset="0.3315"
               style="stop-color:#6FAB6C"
               id="stop2201" />
            <stop
               offset="1"
               style="stop-color:#304A2F"
               id="stop2203" />
          </linearGradient>
          <path
             style="fill:url(#linearGradient2523);stroke:none"
             d="M 18.5,15.7 L 16.2,18 L 18.8,20.6 L 21.1,18.3 L 18.5,15.7 L 18.5,15.7 z"
             id="path2205" />
          <path
             style="opacity:0.54000005;fill:none;stroke:#ffffff;stroke-width:0.74220002;stroke-linecap:round"
             d="M 17.8,16.5 L 20.2,18.9"
             id="path2207" />
          <path
             style="opacity:0.5;fill:none;stroke:#ffffff;stroke-width:0.37110001;stroke-linecap:round"
             d="M 3.7,10.3 C 3.7,6.4 6.9,3.2 10.8,3.2"
             id="path2209" />
          <path
             style="opacity:0.5;fill:none;stroke:#ffffff;stroke-width:0.37110001;stroke-linecap:round"
             d="M 17.8,11 C 17.8,14.5 15,17.3 11.5,17.3"
             id="path2211" />
          <radialGradient
             id="aigrd2"
             cx="13.2148"
             cy="13.3359"
             r="8.6704998"
             fx="13.2148"
             fy="13.3359"
             gradientUnits="userSpaceOnUse">
            <stop
               offset="0"
               style="stop-color:#FFFFFF"
               id="stop2214" />
            <stop
               offset="0.7303"
               style="stop-color:#3F4A8E"
               id="stop2216" />
            <stop
               offset="0.8388"
               style="stop-color:#3A4A92"
               id="stop2218" />
            <stop
               offset="0.997"
               style="stop-color:#2C499E"
               id="stop2220" />
            <stop
               offset="1"
               style="stop-color:#2C499E"
               id="stop2222" />
          </radialGradient>
          <path
             style="opacity:0.47000002;fill:url(#radialGradient2525);stroke:none"
             d="M 16.4,10.4 C 16.4,13.4 14,15.8 11,15.8 C 8,15.8 5.6,13.4 5.6,10.4 C 5.5,7.4 8,5 11,5 C 14,5 16.4,7.4 16.4,10.4 z"
             id="path2224" />
          <linearGradient
             id="aigrd3"
             gradientUnits="userSpaceOnUse"
             x1="7.7284999"
             y1="7.0679002"
             x2="11.9571"
             y2="11.2965">
            <stop
               offset="0"
               style="stop-color:#FFFFFF"
               id="stop2227" />
            <stop
               offset="1"
               style="stop-color:#A8BDDB"
               id="stop2229" />
          </linearGradient>
          <path
             style="fill:url(#linearGradient2527);stroke:none"
             d="M 6,10.4 C 6,7.7 8.2,5.4 11,5.4 C 17.7,5.4 6,16.4 6,10.4 z"
             id="path2231" />
          <g
             style="stroke:none"
             id="g2233">
            <g
               id="g2235">
              <path
                 d="M 9.5,13 C 9.1,13 8.7,13 8.6,13 C 8.6,12.8 8.6,12.4 8.6,11.9 L 7.9,11.9 L 7.9,13.7 L 9.5,13.7 L 9.5,13 z"
                 id="path2237" />
              <path
                 d="M 13.4,11.9 C 13.4,12.4 13.4,12.9 13.4,13 C 13.2,13 12.9,13 12.3,13 L 12.3,13.6 L 14,13.6 L 14,11.8 L 13.4,11.8 L 13.4,11.9 z"
                 id="path2239" />
            </g>
            <g
               id="g2241">
              <path
                 d="M 13.7,7.6 L 12.3,7.6 L 12.3,8.2 C 12.8,8.2 13.2,8.2 13.4,8.2 C 13.4,8.3 13.4,8.6 13.4,9.1 L 14,9.1 L 14,7.6 L 13.7,7.6 z"
                 id="path2243" />
              <path
                 style="opacity:0.47999998"
                 d="M 9.5,7.6 L 7.9,7.6 L 7.9,9.1 L 8.5,9.1 C 8.5,8.7 8.5,8.4 8.5,8.2 C 8.6,8.2 9,8.2 9.4,8.2 L 9.4,7.6 L 9.5,7.6 z"
                 id="path2245" />
            </g>
          </g>
          <path
             style="opacity:0.47999998;fill:url(#linearGradient2529);stroke:none"
             d="M 6,10.4 C 6,7.7 8.2,5.4 11,5.4 C 17.7,5.4 6,16.4 6,10.4 z"
             id="path2247" />
        </g>
        <g
           id="Layer_x0020_2"
           style="fill-rule:nonzero;stroke:#000000;stroke-miterlimit:4">
          <path
             style="fill:none;stroke:none"
             d="M 24,24 L 0,24 L 0,0 L 24,0 L 24,24 z"
             id="path2250" />
        </g>
      </g>
    </g>
  </g>
</svg>
