<?xml version="1.0" encoding="UTF-8" standalone="no"?>
<!-- Created with Inkscape (http://www.inkscape.org/) -->
<svg
   xmlns:dc="http://purl.org/dc/elements/1.1/"
   xmlns:cc="http://web.resource.org/cc/"
   xmlns:rdf="http://www.w3.org/1999/02/22-rdf-syntax-ns#"
   xmlns:svg="http://www.w3.org/2000/svg"
   xmlns="http://www.w3.org/2000/svg"
   xmlns:xlink="http://www.w3.org/1999/xlink"
   xmlns:sodipodi="http://sodipodi.sourceforge.net/DTD/sodipodi-0.dtd"
   xmlns:inkscape="http://www.inkscape.org/namespaces/inkscape"
   width="48px"
   height="48px"
   id="svg2178"
   sodipodi:version="0.32"
   inkscape:version="0.45.1"
   sodipodi:docname="image-missing.svg"
   sodipodi:docbase="/home/tim/pix/icons/Baroque-1.0/scalable/status"
   inkscape:output_extension="org.inkscape.output.svg.inkscape"
   inkscape:export-filename="/home/pawel/Desktop/imgage.png"
   inkscape:export-xdpi="90"
   inkscape:export-ydpi="90">
  <defs
     id="defs2180">
    <linearGradient
       id="linearGradient3170">
      <stop
         style="stop-color:#0e9407;stop-opacity:1;"
         offset="0"
         id="stop3173" />
      <stop
         style="stop-color:#88e807;stop-opacity:1;"
         offset="1"
         id="stop3175" />
    </linearGradient>
    <linearGradient
       inkscape:collect="always"
       id="linearGradient4197">
      <stop
         style="stop-color:#141414;stop-opacity:1;"
         offset="0"
         id="stop4199" />
      <stop
         style="stop-color:#141414;stop-opacity:0;"
         offset="1"
         id="stop4201" />
    </linearGradient>
    <linearGradient
       id="linearGradient3205">
      <stop
         style="stop-color:#66cd00;stop-opacity:1;"
         offset="0"
         id="stop3207" />
      <stop
         style="stop-color:#abf100;stop-opacity:1;"
         offset="1"
         id="stop3209" />
    </linearGradient>
    <linearGradient
       id="linearGradient3197">
      <stop
         style="stop-color:#525fea;stop-opacity:1;"
         offset="0"
         id="stop3199" />
      <stop
         style="stop-color:#a2dbfb;stop-opacity:1;"
         offset="1"
         id="stop3201" />
    </linearGradient>
    <linearGradient
       id="linearGradient3189">
      <stop
         style="stop-color:#76bad8;stop-opacity:1;"
         offset="0"
         id="stop3191" />
      <stop
         style="stop-color:#d7ffd8;stop-opacity:1;"
         offset="1"
         id="stop3193" />
    </linearGradient>
    <linearGradient
       inkscape:collect="always"
       id="linearGradient3168">
      <stop
         style="stop-color:#fbfcfb;stop-opacity:1;"
         offset="0"
         id="stop3170" />
      <stop
         style="stop-color:#fbfcfb;stop-opacity:0;"
         offset="1"
         id="stop3172" />
    </linearGradient>
    <linearGradient
       inkscape:collect="always"
       id="linearGradient3158">
      <stop
         style="stop-color:#fbfcfb;stop-opacity:1;"
         offset="0"
         id="stop3160" />
      <stop
         style="stop-color:#fbfcfb;stop-opacity:0;"
         offset="1"
         id="stop3162" />
    </linearGradient>
    <linearGradient
       id="linearGradient3132">
      <stop
         style="stop-color:#6d2422;stop-opacity:1;"
         offset="0"
         id="stop3134" />
      <stop
         style="stop-color:#61522a;stop-opacity:1;"
         offset="1"
         id="stop3136" />
    </linearGradient>
    <linearGradient
       inkscape:collect="always"
       xlink:href="#linearGradient3158"
       id="linearGradient3164"
       x1="4.0152287"
       y1="21.151268"
       x2="16.490358"
       y2="26.909138"
       gradientUnits="userSpaceOnUse"
       gradientTransform="matrix(1.074637,0,0,1.074637,-1.7142857,-1.7962895)" />
    <linearGradient
       inkscape:collect="always"
       xlink:href="#linearGradient3168"
       id="linearGradient3174"
       x1="35.893188"
       y1="34.664036"
       x2="26.490507"
       y2="22.521175"
       gradientUnits="userSpaceOnUse"
       gradientTransform="matrix(1.074637,0,0,1.074637,-1.7142857,-1.7962895)" />
    <radialGradient
       inkscape:collect="always"
       xlink:href="#linearGradient4197"
       id="radialGradient4203"
       cx="23.571428"
       cy="44.42857"
       fx="23.571428"
       fy="44.42857"
       r="22.714285"
       gradientTransform="matrix(1,0,0,8.8050318e-2,0,40.51662)"
       gradientUnits="userSpaceOnUse" />
    <linearGradient
       inkscape:collect="always"
       xlink:href="#linearGradient3132"
       id="linearGradient3183"
       gradientUnits="userSpaceOnUse"
       gradientTransform="matrix(1.074637,0,0,1.074637,-1.7142857,-1.7962895)"
       x1="23.966822"
       y1="3.1613121"
       x2="26.814173"
       y2="37.284172" />
  </defs>
  <sodipodi:namedview
     id="base"
     pagecolor="#ffffff"
     bordercolor="#666666"
     borderopacity="1.0"
     inkscape:pageopacity="0.0"
     inkscape:pageshadow="2"
     inkscape:zoom="7"
     inkscape:cx="24"
     inkscape:cy="18.836421"
     inkscape:current-layer="layer1"
     showgrid="true"
     inkscape:grid-bbox="true"
     inkscape:document-units="px"
     inkscape:window-width="872"
     inkscape:window-height="623"
     inkscape:window-x="112"
     inkscape:window-y="203" />
  <metadata
     id="metadata2183">
    <rdf:RDF>
      <cc:Work
         rdf:about="">
        <dc:format>image/svg+xml</dc:format>
        <dc:type
           rdf:resource="http://purl.org/dc/dcmitype/StillImage" />
        <dc:title>Kamel icons</dc:title>
        <dc:creator>
          <cc:Agent>
            <dc:title>Pawel Krupski</dc:title>
          </cc:Agent>
        </dc:creator>
        <cc:license
           rdf:resource="http://creativecommons.org/licenses/by-nc/2.5/" />
      </cc:Work>
      <cc:License
         rdf:about="http://creativecommons.org/licenses/by-nc/2.5/">
        <cc:permits
           rdf:resource="http://web.resource.org/cc/Reproduction" />
        <cc:permits
           rdf:resource="http://web.resource.org/cc/Distribution" />
        <cc:requires
           rdf:resource="http://web.resource.org/cc/Notice" />
        <cc:requires
           rdf:resource="http://web.resource.org/cc/Attribution" />
        <cc:prohibits
           rdf:resource="http://web.resource.org/cc/CommercialUse" />
        <cc:permits
           rdf:resource="http://web.resource.org/cc/DerivativeWorks" />
      </cc:License>
    </rdf:RDF>
  </metadata>
  <g
     id="layer1"
     inkscape:label="Layer 1"
     inkscape:groupmode="layer">
    <path
       sodipodi:type="arc"
       style="opacity:0.58222201;fill:url(#radialGradient4203);fill-opacity:1;fill-rule:evenodd;stroke:none;stroke-width:0.60000002;stroke-linecap:round;stroke-linejoin:round;stroke-miterlimit:4;stroke-dasharray:none;stroke-dashoffset:0;stroke-opacity:1"
       id="path3226"
       sodipodi:cx="23.571428"
       sodipodi:cy="44.42857"
       sodipodi:rx="22.714285"
       sodipodi:ry="2"
       d="M 46.285713,44.42857 A 22.714285,2 0 1 1 46.276651,44.37208"
       sodipodi:start="0"
       sodipodi:end="6.2549367"
       sodipodi:open="true"
       transform="matrix(1.0746369,0,0,1.0746369,-2.6354037,-3.6385242)" />
    <path
       style="fill:#fcda3a;fill-opacity:1;fill-rule:evenodd;stroke:url(#linearGradient3183);stroke-width:1.26966906;stroke-linecap:round;stroke-linejoin:round;stroke-miterlimit:4;stroke-dashoffset:0;stroke-opacity:1"
       d="M 1.09375 2.25 L 1.21875 7.875 L 2.625 10.5 L 2.625 37.96875 L 0.90625 39.90625 L 0.90625 45.9375 L 6.53125 45.625 L 8.15625 43.78125 L 39.53125 43.78125 L 41.59375 45.9375 L 47.1875 46.0625 L 46.875 39.90625 L 44.90625 38.375 L 44.90625 10.59375 L 46.21875 8.09375 L 46.21875 2.65625 L 41.5 2.65625 L 38.875 4.09375 L 8.59375 4.09375 L 6 2.34375 L 1.09375 2.25 z M 8.40625 9.5 L 39.15625 9.5 L 39.15625 38.375 L 8.40625 38.375 L 8.40625 9.5 z M 8.84375 10 L 8.84375 38.15625 L 38.71875 38.15625 L 38.71875 10 L 8.84375 10 z M 9.15625 10.4375 L 38.15625 10.4375 L 38.15625 37.4375 L 9.15625 37.4375 L 9.15625 10.4375 z "
       id="rect2157" />
    <path
       style="fill:none;fill-opacity:0.75;fill-rule:evenodd;stroke:#664600;stroke-width:0.75224584;stroke-linecap:round;stroke-linejoin:miter;stroke-miterlimit:4;stroke-dasharray:none;stroke-opacity:1"
       d="M 7.29976,5.3874018 C 6.1807378,4.4407878 5.2161774,4.1892519 4.6731744,5.8347241 C 5.1356567,6.7517424 3.6436402,8.5373196 9.015363,7.4499415 C 12.765984,6.7262434 16.871458,6.6538735 22.344678,5.9301753 C 23.760894,7.1199015 23.064508,7.3440375 22.344678,7.9839979 C 21.029265,8.2247751 21.330183,8.0433201 21.172396,7.1264705"
       id="path3144"
       sodipodi:nodetypes="cccccc" />
    <path
       style="fill:none;fill-opacity:0.75;fill-rule:evenodd;stroke:#664600;stroke-width:0.75224584;stroke-linecap:round;stroke-linejoin:miter;stroke-miterlimit:4;stroke-dasharray:none;stroke-opacity:1"
       d="M 40.31933,5.278847 C 41.438351,4.332233 42.402912,4.0806971 42.945915,5.7261693 C 42.483432,6.6431877 43.975449,8.4287648 38.603726,7.3413867 C 34.853106,6.6176886 30.747631,6.5453187 25.274412,5.8216205 C 23.858197,7.0113467 24.554582,7.2354827 25.274412,7.8754431 C 26.589826,8.1162203 26.288907,7.9347653 26.446694,7.0179157"
       id="path3146"
       sodipodi:nodetypes="cccccc" />
    <path
       style="fill:none;fill-opacity:0.75;fill-rule:evenodd;stroke:#664600;stroke-width:0.75224584;stroke-linecap:round;stroke-linejoin:miter;stroke-miterlimit:4;stroke-dasharray:none;stroke-opacity:1"
       d="M 7.3981886,42.543526 C 6.2791664,43.49014 5.314606,43.741676 4.7716029,42.096204 C 5.2340853,41.179185 3.7420688,39.393608 9.113792,40.480987 C 12.864412,41.204685 16.969886,41.277054 22.443107,42.000753 C 23.859322,40.811026 23.162936,40.58689 22.443107,39.94693 C 21.127692,39.706154 21.428611,39.887607 21.270824,40.804458"
       id="path3148"
       sodipodi:nodetypes="cccccc" />
    <path
       style="fill:none;fill-opacity:0.75;fill-rule:evenodd;stroke:#664600;stroke-width:0.75224584;stroke-linecap:round;stroke-linejoin:miter;stroke-miterlimit:4;stroke-dasharray:none;stroke-opacity:1"
       d="M 40.417758,42.652081 C 41.53678,43.598695 42.50134,43.850231 43.044344,42.204758 C 42.58186,41.28774 44.073877,39.502164 38.702154,40.589541 C 34.951533,41.31324 30.846059,41.385609 25.37284,42.109307 C 23.956625,40.919582 24.65301,40.695446 25.37284,40.055485 C 26.688254,39.814708 26.387335,39.996162 26.545122,40.913012"
       id="path3150"
       sodipodi:nodetypes="cccccc" />
    <path
       style="fill:none;fill-opacity:0.75;fill-rule:evenodd;stroke:#664600;stroke-width:0.75224584;stroke-linecap:round;stroke-linejoin:miter;stroke-miterlimit:4;stroke-dasharray:none;stroke-opacity:1"
       d="M 6.0716756,30.130609 C 7.0182889,31.249631 6.9441608,32.322746 5.8414631,32.648641 C 4.9244442,32.186157 4.3329692,33.461064 4.7690187,28.415005 C 5.4927169,24.664386 5.5650873,20.558912 6.2887853,15.085693 C 5.0990591,13.669477 4.8749231,14.365863 4.2349629,15.085693 C 3.9941851,16.401106 4.1756408,16.100188 5.0924898,16.257975"
       id="path3152"
       sodipodi:nodetypes="cccccc" />
    <path
       style="fill:none;fill-opacity:0.75;fill-rule:evenodd;stroke:#664600;stroke-width:0.75224584;stroke-linecap:round;stroke-linejoin:miter;stroke-miterlimit:4;stroke-dasharray:none;stroke-opacity:1"
       d="M 41.110958,30.130609 C 40.164345,31.249631 40.238473,32.322746 41.34117,32.648641 C 42.258188,32.186157 42.849664,33.461064 42.413615,28.415005 C 41.689916,24.664386 41.617546,20.558912 40.893848,15.085693 C 42.083574,13.669477 42.30771,14.365863 42.947671,15.085693 C 43.188449,16.401106 43.006993,16.100188 42.090143,16.257975"
       id="path3154"
       sodipodi:nodetypes="cccccc" />
    <path
       style="fill:none;fill-opacity:0.75;fill-rule:evenodd;stroke:url(#linearGradient3164);stroke-width:1.07463706px;stroke-linecap:round;stroke-linejoin:round;stroke-opacity:1"
       d="M 5.808173,3.7218308 L 1.9765751,3.1163366 L 2.0851297,7.8754431 L 3.6588991,10.024717 L 3.6588991,37.965278 L 1.5096252,40.114552 L 1.5096252,45.009877"
       id="path3156"
       sodipodi:nodetypes="ccccccc" />
    <path
       style="fill:none;fill-opacity:0.75;fill-rule:evenodd;stroke:url(#linearGradient3174);stroke-width:1.07463706px;stroke-linecap:round;stroke-linejoin:round;stroke-opacity:1"
       d="M 40.214178,10.454029 L 40.105623,39.577233 L 13.292606,39.468679"
       id="path3166" />
  </g>
</svg>
