<?xml version="1.0" encoding="UTF-8" standalone="no"?>
<!-- Created with Sodipodi ("http://www.sodipodi.com/") -->
<svg
   xmlns:dc="http://purl.org/dc/elements/1.1/"
   xmlns:cc="http://creativecommons.org/ns#"
   xmlns:rdf="http://www.w3.org/1999/02/22-rdf-syntax-ns#"
   xmlns:svg="http://www.w3.org/2000/svg"
   xmlns="http://www.w3.org/2000/svg"
   xmlns:sodipodi="http://sodipodi.sourceforge.net/DTD/sodipodi-0.dtd"
   xmlns:inkscape="http://www.inkscape.org/namespaces/inkscape"
   id="svg601"
   sodipodi:version="0.32"
   width="48"
   height="48"
   sodipodi:docbase="/home/zeus/.icons/gartoon/scalable/stock-gar"
   sodipodi:docname="help-about.svg"
   inkscape:version="0.46"
   inkscape:output_extension="org.inkscape.output.svg.inkscape"
   version="1.0">
  <metadata
     id="metadata18">
    <rdf:RDF>
      <cc:Work
         rdf:about="">
        <dc:format>image/svg+xml</dc:format>
        <dc:type
           rdf:resource="http://purl.org/dc/dcmitype/StillImage" />
      </cc:Work>
    </rdf:RDF>
  </metadata>
  <defs
     id="defs603">
    <inkscape:perspective
       sodipodi:type="inkscape:persp3d"
       inkscape:vp_x="0 : 15 : 1"
       inkscape:vp_y="0 : 1000 : 0"
       inkscape:vp_z="30 : 15 : 1"
       inkscape:persp3d-origin="15 : 10 : 1"
       id="perspective20" />
  </defs>
  <sodipodi:namedview
     id="base"
     inkscape:zoom="9.6875"
     inkscape:cx="24"
     inkscape:cy="24"
     inkscape:window-width="1014"
     inkscape:window-height="725"
     inkscape:window-x="1"
     inkscape:window-y="51"
     inkscape:current-layer="svg601"
     showgrid="false" />
  <path
     style="font-size:12px;fill:#000000;fill-opacity:0.3;fill-rule:evenodd;stroke-width:1pt"
     d="M 38.830906,46.071373 L 25.03754,38.794971 L 11.389277,46.360506 L 13.856009,30.615012 L 2.6467916,19.600469 L 17.964688,17.145599 L 24.685248,2.7726525 L 31.685517,17.001008 L 47.048248,19.132564 L 36.056768,30.381061 L 38.830906,46.071373 z"
     id="path643" />
  <path
     style="font-size:12px;fill:#2d2300;fill-opacity:0.96078432;fill-rule:evenodd;stroke-width:1pt"
     d="M 37.638412,42.722443 L 24.257456,35.745265 L 11.017265,42.999688 L 13.410245,27.901685 L 2.5361731,17.340086 L 17.396077,14.986168 L 23.915698,1.2042705 L 30.706665,14.847522 L 45.610064,16.891424 L 34.947219,27.677354 L 37.638412,42.722443 z"
     id="path635" />
  <polygon
     sodipodi:type="star"
     style="font-size:12px;fill:#ffdd66;fill-opacity:1;fill-rule:evenodd;stroke-width:1pt"
     id="polygon609"
     sodipodi:sides="5"
     sodipodi:cx="17.385765"
     sodipodi:cy="20.45694"
     sodipodi:r1="39.259846"
     sodipodi:r2="19.629923"
     sodipodi:arg1="0.9102211"
     sodipodi:arg2="1.5385396"
     points="41.4745,51.4581 18.0189,40.0767 -4.65423,52.9465 -1.07805,27.1219 -20.3244,9.53549 5.34141,4.95638 16.1196,-18.7825 28.4058,4.21214 54.3134,7.12709 36.2409,25.9177 41.4745,51.4581 "
     transform="matrix(0.4700491,1.0523528e-2,-1.043519e-2,0.4779682,16.282421,14.045041)"
     inkscape:flatsided="false"
     inkscape:rounded="0"
     inkscape:randomized="0"
     d="M 41.474475,51.458061 L 18.018852,40.076651 L -4.6542332,52.946537 L -1.0780545,27.121866 L -20.324413,9.5354936 L 5.3414098,4.9563792 L 16.119592,-18.782483 L 28.405764,4.2121405 L 54.313405,7.1270889 L 36.240854,25.917662 L 41.474475,51.458061 z" />
  <path
     style="fill:#997700;fill-opacity:1;fill-rule:evenodd;stroke:none;stroke-width:1pt;stroke-linecap:butt;stroke-linejoin:miter;stroke-opacity:1"
     d="M 35.299553,39.336253 C 35.188908,38.664092 24.236743,23.876528 24.236743,23.876528 L 24.347335,33.510886 L 35.299553,39.336253 z"
     id="path629"
     sodipodi:nodetypes="cccc" />
  <path
     style="fill:#997700;fill-opacity:1;fill-rule:evenodd;stroke:none;stroke-width:1pt;stroke-linecap:butt;stroke-linejoin:miter;stroke-opacity:1"
     d="M 13.39517,39.560344 L 24.347335,24.100563 L 24.347389,33.398894 L 13.39517,39.560344 z"
     id="path630"
     sodipodi:nodetypes="cccc" />
  <path
     style="fill:#997700;fill-opacity:1;fill-rule:evenodd;stroke:none;stroke-width:1pt;stroke-linecap:butt;stroke-linejoin:miter;stroke-opacity:1"
     d="M 24.789864,24.212608 L 6.4256101,18.387186 L 15.607765,27.125347 L 24.789864,24.212608 z"
     id="path631"
     sodipodi:nodetypes="cccc" />
  <path
     style="fill:#997700;fill-opacity:1;fill-rule:evenodd;stroke:none;stroke-width:1pt;stroke-linecap:butt;stroke-linejoin:miter;stroke-opacity:1"
     d="M 24.236743,23.988573 L 41.715939,18.051105 L 33.308251,26.789265 L 24.236743,23.988573 z"
     id="path632"
     sodipodi:nodetypes="cccc" />
  <path
     style="fill:#997700;fill-opacity:1;fill-rule:evenodd;stroke:none;stroke-width:1pt;stroke-linecap:butt;stroke-linejoin:miter;stroke-opacity:1"
     d="M 24.015505,5.2800122 C 24.015505,5.5040698 24.015505,24.3246 24.236743,24.212608 L 29.546883,16.482746 L 24.015505,5.2800122 z"
     id="path633"
     sodipodi:nodetypes="cccc" />
  <path
     style="fill:#fff7dc;fill-opacity:1;fill-rule:evenodd;stroke:none;stroke-width:1pt;stroke-linecap:butt;stroke-linejoin:miter;stroke-opacity:1"
     d="M 24.015452,5.5040698 L 24.126098,23.988573 L 21.692264,20.963844 L 24.015452,5.5040698 z"
     id="path636" />
  <path
     style="fill:#fff7dc;fill-opacity:1;fill-rule:evenodd;stroke:none;stroke-width:1pt;stroke-linecap:butt;stroke-linejoin:miter;stroke-opacity:1"
     d="M 23.904859,23.652492 L 6.4256101,18.611276 L 21.581673,21.299925 L 23.904859,23.652492 z"
     id="path637" />
  <path
     style="fill:#fff7dc;fill-opacity:1;fill-rule:evenodd;stroke:none;stroke-width:1pt;stroke-linecap:butt;stroke-linejoin:miter;stroke-opacity:1"
     d="M 24.126098,24.548689 L 13.727053,39.336307 L 21.02855,25.444941 L 24.126098,24.548689 z"
     id="path638"
     sodipodi:nodetypes="cccc" />
  <path
     style="fill:#fff7dc;fill-opacity:1;fill-rule:evenodd;stroke:none;stroke-width:1pt;stroke-linecap:butt;stroke-linejoin:miter;stroke-opacity:1"
     d="M 39.248875,18.672601 L 24.918092,23.831215 C 24.918092,23.831215 25.804364,21.541277 25.913695,21.5244 C 26.023076,21.507513 39.374871,18.766436 39.248875,18.672601 z"
     id="path639" />
  <path
     style="fill:#fff7dc;fill-opacity:1;fill-rule:evenodd;stroke:none;stroke-width:1pt;stroke-linecap:butt;stroke-linejoin:miter;stroke-opacity:1"
     d="M 24.679219,24.324654 L 35.078315,38.776137 L 33.640135,30.486157 L 33.418842,34.295038 L 24.679219,24.324654 z"
     id="path640" />
  <path
     style="fill:#483801;fill-opacity:0.96078432;fill-rule:evenodd;stroke:none;stroke-width:1pt;stroke-linecap:butt;stroke-linejoin:miter;stroke-opacity:1"
     d="M 13.948292,39.112218 C 13.948292,39.448297 19.700962,33.398841 23.351684,29.813994 L 24.236743,24.436644 L 13.948292,39.112218 z"
     id="path641"
     sodipodi:nodetypes="cccc" />
</svg>
