<?xml version="1.0" encoding="UTF-8" standalone="no"?>
<!-- Created with Inkscape (http://www.inkscape.org/) -->
<svg
   xmlns:dc="http://purl.org/dc/elements/1.1/"
   xmlns:cc="http://web.resource.org/cc/"
   xmlns:rdf="http://www.w3.org/1999/02/22-rdf-syntax-ns#"
   xmlns:svg="http://www.w3.org/2000/svg"
   xmlns="http://www.w3.org/2000/svg"
   xmlns:sodipodi="http://sodipodi.sourceforge.net/DTD/sodipodi-0.dtd"
   xmlns:inkscape="http://www.inkscape.org/namespaces/inkscape"
   width="90"
   height="90"
   id="svg2"
   sodipodi:version="0.32"
   inkscape:version="0.45.1"
   version="1.0"
   sodipodi:docbase="/home/tim/pix/icons/baroque/scalable/apps"
   sodipodi:docname="multimedia-volume-control.svg"
   inkscape:output_extension="org.inkscape.output.svg.inkscape">
  <defs
     id="defs4" />
  <sodipodi:namedview
     id="base"
     pagecolor="#ffffff"
     bordercolor="#666666"
     borderopacity="1.0"
     gridtolerance="10000"
     guidetolerance="10"
     objecttolerance="10"
     inkscape:pageopacity="0.0"
     inkscape:pageshadow="2"
     inkscape:zoom="7.1888889"
     inkscape:cx="45"
     inkscape:cy="44.097115"
     inkscape:document-units="px"
     inkscape:current-layer="layer1"
     width="90px"
     height="90px"
     inkscape:window-width="909"
     inkscape:window-height="860"
     inkscape:window-x="324"
     inkscape:window-y="71" />
  <metadata
     id="metadata7">
    <rdf:RDF>
      <cc:Work
         rdf:about="">
        <dc:format>image/svg+xml</dc:format>
        <dc:type
           rdf:resource="http://purl.org/dc/dcmitype/StillImage" />
      </cc:Work>
    </rdf:RDF>
  </metadata>
  <g
     inkscape:label="Layer 1"
     inkscape:groupmode="layer"
     id="layer1">
    <path
       style="fill:#505050;fill-opacity:1;stroke:#000000;stroke-opacity:1;stroke-width:2;stroke-miterlimit:4;stroke-dasharray:none"
       d="M 13.144802,70.287976 C 13.144802,58.537907 12.947203,57.538779 10.496412,56.896797 C 8.3031499,56.322275 7.9174364,55.358203 8.2519425,51.286866 C 8.5683323,47.436026 9.2380291,46.287382 11.342344,45.986298 C 13.94323,45.614165 14.009226,45.092258 13.413659,29.606022 L 12.798492,13.610124 L 16.178032,13.610124 L 19.557572,13.610124 L 19.557572,29.51938 C 19.557572,44.348173 19.731779,45.474267 22.12268,46.100562 C 24.102725,46.619233 24.687788,47.852951 24.687788,51.509587 C 24.687788,55.166224 24.102725,56.399942 22.12268,56.918613 C 19.775845,57.533364 19.557572,58.671002 19.557572,70.287976 C 19.557572,82.975424 19.555049,82.985413 16.351187,82.985413 C 13.147324,82.985413 13.144802,82.975424 13.144802,70.287976 z "
       id="path2260" />
    <path
       style="fill:#505050;fill-opacity:1;stroke:#000000;stroke-opacity:1;stroke-width:2;stroke-miterlimit:4;stroke-dasharray:none"
       d="M 32.645274,61.190629 C 33.009917,40.227861 32.926466,39.381844 30.459281,39.029078 C 28.382716,38.732165 27.894173,37.683572 27.894173,33.523401 C 27.894173,29.227576 28.351115,28.319304 30.679405,27.987149 C 33.253126,27.619982 33.409944,27.059 32.744441,20.599966 C 32.035532,13.719656 32.077303,13.610124 35.410064,13.610124 C 38.650159,13.610124 38.795882,13.907791 38.795882,20.526287 C 38.795882,26.361987 39.19661,27.547419 41.36099,28.114376 C 43.341036,28.633047 43.926098,29.866765 43.926098,33.523401 C 43.926098,37.180038 43.341036,38.413755 41.36099,38.932427 C 38.923657,39.570884 38.795882,40.684816 38.795882,61.294883 L 38.795882,82.985413 L 35.53102,82.985413 L 32.266159,82.985413 L 32.645274,61.190629 z "
       id="path2256" />
    <path
       style="fill:#505050;fill-opacity:1;stroke:#000000;stroke-opacity:1;stroke-width:2;stroke-miterlimit:4;stroke-dasharray:none"
       d="M 51.844399,72.751741 C 52.229428,63.332063 52.058668,62.489011 49.697592,62.152738 C 47.620786,61.856954 47.132484,60.809146 47.132484,56.648498 C 47.132484,52.477978 47.61894,51.439752 49.713931,51.138995 C 52.190456,50.783466 52.275887,50.013245 51.815778,32.189263 L 51.336175,13.610124 L 54.685184,13.610124 L 58.034193,13.610124 L 58.034193,32.088835 C 58.034193,49.487083 58.184176,50.606833 60.599301,51.239472 C 62.579346,51.758144 63.164409,52.991861 63.164409,56.648498 C 63.164409,60.305134 62.579346,61.538852 60.599301,62.057523 C 58.307841,62.657769 58.034193,63.809912 58.034193,72.857432 C 58.034193,82.883958 58.001095,82.985413 54.730145,82.985413 L 51.426097,82.985413 L 51.844399,72.751741 z "
       id="path2252" />
    <path
       style="fill:#505050;fill-opacity:1;stroke:#000000;stroke-opacity:1;stroke-width:2;stroke-miterlimit:4;stroke-dasharray:none"
       d="M 71.079045,73.394121 C 71.465276,64.615079 71.28378,63.77189 68.935902,63.437483 C 66.978226,63.158652 66.276356,61.928325 65.971994,58.241971 C 65.639133,54.210448 66.051695,53.234497 68.467153,52.339447 C 71.313744,51.284639 71.355268,50.958897 71.004049,32.438606 L 70.646983,13.610124 L 73.959743,13.610124 L 77.272503,13.610124 L 77.272503,32.731199 C 77.272503,50.771811 77.417449,51.890241 79.837611,52.5242 C 81.817657,53.042871 82.402719,54.276589 82.402719,57.933225 C 82.402719,61.589862 81.817657,62.823579 79.837611,63.342251 C 77.564682,63.937643 77.272503,65.09464 77.272503,73.499795 C 77.272503,82.83879 77.221374,82.985413 73.964791,82.985413 C 70.667236,82.985413 70.658375,82.955961 71.079045,73.394121 z "
       id="path2248" />
    <path
       style="fill:#660000;fill-opacity:1;stroke:#000000;stroke-width:1.31974435;stroke-miterlimit:4;stroke-dasharray:none;stroke-opacity:1"
       d="M 67.843659,63.087463 C 65.279381,61.383665 65.810139,52.772003 68.52385,52.05123 C 70.548998,51.513344 77.092213,51.686476 80.43125,52.366298 C 80.942171,52.47032 81.360198,54.865527 81.360198,57.688977 C 81.360198,60.512428 80.942171,62.889487 80.43125,62.971328 C 75.013607,63.839156 69.057686,63.894106 67.843659,63.087463 z "
       id="path6165" />
    <path
       style="fill:#660000;fill-opacity:1;stroke:#000000;stroke-opacity:1;stroke-width:2;stroke-miterlimit:4;stroke-dasharray:none"
       d="M 31.734536,9.9627511 C 29.656706,7.8813994 31.535911,5.9017585 35.589497,5.9017585 C 41.252329,5.9017585 41.761308,9.216898 36.223475,10.031057 C 34.103247,10.342767 32.083224,10.31203 31.734536,9.9627511 z "
       id="path2244" />
    <path
       style="fill:#660000;fill-opacity:1;stroke:#000000;stroke-opacity:1;stroke-width:2;stroke-miterlimit:4;stroke-dasharray:none"
       d="M 54.507169,10.111302 C 48.632168,9.3809857 48.897178,5.9017585 54.827808,5.9017585 C 58.46171,5.9017585 59.316747,6.3911785 59.316747,8.4712136 C 59.316747,9.8844139 59.17246,10.948147 58.996108,10.835065 C 58.819757,10.721982 56.799735,10.396289 54.507169,10.111302 z "
       id="path2242" />
    <path
       style="fill:#660000;fill-opacity:1;stroke:#000000;stroke-opacity:1;stroke-width:2;stroke-miterlimit:4;stroke-dasharray:none"
       d="M 11.862248,7.8288498 C 11.862248,6.4829448 13.216055,5.9017585 16.351187,5.9017585 C 19.486318,5.9017585 20.840126,6.4829448 20.840126,7.8288498 C 20.840126,9.1747548 19.486318,9.7559412 16.351187,9.7559412 C 13.216055,9.7559412 11.862248,9.1747548 11.862248,7.8288498 z "
       id="path2240" />
    <path
       style="fill:#660000;fill-opacity:1;stroke:#000000;stroke-opacity:1;stroke-width:2;stroke-miterlimit:4;stroke-dasharray:none"
       d="M 69.577179,7.8288498 C 69.577179,6.4829448 70.930987,5.9017585 74.066118,5.9017585 C 77.20125,5.9017585 78.555057,6.4829448 78.555057,7.8288498 C 78.555057,9.1747548 77.20125,9.7559412 74.066118,9.7559412 C 70.930987,9.7559412 69.577179,9.1747548 69.577179,7.8288498 z "
       id="path2236" />
    <path
       style="fill:#ff0000;fill-opacity:1"
       d="M 67.620741,62.383628 C 65.319493,60.891248 65.795809,53.348171 68.231162,52.716836 C 70.048581,52.245693 75.920629,52.397343 78.917166,52.992809 C 79.37568,53.083923 79.750827,55.181918 79.750827,57.655018 C 79.750827,60.128119 79.37568,62.210218 78.917166,62.281904 C 74.055235,63.042047 68.71024,63.090178 67.620741,62.383628 z "
       id="path6155" />
    <path
       style="fill:#660000;fill-opacity:1;stroke:#000000;stroke-width:1.35664368;stroke-miterlimit:4;stroke-dasharray:none;stroke-opacity:1"
       d="M 48.612306,61.895633 C 46.464097,60.570555 46.524393,52.362165 48.692441,50.986548 C 49.629346,50.392088 52.428514,49.905711 54.912816,49.905711 C 57.397115,49.905711 60.178091,50.392088 61.092755,50.986548 C 62.894177,52.15733 63.651047,61.534317 61.963888,61.779149 C 55.921987,62.655908 49.92962,62.708188 48.612306,61.895633 z "
       id="path6167" />
    <path
       style="fill:#ff0000;fill-opacity:1"
       d="M 48.347987,61.0989 C 46.518068,59.941738 46.56943,52.773531 48.416249,51.572235 C 49.214337,51.053105 51.598766,50.628363 53.71498,50.628363 C 55.831194,50.628363 58.200124,51.053105 58.979268,51.572235 C 60.513781,52.594654 61.158509,60.783372 59.72133,60.997177 C 54.574627,61.762832 49.47012,61.808487 48.347987,61.0989 z "
       id="path6153" />
    <path
       style="fill:#660000;fill-opacity:1;stroke:#000000;stroke-width:1.34290814;stroke-miterlimit:4;stroke-dasharray:none;stroke-opacity:1"
       d="M 10.115,57.187357 C 7.6016255,55.387498 8.1218485,46.290293 10.78169,45.528882 C 12.766636,44.960668 19.179962,45.143561 22.452715,45.861714 C 22.953494,45.971601 23.363219,48.501853 23.363219,51.484496 C 23.363219,54.467136 22.953494,56.97822 22.452715,57.064675 C 17.142617,57.981432 11.304928,58.039481 10.115,57.187357 z "
       id="path6169" />
    <path
       style="fill:#ff0000;fill-opacity:1"
       d="M 9.9058086,55.95999 C 7.6045606,54.467611 8.0808775,46.924533 10.516231,46.293199 C 12.33365,45.822056 18.205698,45.973705 21.202235,46.569171 C 21.660748,46.660285 22.035895,48.75828 22.035895,51.23138 C 22.035895,53.704481 21.660748,55.78658 21.202235,55.858266 C 16.340304,56.618409 10.995309,56.66654 9.9058086,55.95999 z "
       id="path6151" />
    <path
       style="fill:#660000;fill-opacity:1;stroke:#000000;stroke-width:1.31560826;stroke-miterlimit:4;stroke-dasharray:none;stroke-opacity:1"
       d="M 29.942856,39.020376 C 27.424871,37.296114 27.946047,28.58101 30.610768,27.851579 C 32.599357,27.307233 39.024447,27.482444 42.303206,28.170433 C 42.804903,28.275703 43.215382,30.699681 43.215382,33.557044 C 43.215382,36.414412 42.804903,38.820022 42.303206,38.902846 C 36.983365,39.781098 31.134968,39.836709 29.942856,39.020376 z "
       id="path6171" />
    <path
       style="fill:#ff0000;fill-opacity:1"
       d="M 29.14412,37.973804 C 26.842872,36.481424 27.319188,28.938347 29.754541,28.307012 C 31.57196,27.835869 37.444008,27.987519 40.440546,28.582985 C 40.899059,28.674099 41.274206,30.772094 41.274206,33.245194 C 41.274206,35.718295 40.899059,37.800394 40.440546,37.87208 C 35.578614,38.632223 30.233619,38.680354 29.14412,37.973804 z "
       id="path6149" />
    <path
       style="fill:#ff0000;fill-opacity:1"
       d="M 12.352612,7.8718246 C 12.646531,6.9885744 13.945117,6.2659151 15.238359,6.2659151 C 16.5316,6.2659151 17.830186,6.9885744 18.124105,7.8718246 C 18.462557,8.8889007 17.40445,9.4777341 15.238359,9.4777341 C 13.072268,9.4777341 12.01416,8.8889007 12.352612,7.8718246 z "
       id="path6147" />
    <path
       style="fill:#ff0000;fill-opacity:1"
       d="M 31.590923,7.8718246 C 31.884842,6.9885744 33.183428,6.2659151 34.476669,6.2659151 C 35.769911,6.2659151 37.068497,6.9885744 37.362416,7.8718246 C 37.700868,8.8889007 36.642761,9.4777341 34.476669,9.4777341 C 32.310578,9.4777341 31.252471,8.8889007 31.590923,7.8718246 z "
       id="path6145" />
    <path
       style="fill:#ff0000;fill-opacity:1"
       d="M 50.829233,7.8718246 C 51.123152,6.9885744 52.421738,6.2659151 53.71498,6.2659151 C 55.008221,6.2659151 56.306807,6.9885744 56.600726,7.8718246 C 56.939178,8.8889007 55.881071,9.4777341 53.71498,9.4777341 C 51.548888,9.4777341 50.490781,8.8889007 50.829233,7.8718246 z "
       id="path6143" />
    <path
       style="fill:#ff0000;fill-opacity:1"
       d="M 70.442954,8.281779 C 70.037114,7.6240038 70.319265,6.7055831 71.069956,6.2408443 C 72.813202,5.161633 76.159675,6.4186621 76.159675,8.1526856 C 76.159675,9.8033199 71.447382,9.9097319 70.442954,8.281779 z "
       id="path3232" />
    <path
       style="fill:#ffffff;fill-opacity:1;stroke:#000000;stroke-width:0.63814795;stroke-miterlimit:4;stroke-dasharray:none;stroke-opacity:1"
       d="M 21.927567,50.593414 C 18.997934,49.720854 13.733893,49.703291 10.229701,50.55439 C 6.7255067,51.405495 9.1224774,52.11941 15.556306,52.140873 C 21.990131,52.162339 24.857199,51.46598 21.927567,50.593414 z "
       id="path2258" />
    <path
       style="fill:#ffffff;fill-opacity:1;stroke:#000000;stroke-width:0.64077181;stroke-miterlimit:4;stroke-dasharray:none;stroke-opacity:1"
       d="M 41.153717,32.46865 C 38.196435,31.597118 32.882711,31.579579 29.345445,32.429671 C 25.808177,33.279765 28.227773,33.992834 34.722323,34.014273 C 41.216873,34.03571 44.110998,33.340179 41.153717,32.46865 z "
       id="path2254" />
    <path
       style="fill:#ffffff;fill-opacity:1;stroke:#000000;stroke-width:0.65783161;stroke-miterlimit:4;stroke-dasharray:none;stroke-opacity:1"
       d="M 60.66306,55.360785 C 57.709234,54.441158 52.401722,54.422645 48.868588,55.319656 C 45.335458,56.216662 47.752225,56.969085 54.239185,56.991709 C 60.726144,57.014333 63.616885,56.280416 60.66306,55.360785 z "
       id="path2250" />
    <path
       style="fill:#ffffff;fill-opacity:1;stroke:#000000;stroke-width:0.6283164;stroke-miterlimit:4;stroke-dasharray:none;stroke-opacity:1"
       d="M 79.89167,56.973249 C 76.875499,56.151631 71.455967,56.135097 67.848264,56.936501 C 64.240561,57.737908 66.708338,58.410141 73.33221,58.430353 C 79.956085,58.450562 82.90784,57.794864 79.89167,56.973249 z "
       id="path2246" />
  </g>
</svg>
