<?xml version="1.0" encoding="UTF-8" standalone="no"?>
<!-- Created with Inkscape (http://www.inkscape.org/) -->
<svg
   xmlns:dc="http://purl.org/dc/elements/1.1/"
   xmlns:cc="http://creativecommons.org/ns#"
   xmlns:rdf="http://www.w3.org/1999/02/22-rdf-syntax-ns#"
   xmlns:svg="http://www.w3.org/2000/svg"
   xmlns="http://www.w3.org/2000/svg"
   xmlns:sodipodi="http://sodipodi.sourceforge.net/DTD/sodipodi-0.dtd"
   xmlns:inkscape="http://www.inkscape.org/namespaces/inkscape"
   id="svg2"
   sodipodi:version="0.32"
   inkscape:version="0.46"
   width="48"
   height="48"
   version="1.0"
   sodipodi:docname="phone.svg"
   style="display:inline"
   inkscape:output_extension="org.inkscape.output.svg.inkscape">
  <metadata
     id="metadata7">
    <rdf:RDF>
      <cc:Work
         rdf:about="">
        <dc:format>image/svg+xml</dc:format>
        <dc:type
           rdf:resource="http://purl.org/dc/dcmitype/StillImage" />
      </cc:Work>
    </rdf:RDF>
  </metadata>
  <defs
     id="defs5">
    <inkscape:perspective
       sodipodi:type="inkscape:persp3d"
       inkscape:vp_x="0 : 526.18109 : 1"
       inkscape:vp_y="0 : 1000 : 0"
       inkscape:vp_z="744.09448 : 526.18109 : 1"
       inkscape:persp3d-origin="372.04724 : 350.78739 : 1"
       id="perspective9" />
  </defs>
  <sodipodi:namedview
     inkscape:window-height="686"
     inkscape:window-width="736"
     inkscape:pageshadow="2"
     inkscape:pageopacity="0.0"
     guidetolerance="10.0"
     gridtolerance="10.0"
     objecttolerance="10.0"
     borderopacity="1.0"
     bordercolor="#666666"
     pagecolor="#ffffff"
     id="base"
     showgrid="false"
     inkscape:zoom="9.7083333"
     inkscape:cx="24"
     inkscape:cy="24"
     inkscape:window-x="0"
     inkscape:window-y="27"
     inkscape:current-layer="layer2" />
  <g
     inkscape:groupmode="layer"
     id="layer1"
     inkscape:label="colours"
     style="display:inline" />
  <g
     inkscape:groupmode="layer"
     id="layer2"
     inkscape:label="outline"
     style="display:inline">
    <g
       id="g3211"
       transform="matrix(0.375,0,0,0.375,2.6143392,0.1049394)">
      <g
         id="g2385"
         style="display:inline">
        <path
           id="path2399"
           d="M 71.955318,126.25335 C 76.055742,126.06126 79.993242,125.42057 80.705318,124.8296 C 81.598125,124.08864 82,124.08193 82,124.808 C 82,125.3871 83.0125,126.05591 84.25,126.29427 C 85.4875,126.53262 81.55,126.6995 75.5,126.66512 C 67.568413,126.62004 66.579635,126.50518 71.955318,126.25335 z M 61.296893,123.11076 C 57.335184,122.77484 53.532684,121.9375 52.846893,121.25 C 51.850959,120.25158 51.863055,120 52.906989,120 C 53.657914,120 53.969085,119.36182 53.638374,118.5 C 53.157653,117.24726 54.335115,116.99748 60.781385,116.98469 C 69.209886,116.96797 70.5,116.50539 70.5,113.5 C 70.5,112.22168 71.121851,111.54851 72.223341,111.63445 C 73.611149,111.74271 73.750323,111.40199 72.938157,109.88445 C 71.557557,107.30477 73.200817,107.49066 74.829367,110.09838 C 76.005539,111.98173 75.808603,112.49248 72.907573,115.08252 C 71.129833,116.66968 68.735871,118.30878 67.587659,118.72496 C 66.050295,119.28219 66.949768,119.61586 71,119.99082 C 74.995921,120.36076 76.5,120.9102 76.5,122 C 76.5,123.749 72.376814,124.05025 61.296893,123.11076 z M 50.824504,108.32582 C 51.251232,106.23286 51.502694,105.9814 51.794107,107.35622 C 52.010506,108.37714 51.751239,109.64876 51.217958,110.18204 C 50.591821,110.80818 50.452446,110.15064 50.824504,108.32582 z M 85.252183,93.5 C 85.241084,91.3 85.436788,90.282253 85.68708,91.238341 C 85.937373,92.194428 85.946454,93.994428 85.707261,95.238341 C 85.468068,96.482253 85.263283,95.7 85.252183,93.5 z M 70.80312,92.439295 C 70.574489,90.480908 70.750256,88.65435 71.193714,88.380278 C 71.637171,88.106207 72,89.708524 72,91.940983 C 72,96.951371 71.360941,97.217439 70.80312,92.439295 z M 76.157895,93 C 76.157895,91.625 76.384868,91.0625 76.662281,91.75 C 76.939693,92.4375 76.939693,93.5625 76.662281,94.25 C 76.384868,94.9375 76.157895,94.375 76.157895,93 z M 51.26375,93.282419 C 52.783812,93.052564 55.033812,93.058707 56.26375,93.296069 C 57.493687,93.533431 56.25,93.721493 53.5,93.713986 C 50.75,93.706478 49.743687,93.512273 51.26375,93.282419 z M 53.92569,89.25 C 53.884819,88.8375 53.587704,87.375 53.265433,86 C 51.833174,79.88913 52.455783,73.099773 54.649612,70.905943 L 56.799225,68.756331 L 58.009682,71.018091 C 59.622469,74.03161 58.844669,84.859932 56.930442,86.042989 C 56.143699,86.529223 55.6125,87.168465 55.75,87.463525 C 55.8875,87.758586 56,88.45 56,89 C 56,90.148677 54.038158,90.385122 53.92569,89.25 z M 76.420187,69.5 C 76.419303,58.5 76.565406,53.863563 76.74486,59.196806 C 76.924314,64.53005 76.925038,73.53005 76.746468,79.196806 C 76.567898,84.863563 76.421071,80.5 76.420187,69.5 z M 71.41858,67 C 71.41858,56.275 71.565695,51.8875 71.745502,57.25 C 71.925309,62.6125 71.925309,71.3875 71.745502,76.75 C 71.565695,82.1125 71.41858,77.725 71.41858,67 z M 63.194949,54.5 C 63.174569,52.85 63.382014,52.053936 63.655937,52.730968 C 63.92986,53.408001 63.946534,54.758001 63.692991,55.730968 C 63.439447,56.703936 63.215328,56.15 63.194949,54.5 z M 69.900024,42.366679 C 71.686556,41.500443 71.193872,37.197312 69.25,36.689326 C 67.968354,36.354396 68.119127,36.200957 69.813358,36.116001 C 71.830041,36.014877 72.08653,36.406919 71.813358,39.172988 C 71.641011,40.918132 70.892511,42.470637 70.150024,42.623 C 69.407538,42.775364 69.295038,42.660019 69.900024,42.366679 z M 80,30.616631 C 80,30.405779 80.900621,29.997745 82.00138,29.70989 C 83.102139,29.422035 83.750581,29.594551 83.442363,30.093259 C 82.904112,30.964167 80,31.405705 80,30.616631 z M 84.670131,25.582759 C 84.371016,24.803276 84.721937,23.936944 85.449957,23.657577 C 86.353623,23.310808 86.613884,23.760504 86.270184,25.074818 C 85.669318,27.372532 85.390854,27.460931 84.670131,25.582759 z M 54.531009,22.050173 C 53.807294,20.879178 57.136175,19 59.934259,19 C 62.26161,19 62.577699,20.022301 60.8,21.8 C 59.368951,23.231049 55.359712,23.391043 54.531009,22.050173 z M 64,19 C 64,18.45 64.45,18 65,18 C 65.55,18 66,18.45 66,19 C 66,19.55 65.55,20 65,20 C 64.45,20 64,19.55 64,19 z M 51.194949,16.5 C 51.174569,14.85 51.382014,14.053936 51.655937,14.730968 C 51.92986,15.408001 51.946534,16.758001 51.692991,17.730968 C 51.439447,18.703936 51.215328,18.15 51.194949,16.5 z M 68.805426,17.321349 C 67.862452,17.072804 67.344742,16.265192 67.638185,15.500492 C 67.928218,14.744678 68.855206,14.390943 69.698158,14.714414 C 70.899497,15.175411 71.099767,14.783474 70.62463,12.901272 C 70.291238,11.580572 70.276808,11.0625 70.592564,11.75 C 70.908321,12.4375 72.479167,13 74.083333,13 C 76.273127,13 77,13.469361 77,14.883369 C 77,17.377978 73.251453,18.493214 68.805426,17.321349 z M 84.666667,16.333333 C 84.3,15.966667 84,14.841667 84,13.833333 C 84,11.85307 82.508819,11.367697 81.489919,13.016312 C 80.783974,14.158555 79,13.388104 79,11.940983 C 79,11.423442 79.857871,11 80.90638,11 C 82.320431,11 82.677691,10.483493 82.289749,9 C 81.361542,5.4505319 83.474587,6.8762499 85.2641,11.00686 C 86.218845,13.210633 87,15.460633 87,16.00686 C 87,17.138986 85.659832,17.326498 84.666667,16.333333 z M 56.298369,10.095605 L 54.096737,8.257748 L 56.768108,5.878874 C 58.237361,4.5704933 58.818943,4.3074447 58.060511,5.2943216 C 56.852302,6.8664503 56.948923,7.2759231 58.840772,8.6010255 C 60.028347,9.4328359 61,10.537891 61,11.056704 C 61,12.562675 58.687463,12.08995 56.298369,10.095605 z"
           style="fill:#e3da9a" />
        <path
           id="path2397"
           d="M 17.75,126.33772 C 18.4375,126.06031 19.5625,126.06031 20.25,126.33772 C 20.9375,126.61513 20.375,126.84211 19,126.84211 C 17.625,126.84211 17.0625,126.61513 17.75,126.33772 z M 24.75,126.33772 C 25.4375,126.06031 26.5625,126.06031 27.25,126.33772 C 27.9375,126.61513 27.375,126.84211 26,126.84211 C 24.625,126.84211 24.0625,126.61513 24.75,126.33772 z M 57.26375,125.28242 C 58.783812,125.05256 61.033812,125.05871 62.26375,125.29607 C 63.493687,125.53343 62.25,125.72149 59.5,125.71399 C 56.75,125.70648 55.743687,125.51227 57.26375,125.28242 z M 88.26375,125.28242 C 89.783812,125.05256 92.033812,125.05871 93.26375,125.29607 C 94.493687,125.53343 93.25,125.72149 90.5,125.71399 C 87.75,125.70648 86.743687,125.51227 88.26375,125.28242 z M 11.2,123.8 C 10.54,123.14 10.052201,121.6775 10.116001,120.55 C 10.22965,118.54157 10.241971,118.54055 10.72361,120.5 C 10.993994,121.6 11.671893,123.0625 12.230053,123.75 C 13.524594,125.34452 12.780633,125.38063 11.2,123.8 z M 20.26375,124.28242 C 21.783812,124.05256 24.033812,124.05871 25.26375,124.29607 C 26.493687,124.53343 25.25,124.72149 22.5,124.71399 C 19.75,124.70648 18.743687,124.51227 20.26375,124.28242 z M 49.473008,124.04367 C 49.798081,123.51769 50.724639,123.34084 51.532025,123.65066 C 53.599138,124.44389 53.355548,125 50.940983,125 C 49.808524,125 49.147935,124.56965 49.473008,124.04367 z M 97,124.33242 C 97.825,123.98465 98.871759,123.20509 99.326131,122.60006 C 99.857485,121.89252 100.00633,122.03522 99.743265,123 C 99.518316,123.825 98.471557,124.60456 97.417134,124.73237 C 96.07009,124.89563 95.946049,124.7767 97,124.33242 z M 41,117.30782 C 42.375,117.02762 43.871759,116.28124 44.326131,115.64918 C 44.87837,114.881 45.01857,114.9973 44.749012,116 C 44.521521,116.84621 43.071804,117.56914 41.422881,117.65863 C 38.905709,117.79524 38.847011,117.74655 41,117.30782 z M 70,106 C 70.825,105.46684 71.95,105.03063 72.5,105.03063 C 73.05,105.03063 72.825,105.46684 72,106 C 71.175,106.53316 70.05,106.96937 69.5,106.96937 C 68.95,106.96937 69.175,106.53316 70,106 z M 53.5,103 C 54.495486,101.9 55.534975,101 55.809975,101 C 56.084975,101 55.495486,101.9 54.5,103 C 53.504514,104.1 52.465025,105 52.190025,105 C 51.915025,105 52.504514,104.1 53.5,103 z M 59.25,93.310674 C 60.2125,93.059147 61.7875,93.059147 62.75,93.310674 C 63.7125,93.562202 62.925,93.767997 61,93.767997 C 59.075,93.767997 58.2875,93.562202 59.25,93.310674 z M 85.436742,64 C 85.436742,49.425 85.576537,43.4625 85.747396,50.75 C 85.918256,58.0375 85.918256,69.9625 85.747396,77.25 C 85.576537,84.5375 85.436742,78.575 85.436742,64 z M 37.194949,85.5 C 37.174569,83.85 37.382014,83.053936 37.655937,83.730968 C 37.92986,84.408001 37.946534,85.758001 37.692991,86.730968 C 37.439447,87.703936 37.215328,87.15 37.194949,85.5 z M 63.232003,60 C 63.232003,58.075 63.437798,57.2875 63.689326,58.25 C 63.940853,59.2125 63.940853,60.7875 63.689326,61.75 C 63.437798,62.7125 63.232003,61.925 63.232003,60 z M 50.272364,54 C 50.272364,51.525 50.46738,50.5125 50.705733,51.75 C 50.944086,52.9875 50.944086,55.0125 50.705733,56.25 C 50.46738,57.4875 50.272364,56.475 50.272364,54 z M 66.761659,47.292739 C 68.005572,47.053546 69.805572,47.062627 70.761659,47.31292 C 71.717747,47.563212 70.7,47.758916 68.5,47.747817 C 66.3,47.736717 65.517747,47.531932 66.761659,47.292739 z M 55.333333,34.333333 C 55.333333,33.6 55.428233,33 55.544222,33 C 55.660211,33 56.253066,33.6 56.861679,34.333333 C 57.688586,35.329696 57.635289,35.666667 56.65079,35.666667 C 55.926189,35.666667 55.333333,35.066667 55.333333,34.333333 z M 46.75,33.337719 C 47.4375,33.060307 48.5625,33.060307 49.25,33.337719 C 49.9375,33.615132 49.375,33.842105 48,33.842105 C 46.625,33.842105 46.0625,33.615132 46.75,33.337719 z M 45.75,31.337719 C 46.4375,31.060307 47.5625,31.060307 48.25,31.337719 C 48.9375,31.615132 48.375,31.842105 47,31.842105 C 45.625,31.842105 45.0625,31.615132 45.75,31.337719 z M 67.730968,0.34406326 C 68.408001,0.07014016 69.758001,0.053465868 70.730968,0.30700928 C 71.703936,0.56055269 71.15,0.78467159 69.5,0.80505128 C 67.85,0.82543097 67.053936,0.61798636 67.730968,0.34406326 z"
           style="fill:#a7a69d" />
        <path
           id="path2395"
           d="M 48.825362,122.71043 C 49.650804,121.71583 49.305753,120.73085 47.419133,118.69621 L 44.919062,116 L 49.709531,116.07895 C 52.344289,116.12237 53.918718,116.39113 53.208262,116.67619 C 52.216337,117.07419 52.186731,117.52007 53.080707,118.59725 C 53.983164,119.68464 53.936344,120.00715 52.872445,120.0318 C 51.953927,120.05309 52.142016,120.5492 53.44113,121.5318 C 54.859809,122.60484 54.994383,123.02 53.94113,123.07431 C 53.148508,123.11518 51.427092,123.34658 50.11576,123.58852 C 48.231963,123.93609 47.961114,123.75178 48.825362,122.71043 z M 58.75,123.2766 C 60.5375,123.05478 63.4625,123.05478 65.25,123.2766 C 67.0375,123.49843 65.575,123.67993 62,123.67993 C 58.425,123.67993 56.9625,123.49843 58.75,123.2766 z M 76.428571,122 C 76.428571,120.2245 76.853878,120.02617 79.464286,120.58443 C 81.133929,120.94149 82.6875,121.40606 82.916667,121.61682 C 83.60054,122.24573 82.671794,122.72963 79.464286,123.41557 C 76.853878,123.97383 76.428571,123.7755 76.428571,122 z M 95.5,120 C 95.839919,119.45 96.568034,119 97.118034,119 C 97.668034,119 97.839919,119.45 97.5,120 C 97.160081,120.55 96.431966,121 95.881966,121 C 95.331966,121 95.160081,120.55 95.5,120 z M 68.210747,118.44859 C 69.701658,117.63936 72.090663,115.89371 73.519646,114.56937 C 75.809362,112.44734 75.963536,111.91447 74.818352,110.08074 C 73.239027,107.55184 71.810483,107.32682 72.718616,109.75 C 73.307183,111.32048 73.190292,111.35001 71.579136,110.03784 C 69.864302,108.64124 69.875802,108.53464 71.83563,107.66014 C 73.327643,106.99439 74.331543,107.18869 75.515153,108.3723 C 76.41039,109.26753 77.581169,110 78.116883,110 C 79.881572,110 84,105.13153 84,103.04545 C 84,101.92045 84.45,101 85,101 C 85.55,101 86,101.26949 86,101.59887 C 86,103.00956 82.697175,109 81.919392,109 C 79.801413,109 74.179249,115.96944 74.697754,117.95221 C 75.184199,119.81238 74.787376,119.99633 70.366631,119.95996 C 65.514627,119.92005 65.508147,119.9155 68.210747,118.44859 z M 63.55887,115.5318 C 64.626492,114.7243 66.125391,114.0493 66.889757,114.0318 C 67.654124,114.01431 68.822049,113.25804 69.485145,112.3512 C 70.545928,110.9005 70.679316,110.9906 70.595388,113.1012 C 70.473657,116.16247 69.328542,116.96569 65.05887,116.98469 C 61.819454,116.9991 61.731526,116.91394 63.55887,115.5318 z M 54.02896,114.03906 C 51.572898,112.4858 53.266815,112.26857 57.5,113.59394 C 61.29198,114.78117 61.343985,114.8495 58.5,114.90784 C 56.85,114.94168 54.838032,114.55073 54.02896,114.03906 z M 80,97 C 79.175,96.466844 77.589235,96.023735 76.476079,96.015313 C 74.49307,96.00031 74.458125,95.519901 74.747403,72.25 C 74.909788,59.1875 75.145552,46.136886 75.271324,43.248637 C 75.47298,38.617764 75.267904,37.997434 73.535714,37.998637 C 71.632898,37.999957 71.628826,37.945237 73.405612,36.25 C 74.749005,34.968265 75.363802,34.834475 75.703231,35.75 C 76.383359,37.584472 80.070325,37.272943 81.620754,35.25 C 82.768056,33.753043 83.099796,33.70999 83.915014,34.952254 C 85.301029,37.064325 84.310572,38.00019 80.690983,37.998584 L 77.5,37.997167 L 78.125932,64.748584 C 78.470194,79.461863 78.807694,91.8375 78.875932,92.25 C 79.172542,94.043031 81.006581,92.789332 81.070285,90.75 C 81.13735,88.603099 81.179951,88.591644 82,90.5 C 83.081263,93.016234 83.247897,98.005061 82.25,97.984687 C 81.8375,97.976265 80.825,97.533156 80,97 z M 76.662281,91.75 C 76.384868,91.0625 76.157895,91.625 76.157895,93 C 76.157895,94.375 76.384868,94.9375 76.662281,94.25 C 76.939693,93.5625 76.939693,92.4375 76.662281,91.75 z M 76.74486,59.196806 C 76.565406,53.863563 76.419303,58.5 76.420187,69.5 C 76.421071,80.5 76.567898,84.863563 76.746468,79.196806 C 76.925038,73.53005 76.924314,64.53005 76.74486,59.196806 z M 51.838901,91.879273 C 50.977459,91.333258 50.914202,91.025165 51.661516,91.015313 C 52.30035,91.006891 52.67228,90.2125 52.488027,89.25 C 52.303775,88.2875 52.118592,87.214984 52.076511,86.866631 C 52.03443,86.518279 51.164121,86.014676 50.142492,85.747514 C 48.390967,85.289479 48.364208,84.897694 49.673499,78.880882 C 50.437182,75.371397 51.348389,70.936134 51.698403,69.024743 C 52.048418,67.113352 53.263536,64.797436 54.398665,63.878264 C 56.350074,62.298109 56.575926,62.329389 58.543363,64.452288 C 61.483969,67.625255 63.332869,79.613537 61.365339,82.75 C 60.589044,83.9875 60.301768,85.013684 60.726947,85.030409 C 61.152126,85.047133 60.7125,85.519494 59.75,86.080099 C 58.7875,86.640704 57.996489,87.86452 57.992198,88.79969 C 57.982562,90.89981 53.68609,93.050095 51.838901,91.879273 z M 56.5,88 C 56.849126,86.9 57.455847,86 57.848269,86 C 59.23159,86 59.159601,72.577858 57.766121,70.683732 C 56.487882,68.946252 56.344681,68.961637 54.464959,71.038387 C 52.445472,73.269553 51.355554,86 53.18402,86 C 53.632809,86 53.946711,86.3375 53.881579,86.75 C 53.335153,90.210697 55.474244,91.231871 56.5,88 z M 81.369965,62 C 81.369965,56.225 81.535239,53.8625 81.737242,56.75 C 81.939244,59.6375 81.939244,64.3625 81.737242,67.25 C 81.535239,70.1375 81.369965,67.775 81.369965,62 z M 58.5,44 C 58.839919,43.45 59.568034,43 60.118034,43 C 60.668034,43 60.839919,43.45 60.5,44 C 60.160081,44.55 59.431966,45 58.881966,45 C 58.331966,45 58.160081,44.55 58.5,44 z M 52.25,43.337719 C 50.52339,42.641017 50.677003,39.337923 52.467975,38.650663 C 54.390662,37.912858 55.470413,39.728261 54.094766,41.385814 C 53.502188,42.099827 53.313448,42.980114 53.675343,43.342009 C 54.411808,44.078474 54.083334,44.077486 52.25,43.337719 z M 80.75,32.310674 C 78.701643,31.775383 78.477813,30.444253 80.25,29.337137 C 82.085697,28.190346 84.097404,28.033379 83.445746,29.087785 C 83.135667,29.589503 82.147515,30 81.249853,30 C 79.880686,30 79.930471,30.236537 81.55887,31.468197 C 83.596156,33.009122 83.561363,33.04536 80.75,32.310674 z M 82.603006,25.833333 C 82.886271,25.375 83.541476,25 84.059017,25 C 84.576558,25 85,25.375 85,25.833333 C 85,26.291667 84.344795,26.666667 83.543989,26.666667 C 82.743182,26.666667 82.31974,26.291667 82.603006,25.833333 z M 54.85648,24.331181 C 53.005457,23.839213 51.74872,19.384118 53.420532,19.240785 C 59.357395,18.731789 65.593635,16.929625 66.8089,15.371781 C 67.963381,13.891855 68.150163,13.847164 67.701106,15.158301 C 67.303542,16.319088 67.844486,16.995137 69.504169,17.41169 C 71.088517,17.809336 71.825291,18.669229 71.724791,20.00339 C 71.528612,22.607734 70,22.60473 70,20 C 70,18.888889 69.333333,18 68.5,18 C 67.675,18 67,18.464123 67,19.031385 C 67,19.598646 66.2125,20.350244 65.25,20.701602 C 64.2875,21.052959 62.426814,22.163836 61.115141,23.170217 C 58.729181,25.000845 57.932275,25.148669 54.85648,24.331181 z M 60.8,21.8 C 62.577699,20.022301 62.26161,19 59.934259,19 C 57.136175,19 53.807294,20.879178 54.531009,22.050173 C 55.359712,23.391043 59.368951,23.231049 60.8,21.8 z M 66.342084,18.550928 C 66.71374,17.582406 66.417594,17.28626 65.449072,17.657916 C 63.867341,18.264884 63.455387,20 64.893011,20 C 65.384167,20 66.03625,19.347917 66.342084,18.550928 z M 83.574418,22.666667 C 83.855824,21.933333 84.698797,21.333333 85.447692,21.333333 C 86.196587,21.333333 86.579077,21.933333 86.29767,22.666667 C 86.016264,23.4 85.173291,24 84.424396,24 C 83.675501,24 83.293011,23.4 83.574418,22.666667 z M 73.654508,17.75 C 73.909448,17.3375 74.766476,17 75.559017,17 C 76.351558,17 77,16.1 77,15 C 77,13.518519 76.333333,13 74.428571,13 C 73.014286,13 71.182143,12.325 70.357143,11.5 C 69.532143,10.675 69.312728,10 69.869554,10 C 70.426381,10 71.147935,10.430347 71.473008,10.956326 C 71.798081,11.482305 72.730369,11.656961 73.54476,11.34445 C 75.706343,10.514973 78,12.846086 78,15.872445 C 78,17.980677 77.524761,18.5 75.595492,18.5 C 74.273012,18.5 73.399569,18.1625 73.654508,17.75 z M 84,17.5 C 84,16.675 83.148145,16 82.106989,16 C 81.065833,16 79.945987,15.301628 79.618443,14.448062 C 79.290899,13.594496 79.43666,13.151837 79.942356,13.464374 C 80.448052,13.776911 81.144455,13.575283 81.489919,13.016312 C 82.529013,11.335021 84,11.869634 84,13.928571 C 84,14.989286 84.707143,16.564286 85.571429,17.428571 C 87,18.857143 87,19 85.571429,19 C 84.707143,19 84,18.325 84,17.5 z M 57.25,12.352327 C 55.4625,11.471154 54,10.3564 54,9.8750969 C 54,8.5075717 55.627844,8.8466533 57,10.5 C 58.402631,12.190067 61,12.52024 61,11.008474 C 61,10.463135 60.1,9.4548885 59,8.7679271 C 56.627268,7.2861314 56.386286,6.0868936 58.524313,6.4006894 C 60.604192,6.7059508 63.306164,10.759765 62.620575,12.546381 C 61.92225,14.366189 61.28878,14.3433 57.25,12.352327 z M 78,10.911018 C 78,10.464617 78.609015,9.7395197 79.353367,9.2996901 C 80.097718,8.8598606 80.923254,7.825 81.187889,7 C 81.491765,6.052669 81.857025,6.4812111 82.17924,8.163107 C 82.599612,10.357358 82.276633,10.905126 80.344717,11.274435 C 79.055123,11.520957 78,11.357419 78,10.911018 z"
           style="fill:#ad9e5e" />
        <path
           id="path2393"
           d="M 83,124.88337 C 83,124.25907 82.118188,123.99734 81,124.28975 C 79.9,124.57741 79,124.40489 79,123.90638 C 79,123.40787 79.9,123 81,123 C 83.728377,123 83.536868,121.24251 80.75,120.70573 C 79.5125,120.46738 81.425,120.20494 85,120.12253 C 88.575,120.04012 92.582867,119.68295 93.906372,119.32882 C 95.716122,118.84459 96.115495,119.00411 95.517176,119.97221 C 94.982763,120.83691 95.177628,121.09378 96.110804,120.75473 C 96.874862,120.47713 97.3875,119.74375 97.25,119.125 C 97.1125,118.50625 97.638196,118 98.418213,118 C 99.198229,118 100.66073,117.73891 101.66821,117.4198 C 102.85475,117.04398 102.48641,117.70946 100.62252,119.30902 C 99.003421,120.6985 98.05195,122.27504 98.446845,122.91399 C 99.214316,124.15579 96.87125,123.99857 95.938311,122.74568 C 95.159023,121.69913 83.920377,124.06215 84.582417,125.13335 C 84.877006,125.61001 84.641476,126 84.059017,126 C 83.476558,126 83,125.49752 83,124.88337 z M 66.730968,124.34406 C 67.408001,124.07014 68.758001,124.05347 69.730968,124.30701 C 70.703936,124.56055 70.15,124.78467 68.5,124.80505 C 66.85,124.82543 66.053936,124.61799 66.730968,124.34406 z M 47.388152,121.56913 C 47.059405,120.71242 46.418678,120.24124 45.964314,120.52206 C 45.509949,120.80287 44.913277,120.6687 44.638376,120.2239 C 44.363475,119.7791 44.977368,119.35199 46.002582,119.27476 C 48.299205,119.10176 50.592182,121.51598 49.041495,122.47435 C 48.460904,122.83318 47.716899,122.42583 47.388152,121.56913 z M 74.697754,117.95221 C 74.320677,116.51027 75.18359,114.88308 77.614456,112.45221 C 79.513172,110.55349 80.771567,109 80.410889,109 C 80.050211,109 80.311199,108.32995 80.990862,107.51101 C 81.670525,106.69207 82.626468,106.26914 83.115179,106.57118 C 83.603891,106.87322 84.452903,105.93898 85.001873,104.49507 C 86.323801,101.01814 86.270027,100.6824 84.5,101.36163 C 83.63778,101.69249 83,101.38104 83,100.62913 C 83,98.854898 78.655931,97 74.500778,97 L 71.095662,97 L 72.537007,92.25 C 73.623868,88.668213 73.981014,81.412996 73.989176,62.75 C 73.995129,49.1375 74.3375,37.999386 74.75,37.998637 C 75.1625,37.997887 75.397096,40.360387 75.271324,43.248637 C 75.145552,46.136886 74.910386,59.151445 74.748733,72.169877 L 74.454818,95.839754 L 76.977409,96.278448 C 78.364834,96.519729 80.2875,97.05393 81.25,97.46556 C 82.608394,98.0465 83,97.729279 83,96.047972 C 83,94.742894 83.4321,94.149018 84.087118,94.553842 C 84.685033,94.923374 84.939154,96.124675 84.65183,97.223401 C 84.285531,98.624133 84.707731,99.372315 86.064712,99.727174 C 90.417982,100.86558 87.255961,107.82459 80.483603,112.01013 C 77.793046,113.67299 77,114.8275 77,117.08156 C 77,120.42864 75.494264,120.99807 74.697754,117.95221 z M 49.75,116.3047 C 47.1375,116.07685 45,115.43852 45,114.88619 C 45,114.33387 45.45,114.16008 46,114.5 C 46.55,114.83992 47,114.63183 47,114.03758 C 47,113.44333 48.104079,112.45407 49.453509,111.83923 C 50.802939,111.22439 52.040439,110.11487 52.203509,109.37364 C 52.375589,108.59145 52.985279,109.07004 53.656494,110.51419 C 54.292566,111.88274 54.405066,112.75034 53.906494,112.44221 C 53.407922,112.13408 53,112.3282 53,112.8736 C 53,114.39201 56.799104,115.26027 60.447865,114.57576 C 62.248558,114.23795 64.796935,114.39384 66.110926,114.92219 L 68.5,115.88283 L 66,115.95422 C 64.625,115.99348 61.475,116.18161 59,116.3723 C 56.525,116.56298 52.3625,116.53256 49.75,116.3047 z M 65.544186,113.07149 C 65.22857,112.56082 65.989512,111.99832 67.235169,111.82149 C 68.853086,111.59183 69.403199,110.94409 69.161103,109.55378 C 68.875624,107.91433 69.062111,107.80666 70.34419,108.87069 C 71.69366,109.99065 71.647062,110.35294 69.933088,112.06691 C 67.815411,114.18459 66.428336,114.50208 65.544186,113.07149 z M 77,109 C 77,108.45 77.45,108 78,108 C 78.55,108 79,108.45 79,109 C 79,109.55 78.55,110 78,110 C 77.45,110 77,109.55 77,109 z M 74.210573,107.46196 C 73.145228,106.25406 73.188673,106 74.460573,106 C 75.307258,106 76,106.675 76,107.5 C 76,109.32367 75.849748,109.32047 74.210573,107.46196 z M 58,103.57037 C 58,103.29537 58.9,102.5887 60,102 C 61.1,101.4113 62,101.15463 62,101.42963 C 62,101.70463 61.1,102.4113 60,103 C 58.9,103.5887 58,103.84537 58,103.57037 z M 50,92.434259 C 50,92.123101 50.465833,90.998101 51.035184,89.934259 C 51.951713,88.221708 51.726502,88 49.070368,88 C 47.093823,88 45.70521,87.317696 45,86 C 44.274295,84.644008 44.262966,84 44.964816,84 C 45.534167,84 46,83.1 46,82 C 46,80.9 46.498145,80 47.106989,80 C 47.715833,80 47.954956,79.325 47.638374,78.5 C 47.321791,77.675 47.551131,77 48.148016,77 C 48.744902,77 48.997907,76.1 48.710251,75 C 48.422595,73.9 48.647595,73 49.210251,73 C 49.772907,73 49.997907,72.1 49.710251,71 C 49.422595,69.9 49.56381,69 50.024062,69 C 50.484315,69 50.834088,66.8625 50.801335,64.25 C 50.721785,57.904844 52.489996,47.102401 53.29755,49 C 53.648641,49.825 54.080919,52.525 54.258168,55 L 54.580437,59.5 L 55.419049,54.25 C 56.478774,47.615758 58,47.439119 58,53.95031 C 58,57.381218 58.475611,59.166785 59.549573,59.767804 C 60.522406,60.312229 61.445007,63.077212 62.028399,67.196704 C 62.539488,70.805647 63.417181,74.967069 63.978826,76.444309 C 65.487597,80.412676 65.260258,84 63.5,84 C 62.675,84 62,84.476558 62,85.059017 C 62,85.641476 61.555002,85.84301 61.011115,85.50687 C 60.391706,85.124054 60.53682,84.074526 61.399507,82.697853 C 63.333638,79.611372 61.451931,67.590685 58.543363,64.452288 C 56.575926,62.329389 56.350074,62.298109 54.398665,63.878264 C 53.263536,64.797436 52.048418,67.113352 51.698403,69.024743 C 51.348389,70.936134 50.437182,75.371397 49.673499,78.880882 C 48.364208,84.897694 48.390967,85.289479 50.142492,85.747514 C 51.164121,86.014676 52.03443,86.518279 52.076511,86.866631 C 52.118592,87.214984 52.303775,88.2875 52.488027,89.25 C 52.67228,90.2125 52.30035,91.006891 51.661516,91.015313 C 51.004618,91.023973 51.151672,91.451768 52,92 C 53.281897,92.828426 53.245547,92.971601 51.75,92.984687 C 50.7875,92.993109 50,92.745416 50,92.434259 z M 54.5,92 C 54.839919,91.45 55.766476,91 56.559017,91 C 57.351558,91 58,91.45 58,92 C 58,92.55 57.073442,93 55.940983,93 C 54.808524,93 54.160081,92.55 54.5,92 z M 78.875932,92.25 C 78.807694,91.8375 78.470194,79.504538 78.125932,64.843419 L 77.5,38.186838 L 80,38.454424 L 82.5,38.72201 L 82.688604,65.611005 C 82.800121,81.509819 82.522305,91.682552 82.008889,90.5 C 81.179671,88.590061 81.137406,88.601319 81.070285,90.75 C 81.006581,92.789332 79.172542,94.043031 78.875932,92.25 z M 81.737242,56.75 C 81.535239,53.8625 81.369965,56.225 81.369965,62 C 81.369965,67.775 81.535239,70.1375 81.737242,67.25 C 81.939244,64.3625 81.939244,59.6375 81.737242,56.75 z M 52.570027,44.113307 C 52.268624,43.625626 52.712545,42.653529 53.556519,41.953093 C 54.400494,41.252657 54.845233,40.039067 54.544829,39.256226 C 54.244425,38.473386 54.336446,37.997421 54.74932,38.198527 C 62.435201,41.942229 62.871751,42.993256 56.75,43.015313 C 53.637545,43.026527 52.901486,43.290086 54,44 C 54.901292,44.58246 55.024633,44.975486 54.309017,44.984687 C 53.653976,44.993109 52.871431,44.600988 52.570027,44.113307 z M 49.542705,42.069098 C 49.226274,41.557102 49.424717,40.855545 49.983688,40.510081 C 50.54266,40.164618 51,40.583524 51,41.440983 C 51,43.197509 50.399945,43.456142 49.542705,42.069098 z M 76.730968,36.344063 C 77.408001,36.07014 78.758001,36.053466 79.730968,36.307009 C 80.703936,36.560553 80.15,36.784672 78.5,36.805051 C 76.85,36.825431 76.053936,36.617986 76.730968,36.344063 z M 81,34.059017 C 81,33.476558 80.325,33 79.5,33 C 78.675,33 78,32.592129 78,32.09362 C 78,31.044806 81.786283,31.845181 82.531896,33.051608 C 82.807296,33.497216 82.575283,34.144455 82.016312,34.489919 C 81.45734,34.835382 81,34.641476 81,34.059017 z M 81.553851,28.087132 C 81.184314,27.48921 81.385081,27 82,27 C 82.614919,27 82.800459,26.4375 82.412313,25.75 C 81.847735,24.75 81.975932,24.75 83.053296,25.75 C 84.023056,26.650124 84.095711,27.304289 83.312868,28.087132 C 82.530025,28.869975 82.037674,28.869975 81.553851,28.087132 z M 55.507079,25.011454 C 55.1509,24.435144 55.573403,24.282805 56.520248,24.646144 C 57.458215,25.006075 59.431325,24.317893 61.190572,23.017225 C 63.654092,21.195866 64.398491,21.026642 65.082222,22.132536 C 65.77364,23.250863 66.253092,23.171324 67.713836,21.695962 C 69.254409,20.139972 69.273083,19.977555 67.849653,20.51471 C 66.669222,20.960166 66.242116,20.619631 66.349653,19.318748 C 66.446157,18.151339 65.873281,17.54974 64.75,17.638889 C 62.506151,17.816972 62.512727,17.796819 65.635717,14.924314 L 68.271435,12.5 L 67.060901,14.824055 C 65.996417,16.867714 66.100691,17.213571 67.925183,17.690686 C 69.098445,17.997501 70,19.051629 70,20.116631 C 70,21.152484 70.5625,22.006891 71.25,22.015313 C 72.107784,22.025821 72.044322,22.31889 71.047746,22.94933 C 70.249006,23.454617 69.237295,23.646657 68.7995,23.376084 C 68.361705,23.105512 67.002591,23.585204 65.779248,24.442067 C 63.308139,26.1729 56.45951,26.55252 55.507079,25.011454 z M 84.468963,20.949781 C 84.100884,20.354217 84.06979,19.596877 84.399864,19.266802 C 84.729939,18.936728 85.006891,19.304167 85.015313,20.083333 C 85.027921,21.249797 85.201831,21.235079 86,20 C 86.58246,19.098708 86.975486,18.975367 86.984687,19.690983 C 87.006336,21.374764 85.26891,22.244123 84.468963,20.949781 z M 73.146691,19.323249 C 74.404956,17.807132 76.623466,17.581738 77.430779,18.887998 C 77.732626,19.376397 76.645095,19.971859 75.014042,20.211247 C 72.640692,20.559581 72.267795,20.382253 73.146691,19.323249 z M 52.340671,18.65612 C 51.976944,18.020254 52.022766,17.80877 52.442497,18.186156 C 52.862229,18.563542 54.310092,18.452402 55.659971,17.939179 C 57.009851,17.425956 57.870593,17.400368 57.572733,17.882316 C 56.66546,19.350313 53.044125,19.885896 52.340671,18.65612 z M 80.75,16.337719 C 81.4375,16.060307 82.5625,16.060307 83.25,16.337719 C 83.9375,16.615132 83.375,16.842105 82,16.842105 C 80.625,16.842105 80.0625,16.615132 80.75,16.337719 z M 55,12.416694 C 51.619696,10.541017 54.026395,10.61146 57.635693,12.493839 C 59.211062,13.315451 59.825,13.946329 59,13.895791 C 58.175,13.845253 56.375,13.179659 55,12.416694 z M 62.587442,12.632726 C 62.897935,11.823594 62.391026,10.000222 61.460978,8.5807882 C 59.826587,6.0863927 59.840902,6 61.888614,6 C 63.053863,6 65.686454,6.9 67.738815,8 C 69.791177,9.1 72.462988,10 73.676174,10 C 74.88936,10 76.098797,10.35084 76.363812,10.779643 C 76.947825,11.724597 72.293281,11.626614 71.340566,10.673899 C 70.173743,9.5070764 68.84677,9.943051 69.64313,11.231589 C 70.06177,11.908963 69.127641,11.458963 67.567288,10.231589 C 63.954577,7.3898296 63.166641,7.4208983 63.732842,10.382783 C 63.983365,11.693314 63.701117,13.066686 63.105624,13.434721 C 62.446249,13.842237 62.24364,13.528659 62.587442,12.632726 z M 78.724284,8.7728922 C 79.278228,8.0728015 79.981351,6.825 80.28678,6 C 80.665826,4.9761515 80.867166,5.1802654 80.921053,6.6430112 C 80.964474,7.8216674 80.26135,9.0694688 79.358556,9.4159034 C 78.130613,9.8871095 77.970832,9.725127 78.724284,8.7728922 z"
           style="fill:#867845" />
        <path
           id="path2391"
           d="M 59,125.25773 C 55.975,125.05297 53.05,124.42937 52.5,123.87195 C 51.82633,123.1892 52.315825,123.05721 54,123.46747 C 55.375,123.80242 61.559637,124.17176 67.743637,124.28823 C 73.927637,124.4047 78.990137,124.8375 78.993637,125.25 C 78.999891,125.98714 69.827965,125.99069 59,125.25773 z M 84.411817,124.85965 C 84.194943,124.50746 85.701063,123.91423 87.75875,123.54137 C 89.816438,123.16852 92.5125,122.62039 93.75,122.32332 C 95.331343,121.9437 96,122.23367 96,123.29904 C 96,124.8462 85.291575,126.28833 84.411817,124.85965 z M 38.75,119.33772 C 39.4375,119.06031 40.5625,119.06031 41.25,119.33772 C 41.9375,119.61513 41.375,119.84211 40,119.84211 C 38.625,119.84211 38.0625,119.61513 38.75,119.33772 z M 77,114.65019 C 77,114.4191 78.180406,113.45659 79.623124,112.51128 C 81.065842,111.56598 81.940779,111.2868 81.56743,111.8909 C 80.853975,113.04529 77,115.37357 77,114.65019 z M 58,112.89301 C 58,112.25705 57.268332,112.06679 56.280481,112.44586 C 55.334745,112.80878 54.847245,112.81942 55.197147,112.46952 C 55.54705,112.11962 54.970833,110.97083 53.916667,109.91667 C 51.313546,107.31355 51.487028,106.28161 55.094244,102.91196 C 62.543421,95.95339 81.681196,94.848883 83.363094,101.28047 C 84.015721,103.77612 80.664652,108.32211 78.029235,108.51626 C 76.931312,108.59715 75.93208,107.84828 75.638144,106.72426 C 75.165808,104.91805 74.985307,104.89688 72.844087,106.39665 C 71.585082,107.27849 69.192615,107.96447 67.527494,107.92105 C 65.862372,107.87763 65.175,107.59391 66,107.29056 C 66.825,106.98722 68.2875,106.053 69.25,105.21452 C 70.359937,104.24761 71,104.11246 71,104.84501 C 71,105.48026 71.476558,106 72.059017,106 C 72.641476,106 72.876668,105.60946 72.581666,105.13214 C 72.286664,104.65481 73.047606,104.31731 74.272649,104.38214 C 75.972605,104.47209 76.421016,104.02644 76.166426,102.5 C 75.747628,99.98903 75.119075,99.392658 72,98.546888 C 70.28391,98.081552 69.929732,98.166553 70.870476,98.817969 C 71.869706,99.509882 71.192485,99.901229 68.370476,100.26265 C 60.260455,101.30131 58.47163,102.08848 57.723941,104.94765 C 56.979937,107.79273 59.543639,109.4388 64.874817,109.539 C 69.619676,109.62818 71.292253,111.24559 67.235169,111.82149 C 65.989512,111.99832 65.22857,112.56082 65.544186,113.07149 C 65.861293,113.58459 64.302023,114 62.059017,114 C 59.75814,114 58,113.52051 58,112.89301 z M 58.625,107.20225 C 57.459688,105.31674 59.601646,104.49483 61.25,106.195 C 62.918666,107.91611 62.909789,108 61.059017,108 C 59.991476,108 58.896169,107.64101 58.625,107.20225 z M 74,102 C 73.411298,100.9 73.154632,100 73.429632,100 C 73.704632,100 74.411298,100.9 75,102 C 75.588702,103.1 75.845368,104 75.570368,104 C 75.295368,104 74.588702,103.1 74,102 z M 84.451248,98.921118 C 84.197822,98.511066 84.654592,98.273041 85.466293,98.392174 C 87.555886,98.698861 88.307444,99.666667 86.456011,99.666667 C 85.606818,99.666667 84.704674,99.33117 84.451248,98.921118 z M 83.666667,94.333333 C 83.3,93.966667 83,93.201667 83,92.633333 C 83,92.006729 83.465771,92.065771 84.183333,92.783333 C 84.834167,93.434167 85.134167,94.199167 84.85,94.483333 C 84.565833,94.7675 84.033333,94.7 83.666667,94.333333 z M 58.157895,91 C 58.157895,89.625 58.384868,89.0625 58.662281,89.75 C 58.939693,90.4375 58.939693,91.5625 58.662281,92.25 C 58.384868,92.9375 58.157895,92.375 58.157895,91 z M 72.140571,90.5 C 72.140571,89.4 72.527314,87.6 73,86.5 C 73.859429,84.5 73.859429,84.5 73.859429,86.5 C 73.859429,87.6 73.472686,89.4 73,90.5 C 72.140571,92.5 72.140571,92.5 72.140571,90.5 z M 49.165465,90.123425 C 48.14433,89.476136 48.302888,89.154056 49.840647,88.751923 C 51.270555,88.377993 51.696831,88.62647 51.318193,89.613185 C 50.696484,91.233333 50.856557,91.195393 49.165465,90.123425 z M 35.666667,89.333333 C 35.3,88.966667 35.013684,87.954167 35.030409,87.083333 C 35.055382,85.783026 35.25052,85.826226 36.122073,87.325003 C 37.198846,89.176693 36.886679,90.553345 35.666667,89.333333 z M 58.666667,59.333333 C 58.3,58.966667 58,56.491667 58,53.833333 C 58,48.81417 56.075935,46.905084 55.90032,51.75 C 55.66432,58.26084 54.317212,59.610008 53.904735,53.748637 C 53.506664,48.091965 53.543619,47.997296 56.149306,47.998637 C 58.531652,47.999863 58.842002,48.428256 59.22921,52.25 C 59.466039,54.5875 60.009496,57.2875 60.436893,58.25 C 61.194544,59.956236 60.01278,60.679446 58.666667,59.333333 z M 50.82861,53 C 50.618806,50.8 50.79654,49 51.223574,49 C 51.650608,49 52,50.8 52,53 C 52,55.2 51.822266,57 51.605035,57 C 51.387805,57 51.038413,55.2 50.82861,53 z M 27.118315,51.95 C 27.268018,48.850024 28.690331,43.167446 28.983002,44.5 C 29.471759,46.725349 28.777378,52.560616 27.917975,53.45 C 27.352685,54.035011 27.045456,53.458714 27.118315,51.95 z M 46,50.106989 C 46,49.615833 46.6,48.983736 47.333333,48.70233 C 48.066667,48.420923 48.666667,48.822778 48.666667,49.595341 C 48.666667,50.367903 48.066667,51 47.333333,51 C 46.6,51 46,50.598145 46,50.106989 z M 62,49.098444 C 62,48.060003 63.902213,46.556716 64.465672,47.149864 C 64.648607,47.342439 64.168668,48.080242 63.399141,48.789427 C 62.629613,49.498611 62,49.637669 62,49.098444 z M 43,47.122445 C 43,46.639789 43.639597,45.714071 44.421326,45.065294 C 45.587576,44.097392 45.746108,44.254881 45.304694,45.942849 C 44.779081,47.952799 43,48.863374 43,47.122445 z M 50,44.031385 C 50,43.498646 50.675,43.321791 51.5,43.638374 C 52.325,43.954956 53,44.390833 53,44.606989 C 53,44.823145 52.325,45 51.5,45 C 50.675,45 50,44.564123 50,44.031385 z M 61,44.154893 C 61,43.622683 61.970367,43.440996 63.156372,43.751143 C 64.392788,44.074473 65.062647,43.910382 64.726518,43.366513 C 64.383321,42.811209 65.583448,42.58646 67.62142,42.824382 C 71.973562,43.33247 71.69729,43.569966 65.75,44.433142 C 62.880889,44.849558 61,44.739378 61,44.154893 z M 31.622859,39.19879 C 31.306226,38.686467 31.891876,37.502838 32.924304,36.568504 C 33.956732,35.63417 35.060508,35.288888 35.377141,35.80121 C 35.693774,36.313533 35.108124,37.497162 34.075696,38.431496 C 33.043268,39.36583 31.939492,39.711112 31.622859,39.19879 z M 56,36.534017 C 56,35.571573 54.814625,34.712925 52.979191,34.345838 C 51.317745,34.013549 49.675627,33.28417 49.330038,32.724995 C 48.923951,32.067934 49.727181,31.959063 51.600847,32.417208 C 55.194124,33.295827 58.669513,36.468184 57.100866,37.437661 C 56.476685,37.823427 56,37.432141 56,36.534017 z M 68.75,35.337719 C 69.4375,35.060307 70.5625,35.060307 71.25,35.337719 C 71.9375,35.615132 71.375,35.842105 70,35.842105 C 68.625,35.842105 68.0625,35.615132 68.75,35.337719 z M 75.557298,33.581761 C 76.624055,32.80173 77.709531,32.376197 77.969467,32.636134 C 78.519826,33.186493 75.941127,34.962197 74.55887,34.984687 C 74.041249,34.993109 74.490542,34.361792 75.557298,33.581761 z M 62,15.09385 C 59.506296,14.388839 59.505667,14.385548 61.75,13.787149 C 63.014094,13.450108 64,13.63805 64,14.216064 C 64,14.790262 64.773308,14.63842 65.75,13.872445 C 67.336056,12.628574 67.371426,12.663944 66.127555,14.25 C 65.372711,15.2125 64.697711,15.955144 64.627555,15.90032 C 64.5574,15.845496 63.375,15.482584 62,15.09385 z"
           style="fill:#6d6851" />
        <path
           id="path2389"
           d="M 77.666667,119.33333 C 76.142135,117.8088 77.291889,115.75843 82.5,110.71398 C 86.906346,106.44609 88,104.75181 88,102.1934 C 88,97.860965 88.976198,98.174498 92.410197,103.60986 C 94.010805,106.14332 96.424453,109.23989 97.77386,110.49113 L 100.22733,112.76611 L 97.613663,112.26648 C 96.176148,111.99168 95,112.21421 95,112.76098 C 95,114.64039 97.991954,116.23469 100.58774,115.73848 C 105.23398,114.85029 101.01304,117.61435 95.80718,118.869 C 90.699681,120.09994 78.739415,120.40608 77.666667,119.33333 z M 90.75,118.31067 C 89.7875,118.05915 88.2125,118.05915 87.25,118.31067 C 86.2875,118.5622 87.075,118.768 89,118.768 C 90.925,118.768 91.7125,118.5622 90.75,118.31067 z M 83.541119,113.93347 C 84.630453,112.17089 83.482075,111.92377 81.426999,113.47853 C 79.735134,114.7585 79.706335,114.94027 81.190983,114.9682 C 82.121024,114.98569 83.178585,114.52006 83.541119,113.93347 z M 54.44113,111.44483 C 52.610824,109.97846 52.642732,109.95764 55,111.08029 C 58.061032,112.5381 58.628339,113 57.357796,113 C 56.821251,113 55.508751,112.30018 54.44113,111.44483 z M 60.352327,109.00669 C 59.171107,108.5301 57.847226,107.54612 57.410369,106.82008 C 56.756098,105.7327 56.899225,105.72939 58.222305,106.80129 C 59.105727,107.517 60.879608,108.00951 62.164263,107.89577 C 67.018119,107.46599 69.61373,107.95713 68,109 C 66.184789,110.17308 63.249535,110.17565 60.352327,109.00669 z M 48,92.360515 C 48,91.788798 46.875,90.808446 45.5,90.181954 C 43.012077,89.04838 41.99666,86 44.106989,86 C 44.715833,86 44.991919,86.578676 44.720514,87.285946 C 44.364941,88.212555 45.243203,88.505042 47.863525,88.332658 C 49.863586,88.201079 50.647184,88.342978 49.604853,88.647989 C 48.091542,89.09082 47.989117,89.37524 49.096493,90.059636 C 50.200945,90.742225 50.230495,91.169505 49.241641,92.158359 C 48.512089,92.887911 48,92.971286 48,92.360515 z M 59,90.680335 C 59,88.153697 63.499777,83.572811 65.044121,84.527268 C 66.308964,85.308984 66.299204,85.218274 64.09584,75.713812 C 61.639339,65.117414 60.098425,57.67755 59.132554,51.75 C 58.412056,47.328309 58.505717,47 60.487655,47 C 62.488242,47 62.6319,47.558309 62.867759,56.25 C 63.118449,65.488223 65.856748,78.888515 68.563433,84.122666 C 70.216739,87.319808 69.17333,88.511303 65.522628,87.595035 C 60.807167,86.41153 57.93862,89.699976 61.75,91.919901 C 63.312868,92.830188 63.259402,92.942434 61.25,92.969591 C 59.554572,92.992505 59,92.428257 59,90.680335 z M 83.481288,91.75 C 82.495049,89.046152 82.512822,37.998663 83.5,38.003788 C 84.139541,38.007108 84.540709,47.919974 84.612936,65.504489 C 84.675051,80.62702 84.548428,93 84.331552,93 C 84.114675,93 83.732056,92.4375 83.481288,91.75 z M 36.194949,85.5 C 36.174569,83.85 36.382014,83.053936 36.655937,83.730968 C 36.92986,84.408001 36.946534,85.758001 36.692991,86.730968 C 36.439447,87.703936 36.215328,87.15 36.194949,85.5 z M 71.840265,66 C 71.479085,42.116979 71.642851,38 72.95406,38 C 74.052591,38 74.132499,83.949281 73.038404,86.5 C 72.515586,87.718869 72.047635,79.712279 71.840265,66 z M 47,44.59106 C 47,44.400666 47.675,43.684689 48.5,43 C 49.364593,42.282451 50,42.185262 50,42.770566 C 50,43.329067 49.325,44.045044 48.5,44.361626 C 47.675,44.678209 47,44.781454 47,44.59106 z M 64.589279,44.144457 C 64.298464,43.673908 65.171907,43.501368 66.530262,43.761034 C 67.888618,44.0207 69,44.405695 69,44.616577 C 69,45.390327 65.101359,44.97302 64.589279,44.144457 z M 61.383343,42.25 C 61.030974,40.964201 59.984941,40 58.942386,40 C 57.938992,40 56.854457,39.573523 56.532307,39.052274 C 55.957029,38.121454 58.281,38.319635 62.079885,39.525355 C 64.24022,40.211018 64.403618,40.838522 62.984662,43 C 62.163218,44.251295 61.897714,44.126942 61.383343,42.25 z M 76,34.932612 C 76,34.304834 76.926675,34.125886 78.25,34.498119 C 80.01135,34.993563 80.174233,34.902934 79,34.080819 C 77.706954,33.17552 77.741447,33.028513 79.25,33.015313 C 80.2125,33.006891 81,33.675 81,34.5 C 81,35.433333 80.055556,36 78.5,36 C 77.125,36 76,35.519676 76,34.932612 z M 61.5,33.13944 C 58.002877,30.979286 55.593757,28.31479 54.592754,25.5 C 54.022143,23.895461 54.1305,23.747163 55.140754,24.75 C 57.828504,27.418015 68.6403,25.341527 73.212755,21.279133 C 75.013766,19.679026 78,20.157101 78,22.045538 C 78,22.655108 76.624906,24.52894 74.944236,26.20961 C 72.099316,29.05453 71.530078,29.223481 66.694236,28.65822 C 63.210061,28.250956 61.993834,28.366843 63,29.010221 C 67.894892,32.140189 76.323577,28.461456 78.98637,22.032906 C 80.694923,17.908094 77.232115,10 73.717383,10 C 72.467579,10 70.34493,9.2294721 69.000384,8.2877157 C 67.655839,7.3459593 64.743211,6.3223111 62.527878,6.0129418 L 58.5,5.4504522 L 61.456021,3.4752261 C 66.092754,0.37694048 74.190316,0.73577081 77.64726,4.1927146 C 79.883603,6.4290576 80.126372,7.1428046 79.079662,8.4040126 C 77.179846,10.693151 79.461043,17 82.188843,17 C 86.28107,17 82.058362,28.449131 76.293715,32.983603 C 72.962772,35.603724 65.614796,35.681127 61.5,33.13944 z M 73,7 C 72.175,6.4668441 71.05,6.0306255 70.5,6.0306255 C 69.95,6.0306255 70.175,6.4668441 71,7 C 71.825,7.5331559 72.95,7.9693745 73.5,7.9693745 C 74.05,7.9693745 73.825,7.5331559 73,7 z M 65.5,22 C 65.839919,21.45 66.568034,21 67.118034,21 C 67.668034,21 67.839919,21.45 67.5,22 C 67.160081,22.55 66.431966,23 65.881966,23 C 65.331966,23 65.160081,22.55 65.5,22 z M 52.587586,15.385618 C 53.492265,11.622743 53.166266,11.753697 57.314341,13.486873 C 62.410666,15.616254 64,15.421272 64,12.666667 C 64,9.5755311 64.865719,8.8577674 67.131483,10.070368 C 69.239227,11.198398 69.712849,13.210776 67.687692,12.433651 C 66.963478,12.155744 65.767409,13.066083 65.018712,14.465035 C 64.079719,16.219561 62.828939,17 60.95602,17 C 59.467709,17 56.81986,17.286028 55.07191,17.635618 C 51.983482,18.253304 51.913393,18.189826 52.587586,15.385618 z"
           style="fill:#5f562d" />
        <path
           id="path2387"
           d="M 14,124.71023 C 9.0232104,122.20135 11.084026,116.82068 17.5,115.57193 L 20.5,114.98804 L 17.5,116.12829 C 13.397755,117.68749 12,118.9295 12,121.01546 C 12,123.3544 14.167972,124.22304 22,125.02213 L 28.5,125.68532 L 22.5,125.82792 C 19.2,125.90635 15.375,125.40339 14,124.71023 z M 29.769789,122.11517 C 30.241525,118.90103 33.310087,117.90546 42,118.14719 C 46.801029,118.28074 45.875745,118.52217 36.75,119.51705 C 31.500891,120.08931 31,120.35542 31,122.57196 C 31,123.90738 30.627937,125 30.173193,125 C 29.718449,125 29.536917,123.70183 29.769789,122.11517 z M 87.25,118.31067 C 88.2125,118.05915 89.7875,118.05915 90.75,118.31067 C 91.7125,118.5622 90.925,118.768 89,118.768 C 87.075,118.768 86.2875,118.5622 87.25,118.31067 z M 95.979944,114.47583 C 95.284224,113.63754 95.012905,112.65376 95.377012,112.28965 C 96.317866,111.3488 101.255,113.25434 101.75162,114.75 C 102.35288,116.56082 97.519793,116.33124 95.979944,114.47583 z M 22.610468,114.32613 C 23.221225,113.87176 24.491906,111.99568 25.434204,110.15707 C 26.376502,108.31846 27.393094,107.05976 27.693298,107.35997 C 28.539049,108.20572 24.665766,114.28926 22.990834,114.74585 C 22.022123,115.00993 21.888911,114.86293 22.610468,114.32613 z M 81.426999,113.47853 C 83.482075,111.92377 84.630453,112.17089 83.541119,113.93347 C 83.178585,114.52006 82.121024,114.98569 81.190983,114.9682 C 79.706335,114.94027 79.735134,114.7585 81.426999,113.47853 z M 60.34319,105.45196 C 59.265276,102.64296 66.620965,99.202609 71.638652,100.16893 C 74.368526,100.69465 74.681922,104 72.001896,104 C 70.822282,104 69.182143,104.675 68.357143,105.5 C 66.374907,107.48224 61.11017,107.45067 60.34319,105.45196 z M 31,100 C 31.588702,98.9 32.295368,98 32.570368,98 C 32.845368,98 32.588702,98.9 32,100 C 31.411298,101.1 30.704632,102 30.429632,102 C 30.154632,102 30.411298,101.1 31,100 z M 61.75,91.919901 C 59.732469,90.744797 59.403375,88.06926 61.25,87.854893 C 65.082666,87.409975 69.997731,87.591171 69.998783,88.17742 C 70.000196,88.964227 65.02721,93.014678 64.115141,92.969591 C 63.776814,92.952867 62.7125,92.480506 61.75,91.919901 z M 35.595449,81.75 C 35.407469,81.0625 33.58393,74.762986 31.54314,67.751079 C 29.502351,60.739173 28.059749,54.439173 28.33736,53.751079 C 28.636625,53.009311 28.874245,53.219947 28.921053,54.268487 C 28.964474,55.241155 30.52897,60.866155 32.397711,66.768487 C 36.263742,78.979166 37.276897,83 36.487667,83 C 36.184927,83 35.783429,82.4375 35.595449,81.75 z M 84.420187,59.5 C 84.419303,48.5 84.565406,43.863563 84.74486,49.196806 C 84.924314,54.53005 84.925038,63.53005 84.746468,69.196806 C 84.567898,74.863563 84.421071,70.5 84.420187,59.5 z M 48.97055,48.055027 C 49.587616,46.902029 49.891488,45.630467 49.64582,45.229333 C 49.400152,44.8282 54.329681,44.5 60.600328,44.5 C 75.322205,44.5 76.297527,46.436062 62.014023,47.306251 C 56.521735,47.640855 51.087673,48.417895 49.938329,49.033005 C 48.019181,50.060102 47.940188,49.980277 48.97055,48.055027 z M 33.5,37.280185 C 35.15,35.542176 37.85,33.845861 39.5,33.510597 C 42.390931,32.923186 42.373012,32.959316 39.00714,34.504353 C 37.086067,35.386184 34.386067,37.082499 33.00714,38.273942 C 31.409425,39.654426 31.588202,39.293956 33.5,37.280185 z M 43.75,32.337719 C 44.4375,32.060307 45.5625,32.060307 46.25,32.337719 C 46.9375,32.615132 46.375,32.842105 45,32.842105 C 43.625,32.842105 43.0625,32.615132 43.75,32.337719 z M 63,29.010221 C 61.990248,28.36455 63.153328,28.244256 66.558648,28.642162 C 72.661944,29.355322 76.223526,26.926274 78.497063,20.5 C 79.275396,18.3 79.931966,17.309847 79.956107,18.29966 C 80.140841,25.87399 69.050683,32.879243 63,29.010221 z M 71,7 C 70.175,6.4668441 69.95,6.0306255 70.5,6.0306255 C 71.05,6.0306255 72.175,6.4668441 73,7 C 73.825,7.5331559 74.05,7.9693745 73.5,7.9693745 C 72.95,7.9693745 71.825,7.5331559 71,7 z"
           style="fill:#2c2b27" />
      </g>
      <path
         id="path2410"
         d="M 11,125 C 6.8072733,120.80727 9.7835854,115.5075 17.419794,113.56859 L 22.256541,112.34049 L 27.87827,101.51971 C 34.929037,87.948307 35.123358,84.176394 29.647975,67.168454 C 27.641589,60.936104 26,53.915755 26,51.567678 C 26,43.09019 30.194449,35.559204 36.612247,32.513759 C 41.065234,30.400679 51.440528,30.074151 54.900501,31.938198 L 57.301002,33.231459 L 55.263987,30.365729 C 52.683492,26.735416 51.012739,20.748834 51.005577,15.107143 C 51.000595,11.183055 51.518314,10.195972 55.857143,5.8571429 L 60.714286,1 L 69.280418,1 C 79.879625,1 83.345682,3.1510201 84.433306,10.40382 C 84.828931,13.042035 85.732727,15.067196 86.676042,15.42918 C 88.656477,16.189144 88.099073,22.881616 85.620272,28.105302 C 84.074386,31.363015 84.069685,31.922532 85.558264,35.485203 C 86.935981,38.782543 87.128392,43.460407 86.888497,67.825499 L 86.608035,96.310858 L 88.790314,97.118136 C 89.990568,97.562138 92.315373,100.10771 93.956549,102.77496 C 95.597724,105.44221 98.52889,109.0699 100.47025,110.8365 C 104.95009,114.91307 105.2841,119.51087 101.40461,123.69848 L 98.80922,126.5 L 80.721972,126.85037 C 56.421785,127.3211 48.401107,126.53584 45.496447,123.40167 C 43.703317,121.46685 42.272432,121 38.135329,121 C 33.385537,121 33,121.17966 33,123.39301 C 33,126.52801 31.484472,127 21.418213,127 C 14.333333,127 12.683226,126.68323 11,125 z M 64.26375,124.29607 C 63.033812,124.05871 60.783812,124.05256 59.26375,124.28242 C 57.743687,124.51227 58.75,124.70648 61.5,124.71399 C 64.25,124.72149 65.493687,124.53343 64.26375,124.29607 z M 96.85701,122.57394 C 98.585654,121.68003 100,120.48364 100,119.9153 C 100,119.34697 100.45,119.16008 101,119.5 C 101.55,119.83992 102,119.64148 102,119.05902 C 102,117.84974 100.89909,117.71776 98.497942,118.63916 C 97.152399,119.1555 97.088638,119.46189 98.166154,120.2335 C 99.146783,120.93572 99.015182,121.03138 97.669194,120.59471 C 94.409679,119.53725 79,121.16287 79,122.56419 C 79,123.26222 78.4375,124.02095 77.75,124.25025 C 77.0625,124.47956 80.373154,124.56189 85.10701,124.43321 C 90.691064,124.28142 94.817901,123.62841 96.85701,122.57394 z M 52.368325,122.37501 C 50.623024,120.95649 50.708222,120.89135 53.662212,121.38569 C 62.045675,122.78865 75,123.24871 75,122.14348 C 75,121.50983 73.328045,120.94725 71.25,120.88169 C 67.762796,120.77166 67.700545,120.7191 70.361702,120.13169 C 72.915721,119.56792 73.245242,119.04441 73.426521,115.2626 C 73.616737,111.29435 73.519089,111.12524 71.889223,112.60025 C 70.931995,113.46653 69.359959,114.02336 68.395811,113.83765 C 66.730925,113.51697 66.732067,113.41075 68.418535,111.7243 C 71.198725,108.94414 69.721487,106.77402 65.577942,107.55136 C 63.681448,107.90714 61.538072,107.82302 60.814885,107.36443 C 60.091698,106.90584 59.0875,106.52373 58.583333,106.51531 C 56.163914,106.4749 57.298874,103.9784 60.689274,101.88302 C 65.333172,99.012936 75.73422,98.143812 76.657075,100.54873 C 77.210272,101.99034 75.456212,105.01153 74.154088,104.85988 C 72.461846,104.66279 69.083684,106.32639 69.571936,107.11639 C 69.879033,107.61329 71.052104,107.5073 72.231523,106.87609 C 73.956983,105.95265 74.583981,106.07816 75.670835,107.56452 C 76.401876,108.56428 77,109.74625 77,110.19113 C 77,113.13693 85.189897,107.87342 87.356295,103.53531 C 88.594233,101.0564 88.883815,100.87633 88.936046,102.553 C 89.080244,107.18191 80.333183,115.85814 75.29966,116.07895 C 74.24021,116.12542 74.016695,116.36621 74.756231,116.66436 C 75.447157,116.94291 75.725196,117.63563 75.374094,118.20372 C 74.492729,119.6298 94.602185,118.68345 98.415627,117.11939 L 101.33125,115.92356 L 97.808765,112.21178 C 95.871397,110.1703 92.850247,106.3625 91.095098,103.75 C 89.339949,101.1375 87.363037,98.929564 86.701959,98.843476 C 81.887529,98.216522 80.114512,97.944961 77.290127,97.401929 L 74.080254,96.78478 L 73.741371,89.14239 L 73.402488,81.5 L 73.201244,89.167136 L 73,96.834272 L 67.950029,97.917297 C 54.594573,100.78153 48.330258,108.84918 56.75,112.34152 C 59.51431,113.4881 59.930084,113.91049 58.331787,113.94847 C 57.139271,113.97681 55.564271,114.15125 54.831787,114.3361 C 54.099304,114.52096 53.856282,114.4772 54.291738,114.23886 C 54.727194,114.00052 54.569429,113.18612 53.94115,112.42909 C 52.974473,111.26432 52.34797,111.28582 49.866716,112.56892 C 48.254056,113.40286 47.200879,114.51601 47.526321,115.04259 C 47.851763,115.56916 47.586376,116 46.936572,116 C 46.048232,116 46.03787,116.3407 46.894808,117.37325 C 47.521642,118.12854 47.753597,119.47854 47.410264,120.37325 C 46.993359,121.45969 47.319771,122 48.393011,122 C 49.276855,122 50,122.35424 50,122.7872 C 50,123.22015 50.953246,123.6462 52.118325,123.73396 C 54.164237,123.88807 54.172783,123.84162 52.368325,122.37501 z M 50.5,117.04988 C 49.114841,116.42011 51.318496,116.11896 57.668213,116.07029 C 62.710729,116.03163 67.660729,115.70877 68.668213,115.35282 C 70.196077,114.81302 70.285203,114.93656 69.205388,116.09743 C 67.677711,117.73978 53.594634,118.45687 50.5,117.04988 z M 81.680658,106.27268 C 82.681296,104.49766 83.665625,103.53204 83.868056,104.12685 C 84.070486,104.72167 83.251782,106.17396 82.048713,107.35417 L 79.861315,109.5 L 81.680658,106.27268 z M 29.183578,120.25 C 29.482494,117.65214 29.858965,117.46042 35.988503,116.78449 C 39.557179,116.39096 42.63979,115.58063 42.838749,114.98375 C 43.037707,114.38688 44.955381,112.79071 47.100246,111.43672 C 49.854189,109.69823 51,108.27449 51,106.59105 C 51,102.13735 62.503396,95 69.681501,95 C 70.436153,95 71,93.883516 71,92.389216 L 71,89.778432 L 69.084236,92.139216 C 67.269199,94.375875 66.628851,94.487179 56.905244,94.25616 C 47.928774,94.042891 46.351018,93.738941 44.321008,91.831846 C 41.727517,89.395388 41.297785,85.471156 43.362479,83.078741 C 45.467164,80.639986 49,65.138721 49,58.342606 C 49,52.385186 48.934026,52.236805 46.026665,51.655333 C 40.948989,50.639798 40.675988,44.146481 45.598156,41.46324 C 46.64417,40.893022 49.036795,39.457743 50.9151,38.27373 L 54.3302,36.120979 L 51.605588,35.437145 C 47.421211,34.386933 40.067318,35.559619 37.135764,37.744569 C 29.726879,43.266571 29.010797,50.361205 34.233395,66.5 C 36.191207,72.55 38.101368,79.395917 38.478198,81.713148 C 39.320954,86.895487 36.993159,95.622606 33.067061,102 C 31.543384,104.475 29.74379,107.91805 29.067963,109.65122 C 27.379518,113.98128 24.270463,116.61671 19.292222,117.93776 C 10.996351,120.13918 12.892137,122.96044 22.683578,122.98469 C 28.690274,122.99956 28.876207,122.92134 29.183578,120.25 z M 69.825475,104.02358 C 70.01313,103.46061 70.804167,103 71.583333,103 C 72.3625,103 73,102.55 73,102 C 73,100.46873 67.265559,100.81131 63.917644,102.54259 C 62.274779,103.39215 61.231045,104.56482 61.594435,105.1528 C 62.394696,106.44765 69.334824,105.49553 69.825475,104.02358 z M 81.764624,67.083333 L 81.5,37.5 L 78.717213,37.5 L 75.934426,37.5 L 75.934426,65.865783 C 75.934426,91.175688 76.113809,94.362734 77.599525,95.449116 C 81.999271,98.666289 82.044386,98.359037 81.764624,67.083333 z M 77.395131,64.58285 C 77.479177,43.811863 77.767484,38.576634 78.847106,38.217148 C 79.949711,37.850008 79.97047,38.186661 78.961477,40.071982 C 78.067268,41.742827 77.887302,46.237066 78.306136,56.437683 C 78.623703,64.171958 78.525045,75 78.086896,80.5 C 77.474809,88.183408 77.314556,84.496054 77.395131,64.58285 z M 50.820353,90.716462 C 51.495644,89.902785 51.546073,88.896098 50.95811,87.966462 C 49.637486,85.8784 49.783231,85 51.45031,85 C 52.24798,85 53.37298,85.7875 53.95031,86.75 C 54.950015,88.416667 55.049985,88.416667 56.04969,86.75 C 57.078633,85.034589 63,84.191338 63,85.760218 C 63,86.178338 61.856789,87.753338 60.459531,89.260218 L 57.919062,92 L 61.306521,92 C 67.670006,92 70.645571,86.952232 66.672836,82.896547 C 62.056751,78.18408 60.760664,71.855041 61.676809,58.5 L 62.5,46.5 L 66.823905,46.188891 C 69.287688,46.011619 71.802625,46.42123 72.669947,47.141043 C 73.970344,48.220277 74.141673,48.051415 73.846042,45.981882 C 73.528156,43.756564 73.113316,43.583539 68.747654,43.855402 C 65.111416,44.081842 63.849971,43.772606 63.376472,42.538688 C 63.036113,41.651726 61.349669,40.210444 59.628819,39.335838 C 57.907968,38.461233 56.830505,38.095882 57.234456,38.523947 C 57.638408,38.952011 57.188408,39.894929 56.234456,40.61932 C 54.699247,41.785093 54.924005,41.940047 58.190983,41.968197 C 62.166818,42.002454 63.323256,42.858927 62.089372,44.855393 C 61.025556,46.576683 50.39814,46.0093 50.75,44.25 C 50.8875,43.5625 50.614584,43 50.143519,43 C 49.672455,43 49.334955,44.282366 49.393519,45.849702 C 49.484095,48.27375 49.7546,48.540798 51.204522,47.637557 C 52.142008,47.053541 53.253976,46.920643 53.675561,47.342228 C 54.097146,47.763813 53.91127,48.436804 53.262503,48.837764 C 51.123508,50.159736 50.496648,65.125944 52.42415,68.853322 C 54.216114,72.318598 53.874351,75.029464 51.385059,77.095393 C 50.137751,78.130566 49.697723,78.12894 49.053633,77.08678 C 48.537336,76.251394 48.008145,77.148131 47.540362,79.651082 C 47.144728,81.767987 46.436851,83.965317 45.967301,84.534038 C 44.815344,85.929296 45.247662,88.26165 47.030316,90.268996 C 48.827823,92.293069 49.45084,92.366624 50.820353,90.716462 z M 59.75,83.337719 C 60.4375,83.060307 61.5625,83.060307 62.25,83.337719 C 62.9375,83.615132 62.375,83.842105 61,83.842105 C 59.625,83.842105 59.0625,83.615132 59.75,83.337719 z M 55,48 C 55,47.45 55.675,47 56.5,47 C 57.325,47 58,47.45 58,48 C 58,48.55 57.325,49 56.5,49 C 55.675,49 55,48.55 55,48 z M 55.080484,90.90613 C 53.478351,90.265746 52.31284,90.28716 51.630484,90.969516 C 50.923172,91.676828 51.681961,91.980121 54.05,91.936614 C 57.291711,91.877054 57.353925,91.81484 55.080484,90.90613 z M 83.735039,74.25 C 83.529041,71.6375 83.360496,73.775 83.360496,79 C 83.360496,84.225 83.529041,86.3625 83.735039,83.75 C 83.941038,81.1375 83.941038,76.8625 83.735039,74.25 z M 71,66 L 71,49 L 67.395919,49 L 63.791838,49 L 64.427597,57.25 C 65.117584,66.20371 68.874669,83 70.187496,83 C 70.634373,83 71,75.35 71,66 z M 62.662281,64.75 C 62.384868,64.0625 62.157895,64.625 62.157895,66 C 62.157895,67.375 62.384868,67.9375 62.662281,67.25 C 62.939693,66.5625 62.939693,65.4375 62.662281,64.75 z M 59,43.613499 C 59,43.400924 57.65,43.028861 56,42.786692 C 54.35,42.544524 53,42.718449 53,43.173193 C 53,43.627937 54.35,44 56,44 C 57.65,44 59,43.826075 59,43.613499 z M 70.819551,39.25 C 71.09234,37.32926 70.682643,37 68.019891,37 C 66.304325,37 63.573027,36.313444 61.95034,35.47432 C 57.793334,33.324648 58.262486,35.367305 62.5,37.867499 C 64.425,39.003277 66,40.429024 66,41.035826 C 66,43.22029 70.492074,41.555806 70.819551,39.25 z M 54,40 C 54,39.45 53.576558,39 53.059017,39 C 52.541476,39 51.839919,39.45 51.5,40 C 51.160081,40.55 51.583524,41 52.440983,41 C 53.298442,41 54,40.55 54,40 z M 84,36.059017 C 84,35.541476 83.55,34.839919 83,34.5 C 82.45,34.160081 82,34.583524 82,35.440983 C 82,36.298442 82.45,37 83,37 C 83.55,37 84,36.576558 84,36.059017 z M 72.5,34.053299 C 73.6,33.609928 75.009948,33.653042 75.633217,34.149108 C 76.362636,34.72966 76.98213,34.488952 77.371763,33.473586 C 77.773662,32.426252 77.581721,32.140477 76.800617,32.623225 C 76.153557,33.023131 77.072992,31.33284 78.843808,28.867024 C 82.953224,23.144763 84.119807,17.428571 81.178211,17.428571 C 79.825853,17.428571 78.993451,18.261545 78.644236,19.964286 C 78.358209,21.358929 77.43479,23.4 76.592194,24.5 C 75.17285,26.352939 75.146581,26.263833 76.234933,23.288165 C 77.746745,19.154716 76.619588,18.069299 73.681606,20.82939 C 71.308668,23.05865 68.643716,23.956284 70.8,21.8 C 72.490131,20.109869 72.297539,19.448022 70.066696,19.279977 C 69.003379,19.19988 67.598279,19.779118 66.944251,20.567173 C 66.290224,21.355228 65.243112,22 64.617337,22 C 63.991562,22 62.225668,23.162677 60.69313,24.583727 C 58.306025,26.797176 57.673385,26.976315 56.278702,25.833727 C 54.887244,24.693781 54.904117,24.889459 56.394837,27.180517 C 59.972283,32.678623 67.714017,35.982362 72.5,34.053299 z M 61.5,20.524613 L 64.5,19.139434 L 61,19.720688 C 59.075,20.040378 56.6,20.655482 55.5,21.087585 C 53.702325,21.79375 53.752906,21.875077 56,21.89151 C 57.375,21.901565 59.85,21.286462 61.5,20.524613 z M 86,20 C 86,19.45 85.55,19 85,19 C 84.45,19 84,19.45 84,20 C 84,20.55 84.45,21 85,21 C 85.55,21 86,20.55 86,20 z M 64.837518,14.357496 C 66.123153,13.005059 66.960189,11.338637 66.697598,10.654337 C 66.161935,9.2584221 69.730284,9.0192327 71.75,10.31567 C 72.562806,10.837403 73,10.560454 73,9.5238332 C 73,8.2689559 73.403347,8.1454972 74.894995,8.9438029 C 77.901643,10.552912 79.853028,7.6000666 77.500724,5.0008 C 75.073999,2.3192994 69.663291,1.4800662 64.653539,3.0081249 L 60.5,4.2750241 L 64.41985,5.3970635 C 66.575768,6.0141852 68.55832,7.1749586 68.82552,7.97656 C 69.204573,9.1137183 68.70996,9.0399785 66.574881,7.6410211 C 62.666437,5.0801098 59.950341,6.2515764 62.783886,9.2760976 C 66.754631,13.514463 62.531308,16.569185 56.820247,13.589587 C 54.058028,12.148471 53,12.909927 53,16.338993 C 53,18.62253 62.255994,17.073157 64.837518,14.357496 z M 74.680803,16.387809 C 77.536612,15.621895 76.599419,13.25 73.440978,13.25 C 71.951071,13.25 71,13.827423 71,14.731989 C 71,15.660513 70.420412,15.991569 69.448062,15.618443 C 68.558137,15.276947 68.15674,15.444594 68.507079,16.011454 C 69.193215,17.121645 71.435038,17.258308 74.680803,16.387809 z M 83,10.809678 C 83,9.4952855 80.727219,10.318343 80.22894,11.81318 C 79.985357,12.54393 80.442526,12.767417 81.41644,12.393691 C 82.287398,12.059473 83,11.346667 83,10.809678 z M 60,10 C 58.05094,8.0509402 56,7.3534961 56,8.6397574 C 56,9.6023366 59.324551,11.931929 60.75,11.968197 C 61.486947,11.986947 61.179114,11.179114 60,10 z"
         style="fill:#2d1600;fill-opacity:0.8745098;display:inline" />
    </g>
  </g>
</svg>
