<?xml version="1.0" encoding="UTF-8" standalone="no"?>
<!-- Created with Inkscape (http://www.inkscape.org/) -->
<svg
   xmlns:dc="http://purl.org/dc/elements/1.1/"
   xmlns:cc="http://creativecommons.org/ns#"
   xmlns:rdf="http://www.w3.org/1999/02/22-rdf-syntax-ns#"
   xmlns:svg="http://www.w3.org/2000/svg"
   xmlns="http://www.w3.org/2000/svg"
   xmlns:xlink="http://www.w3.org/1999/xlink"
   xmlns:sodipodi="http://sodipodi.sourceforge.net/DTD/sodipodi-0.dtd"
   xmlns:inkscape="http://www.inkscape.org/namespaces/inkscape"
   width="48"
   height="48"
   id="svg2"
   sodipodi:version="0.32"
   inkscape:version="0.46"
   version="1.0"
   sodipodi:docbase="/home/dobey/Projects/gnome-icon-theme/scalable/categories"
   sodipodi:docname="system-help.svg"
   inkscape:output_extension="org.inkscape.output.svg.inkscape"
   inkscape:export-filename="/home/lapo/Icone/svn/gnome-icon-theme/22x22/apps/help-contest.png"
   inkscape:export-xdpi="90"
   inkscape:export-ydpi="90">
  <defs
     id="defs4">
    <inkscape:perspective
       sodipodi:type="inkscape:persp3d"
       inkscape:vp_x="0 : 24 : 1"
       inkscape:vp_y="0 : 1000 : 0"
       inkscape:vp_z="48 : 24 : 1"
       inkscape:persp3d-origin="24 : 16 : 1"
       id="perspective95" />
    <linearGradient
       inkscape:collect="always"
       id="linearGradient8112">
      <stop
         style="stop-color:#000000;stop-opacity:1;"
         offset="0"
         id="stop8114" />
      <stop
         style="stop-color:#000000;stop-opacity:0;"
         offset="1"
         id="stop8116" />
    </linearGradient>
    <linearGradient
       inkscape:collect="always"
       id="linearGradient8097">
      <stop
         style="stop-color:#eeeeec;stop-opacity:1"
         offset="0"
         id="stop8099" />
      <stop
         style="stop-color:#ffffff;stop-opacity:1"
         offset="1"
         id="stop8101" />
    </linearGradient>
    <linearGradient
       inkscape:collect="always"
       id="linearGradient8089">
      <stop
         style="stop-color:#000000;stop-opacity:1;"
         offset="0"
         id="stop8091" />
      <stop
         style="stop-color:#000000;stop-opacity:0;"
         offset="1"
         id="stop8093" />
    </linearGradient>
    <radialGradient
       inkscape:collect="always"
       xlink:href="#linearGradient3735"
       id="radialGradient2864"
       gradientUnits="userSpaceOnUse"
       gradientTransform="matrix(2.21022,0,0,2.138888,-12.1022,-18.82138)"
       cx="10.863756"
       cy="16.148972"
       fx="10.863756"
       fy="16.148972"
       r="8.7143736" />
    <radialGradient
       inkscape:collect="always"
       xlink:href="#linearGradient3743"
       id="radialGradient2862"
       gradientUnits="userSpaceOnUse"
       gradientTransform="matrix(2.723968,0,0,2.633434,-13.5604,-4.83122)"
       cx="7.5927024"
       cy="3.1548533"
       fx="7.5927024"
       fy="3.1548533"
       r="8.4622421" />
    <linearGradient
       inkscape:collect="always"
       xlink:href="#linearGradient3823"
       id="linearGradient2839"
       gradientUnits="userSpaceOnUse"
       gradientTransform="matrix(1.209048,0,0,1.253274,2.691896,1.7189)"
       x1="15.821683"
       y1="15.989761"
       x2="14.372151"
       y2="14.54023" />
    <linearGradient
       inkscape:collect="always"
       xlink:href="#linearGradient3815"
       id="linearGradient2842"
       gradientUnits="userSpaceOnUse"
       gradientTransform="matrix(1.209048,0,0,1.253274,2.691896,1.7189)"
       x1="15.291184"
       y1="6.4436507"
       x2="17.416643"
       y2="4.3181915" />
    <linearGradient
       inkscape:collect="always"
       xlink:href="#linearGradient3831"
       id="linearGradient2845"
       gradientUnits="userSpaceOnUse"
       gradientTransform="matrix(1.209048,0,0,1.253274,2.691896,1.7189)"
       x1="6.4302521"
       y1="15.967495"
       x2="8.122447"
       y2="14.2753" />
    <linearGradient
       inkscape:collect="always"
       xlink:href="#linearGradient3807"
       id="linearGradient2848"
       gradientUnits="userSpaceOnUse"
       gradientTransform="matrix(1.209048,0,0,1.253274,2.691896,1.7189)"
       x1="6.055223"
       y1="6.3116894"
       x2="4.4831853"
       y2="4.7396517" />
    <radialGradient
       inkscape:collect="always"
       xlink:href="#linearGradient3839"
       id="radialGradient2851"
       gradientUnits="userSpaceOnUse"
       gradientTransform="matrix(0.604524,0,0,0.62607,1.482848,0.983063)"
       cx="24"
       cy="22.136841"
       fx="24"
       fy="22.136841"
       r="19.5" />
    <linearGradient
       id="linearGradient7133">
      <stop
         style="stop-color:#ffffff;stop-opacity:1"
         offset="0"
         id="stop7135" />
      <stop
         style="stop-color:#883399;stop-opacity:1;"
         offset="1"
         id="stop7137" />
    </linearGradient>
    <linearGradient
       inkscape:collect="always"
       id="linearGradient7123">
      <stop
         style="stop-color:#ffffff;stop-opacity:1;"
         offset="0"
         id="stop7125" />
      <stop
         style="stop-color:#ffffff;stop-opacity:0;"
         offset="1"
         id="stop7127" />
    </linearGradient>
    <linearGradient
       inkscape:collect="always"
       id="linearGradient7069">
      <stop
         style="stop-color:#ffffff;stop-opacity:1;"
         offset="0"
         id="stop7071" />
      <stop
         style="stop-color:#ffffff;stop-opacity:0;"
         offset="1"
         id="stop7073" />
    </linearGradient>
    <linearGradient
       id="linearGradient6954">
      <stop
         style="stop-color:#550066;stop-opacity:1;"
         offset="0"
         id="stop6956" />
      <stop
         style="stop-color:#883399;stop-opacity:1;"
         offset="1"
         id="stop6958" />
    </linearGradient>
    <linearGradient
       inkscape:collect="always"
       id="linearGradient3839">
      <stop
         style="stop-color:white;stop-opacity:1"
         offset="0"
         id="stop3841" />
      <stop
         style="stop-color:#eeeeec;stop-opacity:1"
         offset="1"
         id="stop3843" />
    </linearGradient>
    <linearGradient
       id="linearGradient3831">
      <stop
         style="stop-color:#cc0000;stop-opacity:1;"
         offset="0"
         id="stop3833" />
      <stop
         style="stop-color:#dd6666;stop-opacity:0;"
         offset="1"
         id="stop3835" />
    </linearGradient>
    <linearGradient
       id="linearGradient3823">
      <stop
         style="stop-color:#cc0000;stop-opacity:1;"
         offset="0"
         id="stop3825" />
      <stop
         style="stop-color:#dd6666;stop-opacity:0;"
         offset="1"
         id="stop3827" />
    </linearGradient>
    <linearGradient
       id="linearGradient3815">
      <stop
         style="stop-color:#cc0000;stop-opacity:1;"
         offset="0"
         id="stop3817" />
      <stop
         style="stop-color:#dd6666;stop-opacity:0;"
         offset="1"
         id="stop3819" />
    </linearGradient>
    <linearGradient
       id="linearGradient3807">
      <stop
         style="stop-color:#cc0000;stop-opacity:1;"
         offset="0"
         id="stop3809" />
      <stop
         style="stop-color:#dd6666;stop-opacity:0;"
         offset="1"
         id="stop3811" />
    </linearGradient>
    <linearGradient
       inkscape:collect="always"
       id="linearGradient3735">
      <stop
         style="stop-color:white;stop-opacity:1;"
         offset="0"
         id="stop3737" />
      <stop
         style="stop-color:white;stop-opacity:0;"
         offset="1"
         id="stop3739" />
    </linearGradient>
    <linearGradient
       id="linearGradient3743"
       inkscape:collect="always">
      <stop
         id="stop3745"
         offset="0"
         style="stop-color:white;stop-opacity:1;" />
      <stop
         id="stop3747"
         offset="1"
         style="stop-color:white;stop-opacity:0;" />
    </linearGradient>
    <linearGradient
       inkscape:collect="always"
       xlink:href="#linearGradient7069"
       id="linearGradient6056"
       gradientUnits="userSpaceOnUse"
       gradientTransform="matrix(3.6726967,0,0,2.7022223,-0.2306217,-0.6177778)"
       x1="2.25"
       y1="7"
       x2="4.625"
       y2="7" />
    <linearGradient
       inkscape:collect="always"
       xlink:href="#linearGradient6954"
       id="linearGradient7106"
       gradientUnits="userSpaceOnUse"
       gradientTransform="matrix(2.6153846,0,0,2.6009484,2.576923,0.2070211)"
       x1="12.816311"
       y1="6.2029195"
       x2="12.816311"
       y2="13.50246" />
    <linearGradient
       inkscape:collect="always"
       xlink:href="#linearGradient7123"
       id="linearGradient7129"
       x1="7"
       y1="-31.526281"
       x2="25.19265"
       y2="59.39061"
       gradientUnits="userSpaceOnUse" />
    <linearGradient
       inkscape:collect="always"
       xlink:href="#linearGradient7133"
       id="linearGradient7139"
       x1="14.015529"
       y1="24.75"
       x2="11.984554"
       y2="24.75"
       gradientUnits="userSpaceOnUse"
       gradientTransform="translate(-1,0)" />
    <filter
       inkscape:collect="always"
       x="-0.068112014"
       width="1.136224"
       y="-0.25387205"
       height="1.5077441"
       id="filter7033">
      <feGaussianBlur
         inkscape:collect="always"
         stdDeviation="0.69814815"
         id="feGaussianBlur7035" />
    </filter>
    <radialGradient
       inkscape:collect="always"
       xlink:href="#linearGradient8089"
       id="radialGradient8095"
       cx="25.85755"
       cy="29.541006"
       fx="25.85755"
       fy="29.541006"
       r="12.048545"
       gradientTransform="matrix(1.658923,0,0,1.6075643,-17.038135,-18.069862)"
       gradientUnits="userSpaceOnUse" />
    <radialGradient
       inkscape:collect="always"
       xlink:href="#linearGradient8097"
       id="radialGradient8103"
       cx="10.911678"
       cy="11.353445"
       fx="10.911678"
       fy="11.353445"
       r="16.003036"
       gradientTransform="matrix(2.6170526,0,0,0.28533,-17.4284,4.321086)"
       gradientUnits="userSpaceOnUse" />
    <linearGradient
       inkscape:collect="always"
       xlink:href="#linearGradient8112"
       id="linearGradient8118"
       x1="59.002232"
       y1="7.892005"
       x2="7.6945977"
       y2="8.0062819"
       gradientUnits="userSpaceOnUse" />
    <radialGradient
       inkscape:collect="always"
       xlink:href="#linearGradient3839"
       id="radialGradient3259"
       gradientUnits="userSpaceOnUse"
       gradientTransform="matrix(0.604524,0,0,0.62607,1.482848,0.983063)"
       cx="24"
       cy="22.136841"
       fx="24"
       fy="22.136841"
       r="19.5" />
    <linearGradient
       inkscape:collect="always"
       xlink:href="#linearGradient3807"
       id="linearGradient3261"
       gradientUnits="userSpaceOnUse"
       gradientTransform="matrix(1.209048,0,0,1.253274,2.691896,1.7189)"
       x1="6.055223"
       y1="6.3116894"
       x2="4.4831853"
       y2="4.7396517" />
    <linearGradient
       inkscape:collect="always"
       xlink:href="#linearGradient3831"
       id="linearGradient3263"
       gradientUnits="userSpaceOnUse"
       gradientTransform="matrix(1.209048,0,0,1.253274,2.691896,1.7189)"
       x1="6.4302521"
       y1="15.967495"
       x2="8.122447"
       y2="14.2753" />
    <linearGradient
       inkscape:collect="always"
       xlink:href="#linearGradient3815"
       id="linearGradient3265"
       gradientUnits="userSpaceOnUse"
       gradientTransform="matrix(1.209048,0,0,1.253274,2.691896,1.7189)"
       x1="15.291184"
       y1="6.4436507"
       x2="17.416643"
       y2="4.3181915" />
    <linearGradient
       inkscape:collect="always"
       xlink:href="#linearGradient3823"
       id="linearGradient3267"
       gradientUnits="userSpaceOnUse"
       gradientTransform="matrix(1.209048,0,0,1.253274,2.691896,1.7189)"
       x1="15.821683"
       y1="15.989761"
       x2="14.372151"
       y2="14.54023" />
    <radialGradient
       inkscape:collect="always"
       xlink:href="#linearGradient3743"
       id="radialGradient3269"
       gradientUnits="userSpaceOnUse"
       gradientTransform="matrix(2.723968,0,0,2.633434,-13.5604,-4.83122)"
       cx="7.5927024"
       cy="3.1548533"
       fx="7.5927024"
       fy="3.1548533"
       r="8.4622421" />
    <radialGradient
       inkscape:collect="always"
       xlink:href="#linearGradient3735"
       id="radialGradient3271"
       gradientUnits="userSpaceOnUse"
       gradientTransform="matrix(2.21022,0,0,2.138888,-12.1022,-18.82138)"
       cx="10.863756"
       cy="16.148972"
       fx="10.863756"
       fy="16.148972"
       r="8.7143736" />
    <linearGradient
       inkscape:collect="always"
       xlink:href="#linearGradient3823"
       id="linearGradient3280"
       gradientUnits="userSpaceOnUse"
       gradientTransform="matrix(1.0009031,0,0,1.0375154,13.968358,15.026617)"
       x1="15.821683"
       y1="15.989761"
       x2="14.372151"
       y2="14.54023" />
    <linearGradient
       inkscape:collect="always"
       xlink:href="#linearGradient3815"
       id="linearGradient3283"
       gradientUnits="userSpaceOnUse"
       gradientTransform="matrix(1.0009031,0,0,1.0375154,13.968358,15.026617)"
       x1="15.291184"
       y1="6.4436507"
       x2="17.416643"
       y2="4.3181915" />
    <linearGradient
       inkscape:collect="always"
       xlink:href="#linearGradient3831"
       id="linearGradient3286"
       gradientUnits="userSpaceOnUse"
       gradientTransform="matrix(1.0009031,0,0,1.0375154,13.968358,15.026617)"
       x1="6.4302521"
       y1="15.967495"
       x2="8.122447"
       y2="14.2753" />
    <linearGradient
       inkscape:collect="always"
       xlink:href="#linearGradient3807"
       id="linearGradient3289"
       gradientUnits="userSpaceOnUse"
       gradientTransform="matrix(1.0009031,0,0,1.0375154,13.968358,15.026617)"
       x1="6.055223"
       y1="6.3116894"
       x2="4.4831853"
       y2="4.7396517" />
    <radialGradient
       inkscape:collect="always"
       xlink:href="#linearGradient3839"
       id="radialGradient3292"
       gradientUnits="userSpaceOnUse"
       gradientTransform="matrix(0.5004516,0,0,0.5182883,12.967455,14.417459)"
       cx="24"
       cy="22.136841"
       fx="24"
       fy="22.136841"
       r="19.5" />
  </defs>
  <sodipodi:namedview
     id="base"
     pagecolor="#ffffff"
     bordercolor="#afafaf"
     borderopacity="1"
     inkscape:pageopacity="0.0"
     inkscape:pageshadow="2"
     inkscape:zoom="14.5625"
     inkscape:cx="24"
     inkscape:cy="24.034335"
     inkscape:document-units="px"
     inkscape:current-layer="layer1"
     width="48px"
     height="48px"
     inkscape:showpageshadow="false"
     borderlayer="true"
     inkscape:window-width="1398"
     inkscape:window-height="958"
     inkscape:window-x="0"
     inkscape:window-y="27"
     showgrid="false"
     showborder="false"
     inkscape:grid-points="true">
    <inkscape:grid
       id="GridFromPre046Settings"
       type="xygrid"
       originx="0px"
       originy="0px"
       spacingx="0.5px"
       spacingy="0.5px"
       color="#0000ff"
       empcolor="#0000ff"
       opacity="0.2"
       empopacity="0.4"
       empspacing="2" />
  </sodipodi:namedview>
  <metadata
     id="metadata7">
    <rdf:RDF>
      <cc:Work
         rdf:about="">
        <dc:format>image/svg+xml</dc:format>
        <dc:type
           rdf:resource="http://purl.org/dc/dcmitype/StillImage" />
        <dc:creator>
          <cc:Agent>
            <dc:title>Lapo Calamandrei</dc:title>
          </cc:Agent>
        </dc:creator>
        <cc:license
           rdf:resource="http://creativecommons.org/licenses/GPL/2.0/" />
      </cc:Work>
      <cc:License
         rdf:about="http://creativecommons.org/licenses/GPL/2.0/">
        <cc:permits
           rdf:resource="http://web.resource.org/cc/Reproduction" />
        <cc:permits
           rdf:resource="http://web.resource.org/cc/Distribution" />
        <cc:requires
           rdf:resource="http://web.resource.org/cc/Notice" />
        <cc:permits
           rdf:resource="http://web.resource.org/cc/DerivativeWorks" />
        <cc:requires
           rdf:resource="http://web.resource.org/cc/ShareAlike" />
        <cc:requires
           rdf:resource="http://web.resource.org/cc/SourceCode" />
      </cc:License>
    </rdf:RDF>
  </metadata>
  <g
     inkscape:label="Livello 1"
     inkscape:groupmode="layer"
     id="layer1"
     transform="translate(1.079935e-8,2)"
     style="display:inline">
    <rect
       style="opacity:0.29545456;fill:#000000;fill-opacity:1;fill-rule:evenodd;stroke:none;stroke-width:1;stroke-linecap:round;stroke-linejoin:miter;stroke-miterlimit:4;stroke-dasharray:none;stroke-dashoffset:0.69999992;stroke-opacity:1;filter:url(#filter7033)"
       id="rect7221"
       width="20.5"
       height="5.5"
       x="1"
       y="16.5"
       transform="matrix(1.7804878,0,0,1.7804878,3.9695122,2.8231708)"
       rx="2.75"
       ry="2.75" />
    <path
       style="fill:url(#linearGradient7106);fill-opacity:1;fill-rule:evenodd;stroke:#25002d;stroke-width:0.99999994000000003;stroke-linecap:round;stroke-linejoin:round;stroke-miterlimit:4;stroke-dashoffset:0.69999992000000000;stroke-opacity:0.96078432"
       d="M 11.71875,1.5 C 8.827556,1.5 6.5,3.8437483 6.5,6.71875 L 6.5,35.3125 C 6.5,38.187502 8.827557,40.53125 11.71875,40.53125 L 39.5,40.53125 C 40.052262,40.531195 40.499945,40.083512 40.5,39.53125 L 40.5,9.5 C 40.499945,8.9477381 40.052262,8.5000552 39.5,8.5 L 38.5,8.5 L 38.5,2.5 C 38.499945,1.9477381 38.052262,1.5000552 37.5,1.5 L 11.71875,1.5 z"
       id="path7099" />
    <path
       style="opacity:0.61363639;fill:url(#linearGradient6056);fill-opacity:1;fill-rule:evenodd;stroke:none;stroke-width:1;stroke-linecap:round;stroke-linejoin:round;stroke-miterlimit:4;stroke-dashoffset:0.69999992;stroke-opacity:1"
       d="M 12.623816,2 C 9.4812405,2 7,3.8255965 7,6.1377777 L 7,35.862223 C 7,38.174403 9.4812408,40 12.623816,40 L 18,40 L 18,2.0075524 L 12.623816,2 z"
       id="path7057"
       sodipodi:nodetypes="ccccccc" />
    <path
       sodipodi:type="inkscape:offset"
       inkscape:radius="-1"
       inkscape:original="M 11.71875 1.5 C 8.827556 1.5 6.5 3.8437483 6.5 6.71875 L 6.5 35.3125 C 6.5 38.187502 8.827557 40.53125 11.71875 40.53125 L 39.5 40.53125 C 40.052262 40.531195 40.499945 40.083512 40.5 39.53125 L 40.5 9.5 C 40.499945 8.9477381 40.052262 8.5000552 39.5 8.5 L 38.5 8.5 L 38.5 2.5 C 38.499945 1.9477381 38.052262 1.5000552 37.5 1.5 L 11.71875 1.5 z "
       style="opacity:0.69259255;fill:none;fill-opacity:1;fill-rule:evenodd;stroke:url(#linearGradient7129);stroke-width:0.99999994;stroke-linecap:round;stroke-linejoin:round;stroke-miterlimit:4;stroke-dashoffset:0.69999992;stroke-opacity:1"
       id="path7116"
       d="M 11.71875,2.5 C 9.3679898,2.5 7.5,4.3834711 7.5,6.71875 L 7.5,35.3125 C 7.5,37.647779 9.3679909,39.53125 11.71875,39.53125 L 39.5,39.53125 L 39.5,9.5 L 38.5,9.5 C 37.947738,9.4999448 37.500055,9.0522619 37.5,8.5 L 37.5,2.5 L 11.71875,2.5 z" />
    <path
       style="fill:url(#radialGradient8103);fill-opacity:1;fill-rule:evenodd;stroke:#25002d;stroke-width:1;stroke-linecap:round;stroke-linejoin:round;stroke-miterlimit:4;stroke-dashoffset:0.69999992000000000;stroke-opacity:0.96078432"
       d="M 37.505681,3.4961294 C 37.8615,5.3141876 37.319387,6.6031729 39.506072,9.5000001 L 11.500588,9.5000001 C 9.8382623,9.5000001 8.4999997,8.161137 8.4999997,6.4980648 C 8.4999997,4.8349927 9.8382623,3.4961294 11.500588,3.4961294 L 37.505681,3.4961294 z"
       id="rect6084"
       sodipodi:nodetypes="cccscc" />
    <path
       transform="matrix(1,0,0,0.9917954,0,2.0511514e-2)"
       style="fill:none;fill-opacity:1;fill-rule:evenodd;stroke:#ddccaa;stroke-width:1.00412773999999994;stroke-linecap:round;stroke-linejoin:round;stroke-miterlimit:4;stroke-dashoffset:0.69999992000000000;stroke-opacity:0.96078432000000002"
       d="M 37.5,2.5 L 11.5,2.5 C 9.2742413,2.5 7.4374996,4.3092891 7.4375,6.53125 C 7.4375,8.7532106 9.274241,10.5625 11.5,10.5625 L 39.5,10.5625"
       id="path7120"
       sodipodi:nodetypes="ccscc" />
    <rect
       style="opacity:0.2;fill:url(#linearGradient7139);fill-opacity:1;fill-rule:evenodd;stroke:none;stroke-width:1;stroke-linecap:round;stroke-linejoin:miter;stroke-miterlimit:4;stroke-dasharray:none;stroke-dashoffset:0.69999992;stroke-opacity:1"
       id="rect7131"
       width="2"
       height="29"
       x="11"
       y="10.5"
       rx="1"
       ry="1" />
    <path
       sodipodi:type="inkscape:offset"
       inkscape:radius="0.57622153"
       inkscape:original="M 19.8125 14.5 C 19.417592 14.527022 18.977704 14.726366 18.6875 15.03125 C 18.397294 15.336134 18.257062 15.719769 18.15625 16.125 C 18.151956 16.142263 18.043835 16.268838 17.71875 16.46875 C 17.393665 16.668661 16.910422 16.863753 16.40625 17.09375 C 15.902078 17.323746 15.369397 17.554023 14.90625 18.03125 C 14.674676 18.269864 14.477341 18.621693 14.40625 19.03125 C 14.335159 19.440808 14.413253 19.89256 14.59375 20.25 C 14.923152 20.902318 15.618417 21.329598 16.1875 21.40625 C 16.707055 21.47623 17.056433 21.380896 17.34375 21.34375 C 16.792271 22.591707 16.46875 23.975833 16.46875 25.4375 C 16.46875 26.682046 16.71836 27.872059 17.125 28.96875 C 16.297282 29.478635 15.648155 30.110653 15.25 30.78125 C 14.90312 31.365489 14.633677 32.083772 15 32.84375 C 15.183161 33.22374 15.558672 33.495708 15.9375 33.625 C 16.316329 33.754292 16.696481 33.772614 17.09375 33.71875 C 17.415572 33.675116 17.330242 33.671379 17.3125 33.65625 C 17.327324 33.893297 17.317157 34.308576 17.4375 34.8125 C 17.557844 35.316427 17.871738 35.889296 18.4375 36.3125 C 18.735757 36.535602 19.106163 36.731855 19.53125 36.71875 C 19.956335 36.705645 20.352937 36.525573 20.59375 36.3125 C 21.075376 35.886352 21.263866 35.402034 21.5 34.9375 C 21.621639 34.698209 21.753691 34.521067 21.875 34.3125 C 23.118922 34.931848 24.497332 35.28125 25.96875 35.28125 C 27.330591 35.28125 28.640936 35.004052 29.8125 34.46875 C 29.904671 34.663461 30.007256 34.875704 30.125 35.0625 C 30.674763 35.934679 31.762264 36.700598 33.03125 36.53125 C 33.6972 36.442378 34.314559 36.015616 34.5625 35.5 C 34.810442 34.984386 34.811805 34.56419 34.84375 34.28125 C 34.875697 33.998307 34.906891 33.870816 34.96875 33.78125 C 35.030609 33.691685 35.143067 33.572828 35.625 33.4375 C 36.03163 33.323315 36.366888 33.17986 36.6875 32.875 C 37.00811 32.570141 37.224376 31.96405 37.125 31.53125 C 36.926246 30.665649 36.385924 30.394225 35.875 30.03125 C 35.520302 29.779262 35.1259 29.538518 34.75 29.3125 C 35.238246 28.126341 35.5 26.807907 35.5 25.4375 C 35.5 24.357737 35.309989 23.316264 35 22.34375 C 35.336162 22.228095 35.664376 22.098601 35.96875 21.9375 C 36.504821 21.653765 37.077247 21.33811 37.28125 20.53125 C 37.383251 20.12782 37.288615 19.619566 37.0625 19.28125 C 36.836386 18.942934 36.537118 18.730028 36.1875 18.53125 C 35.724733 18.26814 35.522695 18.076818 35.4375 17.96875 C 35.352307 17.860681 35.353308 17.823198 35.3125 17.65625 C 35.230885 17.322356 34.925055 16.369037 33.96875 15.71875 C 33.390941 15.325838 32.785688 15.163116 32.15625 15.1875 C 31.526811 15.211886 30.896544 15.417082 30.375 15.71875 C 30.089449 15.883916 29.839202 16.08422 29.59375 16.3125 C 28.480716 15.838362 27.24605 15.59375 25.96875 15.59375 C 24.771606 15.59375 23.649197 15.83081 22.59375 16.25 C 22.318374 15.879041 21.996942 15.542461 21.65625 15.25 C 21.164632 14.827978 20.602317 14.445956 19.8125 14.5 z M 20.09375 16.59375 C 20.151022 16.620612 20.156167 16.620223 20.34375 16.78125 C 20.482305 16.90019 20.617307 17.04185 20.75 17.21875 C 19.864435 17.823594 19.114527 18.568716 18.46875 19.4375 C 18.01086 19.308194 17.575633 19.309674 17.25 19.34375 C 16.815823 19.389182 16.502538 19.44626 16.4375 19.4375 C 16.417988 19.434871 16.404086 19.397292 16.40625 19.40625 C 16.504304 19.321001 16.816969 19.135043 17.25 18.9375 C 17.709377 18.727939 18.254426 18.480222 18.78125 18.15625 C 19.308073 17.832279 19.89797 17.380722 20.09375 16.59375 z M 32.15625 17.1875 C 32.412038 17.172513 32.678776 17.241568 32.875 17.375 C 33.443826 17.7618 33.213054 17.590315 33.34375 18.125 C 33.409097 18.392342 33.543436 18.806555 33.84375 19.1875 C 34.111464 19.527092 34.524745 19.849221 35.03125 20.15625 C 34.812416 20.272076 34.509621 20.371511 34.1875 20.46875 C 33.49865 19.252831 32.544937 18.216725 31.4375 17.40625 C 31.688298 17.271512 31.920427 17.201317 32.15625 17.1875 z M 25.96875 20.78125 C 28.454989 20.781248 30.46875 22.860315 30.46875 25.4375 C 30.46875 28.014686 28.454989 30.09375 25.96875 30.09375 C 23.482511 30.093751 21.46875 28.014686 21.46875 25.4375 C 21.46875 22.860315 23.482511 20.78125 25.96875 20.78125 z M 18 30.78125 C 18.586879 31.718742 19.336726 32.537087 20.1875 33.21875 C 20.008133 33.501974 19.842696 33.787418 19.71875 34.03125 C 19.594117 34.276438 19.558604 34.329832 19.46875 34.46875 C 19.451693 34.426341 19.389251 34.403425 19.375 34.34375 C 19.332247 34.164725 19.335385 33.897233 19.3125 33.53125 C 19.289615 33.165269 19.243693 32.575909 18.71875 32.125 C 18.247647 31.720338 17.657638 31.657574 17.03125 31.71875 C 17.215442 31.440812 17.544035 31.095581 18 30.78125 z M 33.78125 31.0625 C 34.109987 31.26142 34.466917 31.477341 34.71875 31.65625 C 34.758922 31.68479 34.715152 31.658207 34.75 31.6875 C 34.163615 31.921571 33.634761 32.234904 33.34375 32.65625 C 32.985762 33.17457 32.885392 33.69368 32.84375 34.0625 C 32.806609 34.391447 32.749843 34.542746 32.75 34.5625 C 32.28039 34.625171 32.11487 34.479697 31.8125 34 C 31.713091 33.842291 31.610915 33.648704 31.53125 33.4375 C 32.399225 32.787523 33.167655 31.972809 33.78125 31.0625 z "
       style="opacity:0.20740739;fill:url(#radialGradient8095);fill-opacity:1;stroke:none;stroke-width:2.41591406;stroke-linecap:round;stroke-linejoin:miter;stroke-miterlimit:4;stroke-dasharray:none;stroke-dashoffset:1.20000057;stroke-opacity:1;display:inline"
       id="path8087"
       d="M 19.78125,13.9375 C 19.222859,13.975709 18.68546,14.200343 18.28125,14.625 C 17.949221,14.973823 17.799717,15.395148 17.6875,15.78125 C 17.648017,15.815284 17.54685,15.882288 17.40625,15.96875 C 17.155721,16.122813 16.674972,16.325865 16.15625,16.5625 C 15.659379,16.789165 15.052411,17.055795 14.5,17.625 C 14.185216,17.949353 13.93606,18.405699 13.84375,18.9375 C 13.748287,19.487464 13.855341,20.027876 14.09375,20.5 C 14.524574,21.353165 15.336698,21.862571 16.125,21.96875 C 16.322501,21.995352 16.368424,21.942154 16.53125,21.9375 C 16.143765,23.038143 15.90625,24.19663 15.90625,25.4375 C 15.90625,26.607326 16.124806,27.709228 16.46875,28.75 C 15.751736,29.253293 15.140252,29.842714 14.75,30.5 C 14.364149,31.149877 13.992776,32.10629 14.46875,33.09375 C 14.738972,33.654359 15.24756,33.98477 15.75,34.15625 C 16.108568,34.278627 16.456818,34.264117 16.8125,34.25 C 16.827042,34.479005 16.798806,34.618445 16.875,34.9375 C 17.025009,35.565644 17.410126,36.269882 18.09375,36.78125 C 18.445454,37.044331 18.950009,37.300132 19.5625,37.28125 C 20.13905,37.263475 20.613456,37.064367 20.96875,36.75 C 21.556766,36.229717 21.781048,35.618232 22,35.1875 C 22.025255,35.137818 22.065401,35.078868 22.09375,35.03125 C 23.29074,35.553481 24.585759,35.84375 25.96875,35.84375 C 27.212505,35.84375 28.419067,35.615344 29.53125,35.1875 C 29.566688,35.251327 29.584761,35.311162 29.625,35.375 C 30.276405,36.40843 31.556178,37.298941 33.09375,37.09375 C 33.953159,36.979061 34.737732,36.490373 35.09375,35.75 C 35.394321,35.12494 35.381235,34.565306 35.40625,34.34375 C 35.432049,34.115255 35.45316,34.101583 35.4375,34.125 C 35.468509,34.106339 35.571325,34.058947 35.78125,34 C 36.229453,33.874141 36.693187,33.662133 37.09375,33.28125 C 37.596966,32.802756 37.85394,32.131127 37.6875,31.40625 C 37.44365,30.344251 36.683874,29.892937 36.21875,29.5625 C 35.964457,29.381842 35.700167,29.2243 35.4375,29.0625 C 35.841531,27.928146 36.0625,26.707894 36.0625,25.4375 C 36.0625,24.476567 35.893429,23.563496 35.65625,22.6875 C 35.853685,22.608064 36.057747,22.539257 36.25,22.4375 C 36.792343,22.150445 37.585711,21.708079 37.84375,20.6875 C 37.994704,20.090454 37.864242,19.466977 37.53125,18.96875 C 37.236676,18.528003 36.84923,18.247575 36.46875,18.03125 C 36.073099,17.806299 35.936225,17.690536 35.90625,17.65625 C 35.911999,17.672477 35.898024,17.625442 35.875,17.53125 C 35.774617,17.120575 35.406858,16.015413 34.28125,15.25 C 33.609889,14.793472 32.867802,14.596224 32.125,14.625 C 31.38548,14.653651 30.691427,14.873045 30.09375,15.21875 C 29.860554,15.353633 29.664382,15.52338 29.46875,15.6875 C 28.369983,15.269572 27.194826,15.03125 25.96875,15.03125 C 24.84349,15.03125 23.784635,15.241627 22.78125,15.59375 C 22.54508,15.316488 22.298206,15.041664 22.03125,14.8125 C 21.505262,14.360973 20.774159,13.869559 19.78125,13.9375 z M 17.65625,15.84375 C 17.642573,15.893236 17.605801,15.95156 17.59375,16 C 17.593616,16.000539 17.61537,15.896268 17.625,15.875 C 17.63463,15.853732 17.649602,15.855304 17.65625,15.84375 z M 25.96875,21.34375 C 28.133753,21.343748 29.90625,23.16048 29.90625,25.4375 C 29.90625,27.714521 28.133754,29.53125 25.96875,29.53125 C 23.803747,29.531251 22.03125,27.714521 22.03125,25.4375 C 22.03125,23.16048 23.803746,21.34375 25.96875,21.34375 z M 32.40625,33.4375 C 32.380752,33.540057 32.35929,33.627265 32.34375,33.71875 C 32.329213,33.696956 32.328462,33.712823 32.3125,33.6875 C 32.29121,33.653724 32.271414,33.600453 32.25,33.5625 C 32.30141,33.519721 32.355646,33.481337 32.40625,33.4375 z"
       transform="translate(-1,0)" />
    <path
       style="opacity:0.15185182;fill:url(#linearGradient8118);fill-opacity:1;fill-rule:evenodd;stroke:none;stroke-width:1px;stroke-linecap:butt;stroke-linejoin:miter;stroke-opacity:1"
       d="M 37.15625,6.6281408 L 18.0625,7.25 L 37.25,7.3232233 L 37.15625,6.6281408 z M 37.330806,8.1982233 L 12,8.6875 L 37.518306,8.8857233 L 37.330806,8.1982233 z M 37.84375,9.75 L 18.875,10.0625 L 38.213388,10.489277 L 37.84375,9.75 z"
       transform="translate(-1.079935e-8,-2)"
       id="path8105"
       sodipodi:nodetypes="cccccccccccc" />
    <path
       sodipodi:type="inkscape:offset"
       inkscape:radius="-1"
       inkscape:original="M 11.5 3.5 C 9.8376743 3.5 8.4999997 4.8369277 8.5 6.5 C 8.5 8.1630722 9.8376739 9.5000001 11.5 9.5 L 39.5 9.5 C 37.313315 6.6031728 37.85582 5.3180581 37.5 3.5 L 11.5 3.5 z "
       style="opacity:0.27509293;fill:none;fill-opacity:1;fill-rule:evenodd;stroke:#ffffff;stroke-width:1;stroke-linecap:round;stroke-linejoin:miter;stroke-miterlimit:4;stroke-dashoffset:0.69999992;stroke-opacity:1"
       id="path8124"
       d="M 11.5,4.5 C 10.373842,4.5 9.4999998,5.3731541 9.5,6.5 C 9.5,7.6268462 10.373841,8.5000001 11.5,8.5 L 37.71875,8.5 C 36.816301,6.7935882 36.727019,5.5725612 36.625,4.5 L 11.5,4.5 z" />
  </g>
  <g
     inkscape:groupmode="layer"
     id="layer2"
     inkscape:label="ring"
     style="display:inline">
    <g
       id="g3302">
      <path
         sodipodi:nodetypes="cszsc"
         id="path4685"
         d="M 21.475131,19.695436 C 21.475131,21.413562 19.120054,24.333716 18.472422,22.807982 C 17.226792,19.873442 15.369757,22.515739 14.491533,20.776582 C 13.624014,19.058625 17.711892,18.963607 18.11204,17.355137 C 18.688389,15.038395 21.475131,17.977311 21.475131,19.695436 z"
         style="fill:none;fill-opacity:1;stroke:#ffcc00;stroke-width:2.99999595;stroke-linecap:round;stroke-linejoin:miter;stroke-miterlimit:4;stroke-dasharray:none;stroke-dashoffset:1.20000057;stroke-opacity:1" />
      <path
         sodipodi:nodetypes="csszz"
         id="path4687"
         d="M 34.685704,20.391346 C 36.800291,21.593617 33.141658,22.807982 31.484163,22.807982 C 29.826668,22.807982 28.481453,21.413562 28.481453,19.695436 C 28.481453,17.977311 30.880541,16.474653 32.428612,17.52734 C 33.953743,18.564427 32.545898,19.174738 34.685704,20.391346 z"
         style="fill:none;fill-opacity:1;stroke:#ffcc00;stroke-width:2.99999595;stroke-linecap:round;stroke-linejoin:miter;stroke-miterlimit:4;stroke-dasharray:none;stroke-dashoffset:1.20000057;stroke-opacity:1" />
      <path
         sodipodi:nodetypes="czzsc"
         id="path4689"
         d="M 21.475131,33.183143 C 19.674051,33.755206 19.456167,37.598506 18.035222,36.535605 C 16.532557,35.411576 18.30853,33.402092 15.95759,33.720847 C 13.61744,34.03814 15.191477,30.801655 18.472422,30.070597 C 20.090243,29.710116 21.475131,31.465018 21.475131,33.183143 z"
         style="fill:none;fill-opacity:1;stroke:#ffcc00;stroke-width:2.99999595;stroke-linecap:round;stroke-linejoin:miter;stroke-miterlimit:4;stroke-dasharray:none;stroke-dashoffset:1.20000057;stroke-opacity:1" />
      <path
         sodipodi:nodetypes="czzsz"
         id="path4691"
         d="M 34.352669,33.460315 C 31.804437,34.175867 33.689287,36.304345 31.879126,36.545915 C 30.140531,36.777934 29.421926,34.733209 29.189199,33.183143 C 28.95783,31.642128 30.22633,28.991177 31.484163,30.070597 C 32.566615,30.999513 36.91897,32.739688 34.352669,33.460315 z"
         style="fill:none;fill-opacity:1;stroke:#ffcc00;stroke-width:2.99999595;stroke-linecap:round;stroke-linejoin:miter;stroke-miterlimit:4;stroke-dasharray:none;stroke-dashoffset:1.20000057;stroke-opacity:1" />
      <path
         sodipodi:nodetypes="cszsc"
         id="path3751"
         d="M 21.475131,19.695436 C 21.475131,21.413562 19.120054,24.333716 18.472422,22.807982 C 17.226792,19.873442 15.369757,22.515739 14.491533,20.776582 C 13.624014,19.058625 17.711892,18.963607 18.11204,17.355137 C 18.688389,15.038395 21.475131,17.977311 21.475131,19.695436 z"
         style="fill:none;fill-opacity:1;stroke:#ffffff;stroke-width:0.99999857;stroke-linecap:round;stroke-linejoin:miter;stroke-miterlimit:4;stroke-dashoffset:1.20000057;stroke-opacity:1" />
      <path
         sodipodi:nodetypes="csszz"
         id="path3753"
         d="M 34.685704,20.391346 C 36.800291,21.593617 33.141658,22.807982 31.484163,22.807982 C 29.826668,22.807982 28.481453,21.413562 28.481453,19.695436 C 28.481453,17.977311 30.880541,16.474653 32.428612,17.52734 C 33.953743,18.564427 32.545898,19.174738 34.685704,20.391346 z"
         style="fill:none;fill-opacity:1;stroke:#ffffff;stroke-width:0.99999857;stroke-linecap:round;stroke-linejoin:miter;stroke-miterlimit:4;stroke-dashoffset:1.20000057;stroke-opacity:1" />
      <path
         sodipodi:nodetypes="czzsc"
         id="path3755"
         d="M 21.475131,33.183143 C 19.674051,33.755206 19.456167,37.598506 18.035222,36.535605 C 16.532557,35.411576 18.30853,33.402092 15.95759,33.720847 C 13.61744,34.03814 15.191477,30.801655 18.472422,30.070597 C 20.090243,29.710116 21.475131,31.465018 21.475131,33.183143 z"
         style="fill:none;fill-opacity:1;stroke:#ffffff;stroke-width:0.99999857;stroke-linecap:round;stroke-linejoin:miter;stroke-miterlimit:4;stroke-dashoffset:1.20000057;stroke-opacity:1" />
      <path
         sodipodi:nodetypes="czzsz"
         id="path3757"
         d="M 34.352669,33.460315 C 31.804437,34.175867 33.689287,36.304345 31.879126,36.545915 C 30.140531,36.777934 29.421926,34.733209 29.189199,33.183143 C 28.95783,31.642128 30.22633,28.991177 31.484163,30.070597 C 32.566615,30.999513 36.91897,32.739688 34.352669,33.460315 z"
         style="fill:none;fill-opacity:1;stroke:#ffffff;stroke-width:0.99999857;stroke-linecap:round;stroke-linejoin:miter;stroke-miterlimit:4;stroke-dashoffset:1.20000057;stroke-opacity:1" />
      <path
         id="path1871"
         d="M 24.978292,16.58289 C 19.729561,16.58289 15.469713,20.998557 15.469713,26.439289 C 15.469713,31.880022 19.729561,36.295689 24.978292,36.295689 C 30.227024,36.295689 34.486872,31.880022 34.486872,26.439289 C 34.486872,20.998557 30.227024,16.58289 24.978292,16.58289 z M 24.978292,21.770469 C 27.464531,21.770468 29.482357,23.862104 29.482357,26.439289 C 29.482357,29.016475 27.464531,31.10811 24.978292,31.10811 C 22.492053,31.10811 20.474228,29.016475 20.474228,26.439289 C 20.474228,23.862104 22.492053,21.770469 24.978292,21.770469 z"
         style="fill:url(#radialGradient3292);fill-opacity:1;stroke:#888a85;stroke-width:0.99999881;stroke-linecap:round;stroke-linejoin:round;stroke-miterlimit:4;stroke-dasharray:none;stroke-dashoffset:1.20000057;stroke-opacity:1" />
      <path
         sodipodi:nodetypes="ccccc"
         id="path2764"
         d="M 21.162349,17.425872 C 18.988646,18.418496 17.240543,20.230544 16.282946,22.48376 C 18.282034,22.460116 19.580812,23.486938 20.849567,24.558792 C 21.302927,23.495257 22.138151,22.629482 23.164155,22.159537 C 22.80328,20.362796 22.174945,18.757098 21.162349,17.425872 z"
         style="fill:url(#linearGradient3289);fill-opacity:1;fill-rule:evenodd;stroke:none;stroke-width:1px;stroke-linecap:butt;stroke-linejoin:miter;stroke-opacity:1" />
      <path
         sodipodi:nodetypes="ccccc"
         id="path2772"
         d="M 20.849567,28.319787 C 19.32736,28.708653 17.805153,28.811531 16.282946,30.394818 C 17.240543,32.648034 18.988646,34.460082 21.162349,35.452707 C 21.433793,33.610935 21.953661,31.934779 23.164155,30.719042 C 22.138151,30.249096 21.302927,29.383322 20.849567,28.319787 z"
         style="fill:url(#linearGradient3286);fill-opacity:1;stroke:none;stroke-width:1;stroke-linecap:round;stroke-linejoin:miter;stroke-miterlimit:4;stroke-dasharray:none;stroke-dashoffset:1.20000057;stroke-opacity:1" />
      <path
         sodipodi:nodetypes="ccccc"
         id="path2795"
         d="M 28.794235,17.425872 C 27.818966,18.695759 26.988437,20.110388 26.792429,22.159537 C 27.818434,22.629482 28.653657,23.495257 29.107018,24.558792 C 30.698191,23.246416 32.239315,22.38449 33.673638,22.48376 C 32.716041,20.230544 30.967939,18.418496 28.794235,17.425872 z"
         style="fill:url(#linearGradient3283);fill-opacity:1;fill-rule:evenodd;stroke:none;stroke-width:1px;stroke-linecap:butt;stroke-linejoin:miter;stroke-opacity:1" />
      <path
         sodipodi:nodetypes="ccccc"
         id="path2797"
         d="M 29.107018,28.319787 C 28.653657,29.383322 27.818434,30.249096 26.792429,30.719042 C 27.80406,31.952568 28.410704,33.591081 28.794235,35.452707 C 30.967939,34.460082 32.716041,32.648034 33.673638,30.394818 C 32.590868,29.175817 30.974034,28.597692 29.107018,28.319787 z"
         style="fill:url(#linearGradient3280);fill-opacity:1;fill-rule:evenodd;stroke:none;stroke-width:1px;stroke-linecap:butt;stroke-linejoin:miter;stroke-opacity:1" />
      <path
         sodipodi:nodetypes="cccc"
         id="path3706"
         d="M 20.849567,24.558792 C 21.302928,23.495257 22.138151,22.629482 23.164155,22.159537 M 21.162349,17.425872 C 18.988646,18.418496 17.240543,20.230544 16.282946,22.48376"
         style="fill:none;fill-rule:evenodd;stroke:#a40000;stroke-width:0.99999881px;stroke-linecap:round;stroke-linejoin:miter;stroke-opacity:1" />
      <path
         sodipodi:nodetypes="cccc"
         id="path3708"
         d="M 33.673638,22.48376 C 32.716041,20.230544 30.967939,18.418496 28.794235,17.425872 M 26.792429,22.159537 C 27.818434,22.629482 28.653657,23.495257 29.107018,24.558792"
         style="fill:none;fill-rule:evenodd;stroke:#a40000;stroke-width:0.99999881px;stroke-linecap:round;stroke-linejoin:miter;stroke-opacity:1" />
      <path
         sodipodi:nodetypes="cccc"
         id="path3710"
         d="M 29.107018,28.319787 C 28.653657,29.383322 27.818434,30.249096 26.792429,30.719042 M 28.794235,35.452707 C 30.967939,34.460082 32.716041,32.648034 33.673638,30.394818"
         style="fill:none;fill-rule:evenodd;stroke:#a40000;stroke-width:0.99999881px;stroke-linecap:round;stroke-linejoin:miter;stroke-opacity:1" />
      <path
         sodipodi:nodetypes="cccc"
         id="path3712"
         d="M 23.164155,30.719042 C 22.138151,30.249096 21.302927,29.383322 20.849567,28.319787 M 16.282946,30.394818 C 17.240543,32.648034 18.988646,34.460082 21.162349,35.452707"
         style="fill:none;fill-opacity:1;stroke:#a40000;stroke-width:0.99999881;stroke-linecap:round;stroke-linejoin:miter;stroke-miterlimit:4;stroke-dasharray:none;stroke-dashoffset:1.20000057;stroke-opacity:1" />
      <path
         transform="matrix(1.0869136,0,0,1.1719034,14.109159,14.39066)"
         d="M 18,10.28125 A 8,7.71875 0 1 1 2,10.28125 A 8,7.71875 0 1 1 18,10.28125 z"
         sodipodi:ry="7.71875"
         sodipodi:rx="8"
         sodipodi:cy="10.28125"
         sodipodi:cx="10"
         id="path3722"
         style="opacity:0.4;fill:none;fill-opacity:1;stroke:url(#radialGradient3269);stroke-width:0.88604563;stroke-linecap:round;stroke-linejoin:miter;stroke-miterlimit:4;stroke-dasharray:none;stroke-dashoffset:1.20000057;stroke-opacity:1"
         sodipodi:type="arc" />
      <path
         transform="matrix(0.6530547,0,0,0.7016326,18.447751,19.22564)"
         d="M 18,10.28125 A 8,7.71875 0 1 1 2,10.28125 A 8,7.71875 0 1 1 18,10.28125 z"
         sodipodi:ry="7.71875"
         sodipodi:rx="8"
         sodipodi:cy="10.28125"
         sodipodi:cx="10"
         id="path3724"
         style="opacity:0.8;fill:none;fill-opacity:1;stroke:url(#radialGradient3271);stroke-width:1.47730517;stroke-linecap:round;stroke-linejoin:miter;stroke-miterlimit:4;stroke-dasharray:none;stroke-dashoffset:1.20000057;stroke-opacity:1"
         sodipodi:type="arc" />
    </g>
  </g>
</svg>
