<?xml version="1.0" encoding="UTF-8" standalone="no"?>
<!-- Created with Inkscape (http://www.inkscape.org/) -->
<svg
   xmlns:dc="http://purl.org/dc/elements/1.1/"
   xmlns:cc="http://creativecommons.org/ns#"
   xmlns:rdf="http://www.w3.org/1999/02/22-rdf-syntax-ns#"
   xmlns:svg="http://www.w3.org/2000/svg"
   xmlns="http://www.w3.org/2000/svg"
   xmlns:sodipodi="http://sodipodi.sourceforge.net/DTD/sodipodi-0.dtd"
   xmlns:inkscape="http://www.inkscape.org/namespaces/inkscape"
   id="svg2"
   sodipodi:version="0.32"
   inkscape:version="0.46"
   width="48"
   height="48"
   version="1.0"
   sodipodi:docname="system-search.svg"
   style="display:inline"
   inkscape:output_extension="org.inkscape.output.svg.inkscape">
  <metadata
     id="metadata7">
    <rdf:RDF>
      <cc:Work
         rdf:about="">
        <dc:format>image/svg+xml</dc:format>
        <dc:type
           rdf:resource="http://purl.org/dc/dcmitype/StillImage" />
      </cc:Work>
    </rdf:RDF>
  </metadata>
  <defs
     id="defs5">
    <inkscape:perspective
       sodipodi:type="inkscape:persp3d"
       inkscape:vp_x="0 : 526.18109 : 1"
       inkscape:vp_y="0 : 1000 : 0"
       inkscape:vp_z="744.09448 : 526.18109 : 1"
       inkscape:persp3d-origin="372.04724 : 350.78739 : 1"
       id="perspective9" />
  </defs>
  <sodipodi:namedview
     inkscape:window-height="958"
     inkscape:window-width="1398"
     inkscape:pageshadow="2"
     inkscape:pageopacity="0.0"
     guidetolerance="10.0"
     gridtolerance="10.0"
     objecttolerance="10.0"
     borderopacity="1.0"
     bordercolor="#666666"
     pagecolor="#ffffff"
     id="base"
     showgrid="false"
     inkscape:zoom="3.640625"
     inkscape:cx="118.11159"
     inkscape:cy="63.725322"
     inkscape:window-x="0"
     inkscape:window-y="27"
     inkscape:current-layer="layer2" />
  <g
     inkscape:groupmode="layer"
     id="layer2"
     inkscape:label="trace"
     style="display:inline">
    <path
       style="fill:#000000;display:inline"
       d="M 36.711306,45.928246 C 36.004414,45.051683 33.808679,42.129889 31.831893,39.435368 C 29.855108,36.740847 27.848739,34.368546 27.373295,34.163588 C 26.897851,33.958631 26.002602,33.907335 25.383852,34.049599 C 24.765102,34.191862 22.556158,34.328225 20.475088,34.352628 C 16.115303,34.40375 12.039162,33.527677 8.9496558,31.875499 C 6.2940378,30.455353 2.8805335,26.991969 1.7562685,24.576999 C 0.90396636,22.746217 0.82838129,22.141528 0.82501529,17.126875 C 0.82156109,11.980837 0.87767958,11.556219 1.8079755,9.6893583 C 3.7424373,5.8073996 7.8674849,2.6131524 12.954603,1.0579233 C 14.928044,0.45460447 16.527382,0.27199571 19.837974,0.27199571 C 26.816502,0.27199571 31.422095,1.9297983 35.319756,5.8447282 C 38.975213,9.5163836 40.007131,12.769976 39.471601,18.935324 C 39.161101,22.509999 38.478507,24.51976 36.746735,26.958151 C 36.369018,27.489989 37.051365,28.402938 41.381472,33.159212 C 44.174183,36.226785 46.672088,39.134528 46.932368,39.620866 C 48.003529,41.622353 46.451423,45.191352 43.809166,46.802521 C 42.987604,47.303483 41.935969,47.519614 40.315208,47.520593 C 38.038384,47.521969 37.973382,47.493252 36.711306,45.928246 z M 40.275473,45.641082 C 40.136071,44.691263 40.385472,44.234194 41.832976,42.786687 C 43.348613,41.271049 43.715641,41.081787 44.876408,41.217301 C 45.885319,41.335084 46.195774,41.234498 46.193903,40.790446 C 46.192557,40.470923 43.486516,37.214183 40.180482,33.553246 C 35.887323,28.799222 33.932213,26.893587 33.339178,26.88507 C 32.552771,26.873774 32.54499,26.84575 33.192069,26.355259 C 33.853026,25.85425 33.853026,25.830709 33.192069,25.632785 C 32.8163,25.52026 33.057289,25.476323 33.727602,25.535147 C 34.397914,25.593972 34.946352,25.492618 34.946352,25.309917 C 34.946352,25.127216 35.133118,25.093161 35.361388,25.234239 C 35.589658,25.375318 35.631845,25.596214 35.455138,25.725121 C 35.278431,25.854027 35.078637,26.212621 35.011152,26.521996 C 34.941027,26.843475 35.380045,26.615296 36.035745,25.989465 C 37.958202,24.154579 38.508852,22.10226 38.508852,16.771996 C 38.508852,12.412424 38.436387,11.93694 37.47304,9.975294 C 36.903343,8.815233 35.617938,7.0997433 34.616585,6.1630942 C 32.597531,4.2745057 29.148856,2.3525785 28.499351,2.7539945 C 28.232149,2.9191348 28.18635,2.8415602 28.372872,2.5397612 C 28.581066,2.2028975 28.462757,2.1267816 27.962063,2.2754599 C 27.575297,2.390308 26.330727,2.2645721 25.196352,1.9960467 C 23.753467,1.6544919 23.359166,1.4458317 23.883852,1.3014834 C 24.296352,1.1879988 23.621352,1.1605056 22.383852,1.2403873 C 20.764739,1.3449024 20.396721,1.292554 21.071352,1.0536912 C 21.822578,0.7877088 21.599049,0.72175575 19.946352,0.72175575 C 18.293655,0.72175575 18.070126,0.7877088 18.821352,1.0536912 C 19.486979,1.2893661 19.106356,1.3384209 17.508852,1.222847 C 15.886212,1.1054546 15.467972,1.1612341 16.008852,1.4228977 C 16.580243,1.6993217 16.401633,1.7419717 15.258852,1.6019899 C 14.137719,1.4646599 13.900927,1.5182583 14.321352,1.8141958 C 14.742638,2.1107392 14.554353,2.155274 13.571352,1.9915918 C 12.573624,1.8254573 12.393754,1.8701272 12.821352,2.177851 C 13.255447,2.4902506 13.14127,2.5295016 12.321181,2.3497964 C 11.550369,2.1808892 11.334549,2.2399683 11.535372,2.5649058 C 11.710471,2.8482232 11.652701,2.9142809 11.378197,2.744628 C 11.139477,2.5970911 10.073386,2.9503143 9.009105,3.5295686 C 4.5253852,5.9699145 1.6320949,10.398446 1.2767486,15.364876 C 1.1566653,17.043198 1.2218172,17.92552 1.4551803,17.781294 C 1.6573493,17.656347 2.0998499,18.13518 2.438515,18.845368 C 3.1372074,20.310541 6.1235021,24.132694 7.3311221,25.107407 C 8.3632788,25.940497 8.9398057,25.958914 8.2735188,25.137511 C 7.9238103,24.706389 7.9090934,24.593289 8.227602,24.784643 C 8.4854145,24.939531 8.696352,24.908212 8.696352,24.715044 C 8.696352,24.26784 7.7495928,23.468755 7.5070769,23.711271 C 7.4065548,23.811793 6.9158313,23.430641 6.4165807,22.864267 L 5.508852,21.834496 L 6.633852,22.771996 L 7.758852,23.709496 L 6.8653226,22.694839 C 6.3738813,22.136778 5.8015739,21.714903 5.5935281,21.757339 C 5.3854822,21.799775 4.8624108,21.245498 4.4311473,20.525612 C 3.7984111,19.469418 3.6541055,18.636856 3.6836735,16.213112 C 3.717577,13.43399 3.700632,13.36365 3.4569576,15.271996 L 3.1935994,17.334496 L 3.1324757,15.621309 C 3.0564525,13.490518 3.9522498,10.38186 4.9783815,9.2155181 C 5.4046927,8.7309558 5.6351028,8.5876207 5.4904046,8.8969957 C 5.345706,9.2063707 5.7670098,8.8266832 6.4266356,8.0532457 C 7.0862613,7.2798082 7.79742,6.6469957 8.0069887,6.6469957 C 8.2165571,6.6469957 7.9249616,7.1954332 7.3589984,7.8657457 C 4.5031428,11.24815 3.7383398,15.903058 5.4752913,19.330767 C 7.8390637,23.995447 13.618129,27.01816 20.133852,26.997858 C 25.133731,26.982279 29.555523,25.499103 31.795954,23.086107 C 33.746392,20.985441 35.696352,18.20038 35.696352,17.515302 C 35.696352,15.465403 31.514671,10.666672 28.465312,9.2172498 C 27.595509,8.8038146 26.461977,8.2276125 25.946352,7.9368007 C 24.697232,7.2322987 18.238134,7.2351705 15.258852,7.941552 C 14.021352,8.2349606 12.193265,8.8371918 11.196436,9.279843 C 8.9444752,10.279848 8.5147451,10.005391 10.442172,8.7981161 C 12.522242,7.4952296 15.276832,6.640944 18.071352,6.4320652 C 19.411977,6.3318588 21.315858,6.1777807 22.302199,6.0896692 C 23.288541,6.0015577 24.004391,6.0769593 23.892979,6.2572282 C 23.637271,6.6709721 26.866554,7.3803367 27.843158,7.124949 C 28.302877,7.00473 28.571352,7.1242833 28.571352,7.4492171 C 28.571352,7.7322993 29.076226,8.1873911 29.693294,8.4605321 C 31.45453,9.2401312 34.091188,11.889683 35.352084,14.146996 L 36.504161,16.209496 L 36.289467,14.388387 C 35.845824,10.625248 32.616645,6.6389831 28.301703,4.5278782 C 27.14599,3.9624408 26.403587,3.432084 26.651917,3.3493073 C 27.3888,3.1036797 30.970425,5.102112 33.043558,6.9156386 C 36.402731,9.8541611 37.560451,13.610877 36.257096,17.343331 C 35.898686,18.369722 35.552931,19.631371 35.488753,20.146996 C 35.418805,20.708968 34.648406,21.714388 33.565458,22.657016 C 32.571825,23.521902 31.758852,24.450027 31.758852,24.719516 C 31.758852,24.989005 31.421352,25.238461 31.008852,25.273863 C 29.754165,25.381544 26.661564,26.737207 26.969081,27.044725 C 27.127609,27.203253 26.751411,27.232273 26.133083,27.109214 C 25.20228,26.923966 25.137892,26.951674 25.758852,27.270261 C 26.353285,27.575239 26.197719,27.61716 25.008852,27.47237 C 23.981321,27.347229 23.745087,27.390248 24.258852,27.608948 C 24.837631,27.855323 24.503713,27.993193 22.796188,28.212859 C 17.953471,28.835856 12.249443,27.63294 10.355401,25.589234 C 9.8536023,25.047784 9.2570186,24.719747 9.0296598,24.860263 C 8.7406837,25.03886 8.7640072,25.207046 9.1071614,25.419127 C 9.3771461,25.585987 9.7587356,25.623195 9.9551381,25.501811 C 10.151541,25.380428 10.196381,25.468568 10.054783,25.697677 C 9.9131857,25.926787 9.5074248,26.026494 9.1530926,25.919248 C 7.2433143,25.341216 10.920921,27.02131 13.428064,27.872245 C 16.974582,29.075948 21.488824,29.235599 25.0028,28.281597 C 26.280892,27.934611 27.387639,27.813283 27.574076,27.99972 C 27.760513,28.186157 27.036772,28.484337 25.892628,28.692473 C 24.387874,28.96621 24.166126,29.07749 25.008852,29.135979 C 25.99118,29.204157 25.896066,29.280225 24.258852,29.735794 C 21.804922,30.418621 18.405067,30.407935 15.002118,29.706699 C 12.076691,29.103865 8.133852,27.339945 8.133852,26.634021 C 8.133852,26.399606 7.3381642,25.600259 6.3656572,24.857695 C 4.6693439,23.562463 2.7326167,21.144198 1.9321739,19.321892 C 1.6376481,18.651368 1.5899587,18.928587 1.7178269,20.567894 C 1.8082788,21.727513 2.2461881,23.389602 2.6909587,24.261424 C 3.7456261,26.328743 6.3635924,29.155215 6.9981873,28.911698 C 7.2717033,28.80674 7.6230063,28.927193 7.7788612,29.179371 C 7.9720057,29.491886 7.9059333,29.541279 7.571352,29.334496 C 7.2525348,29.137456 7.1711561,29.177847 7.3391868,29.449726 C 7.5064747,29.720403 7.8970016,29.754621 8.4442646,29.546552 C 9.2964712,29.222543 11.205295,29.888053 10.744738,30.34861 C 10.620913,30.472435 11.501557,30.94974 12.701727,31.409287 C 15.369267,32.430693 21.42938,32.829053 24.448895,32.181483 C 26.174242,31.811462 26.512578,31.831928 26.787358,32.322933 C 27.32113,33.27673 27.838786,32.970548 27.383149,31.970536 C 26.591552,30.233168 28.690313,26.521996 30.464436,26.521996 C 30.695145,26.521996 30.526582,26.986058 30.089852,27.553246 C 27.213468,31.288847 27.064011,30.720142 33.01636,38.689028 L 38.238387,45.680172 L 39.039331,44.025642 C 39.479851,43.115648 40.204696,42.053498 40.650098,41.665302 C 41.305362,41.094207 41.272681,41.210318 40.478866,42.273657 C 38.613188,44.772811 38.286874,46.771996 39.744634,46.771996 C 40.306384,46.771996 40.409284,46.552778 40.275473,45.641082 z M 41.676166,41.799687 C 42.386937,41.028207 43.188499,40.396996 43.457416,40.396996 C 44.536197,40.396996 43.840347,38.911771 42.032776,37.356245 C 38.798776,34.573189 35.240365,30.861491 35.669203,30.718545 C 35.892955,30.643962 35.972977,30.386413 35.84703,30.146217 C 35.596182,29.667818 39.438023,33.578453 43.047229,37.475348 L 45.335607,39.946133 L 43.797229,40.788541 C 42.951121,41.251864 41.836977,41.984521 41.321352,42.416663 C 40.805727,42.848806 40.965394,42.571167 41.676166,41.799687 z M 36.029007,34.115746 C 35.516042,33.548558 34.854566,32.746996 34.55906,32.334496 C 34.021777,31.584496 34.021777,31.584496 34.899537,32.334496 C 35.757635,33.067696 37.387813,35.146996 37.104546,35.146996 C 37.025965,35.146996 36.541972,34.682933 36.029007,34.115746 z M 24.577317,31.227606 C 24.321303,30.949201 24.274878,30.549446 24.463177,30.244772 C 24.879209,29.571618 25.29052,30.006109 25.132903,30.952241 C 25.035397,31.53754 24.916509,31.596464 24.577317,31.227606 z M 6.0235188,28.115746 C 5.5570672,27.520975 5.570331,27.507711 6.165102,27.974163 C 6.5260394,28.257229 6.821352,28.552542 6.821352,28.630413 C 6.821352,28.93905 6.5134072,28.740401 6.0235188,28.115746 z M 34.933122,22.716195 C 35.992797,21.448004 37.108611,19.929254 37.412708,19.341195 C 38.106683,17.999196 38.426007,17.947907 37.927731,19.258473 C 37.447348,20.521975 36.258201,22.257246 34.813288,23.803246 C 32.834895,25.920047 32.922869,25.122013 34.933122,22.716195 z M 37.290921,15.084496 C 37.286758,14.259496 37.360147,13.877841 37.454007,14.236374 C 37.547867,14.594906 37.551272,15.269906 37.461575,15.736374 C 37.371877,16.202841 37.295083,15.909496 37.290921,15.084496 z M 26.021072,5.9020803 C 23.986711,5.4202811 24.117514,5.0376667 26.249676,5.2333923 C 28.287766,5.4204821 30.001996,6.3098336 28.177602,6.2336103 C 27.672289,6.2124982 26.701851,6.0633097 26.021072,5.9020803 z M 18.719238,5.6263462 C 19.38495,5.5435042 20.5662,5.542143 21.344238,5.6233215 C 22.122276,5.7044996 21.577602,5.7722793 20.133852,5.7739432 C 18.690102,5.7756067 18.053526,5.7091882 18.719238,5.6263462 z M 10.232044,5.1769905 C 9.8391431,4.9282455 10.220419,4.5819363 11.732044,3.814554 C 13.377184,2.9793934 14.419357,2.7508109 17.26639,2.6006915 C 20.942219,2.406871 25.946352,3.0531527 25.946352,3.7217051 C 25.946352,3.9315832 25.566664,4.0133928 25.102602,3.903504 C 22.57987,3.3061281 18.10856,2.8546146 16.781125,3.0632003 C 14.241416,3.4622762 12.412575,4.0389622 12.620383,4.3752022 C 12.895642,4.8205815 11.824503,5.1726333 11.072335,4.8839992 C 10.652753,4.7229903 10.537149,4.7882733 10.719466,5.0832686 C 11.041736,5.6047117 10.938883,5.6244885 10.232044,5.1769905 z M 42.146352,46.321996 C 41.529694,45.705338 41.579611,45.146956 42.229107,45.396192 C 42.864049,45.639841 44.696352,44.045176 44.696352,43.248934 C 44.696352,42.883973 44.968167,42.742407 45.479734,42.840923 C 46.129808,42.966117 46.185811,42.898639 45.808819,42.444394 C 45.110558,41.603044 44.454788,41.778394 42.838444,43.238667 C 40.777321,45.100767 40.371751,46.771996 41.980984,46.771996 C 42.459604,46.771996 42.496351,46.671994 42.146352,46.321996 z M 43.196352,43.816257 C 43.196352,43.610007 43.365102,43.336966 43.571352,43.209496 C 43.777602,43.082026 43.946352,43.146484 43.946352,43.352734 C 43.946352,43.558984 43.777602,43.832026 43.571352,43.959496 C 43.365102,44.086966 43.196352,44.022507 43.196352,43.816257 z M 20.981974,33.389341 C 20.623441,33.295481 19.948441,33.292075 19.481974,33.381773 C 19.015507,33.47147 19.308852,33.548265 20.133852,33.552427 C 20.958852,33.556589 21.340507,33.4832 20.981974,33.389341 z M 16.641664,33.015828 C 16.370961,32.907501 16.047524,32.920824 15.922914,33.045433 C 15.798305,33.170043 16.01979,33.258673 16.415102,33.242391 C 16.851955,33.224397 16.940814,33.135538 16.641664,33.015828 z M 24.141664,33.015828 C 23.870961,32.907501 23.547524,32.920824 23.422914,33.045433 C 23.298305,33.170043 23.51979,33.258673 23.915102,33.242391 C 24.351955,33.224397 24.440814,33.135538 24.141664,33.015828 z M 17.220465,29.262124 C 16.855602,29.167045 16.349352,29.173298 16.095465,29.276019 C 15.841578,29.37874 16.140102,29.456532 16.758852,29.44889 C 17.377602,29.441248 17.585328,29.357203 17.220465,29.262124 z M 23.040102,29.27364 C 22.782289,29.169611 22.360414,29.169611 22.102602,29.27364 C 21.844789,29.37767 22.055727,29.462785 22.571352,29.462785 C 23.086977,29.462785 23.297914,29.37767 23.040102,29.27364 z M 14.766664,28.890828 C 14.495961,28.782501 14.172524,28.795824 14.047914,28.920433 C 13.923305,29.045043 14.14479,29.133673 14.540102,29.117391 C 14.976955,29.099397 15.065814,29.010538 14.766664,28.890828 z M 10.196352,27.271996 C 9.4744769,26.876786 8.715102,26.553432 8.508852,26.553432 C 8.3026019,26.553432 8.7244769,26.876786 9.446352,27.271996 C 10.168227,27.667206 10.927602,27.990559 11.133852,27.990559 C 11.340102,27.990559 10.918227,27.667206 10.196352,27.271996 z M 21.352602,27.74882 C 20.579164,27.667916 19.313539,27.667916 18.540102,27.74882 C 17.766664,27.829724 18.399477,27.895918 19.946352,27.895918 C 21.493227,27.895918 22.126039,27.829724 21.352602,27.74882 z M 16.266664,27.390828 C 15.995961,27.282501 15.672524,27.295824 15.547914,27.420433 C 15.423305,27.545043 15.64479,27.633673 16.040102,27.617391 C 16.476955,27.599397 16.565814,27.510538 16.266664,27.390828 z M 12.071352,26.146996 C 11.761977,25.947062 11.340102,25.78348 11.133852,25.78348 C 10.927602,25.78348 11.011977,25.947062 11.321352,26.146996 C 11.630727,26.346929 12.052602,26.510511 12.258852,26.510511 C 12.465102,26.510511 12.380727,26.346929 12.071352,26.146996 z M 34.244185,21.740746 C 34.710637,21.145975 34.697373,21.132711 34.102602,21.599163 C 33.741664,21.882229 33.446352,22.177542 33.446352,22.255413 C 33.446352,22.56405 33.754297,22.365401 34.244185,21.740746 z M 5.0894358,10.190019 C 5.2174968,9.8562971 5.1546292,9.7057732 4.9420567,9.8371503 C 4.7381692,9.9631597 4.571352,10.225049 4.571352,10.419127 C 4.571352,10.958539 4.8401392,10.839675 5.0894358,10.190019 z M 26.016664,1.515828 C 25.745961,1.4075015 25.422524,1.4208238 25.297914,1.5454332 C 25.173305,1.6700426 25.39479,1.7586733 25.790102,1.7423904 C 26.226955,1.7243965 26.315814,1.6355378 26.016664,1.515828 z"
       id="path2409" />
  </g>
  <g
     inkscape:groupmode="layer"
     id="layer1"
     inkscape:label="colors"
     style="display:inline">
    <g
       id="g2385">
      <path
         style="fill:#aca89e"
         d="M 36.773519,45.365746 C 36.307067,44.770973 36.320331,44.757709 36.915102,45.224161 C 37.539757,45.714049 37.738407,46.021996 37.429769,46.021996 C 37.351898,46.021996 37.056585,45.726683 36.773519,45.365746 z M 44.321352,45.880411 C 44.321352,45.802542 44.616664,45.507229 44.977602,45.224161 C 45.572374,44.757709 45.585638,44.770973 45.119187,45.365746 C 44.629298,45.990402 44.321352,46.189051 44.321352,45.880411 z M 43.578874,44.325432 C 43.839769,44.011073 44.130454,43.831096 44.224842,43.925483 C 44.484901,44.185546 43.956511,44.896996 43.503304,44.896996 C 43.254642,44.896996 43.283093,44.681828 43.578874,44.325432 z M 35.648519,43.865746 C 35.182067,43.270973 35.195331,43.257709 35.790102,43.724161 C 36.414757,44.214049 36.613407,44.521996 36.304769,44.521996 C 36.226898,44.521996 35.931585,44.226683 35.648519,43.865746 z M 34.523519,42.365746 C 34.057067,41.770973 34.070331,41.757709 34.665102,42.224161 C 35.289757,42.714049 35.488407,43.021996 35.179769,43.021996 C 35.101898,43.021996 34.806585,42.726683 34.523519,42.365746 z M 33.398519,40.865746 C 32.932067,40.270973 32.945331,40.257709 33.540102,40.724161 C 34.164757,41.214049 34.363407,41.521996 34.054769,41.521996 C 33.976898,41.521996 33.681585,41.226683 33.398519,40.865746 z M 32.273519,39.365746 C 31.807067,38.770973 31.820331,38.757709 32.415102,39.224161 C 33.039757,39.714049 33.238407,40.021996 32.929769,40.021996 C 32.851898,40.021996 32.556585,39.726683 32.273519,39.365746 z M 31.148519,37.865746 C 30.682067,37.270975 30.695331,37.257711 31.290102,37.724161 C 31.914757,38.214049 32.113407,38.521996 31.804769,38.521996 C 31.726898,38.521996 31.431585,38.226683 31.148519,37.865746 z M 30.023519,36.365746 C 29.557067,35.770975 29.570331,35.757711 30.165102,36.224163 C 30.789757,36.714051 30.988407,37.021996 30.679769,37.021996 C 30.601898,37.021996 30.306585,36.726683 30.023519,36.365746 z M 43.167968,35.990746 L 42.258852,34.959496 L 43.290102,35.868613 C 44.253961,36.718321 44.493323,37.021996 44.199218,37.021996 C 44.132048,37.021996 43.667986,36.557933 43.167968,35.990746 z M 28.186307,34.379429 C 26.986714,33.378887 26.742679,33.312841 25.561307,33.668998 C 23.568417,34.26981 16.71942,34.154564 14.197961,33.477791 C 10.676564,32.532629 7.9300919,30.990272 5.4844811,28.584496 C 3.2365664,26.373196 3.2336192,26.367648 5.3131323,28.261928 C 9.6689133,32.229717 14.547272,33.841131 21.258852,33.529098 C 23.527602,33.42362 25.724474,33.228781 26.140789,33.096123 C 26.686368,32.922275 27.314634,33.22293 28.390789,34.172851 C 30.197061,35.767245 30.040207,35.925707 28.186307,34.379429 z M 39.792968,32.240746 L 38.883852,31.209496 L 39.915102,32.118613 C 40.878961,32.968321 41.118323,33.271996 40.824218,33.271996 C 40.757048,33.271996 40.292986,32.807933 39.792968,32.240746 z M 14.133852,31.969996 C 13.199012,31.661898 12.916432,31.45354 13.383852,31.416993 C 13.920439,31.375036 13.740976,31.195276 12.753161,30.785259 C 11.774282,30.378951 11.388748,29.996081 11.428402,29.469656 C 11.470547,28.910167 11.672225,28.781256 12.246593,28.946673 C 12.665835,29.067415 13.806158,29.269258 14.780643,29.395213 C 15.755128,29.521169 16.472278,29.75392 16.374309,29.912437 C 16.276339,30.070955 16.913408,30.131227 17.790017,30.046377 C 18.666626,29.961526 19.171974,29.991954 18.913011,30.113996 C 18.580841,30.270538 18.691285,30.53851 19.288011,31.023865 C 20.000059,31.603018 20.222826,31.632513 20.696352,31.210335 C 21.499083,30.494649 24.821352,30.241437 24.821352,30.895942 C 24.821352,31.524516 24.370595,31.537791 23.724477,30.928246 C 23.323795,30.550245 23.260209,30.566392 23.396029,31.011652 C 23.488664,31.315338 23.97382,31.662367 24.474154,31.782828 L 25.383852,32.001849 L 24.446352,32.256802 C 22.850957,32.690669 15.718668,32.49231 14.133852,31.969996 z M 15.141664,31.515828 C 14.870961,31.407501 14.547524,31.420824 14.422914,31.545433 C 14.298305,31.670043 14.51979,31.758673 14.915102,31.742391 C 15.351955,31.724397 15.440814,31.635538 15.141664,31.515828 z M 21.172914,30.045433 C 21.297524,29.920824 21.620961,29.907501 21.891664,30.015828 C 22.190814,30.135538 22.101955,30.224397 21.665102,30.242391 C 21.26979,30.258673 21.048305,30.170043 21.172914,30.045433 z M 36.598222,28.678246 L 35.883852,27.834496 L 36.727602,28.548866 C 37.191664,28.94177 37.571352,29.321457 37.571352,29.392616 C 37.571352,29.692711 37.269554,29.471163 36.598222,28.678246 z M 16.383852,28.917418 C 13.270251,28.117755 11.648734,27.569614 11.837716,27.380631 C 11.959804,27.258543 11.767005,26.943675 11.409273,26.680923 C 11.051541,26.418172 11.771352,26.555716 13.008852,26.986576 C 16.797055,28.305516 22.392103,28.321355 27.071352,27.026385 C 27.88878,26.800164 27.947364,26.84197 27.528762,27.352803 C 27.264713,27.67503 26.252213,28.13955 25.278762,28.385069 C 23.329961,28.876586 17.567655,29.221453 16.383852,28.917418 z M 18.719238,27.376346 C 19.38495,27.293504 20.5662,27.292143 21.344238,27.373321 C 22.122276,27.4545 21.577602,27.522279 20.133852,27.523943 C 18.690102,27.525607 18.053526,27.459188 18.719238,27.376346 z M 15.547914,27.045433 C 15.672524,26.920824 15.995961,26.907501 16.266664,27.015828 C 16.565814,27.135538 16.476955,27.224397 16.040102,27.242391 C 15.64479,27.258673 15.423305,27.170043 15.547914,27.045433 z M 23.602602,27.02364 C 23.860414,26.919611 24.282289,26.919611 24.540102,27.02364 C 24.797914,27.12767 24.586977,27.212785 24.071352,27.212785 C 23.555727,27.212785 23.344789,27.12767 23.602602,27.02364 z M 25.297914,26.670433 C 25.422524,26.545824 25.745961,26.532501 26.016664,26.640828 C 26.315814,26.760538 26.226955,26.849397 25.790102,26.867391 C 25.39479,26.883673 25.173305,26.795043 25.297914,26.670433 z M 29.040102,25.371463 C 30.442341,24.631196 30.990162,23.983075 29.84085,24.424107 C 29.507824,24.551901 29.786074,24.029218 30.459183,23.262589 C 33.164198,20.181747 34.26132,15.685726 32.934296,13.119544 C 32.273669,11.842032 29.167297,8.8969957 28.480427,8.8969957 C 28.214952,8.8969957 27.368043,8.5594957 26.598408,8.1469957 C 25.446762,7.5297506 24.482625,7.3969957 21.151498,7.3969957 C 14.89258,7.3969957 10.4739,8.9172221 6.8722882,12.309691 C 5.9834651,13.1469 5.1779085,13.753552 5.0821623,13.657806 C 4.9864158,13.562059 5.2253418,12.543953 5.6131087,11.395347 C 6.0008756,10.246741 6.1614014,9.403842 5.9698327,9.5222381 C 5.778264,9.6406342 5.8006631,9.4027822 6.0196087,8.9936786 C 6.4181891,8.2489245 8.9138523,5.8969957 9.305541,5.8969957 C 9.4199913,5.8969957 9.8213617,6.2766832 10.197475,6.7407457 C 10.730896,7.3989 10.785362,7.7030486 10.445085,8.1234573 C 10.089561,8.5627042 10.132839,8.6159291 10.679009,8.4111401 C 14.161333,7.1054246 15.880746,6.8417973 20.937724,6.8382333 C 25.339546,6.8351313 26.35999,6.9397552 26.937724,7.453401 C 27.320595,7.793799 28.224477,8.3199873 28.946352,8.6227087 C 32.289765,10.024782 36.518489,15.68941 35.940597,17.991915 C 35.329095,20.428333 29.744469,26.195891 28.060222,26.130422 C 27.825718,26.121307 28.266664,25.779775 29.040102,25.371463 z M 2.1184325,24.622047 C 1.9824823,24.402075 1.951676,24.141672 2.0499742,24.043374 C 2.1482723,23.945075 2.328624,24.125052 2.4507557,24.443323 C 2.7043247,25.104113 2.488201,25.220344 2.1184325,24.622047 z M 8.0982225,23.428246 L 7.383852,22.584496 L 8.227602,23.298866 C 8.6916644,23.69177 9.071352,24.071457 9.071352,24.142616 C 9.071352,24.442711 8.7695542,24.221163 8.0982225,23.428246 z M 6.2232224,21.553246 L 5.508852,20.709496 L 6.352602,21.423866 C 7.1455188,22.095198 7.3670673,22.396996 7.0669725,22.396996 C 6.9958136,22.396996 6.6161261,22.017308 6.2232224,21.553246 z M 0.88056246,20.146996 C 0.88056246,19.631371 0.9656776,19.420433 1.0697072,19.678246 C 1.1737368,19.936058 1.1737368,20.357933 1.0697072,20.615746 C 0.9656776,20.873558 0.88056246,20.662621 0.88056246,20.146996 z M 4.9291631,19.739878 C 4.6989461,19.309714 4.5812219,18.887125 4.6675541,18.800794 C 4.7538862,18.714462 5.0170657,19.066414 5.2523973,19.582911 C 5.7691739,20.717112 5.5175564,20.839301 4.9291631,19.739878 z M 0.85095723,18.115746 C 0.83467431,17.720433 0.92330507,17.498949 1.0479145,17.623558 C 1.1725238,17.748168 1.1858462,18.071605 1.0775197,18.342308 C 0.95780984,18.641458 0.86895119,18.552599 0.85095723,18.115746 z M 39.165919,15.459496 C 39.161757,14.634496 39.235148,14.252841 39.329007,14.611374 C 39.422866,14.969906 39.426271,15.644906 39.336574,16.111374 C 39.246878,16.577841 39.170082,16.284496 39.165919,15.459496 z M 3.8944577,15.084496 C 3.8868153,14.465746 3.9646071,14.167222 4.0673282,14.421109 C 4.1700494,14.674996 4.1763022,15.181246 4.0812235,15.546109 C 3.9861447,15.910972 3.9021001,15.703246 3.8944577,15.084496 z M 0.85095723,13.240746 C 0.83467431,12.845433 0.92330507,12.623949 1.0479145,12.748558 C 1.1725238,12.873168 1.1858462,13.196605 1.0775197,13.467308 C 0.95780984,13.766458 0.86895119,13.677599 0.85095723,13.240746 z M 4.2259571,12.865746 C 4.2096742,12.470433 4.2983051,12.248949 4.4229146,12.373558 C 4.5475237,12.498168 4.5608463,12.821605 4.4525197,13.092308 C 4.33281,13.391458 4.2439511,13.302599 4.2259571,12.865746 z M 4.946352,10.794127 C 4.946352,10.600049 5.1131692,10.33816 5.3170567,10.21215 C 5.5296292,10.080773 5.5924968,10.231297 5.4644358,10.565019 C 5.2151392,11.214675 4.946352,11.333539 4.946352,10.794127 z M 34.898519,5.9907457 C 34.432067,5.3959747 34.445331,5.382711 35.040102,5.8491626 C 35.401039,6.1322291 35.696352,6.4275416 35.696352,6.5054126 C 35.696352,6.8140503 35.388407,6.6154012 34.898519,5.9907457 z M 5.696352,5.3804126 C 5.696352,5.3025416 5.9916645,5.0072291 6.352602,4.7241626 C 6.947373,4.257711 6.9606367,4.2709747 6.4941851,4.8657457 C 6.0042967,5.4904012 5.696352,5.6890503 5.696352,5.3804126 z M 13.128195,2.3138172 C 15.174128,1.6706952 19.838266,1.0270508 21.071352,1.217673 C 25.105405,1.8412955 27.114337,2.2881651 27.310467,2.6055107 C 27.446031,2.8248574 27.251889,2.8896918 26.837063,2.7636057 C 23.159787,1.6459005 18.297481,1.4685661 15.071352,2.3344957 C 12.504045,3.02359 10.923729,3.0067727 13.128195,2.3138172 z M 21.727602,2.6486404 C 21.985414,2.5446108 22.407289,2.5446108 22.665102,2.6486404 C 22.922914,2.7526701 22.711977,2.8377852 22.196352,2.8377852 C 21.680727,2.8377852 21.469789,2.7526701 21.727602,2.6486404 z M 15.172914,0.7954332 C 15.297524,0.67082385 15.620961,0.65750148 15.891664,0.76582796 C 16.190814,0.88553782 16.101955,0.97439647 15.665102,0.99239043 C 15.26979,1.0086733 15.048305,0.92004259 15.172914,0.7954332 z M 18.727602,0.37572236 C 19.397914,0.29253735 20.494789,0.29253735 21.165102,0.37572236 C 21.835414,0.45890741 21.286977,0.52696792 19.946352,0.52696792 C 18.605727,0.52696792 18.057289,0.45890741 18.727602,0.37572236 z"
         id="path2399" />
      <path
         style="fill:#a6945a"
         d="M 42.071352,44.924213 C 42.071352,44.150003 43.713526,42.646996 44.559424,42.646996 C 45.354184,42.646996 45.162788,44.032594 44.250642,44.882386 C 43.198459,45.862643 42.071352,45.884277 42.071352,44.924213 z M 44.149272,44.497047 C 44.552873,43.844007 44.093202,43.705707 43.578874,44.325432 C 43.283093,44.681828 43.254642,44.896996 43.503304,44.896996 C 43.722634,44.896996 44.013319,44.717018 44.149272,44.497047 z M 46.600958,41.365744 C 46.584676,40.970434 46.673303,40.748948 46.797916,40.873557 C 46.922524,40.998169 46.935844,41.321607 46.827518,41.592308 C 46.707811,41.891457 46.618951,41.802601 46.600958,41.365744 z M 18.352602,32.622419 C 19.229164,32.543468 20.663539,32.543468 21.540102,32.622419 C 22.416664,32.701369 21.699477,32.765965 19.946352,32.765965 C 18.193227,32.765965 17.476039,32.701369 18.352602,32.622419 z M 24.633852,32.146996 C 25.046352,31.969738 25.636977,31.82471 25.946352,31.82471 C 26.300907,31.82471 26.231592,31.943853 25.758852,32.146996 C 25.346352,32.324253 24.755727,32.469282 24.446352,32.469282 C 24.091797,32.469282 24.161112,32.350139 24.633852,32.146996 z M 12.255276,31.402782 C 12.451909,31.084622 12.41673,30.99604 12.157393,31.156319 C 11.099762,31.809971 7.9523595,28.939157 8.5871594,27.899832 C 8.8251397,27.510199 9.2177906,27.544396 10.571352,28.07264 C 11.499477,28.434852 12.083825,28.740385 11.869903,28.751602 C 11.655982,28.762818 11.456546,29.096035 11.426713,29.492082 C 11.389036,29.992246 11.794149,30.387197 12.753161,30.785259 C 13.512541,31.100459 13.936716,31.367045 13.695772,31.377673 C 13.454829,31.3883 12.963083,31.510048 12.603006,31.648223 C 12.121489,31.832998 12.029512,31.768076 12.255276,31.402782 z M 14.422914,31.545433 C 14.547524,31.420824 14.870961,31.407501 15.141664,31.515828 C 15.440814,31.635538 15.351955,31.724397 14.915102,31.742391 C 14.51979,31.758673 14.298305,31.670043 14.422914,31.545433 z M 23.471317,31.336264 C 23.320206,31.091759 23.550356,30.618466 23.995739,30.257817 C 24.432285,29.904324 24.684135,29.509778 24.555405,29.381049 C 24.426676,29.25232 24.64479,29.153064 25.040102,29.160482 C 25.651844,29.17196 25.599267,29.304501 24.686955,30.050729 C 24.007468,30.606518 23.767222,31.021533 24.030705,31.184374 C 24.259311,31.325661 24.641175,31.320851 24.879292,31.173686 C 25.14753,31.007907 25.210441,31.070818 25.044661,31.339055 C 24.699518,31.897509 23.817219,31.895944 23.471317,31.336264 z M 14.047914,29.295433 C 14.172524,29.170824 14.495961,29.157501 14.766664,29.265828 C 15.065814,29.385538 14.976955,29.474397 14.540102,29.492391 C 14.14479,29.508673 13.923305,29.420043 14.047914,29.295433 z M 12.547914,28.920433 C 12.672524,28.795824 12.995961,28.782501 13.266664,28.890828 C 13.565814,29.010538 13.476955,29.099397 13.040102,29.117391 C 12.64479,29.133673 12.423305,29.045043 12.547914,28.920433 z M 15.922914,28.920433 C 16.047524,28.795824 16.370961,28.782501 16.641664,28.890828 C 16.940814,29.010538 16.851955,29.099397 16.415102,29.117391 C 16.01979,29.133673 15.798305,29.045043 15.922914,28.920433 z M 21.922914,28.920433 C 22.047524,28.795824 22.370961,28.782501 22.641664,28.890828 C 22.940814,29.010538 22.851955,29.099397 22.415102,29.117391 C 22.01979,29.133673 21.798305,29.045043 21.922914,28.920433 z M 27.582529,28.678246 C 27.700935,28.317308 27.613697,28.021996 27.388666,28.021996 C 27.118774,28.021996 27.138408,27.830545 27.446352,27.459496 C 27.794236,27.040321 27.800297,26.896996 27.470137,26.896996 C 27.226461,26.896996 27.138321,26.717019 27.274272,26.497047 C 27.410221,26.277075 27.60747,26.183113 27.7126,26.288244 C 27.817731,26.393374 28.556854,26.067102 29.355097,25.563193 C 30.15334,25.059285 30.982992,24.646996 31.198768,24.646996 C 31.946385,24.646996 34.802373,21.431233 35.703571,19.574716 C 36.940986,17.025572 36.957359,13.169554 35.740708,10.828466 C 33.586859,6.6840116 28.538974,3.2719957 24.561337,3.2719957 C 23.442501,3.2719957 22.62094,3.1201414 22.735647,2.9345418 C 22.855593,2.740466 21.359773,2.6450087 19.215093,2.709874 C 15.233434,2.8302984 11.062212,3.9052166 10.130983,5.0508367 C 9.6947519,5.5874981 9.7257292,5.6256165 10.383852,5.3619986 C 11.418337,4.9476251 16.494731,4.4471737 17.362264,4.6740386 C 18.599177,4.9974986 18.142161,5.3624872 15.540102,6.1292827 C 13.966415,6.5930291 13.047832,7.0553808 13.111893,7.3514771 C 13.170759,7.6235606 13.032208,7.7148123 12.788717,7.564326 C 12.554297,7.419447 12.254804,7.4685345 12.123176,7.6734093 C 11.991547,7.8782846 11.4633,8.1773707 10.949293,8.3380447 C 10.175578,8.5799013 10.089307,8.5401948 10.448026,8.107338 C 11.008986,7.4304431 9.7242989,5.6865453 8.9880783,6.125532 C 7.1051595,7.2482602 4.9127789,9.5647305 4.2291899,11.153776 C 3.2090804,13.525084 3.1888629,17.105983 4.1832169,19.296464 C 5.0716631,21.253639 8.2741398,24.745354 8.9447309,24.488024 C 9.2156741,24.384054 9.3971917,24.503851 9.3481034,24.754241 C 9.2990152,25.004631 9.5408197,25.188282 9.885447,25.162355 C 10.315394,25.130008 10.44047,25.306541 10.283985,25.724855 C 10.091537,26.239309 10.148555,26.259253 10.649166,25.85259 C 11.149712,25.44598 11.233924,25.475276 11.188128,26.04009 C 11.14744,26.541902 11.36678,26.683289 12.064217,26.60482 C 12.954489,26.504655 12.963246,26.523058 12.267427,27.031854 C 11.867491,27.324294 11.280076,27.468388 10.962061,27.352064 C 9.8720557,26.953359 8.7027971,26.064949 8.8834177,25.772698 C 8.9827623,25.611955 8.4750633,25.031201 7.7551979,24.482133 C 7.0353326,23.933065 6.446352,23.588281 6.446352,23.715947 C 6.446352,23.843613 5.9347942,23.583805 5.3095571,23.138597 C 3.9453601,22.167203 1.9525115,18.829927 1.9556132,17.521996 C 1.957374,16.779561 2.0334729,16.701535 2.3213519,17.146996 C 2.5790086,17.545691 2.6904296,17.054276 2.7039677,15.459496 C 2.7144729,14.221996 2.9548485,12.239666 3.2381356,11.054318 C 3.5875029,9.5924737 3.6280333,8.8217808 3.3641215,8.6586746 C 3.1247676,8.5107457 3.2100346,8.286699 3.5856959,8.0764683 C 3.9215567,7.8885112 4.196352,7.5103162 4.196352,7.2360352 C 4.196352,6.5904003 6.977817,4.3164802 9.2366958,3.1154226 C 10.638462,2.3700964 11.141689,2.2626304 11.673837,2.5949623 C 12.181716,2.9121378 12.944286,2.8630989 14.816223,2.3928834 C 18.479208,1.472771 23.054406,1.6138699 26.837063,2.7636057 C 27.274207,2.8964752 27.448256,2.828458 27.297072,2.5838375 C 27.163311,2.3674078 26.290633,2.0758744 25.357788,1.9359856 C 23.463897,1.6519791 23.438523,1.6094839 24.946523,1.2472187 C 25.723468,1.0605741 25.934565,1.1126869 25.731633,1.4410364 C 25.536748,1.7563668 25.694938,1.8271507 26.262712,1.6786744 C 26.707464,1.5623692 27.071352,1.6382165 27.071352,1.8472239 C 27.071352,2.0562313 27.324477,2.1301041 27.633852,2.0113858 C 27.943227,1.8926675 28.196352,1.9770425 28.196352,2.1988858 C 28.196352,2.4207291 28.458241,2.5017409 28.778329,2.3789119 C 29.158561,2.2330029 29.267231,2.3061835 29.091812,2.5900181 C 28.912501,2.8801481 29.030593,2.944911 29.447335,2.784992 C 29.790544,2.6532903 30.071352,2.7189472 30.071352,2.9308964 C 30.071352,3.1428455 30.240102,3.2119652 30.446352,3.0844957 C 30.652602,2.9570262 30.821352,3.0414012 30.821352,3.2719957 C 30.821352,3.5025902 30.97242,3.5978935 31.157058,3.4837809 C 31.341696,3.3696683 31.593629,3.5391549 31.716909,3.860418 C 31.840189,4.1816808 32.093314,4.3504308 32.279409,4.235418 C 32.465504,4.1204047 32.715125,4.2800242 32.834123,4.5901278 C 32.953121,4.9002311 33.181741,5.1162262 33.342167,5.0701166 C 33.582431,5.0010607 36.444544,7.6414106 36.392926,7.8844957 C 36.323591,8.2110176 37.36017,9.9650133 37.552299,9.8462711 C 37.687751,9.7625572 37.73917,10.147536 37.666563,10.70178 C 37.593957,11.256024 37.384817,13.228246 37.201809,15.084496 C 37.018801,16.940746 36.592802,19.218871 36.255144,20.146996 C 35.647124,21.818268 34.374171,23.521996 33.733488,23.521996 C 33.245576,23.521996 29.883852,26.151949 29.883852,26.533654 C 29.883852,26.712867 29.672914,27.070433 29.415102,27.328246 C 29.157289,27.586058 28.94524,27.636683 28.943881,27.440746 C 28.942522,27.244808 28.587223,27.590746 28.154327,28.209496 C 27.721432,28.828246 27.464123,29.039183 27.582529,28.678246 z M 33.146141,5.7996108 C 32.922243,5.5298306 32.012259,4.9109655 31.123953,4.424355 C 29.301232,3.4258744 29.540077,3.8223356 31.756225,5.4738671 C 33.241787,6.5809466 33.928078,6.7417871 33.146141,5.7996108 z M 8.3355172,5.1414153 L 9.633852,4.0108346 L 8.2264038,4.8041632 C 6.8155106,5.5994332 6.1251078,6.2719957 6.7196358,6.2719957 C 6.8942865,6.2719957 7.6214332,5.7632343 8.3355172,5.1414153 z M 16.196352,27.878232 C 16.196352,27.545332 17.713484,27.371335 17.90561,27.682201 C 18.021112,27.869088 17.68378,28.021996 17.155983,28.021996 C 16.628186,28.021996 16.196352,27.957302 16.196352,27.878232 z M 22.162345,27.675948 C 22.453017,27.491939 22.917079,27.428202 23.193595,27.534312 C 23.986581,27.838609 23.784939,28.022489 22.665102,28.016253 C 21.914582,28.012074 21.77772,27.919435 22.162345,27.675948 z M 14.696352,27.481627 C 14.696352,27.390674 14.865102,27.211965 15.071352,27.084496 C 15.277602,26.957026 15.446352,27.031442 15.446352,27.249864 C 15.446352,27.468286 15.277602,27.646996 15.071352,27.646996 C 14.865102,27.646996 14.696352,27.57258 14.696352,27.481627 z M 24.547914,27.420433 C 24.672524,27.295824 24.995961,27.282501 25.266664,27.390828 C 25.565814,27.510538 25.476955,27.599397 25.040102,27.617391 C 24.64479,27.633673 24.423305,27.545043 24.547914,27.420433 z M 25.946352,27.106627 C 25.946352,27.015674 26.115102,26.836965 26.321352,26.709496 C 26.527602,26.582026 26.696352,26.656442 26.696352,26.874864 C 26.696352,27.093286 26.527602,27.271996 26.321352,27.271996 C 26.115102,27.271996 25.946352,27.19758 25.946352,27.106627 z M 26.696352,7.4016315 C 26.386977,7.2456416 25.374477,6.7693781 24.446352,6.3432678 L 22.758852,5.568522 L 24.686058,5.5452588 C 26.896707,5.5185742 28.692765,6.5276718 27.766103,7.2757522 C 27.487115,7.5009753 27.005727,7.557621 26.696352,7.4016315 z M 11.696352,2.1068749 C 11.696352,1.8785585 11.949477,1.7888873 12.258852,1.9076056 C 12.568227,2.0263239 12.821352,1.9419489 12.821352,1.7201056 C 12.821352,1.4982623 13.069073,1.4118135 13.371843,1.5279972 C 13.674612,1.6441809 14.022454,1.5772408 14.144824,1.3792416 C 14.267195,1.1812423 14.778849,1.1225311 15.281834,1.2487723 C 15.784819,1.3750135 16.196401,1.3334454 16.19646,1.1563987 C 16.19652,0.97935206 17.955325,0.832614 20.104917,0.83031416 C 22.254508,0.82801429 23.834373,0.93669423 23.615726,1.0718251 C 23.39708,1.2069559 21.849212,1.3164357 20.17602,1.3151134 C 18.502827,1.3137911 15.984318,1.5847987 14.579332,1.9173525 C 11.542026,2.6362691 11.696352,2.6261239 11.696352,2.1068749 z"
         id="path2397" />
      <path
         style="fill:#aa8b30"
         d="M 40.826367,46.250213 C 40.298671,44.875058 43.535971,41.317849 45.052467,41.606498 C 46.729328,41.925668 45.347911,45.074408 43.053312,46.163262 C 41.484713,46.907614 41.084629,46.923233 40.826367,46.250213 z M 44.250642,44.882386 C 45.162788,44.032594 45.354184,42.646996 44.559424,42.646996 C 43.713526,42.646996 42.071352,44.150003 42.071352,44.924213 C 42.071352,45.884277 43.198459,45.862643 44.250642,44.882386 z M 36.995989,33.365746 C 35.801563,32.179808 35.358017,31.84818 36.010329,32.628794 C 37.522603,34.438514 37.537695,34.862181 36.039081,33.435905 C 34.454167,31.927495 34.060067,31.150161 34.872857,31.135611 C 35.222654,31.129349 35.724987,31.29495 35.989152,31.503613 C 36.634998,32.013765 39.562126,35.521996 39.341929,35.521996 C 39.246087,35.521996 38.190413,34.551683 36.995989,33.365746 z M 18.540102,32.99882 C 19.313539,32.917916 20.579164,32.917916 21.352602,32.99882 C 22.126039,33.079724 21.493227,33.145918 19.946352,33.145918 C 18.399477,33.145918 17.766664,33.079724 18.540102,32.99882 z M 27.44936,32.71312 C 27.160768,32.365387 26.612141,32.22589 25.997194,32.343883 C 25.158158,32.504874 25.122152,32.479983 25.758852,32.179116 C 26.502945,31.827501 26.502808,31.824502 25.741427,31.798353 C 24.918836,31.770101 24.708564,30.562073 25.351236,29.556674 C 25.620315,29.135726 25.505915,29.081494 24.786241,29.288837 C 22.497807,29.948149 18.503756,29.976633 15.425065,29.355599 C 13.683648,29.00432 12.205762,28.570034 12.140874,28.390519 C 12.075986,28.211004 11.808799,28.146285 11.547124,28.246699 C 11.285449,28.347114 11.071352,28.208066 11.071352,27.937705 C 11.071352,27.568939 11.721858,27.664312 13.675341,28.319488 C 16.538042,29.279605 20.495251,29.462245 23.974005,28.794809 C 25.054839,28.587439 26.221584,28.526151 26.566772,28.658612 C 27.008283,28.828036 27.108391,28.760308 26.904377,28.430206 C 26.705602,28.108581 26.833711,27.997111 27.31161,28.07587 C 27.695093,28.139069 28.252977,28.037956 28.551352,27.851175 C 28.87108,27.651027 28.77579,27.96285 28.319301,28.610534 C 27.183744,30.221702 27.016542,31.085298 27.61645,32.240746 C 28.211626,33.387079 28.150982,33.558523 27.44936,32.71312 z M 15.345465,32.651019 C 15.599352,32.548298 16.105602,32.542045 16.470465,32.637124 C 16.835328,32.732203 16.627602,32.816248 16.008852,32.82389 C 15.390102,32.831532 15.091578,32.75374 15.345465,32.651019 z M 23.227602,32.64864 C 23.485414,32.544611 23.907289,32.544611 24.165102,32.64864 C 24.422914,32.75267 24.211977,32.837785 23.696352,32.837785 C 23.180727,32.837785 22.969789,32.75267 23.227602,32.64864 z M 13.672914,32.295433 C 13.797524,32.170824 14.120961,32.157501 14.391664,32.265828 C 14.690814,32.385538 14.601955,32.474397 14.165102,32.492391 C 13.76979,32.508673 13.548305,32.420043 13.672914,32.295433 z M 8.6485188,29.240746 C 8.1820672,28.645975 8.195331,28.632711 8.790102,29.099163 C 9.1510394,29.382229 9.446352,29.677542 9.446352,29.755413 C 9.446352,30.06405 9.1384072,29.865401 8.6485188,29.240746 z M 29.859825,26.610339 C 29.909436,26.27232 30.43851,25.865117 31.035546,25.705445 C 32.134318,25.411588 34.754481,25.908161 35.105962,26.476869 C 35.211165,26.64709 34.632515,26.608937 33.820075,26.392084 C 32.629818,26.074386 32.093007,26.116976 31.056267,26.611363 C 29.864507,27.179674 29.776276,27.179599 29.859825,26.610339 z M 7.4486362,24.986983 C 5.8974337,23.959509 4.3264425,22.474601 5.7321615,23.364563 C 6.0218411,23.547959 6.3478994,23.700595 6.4567353,23.703753 C 6.8472937,23.715087 9.9605692,26.146996 9.5845196,26.146996 C 9.3729982,26.146996 8.4118507,25.62499 7.4486362,24.986983 z M 2.3944577,16.584496 C 2.3868153,15.965746 2.464607,15.667222 2.5673282,15.921109 C 2.6700494,16.174996 2.6763022,16.681246 2.5812235,17.046109 C 2.4861447,17.410972 2.4021001,17.203246 2.3944577,16.584496 z M 31.756225,5.4738671 C 29.540077,3.8223356 29.301232,3.4258744 31.123953,4.424355 C 32.729051,5.303622 33.690011,6.1533367 33.403413,6.4399346 C 33.321015,6.5223326 32.579781,6.0876022 31.756225,5.4738671 z M 6.6105225,5.9347436 C 6.7251607,5.7492547 7.4523074,5.2404937 8.2264038,4.8041632 L 9.633852,4.0108346 L 8.3355172,5.1414153 C 7.0935719,6.2228925 6.1698956,6.6476928 6.6105225,5.9347436 z M 20.227602,5.5998015 C 19.041664,5.5364231 18.071352,5.3242391 18.071352,5.1282817 C 18.071352,4.9323243 17.808268,4.7719957 17.486721,4.7719957 C 16.463238,4.7719957 17.263627,4.1162932 18.591096,3.8672583 C 19.464545,3.7033983 20.4793,3.8680083 21.79662,4.3872472 C 22.856743,4.805109 24.083495,5.1469957 24.522735,5.1469957 C 24.961974,5.1469957 25.251039,5.2074855 25.165102,5.2814178 C 24.852962,5.5499516 22.334086,5.7123757 20.227602,5.5998015 z"
         id="path2395" />
      <path
         style="fill:#88794d"
         d="M 39.922913,47.295432 C 40.047526,47.170823 40.370963,47.157503 40.641664,47.265829 C 40.940813,47.385537 40.851957,47.474397 40.415101,47.492389 C 40.019791,47.508672 39.798304,47.420044 39.922913,47.295432 z M 44.648517,37.865746 C 44.182066,37.270975 44.195329,37.257711 44.790102,37.724161 C 45.414758,38.214049 45.613407,38.521996 45.304767,38.521996 C 45.226898,38.521996 44.931586,38.226683 44.648517,37.865746 z M 28.008852,33.787699 C 27.334562,33.213909 27.196681,32.985754 27.664693,33.218212 C 28.352085,33.559633 29.641402,34.794032 29.273519,34.75851 C 29.196702,34.751092 28.627602,34.314228 28.008852,33.787699 z M 41.273517,34.115746 C 40.807066,33.520975 40.820329,33.507711 41.415102,33.974163 C 42.039758,34.464051 42.238407,34.771996 41.929767,34.771996 C 41.851898,34.771996 41.556586,34.476683 41.273517,34.115746 z M 16.470465,33.401019 C 16.724352,33.298298 17.230602,33.292045 17.595465,33.387124 C 17.960328,33.482203 17.752602,33.566248 17.133852,33.57389 C 16.515102,33.581532 16.216578,33.50374 16.470465,33.401019 z M 22.470465,33.401019 C 22.724352,33.298298 23.230602,33.292045 23.595465,33.387124 C 23.960328,33.482203 23.752602,33.566248 23.133852,33.57389 C 22.515102,33.581532 22.216578,33.50374 22.470465,33.401019 z M 14.422914,33.045433 C 14.547524,32.920824 14.870961,32.907501 15.141664,33.015828 C 15.440814,33.135538 15.351955,33.224397 14.915102,33.242391 C 14.51979,33.258673 14.298305,33.170043 14.422914,33.045433 z M 24.922914,33.045433 C 25.047524,32.920824 25.370961,32.907501 25.641664,33.015828 C 25.940814,33.135538 25.851955,33.224397 25.415102,33.242391 C 25.01979,33.258673 24.798305,33.170043 24.922914,33.045433 z M 37.898519,30.365746 C 37.432067,29.770975 37.445331,29.757711 38.040102,30.224163 C 38.401039,30.507229 38.696352,30.802542 38.696352,30.880413 C 38.696352,31.18905 38.388406,30.990401 37.898519,30.365746 z M 7.7538464,29.378363 C 6.7253493,28.680615 5.479635,27.673315 4.9855919,27.13992 C 4.4915489,26.606525 3.9621642,26.247469 3.8091813,26.342017 C 3.6561984,26.436566 3.5541653,26.220428 3.5824413,25.86171 C 3.6108752,25.500987 3.411898,25.255548 3.1372283,25.312537 C 2.8640853,25.36921 2.7366272,25.26021 2.8539882,25.070316 C 3.135532,24.614769 2.137161,22.706187 1.795857,23.047491 C 1.6505775,23.19277 1.6469684,23.011283 1.7878367,22.644186 C 1.994642,22.10526 2.2444525,22.32409 3.0851576,23.780616 C 3.6578157,24.77275 4.8569812,26.259496 5.7499698,27.084496 C 6.6429588,27.909496 7.0176869,28.162621 6.5826993,27.646996 C 5.4071546,26.253531 5.818479,25.663543 7.4298097,26.431933 C 8.5310868,26.957095 8.7018465,27.199053 8.5101708,27.962749 C 8.3491514,28.604301 8.5268681,29.129919 9.1172999,29.758405 C 10.242454,30.956076 9.9657427,30.878947 7.7538464,29.378363 z M 18.915102,27.7534 C 19.482289,27.667479 20.410414,27.667479 20.977602,27.7534 C 21.544789,27.839322 21.080727,27.909622 19.946352,27.909622 C 18.811977,27.909622 18.347914,27.839322 18.915102,27.7534 z M 15.720465,27.401019 C 15.974352,27.298298 16.480602,27.292045 16.845465,27.387124 C 17.210328,27.482203 17.002602,27.566248 16.383852,27.57389 C 15.765102,27.581532 15.466578,27.50374 15.720465,27.401019 z M 23.227602,27.39864 C 23.485414,27.294611 23.907289,27.294611 24.165102,27.39864 C 24.422914,27.50267 24.211977,27.587785 23.696352,27.587785 C 23.180727,27.587785 22.969789,27.50267 23.227602,27.39864 z M 12.047666,26.395934 C 9.4564811,25.329916 8.7739203,24.847311 7.1874228,22.959496 L 5.9268408,21.459496 L 7.5928462,22.980294 C 10.032627,25.207427 10.350285,25.409228 12.917864,26.363166 C 14.205407,26.841529 15.005727,27.237705 14.696352,27.243556 C 14.386977,27.249407 13.195068,26.867977 12.047666,26.395934 z M 24.922914,27.045433 C 25.047524,26.920824 25.370961,26.907501 25.641664,27.015828 C 25.940814,27.135538 25.851955,27.224397 25.415102,27.242391 C 25.01979,27.258673 24.798305,27.170043 24.922914,27.045433 z M 7.196352,25.250332 C 6.2682269,24.561143 5.086977,23.521558 4.571352,22.940143 C 3.9620708,22.253121 4.2902895,22.427221 5.508852,23.437428 C 6.540102,24.29235 7.805727,25.330504 8.321352,25.744438 C 9.8471756,26.969338 9.0250702,26.608266 7.196352,25.250332 z M 32.493987,24.891737 C 33.395807,24.232311 32.567678,23.635864 31.648675,24.282914 C 31.296772,24.530681 31.683852,24.125844 32.508852,23.383277 C 33.333852,22.640709 33.861627,22.030643 33.681685,22.027575 C 33.501744,22.024506 33.564594,21.768871 33.821352,21.459496 C 34.07811,21.150121 34.468526,20.896996 34.688942,20.896996 C 34.909359,20.896996 34.762134,21.144754 34.361776,21.44757 C 33.961417,21.750385 33.78983,22.00351 33.98047,22.01007 C 34.17111,22.016629 33.921955,22.45324 33.426792,22.980316 C 32.632898,23.825378 32.614093,23.907412 33.267674,23.674437 C 34.633734,23.187491 35.628735,21.965281 36.244852,20.01742 C 36.581119,18.954312 36.959385,17.831371 37.085445,17.521996 C 37.211505,17.212621 37.273434,16.00536 37.223065,14.839195 C 37.172696,13.673029 37.310276,12.38482 37.528798,11.976508 C 37.840175,11.394696 37.729052,10.839429 37.015039,9.4093091 C 36.312745,8.0026638 36.267241,7.7813696 36.816468,8.4436196 C 40.113631,12.419294 39.052118,19.481977 34.520294,23.720966 C 33.534798,24.642782 32.52025,25.396996 32.265744,25.396996 C 32.011237,25.396996 32.113947,25.169629 32.493987,24.891737 z M 37.797915,14.998558 C 37.673305,14.873949 37.584674,15.095433 37.600957,15.490746 C 37.618951,15.927599 37.70781,16.016458 37.82752,15.717308 C 37.935846,15.446605 37.922524,15.123168 37.797915,14.998558 z M 35.321352,24.990746 C 35.321352,24.767308 35.532289,24.655677 35.790102,24.742677 C 36.047914,24.829676 36.612766,24.317374 37.045329,23.604227 C 37.679332,22.558973 37.878426,22.42909 38.072284,22.934273 C 38.233088,23.353324 38.168828,23.471994 37.87833,23.292456 C 37.585562,23.111515 37.52442,23.233799 37.69083,23.667456 C 37.857239,24.101112 37.796097,24.223396 37.50333,24.042456 C 37.210562,23.861515 37.14942,23.983799 37.31583,24.417456 C 37.452394,24.773338 37.408655,24.965706 37.217968,24.847855 C 37.028332,24.730654 36.767181,24.806265 36.637632,25.015879 C 36.323718,25.523804 35.321352,25.504665 35.321352,24.990746 z M 1.1963519,21.271996 C 1.1963519,21.065746 1.3651019,20.896996 1.5713519,20.896996 C 1.7776019,20.896996 1.9463519,21.065746 1.9463519,21.271996 C 1.9463519,21.478246 1.7776019,21.646996 1.5713519,21.646996 C 1.3651019,21.646996 1.1963519,21.478246 1.1963519,21.271996 z M 4.946352,20.521996 C 4.6083674,20.303573 4.5621146,20.156188 4.8304706,20.152738 C 5.076111,20.14958 5.3813823,20.315746 5.508852,20.521996 C 5.7965913,20.987568 5.6667731,20.987568 4.946352,20.521996 z M 2.3041633,19.739878 C 2.0739461,19.309714 1.9562221,18.887125 2.0425541,18.800794 C 2.1288862,18.714462 2.3920656,19.066414 2.6273972,19.582911 C 3.1441738,20.717112 2.8925566,20.839301 2.3041633,19.739878 z M 35.336476,19.285135 C 36.165467,17.925544 36.288318,16.388962 35.621352,15.721996 C 35.271352,15.371996 35.271352,15.271996 35.621352,15.271996 C 35.868852,15.271996 36.093567,15.482933 36.120717,15.740746 C 36.147868,15.998558 36.308375,15.618871 36.477398,14.896996 C 36.721665,13.853769 36.751026,14.012462 36.620513,15.670501 C 36.422493,18.186149 35.829395,20.015701 35.124174,20.286319 C 34.761,20.425682 34.824962,20.124046 35.336476,19.285135 z M 38.798487,19.021996 C 38.798487,18.093871 38.871619,17.714183 38.961001,18.178246 C 39.050386,18.642308 39.050386,19.401683 38.961001,19.865746 C 38.871619,20.329808 38.798487,19.950121 38.798487,19.021996 z M 3.8213519,18.856627 C 3.8213519,18.765674 3.990102,18.586965 4.196352,18.459496 C 4.402602,18.332026 4.571352,18.406442 4.571352,18.624864 C 4.571352,18.843286 4.402602,19.021996 4.196352,19.021996 C 3.990102,19.021996 3.8213519,18.94758 3.8213519,18.856627 z M 1.6016021,17.615746 C 1.5849645,17.151683 1.3793682,16.771996 1.1447214,16.771996 C 0.46086964,16.771996 1.0960483,12.745995 2.1394806,10.466839 C 2.6429091,9.367206 3.2043018,8.5599003 3.3870199,8.6728263 C 3.5735759,8.7881246 3.4779491,10.156516 3.1689166,11.793821 C 2.4279537,15.719563 1.6387258,18.651218 1.6016021,17.615746 z M 3.4463519,17.544127 C 3.4463519,17.350049 3.615102,17.086965 3.8213519,16.959496 C 4.027602,16.832026 4.196352,16.990817 4.196352,17.312364 C 4.196352,17.633911 4.027602,17.896996 3.8213519,17.896996 C 3.615102,17.896996 3.4463519,17.738205 3.4463519,17.544127 z M 3.696352,13.521996 C 3.558852,13.384496 3.4463519,13.097621 3.4463519,12.884496 C 3.4463519,12.649519 3.6210159,12.67166 3.8901019,12.940746 C 4.1341645,13.184808 4.2466646,13.471683 4.140102,13.578246 C 4.0335394,13.684808 3.8338519,13.659496 3.696352,13.521996 z M 30.181049,9.3060731 C 29.389295,8.6451926 29.395873,8.1469957 30.196352,8.1469957 C 30.402602,8.1469957 30.458484,8.259864 30.320534,8.3978137 C 30.182584,8.5357638 30.349363,8.9576388 30.691154,9.3353137 C 31.482359,10.209585 31.247343,10.196113 30.181049,9.3060731 z M 5.508852,8.8969957 C 5.8821592,8.4844957 6.2517506,8.1469957 6.3301661,8.1469957 C 6.4085816,8.1469957 6.2921152,8.4844957 6.071352,8.8969957 C 5.8505887,9.3094957 5.4809973,9.6469957 5.2500378,9.6469957 C 5.0190783,9.6469957 5.1355447,9.3094957 5.508852,8.8969957 z M 27.475957,7.9407457 C 27.459674,7.7241832 27.629323,7.364025 27.852954,7.1403941 C 28.145089,6.848259 28.016029,6.5632207 27.394513,6.1278941 C 26.44075,5.4598522 27.06989,5.2941315 28.221005,5.9101897 C 29.061568,6.3600453 29.196938,7.3969957 28.415102,7.3969957 C 28.122915,7.3969957 27.798737,7.6079332 27.694707,7.8657457 C 27.590677,8.1235582 27.49224,8.1573082 27.475957,7.9407457 z M 12.63889,7.2965092 C 13.706929,6.4933721 17.210685,5.5125776 18.795665,5.573064 C 19.750859,5.6095162 19.865537,5.665293 19.196352,5.7679488 C 16.066416,6.248094 15.711996,6.3476475 16.15589,6.6219892 C 16.44259,6.7991793 15.986883,7.0001632 14.987991,7.1370765 C 14.087064,7.2605621 13.020072,7.4746995 12.616897,7.6129368 C 11.913406,7.8541447 11.914293,7.8413872 12.63889,7.2965092 z M 34.91797,6.3657457 L 34.008852,5.3344957 L 35.040102,6.2436135 C 35.607289,6.7436283 36.071352,7.2076908 36.071352,7.2748635 C 36.071352,7.5689662 35.767677,7.3296041 34.91797,6.3657457 z M 18.344238,6.3763462 C 19.00995,6.2935042 20.1912,6.292143 20.969238,6.3733215 C 21.747276,6.4544996 21.202602,6.5222793 19.758852,6.5239432 C 18.315102,6.5256067 17.678526,6.4591882 18.344238,6.3763462 z M 22.946352,6.2719957 C 22.946352,5.80215 23.344317,5.80215 24.071352,6.2719957 C 24.526212,6.5659485 24.472391,6.6366101 23.790102,6.6412533 C 23.326039,6.6444116 22.946352,6.4782457 22.946352,6.2719957 z M 10.345348,5.0021212 C 10.73667,4.6825158 11.200733,4.5099491 11.376598,4.6186395 C 11.552463,4.7273298 11.696352,4.6275903 11.696352,4.3969957 C 11.696352,4.1664011 11.836488,4.0643415 12.007764,4.1701965 C 12.179041,4.2760511 13.233729,4.1192632 14.351514,3.8217783 C 16.605136,3.2220054 19.352367,3.091176 19.038787,3.59856 C 18.782784,4.0127816 17.093491,4.3856073 13.758852,4.7638383 C 12.315102,4.9275952 10.796352,5.1789483 10.383852,5.3224001 C 9.6526683,5.5766782 9.6517023,5.5686431 10.345348,5.0021212 z M 25.297914,5.2954331 C 25.422524,5.170824 25.745961,5.1575013 26.016664,5.265828 C 26.315814,5.3855377 26.226955,5.4743966 25.790102,5.4923906 C 25.39479,5.5086735 25.173305,5.4200426 25.297914,5.2954331 z M 25.196352,3.8344957 C 24.268227,3.565618 23.867446,3.32906 24.305727,3.3088114 C 25.559218,3.2509 27.446352,3.7076032 27.446352,4.0688707 C 27.446352,4.4656927 27.335171,4.4541116 25.196352,3.8344957 z M 20.970465,3.0260194 C 21.224352,2.9232983 21.730602,2.9170454 22.095465,3.0121242 C 22.460328,3.107203 22.252602,3.1912476 21.633852,3.1988899 C 21.015102,3.2065323 20.716578,3.1287406 20.970465,3.0260194 z M 17.970465,2.6510194 C 18.224352,2.5482983 18.730602,2.5420454 19.095465,2.6371242 C 19.460328,2.732203 19.252602,2.8162476 18.633852,2.8238899 C 18.015102,2.8315323 17.716578,2.7537406 17.970465,2.6510194 z M 28.571352,2.5219957 C 28.261977,2.3220622 28.177602,2.1584803 28.383852,2.1584803 C 28.590102,2.1584803 29.011977,2.3220622 29.321352,2.5219957 C 29.630727,2.7219292 29.715102,2.8855111 29.508852,2.8855111 C 29.302602,2.8855111 28.880727,2.7219292 28.571352,2.5219957 z M 25.672914,1.5454332 C 25.797524,1.4208238 26.120961,1.4075015 26.391664,1.515828 C 26.690814,1.6355378 26.601955,1.7243965 26.165102,1.7423904 C 25.76979,1.7586733 25.548305,1.6700426 25.672914,1.5454332 z M 23.595465,1.1510194 C 23.849352,1.0482983 24.355602,1.0420454 24.720465,1.1371242 C 25.085328,1.232203 24.877602,1.3162476 24.258852,1.3238899 C 23.640102,1.3315323 23.341578,1.2537406 23.595465,1.1510194 z M 17.415102,0.76349865 C 17.776039,0.6691758 18.366664,0.6691758 18.727602,0.76349865 C 19.088539,0.85782146 18.793227,0.9349947 18.071352,0.9349947 C 17.349477,0.9349947 17.054164,0.85782146 17.415102,0.76349865 z M 21.165102,0.76349865 C 21.526039,0.6691758 22.116664,0.6691758 22.477602,0.76349865 C 22.838539,0.85782146 22.543227,0.9349947 21.821352,0.9349947 C 21.099477,0.9349947 20.804164,0.85782146 21.165102,0.76349865 z"
         id="path2393" />
      <path
         style="fill:#91661c"
         d="M 40.447808,46.553052 C 40.573163,46.226386 40.780767,46.099823 40.909152,46.271802 C 41.037537,46.443784 41.295301,46.711058 41.481964,46.865746 C 41.668628,47.020433 41.461024,47.146996 41.020621,47.146996 C 40.444088,47.146996 40.283704,46.980698 40.447808,46.553052 z M 41.883852,43.021996 C 42.257161,42.609496 42.646969,42.271996 42.750094,42.271996 C 42.853219,42.271996 42.632161,42.609496 42.258852,43.021996 C 41.885543,43.434496 41.495734,43.771996 41.392609,43.771996 C 41.289484,43.771996 41.510543,43.434496 41.883852,43.021996 z M 45.746198,42.544294 C 45.636601,41.972187 45.704281,41.406848 45.896592,41.287996 C 46.497286,40.916746 46.663741,41.432378 46.297467,42.529808 L 45.945458,43.584496 L 45.746198,42.544294 z M 42.222586,40.587218 C 42.732829,39.808486 42.719419,39.670992 42.076504,39.089157 C 41.687164,38.736811 41.212508,38.545002 41.021716,38.662917 C 40.830923,38.780836 39.934354,38.189491 39.029337,37.348826 C 38.124319,36.508159 36.997205,35.512515 36.524637,35.136283 C 36.052068,34.760052 34.343638,33.029007 32.728125,31.289518 C 29.473192,27.784797 29.169302,27.717331 27.808571,30.197351 C 27.290379,31.14179 27.126828,31.285294 27.296112,30.646996 C 27.916371,28.308271 30.699594,26.11256 32.962663,26.176601 C 33.538067,26.192884 33.797914,26.291321 33.540102,26.395351 C 32.681193,26.741928 33.048429,27.336358 36.36814,30.972983 C 40.897722,35.934978 43.196352,38.710786 43.196352,39.218674 C 43.196352,39.454253 43.449477,39.646996 43.758852,39.646996 C 44.712773,39.646996 44.360734,40.179601 42.978852,40.827072 L 41.660776,41.444644 L 42.222586,40.587218 z M 37.992822,33.702498 C 36.139975,31.489477 35.692039,31.120947 34.872857,31.135611 C 34.060067,31.150161 34.454167,31.927495 36.039081,33.435905 C 37.537695,34.862181 37.522603,34.438514 36.010329,32.628794 C 35.358017,31.84818 35.801563,32.179808 36.995989,33.365746 C 38.190413,34.551683 39.246087,35.521996 39.341929,35.521996 C 39.437772,35.521996 38.830673,34.703221 37.992822,33.702498 z M 16.102602,33.02364 C 16.360414,32.919611 16.782289,32.919611 17.040102,33.02364 C 17.297914,33.12767 17.086977,33.212785 16.571352,33.212785 C 16.055727,33.212785 15.844789,33.12767 16.102602,33.02364 z M 22.852602,33.02364 C 23.110414,32.919611 23.532289,32.919611 23.790102,33.02364 C 24.047914,33.12767 23.836977,33.212785 23.321352,33.212785 C 22.805727,33.212785 22.594789,33.12767 22.852602,33.02364 z M 26.886955,32.665393 C 26.164512,32.137129 26.166445,32.128061 26.975177,32.251482 C 27.943663,32.399284 28.375591,32.741957 27.935916,33.013692 C 27.765231,33.11918 27.293199,32.962446 26.886955,32.665393 z M 14.047914,32.670433 C 14.172524,32.545824 14.495961,32.532501 14.766664,32.640828 C 15.065814,32.760538 14.976955,32.849397 14.540102,32.867391 C 14.14479,32.883673 13.923305,32.795043 14.047914,32.670433 z M 24.547914,32.670433 C 24.672524,32.545824 24.995961,32.532501 25.266664,32.640828 C 25.565814,32.760538 25.476955,32.849397 25.040102,32.867391 C 24.64479,32.883673 24.423305,32.795043 24.547914,32.670433 z M 11.111776,31.563808 C 10.425411,31.013917 10.437376,31.006112 11.321352,31.427104 C 12.469239,31.973783 12.681979,32.146996 12.205525,32.146996 C 12.004321,32.146996 11.512134,31.884561 11.111776,31.563808 z M 6.2232224,27.553246 L 5.508852,26.709496 L 6.352602,27.423866 C 6.8166644,27.81677 7.196352,28.196457 7.196352,28.267616 C 7.196352,28.567711 6.8945542,28.346163 6.2232224,27.553246 z M 10.033743,27.685327 C 9.6152996,27.521463 9.4729878,27.299797 9.6972476,27.161197 C 9.9109845,27.0291 10.406034,27.163373 10.797356,27.459582 C 11.562876,28.039036 11.206221,28.144473 10.033743,27.685327 z M 34.780339,27.053835 C 34.380305,26.761324 34.21182,26.52458 34.405928,26.527738 C 34.924275,26.536172 35.891287,27.202061 35.684902,27.408445 C 35.587426,27.505922 35.180373,27.346347 34.780339,27.053835 z M 31.673679,25.021996 C 32.198087,24.609496 32.769282,24.275748 32.943,24.280334 C 33.35253,24.291146 31.489352,25.752668 31.05203,25.763657 C 30.869528,25.768243 31.14927,25.434496 31.673679,25.021996 z M 32.797914,25.545433 C 32.922524,25.420824 33.245961,25.407501 33.516664,25.515828 C 33.815814,25.635538 33.726955,25.724397 33.290102,25.742391 C 32.89479,25.758673 32.673305,25.670043 32.797914,25.545433 z M 36.100957,24.490746 C 36.084674,24.095433 36.173305,23.873949 36.297915,23.998558 C 36.422524,24.123168 36.435846,24.446605 36.32752,24.717308 C 36.20781,25.016458 36.118951,24.927599 36.100957,24.490746 z M 34.946352,24.481627 C 34.946352,24.390674 35.115102,24.211965 35.321352,24.084496 C 35.527602,23.957026 35.696352,24.031442 35.696352,24.249864 C 35.696352,24.468286 35.527602,24.646996 35.321352,24.646996 C 35.115102,24.646996 34.946352,24.57258 34.946352,24.481627 z M 1.2259572,18.490746 C 1.2096743,18.095433 1.2983051,17.873949 1.4229145,17.998558 C 1.5475238,18.123168 1.5608462,18.446605 1.4525197,18.717308 C 1.3328098,19.016458 1.2439512,18.927599 1.2259572,18.490746 z M 20.415102,5.6384985 C 20.776039,5.5441758 21.366664,5.5441758 21.727602,5.6384985 C 22.088539,5.7328215 21.793227,5.8099946 21.071352,5.8099946 C 20.349477,5.8099946 20.054164,5.7328215 20.415102,5.6384985 z M 21.258852,4.2024161 C 20.021352,3.7119678 19.261977,3.3044796 19.571352,3.2968867 C 20.430791,3.2757939 24.829085,4.362105 25.521363,4.7664483 C 26.823342,5.5269041 23.486797,5.0853993 21.258852,4.2024161 z"
         id="path2391" />
      <path
         style="fill:#6c5825"
         d="M 38.696352,46.746961 C 38.259106,46.436734 38.332159,46.404023 39.024421,46.600062 C 39.595354,46.761739 40.043022,46.669613 40.271719,46.343374 C 40.560447,45.931504 40.599211,45.941723 40.475074,46.396996 C 40.282632,47.102779 39.433366,47.269876 38.696352,46.746961 z M 40.571352,42.352246 C 40.571352,42.165792 40.933407,41.691769 41.375918,41.298867 C 42.174897,40.589457 42.177488,40.590211 41.748901,41.407362 C 41.270817,42.318886 40.571352,42.880148 40.571352,42.352246 z M 45.258852,41.146996 C 46.289761,40.704001 46.881841,40.704001 46.196352,41.146996 C 45.886977,41.346931 45.380727,41.501236 45.071352,41.489896 C 44.700454,41.476302 44.764324,41.359501 45.258852,41.146996 z M 42.207184,40.105594 C 42.345627,39.881588 42.081027,39.433639 41.619184,39.110153 C 41.157342,38.786667 40.959616,38.521996 41.179793,38.521996 C 41.399967,38.521996 41.870382,38.842744 42.225162,39.234766 C 42.709898,39.770393 42.756541,40.017788 42.412838,40.230207 C 42.131033,40.404376 42.052092,40.356541 42.207184,40.105594 z M 43.196352,39.271996 C 43.196352,39.065746 43.270767,38.896996 43.361719,38.896996 C 43.452672,38.896996 43.631382,39.065746 43.758852,39.271996 C 43.886322,39.478246 43.811907,39.646996 43.593484,39.646996 C 43.375062,39.646996 43.196352,39.478246 43.196352,39.271996 z M 43.523517,36.740746 C 43.057066,36.145975 43.070329,36.132711 43.665102,36.599163 C 44.289758,37.089051 44.488407,37.396996 44.179767,37.396996 C 44.101898,37.396996 43.806586,37.101683 43.523517,36.740746 z M 28.563831,33.825433 C 28.302936,33.511074 28.162099,33.181249 28.25086,33.092488 C 28.339621,33.003727 28.618222,33.26093 28.869975,33.66405 C 29.414405,34.535821 29.232836,34.631535 28.563831,33.825433 z M 19.109318,33.375222 C 19.783324,33.291761 20.795824,33.293483 21.359318,33.379048 C 21.922812,33.464614 21.371352,33.5329 20.133852,33.530795 C 18.896352,33.52869 18.435312,33.458682 19.109318,33.375222 z M 39.973223,32.803246 L 39.258852,31.959496 L 40.102602,32.673866 C 40.566664,33.06677 40.946352,33.446457 40.946352,33.517616 C 40.946352,33.817711 40.644556,33.596163 39.973223,32.803246 z M 25.852602,32.64864 C 26.110414,32.544611 26.532289,32.544611 26.790102,32.64864 C 27.047914,32.75267 26.836977,32.837785 26.321352,32.837785 C 25.805727,32.837785 25.594789,32.75267 25.852602,32.64864 z M 27.505563,31.396996 C 27.505563,30.881371 27.590677,30.670433 27.694707,30.928246 C 27.798737,31.186058 27.798737,31.607933 27.694707,31.865746 C 27.590677,32.123558 27.505563,31.912621 27.505563,31.396996 z M 36.773519,31.490746 C 36.307067,30.895975 36.320331,30.882711 36.915102,31.349163 C 37.539757,31.839051 37.738407,32.146996 37.429769,32.146996 C 37.351898,32.146996 37.056585,31.851683 36.773519,31.490746 z M 9.633852,31.139972 C 9.015102,30.808875 8.4244769,30.40987 8.321352,30.253296 C 8.218227,30.096721 8.0246418,29.994688 7.8911628,30.026555 C 7.3101922,30.165258 4.4225317,27.411318 3.1684577,25.522546 C 2.2178176,24.090779 1.8105531,23.068941 1.8357841,22.178833 C 1.8557683,21.473823 1.7544179,20.896996 1.6105609,20.896996 C 1.3871012,20.896996 1.3481618,19.809384 1.5232921,18.459496 C 1.5500503,18.253246 1.9227378,18.793179 2.3514864,19.659348 C 3.4054379,21.788567 5.7799106,24.422195 8.0968301,26.031751 C 10.038136,27.380371 9.9610841,27.42622 7.5138431,26.378659 C 6.2631191,25.843276 6.1236727,25.844756 5.9122747,26.39565 C 5.7052713,26.935093 5.5973969,26.924079 4.8950388,26.29179 C 4.4629169,25.902778 3.6108252,24.740746 3.0015015,23.709496 C 2.3921779,22.678246 2.0120148,22.256371 2.1566946,22.771996 C 2.7791024,24.990197 5.3085551,27.81192 8.5926221,29.951574 C 9.8871735,30.795007 10.946352,31.549643 10.946352,31.628542 C 10.946352,31.832428 10.885735,31.809863 9.633852,31.139972 z M 35.883852,28.396996 C 35.078261,27.571996 34.503516,26.896996 34.606641,26.896996 C 34.709766,26.896996 35.453261,27.571996 36.258852,28.396996 C 37.064443,29.221996 37.639188,29.896996 37.536063,29.896996 C 37.432938,29.896996 36.689443,29.221996 35.883852,28.396996 z M 28.196352,29.380413 C 28.196352,29.302542 28.491664,29.007229 28.852602,28.724163 C 29.447373,28.257711 29.460637,28.270975 28.994185,28.865746 C 28.504297,29.490401 28.196352,29.68905 28.196352,29.380413 z M 33.172914,26.670433 C 33.297524,26.545824 33.620961,26.532501 33.891664,26.640828 C 34.190814,26.760538 34.101955,26.849397 33.665102,26.867391 C 33.26979,26.883673 33.048305,26.795043 33.172914,26.670433 z M 34.623558,26.13452 C 34.136646,25.728882 33.511063,25.396996 33.233373,25.396996 C 32.955684,25.396996 33.534798,24.642782 34.520294,23.720966 C 36.701333,21.680859 38.320617,18.602106 38.723851,15.728718 L 39.024758,13.584496 L 38.846056,16.021996 C 38.747768,17.362621 38.680354,19.172523 38.696251,20.044002 C 38.724417,21.588121 37.388611,25.396996 36.81891,25.396996 C 36.662113,25.396996 36.445567,25.734496 36.337696,26.146996 C 36.094419,27.077289 35.752231,27.074799 34.623558,26.13452 z M 37.200462,24.178246 C 38.132434,22.6497 38.183341,21.842605 37.259403,23.243768 C 36.884299,23.812617 36.470814,24.171457 36.340547,24.041191 C 35.898274,23.598918 34.954736,24.232504 35.180295,24.8203 C 35.540095,25.757925 36.404894,25.483072 37.200462,24.178246 z M 6.779007,22.865746 C 5.5848922,21.545407 4.8118008,20.521996 5.0085243,20.521996 C 5.0932274,20.521996 5.7972888,21.281371 6.5731053,22.209496 C 8.1218223,24.062257 8.260302,24.50362 6.779007,22.865746 z M 33.446352,22.209496 C 33.930756,21.693871 34.411462,21.271996 34.514587,21.271996 C 34.617712,21.271996 34.305756,21.693871 33.821352,22.209496 C 33.336948,22.725121 32.856241,23.146996 32.753116,23.146996 C 32.649991,23.146996 32.961948,22.725121 33.446352,22.209496 z M 1.2259572,17.365746 C 1.2096743,16.970433 1.2983051,16.748949 1.4229145,16.873558 C 1.5475238,16.998168 1.5608462,17.321605 1.4525197,17.592308 C 1.3328098,17.891458 1.2439512,17.802599 1.2259572,17.365746 z M 3.558726,15.271996 C 3.558726,14.137621 3.6290256,13.673558 3.7149473,14.240746 C 3.8008691,14.807933 3.8008691,15.736058 3.7149473,16.303246 C 3.6290256,16.870433 3.558726,16.406371 3.558726,15.271996 z M 35.754652,15.397102 C 35.477343,15.09771 35.203201,14.422297 35.145448,13.896185 C 35.086465,13.358862 34.340664,12.259161 33.443792,11.387056 C 32.565634,10.533148 31.979937,10.087621 32.142244,10.396996 C 32.304552,10.706371 31.911,10.46961 31.267684,9.8708613 C 30.624369,9.2721123 30.186198,8.6395526 30.293971,8.4651727 C 30.401743,8.2907928 30.184806,8.1746032 29.811886,8.2069736 C 28.570358,8.3147411 27.821352,8.151066 27.821352,7.7719957 C 27.821352,7.5657457 28.074477,7.3969957 28.383852,7.3969957 C 29.718399,7.3969957 28.806639,6.2005331 26.790102,5.3055862 C 22.501766,3.4024063 18.09357,2.8878574 13.946352,3.8063932 C 13.430727,3.9205953 13.768227,3.7505921 14.696352,3.4286087 C 16.671492,2.7433969 21.839242,2.9377141 25.16619,3.8222947 C 26.283975,4.1194953 27.332336,4.2799616 27.49588,4.178886 C 28.383305,3.6304267 34.541028,8.0359173 34.033904,8.8564601 C 33.910272,9.0565016 34.006694,9.3422805 34.248176,9.4915245 C 34.522386,9.6609956 34.586772,9.6003262 34.419661,9.3299362 C 34.272496,9.0918191 34.255759,8.8969957 34.382467,8.8969957 C 34.509175,8.8969957 35.035344,9.8198553 35.551732,10.947795 C 36.593907,13.224205 36.741603,16.462642 35.754652,15.397102 z M 3.9826343,12.084496 C 4.1293686,11.465746 4.4108182,10.794598 4.608078,10.593055 C 4.8053377,10.391514 4.7683447,10.813389 4.5258708,11.530555 C 3.9581513,13.209705 3.6384964,13.535658 3.9826343,12.084496 z M 33.598222,12.178246 L 32.883852,11.334496 L 33.727602,12.048866 C 34.191664,12.44177 34.571352,12.821457 34.571352,12.892616 C 34.571352,13.192711 34.269554,12.971163 33.598222,12.178246 z M 16.477043,6.209706 C 17.373233,5.8549515 22.946585,5.8278442 22.945404,6.1782457 C 22.944882,6.3329332 21.341506,6.4617922 19.382345,6.4645991 C 17.423184,6.4674056 16.115798,6.352704 16.477043,6.209706 z"
         id="path2389" />
      <path
         style="fill:#5b2602"
         d="M 38.606821,46.460963 C 38.248204,46.318887 36.332046,44.010432 34.348694,41.331068 C 27.194214,31.665886 26.921038,31.06526 28.791611,29.112803 L 29.761869,28.100071 L 32.403159,30.967284 C 35.636671,34.477374 40.505172,38.896996 41.138254,38.896996 C 41.394698,38.896996 41.798922,39.131239 42.036529,39.417537 C 42.374202,39.824408 42.261394,40.184258 41.519948,41.065422 C 40.229074,42.599536 40.326199,42.919947 41.725253,41.742721 C 42.359899,41.208702 43.288024,40.669156 43.787753,40.543733 C 44.650512,40.327193 45.080491,39.646996 44.354611,39.646996 C 44.166653,39.646996 42.607002,38.001683 40.888714,35.990746 C 39.170431,33.979808 36.681847,31.153246 35.358529,29.709496 C 33.478252,27.658098 33.0965,27.056441 33.611502,26.956109 C 33.973954,26.885496 34.778545,27.307371 35.399481,27.893609 C 37.468345,29.846862 46.571352,40.005818 46.571352,40.361416 C 46.571352,40.554083 45.729124,40.991464 44.699738,41.333371 C 42.619647,42.024267 40.791886,43.888081 40.432557,45.684724 C 40.214517,46.774928 39.821299,46.942111 38.606821,46.460963 z M 34.946352,13.826117 C 34.946352,13.580884 34.235076,12.582446 33.365739,11.607367 C 31.80035,9.8515702 31.79884,9.8471366 33.209019,11.146996 C 34.743746,12.561661 35.512968,13.70538 35.164234,14.054113 C 35.044399,14.173948 34.946352,14.07135 34.946352,13.826117 z"
         id="path2387" />
    </g>
  </g>
</svg>
