<?xml version="1.0" encoding="UTF-8" standalone="no"?>
<!-- Created with Inkscape (http://www.inkscape.org/) -->
<svg
   xmlns:dc="http://purl.org/dc/elements/1.1/"
   xmlns:cc="http://creativecommons.org/ns#"
   xmlns:rdf="http://www.w3.org/1999/02/22-rdf-syntax-ns#"
   xmlns:svg="http://www.w3.org/2000/svg"
   xmlns="http://www.w3.org/2000/svg"
   xmlns:xlink="http://www.w3.org/1999/xlink"
   xmlns:sodipodi="http://sodipodi.sourceforge.net/DTD/sodipodi-0.dtd"
   xmlns:inkscape="http://www.inkscape.org/namespaces/inkscape"
   width="48"
   height="48"
   id="svg2"
   sodipodi:version="0.32"
   inkscape:version="0.46"
   version="1.0"
   sodipodi:docbase="/home/david/Oxygen/kdelibs/scalable/actions"
   sodipodi:docname="user-away.svg"
   inkscape:output_extension="org.inkscape.output.svg.inkscape"
   inkscape:export-filename="/home/david/Oxygen/kdelibs/scalable/actions/rss.png"
   inkscape:export-xdpi="90"
   inkscape:export-ydpi="90">
  <defs
     id="defs4">
    <inkscape:perspective
       sodipodi:type="inkscape:persp3d"
       inkscape:vp_x="0 : 64 : 1"
       inkscape:vp_y="0 : 1000 : 0"
       inkscape:vp_z="128 : 64 : 1"
       inkscape:persp3d-origin="64 : 42.666667 : 1"
       id="perspective94" />
    <linearGradient
       id="linearGradient2990">
      <stop
         style="stop-color:#cccccc;stop-opacity:1;"
         offset="0"
         id="stop2992" />
      <stop
         style="stop-color:#f1f1f1;stop-opacity:1;"
         offset="1"
         id="stop2994" />
    </linearGradient>
    <linearGradient
       id="linearGradient3237">
      <stop
         style="stop-color:#ffeb8b;stop-opacity:1;"
         offset="0"
         id="stop3239" />
      <stop
         style="stop-color:#ffffff;stop-opacity:0;"
         offset="1"
         id="stop3241" />
    </linearGradient>
    <linearGradient
       id="linearGradient6674">
      <stop
         style="stop-color:#bf0000;stop-opacity:1;"
         offset="0"
         id="stop6676" />
      <stop
         style="stop-color:#ff1111;stop-opacity:0;"
         offset="1"
         id="stop6678" />
    </linearGradient>
    <linearGradient
       id="linearGradient6666">
      <stop
         id="stop6668"
         offset="0"
         style="stop-color:#dd6666;stop-opacity:1;" />
      <stop
         id="stop6670"
         offset="1"
         style="stop-color:#990000;stop-opacity:1;" />
    </linearGradient>
    <linearGradient
       id="linearGradient6643">
      <stop
         style="stop-color:#ff6565;stop-opacity:1;"
         offset="0"
         id="stop6645" />
      <stop
         style="stop-color:#ffdfbf;stop-opacity:0;"
         offset="1"
         id="stop6647" />
    </linearGradient>
    <linearGradient
       id="linearGradient6631">
      <stop
         style="stop-color:#703700;stop-opacity:1;"
         offset="0"
         id="stop6633" />
      <stop
         style="stop-color:#bf5e00;stop-opacity:0;"
         offset="1"
         id="stop6635" />
    </linearGradient>
    <linearGradient
       inkscape:collect="always"
       id="linearGradient6610">
      <stop
         style="stop-color:#ffbf80;stop-opacity:1;"
         offset="0"
         id="stop6612" />
      <stop
         style="stop-color:#ffbf80;stop-opacity:0;"
         offset="1"
         id="stop6614" />
    </linearGradient>
    <linearGradient
       id="linearGradient6446">
      <stop
         style="stop-color:#ffffff;stop-opacity:1;"
         offset="0"
         id="stop6448" />
      <stop
         style="stop-color:#ffffff;stop-opacity:0;"
         offset="1"
         id="stop6450" />
    </linearGradient>
    <linearGradient
       id="linearGradient6404">
      <stop
         style="stop-color:#770000;stop-opacity:1;"
         offset="0"
         id="stop6406" />
      <stop
         style="stop-color:#c10000;stop-opacity:1;"
         offset="1"
         id="stop6408" />
    </linearGradient>
    <linearGradient
       id="linearGradient9643">
      <stop
         style="stop-color:#ff0000;stop-opacity:1;"
         offset="0"
         id="stop9645" />
      <stop
         style="stop-color:#620000;stop-opacity:1;"
         offset="1"
         id="stop9647" />
    </linearGradient>
    <radialGradient
       inkscape:collect="always"
       xlink:href="#linearGradient9643"
       id="radialGradient9651"
       cx="12.040753"
       cy="118.14538"
       fx="12.040753"
       fy="118.14538"
       r="42.559486"
       gradientUnits="userSpaceOnUse"
       spreadMethod="reflect"
       gradientTransform="matrix(1.7951011,0,0,1.7951011,-9.5736166,-93.937523)" />
    <radialGradient
       inkscape:collect="always"
       xlink:href="#linearGradient6666"
       id="radialGradient9692"
       gradientUnits="userSpaceOnUse"
       gradientTransform="matrix(1.1890799,0,0,1.1890799,-114.77413,-31.375729)"
       spreadMethod="pad"
       cx="42.700352"
       cy="103.5803"
       fx="42.700352"
       fy="103.5803"
       r="42.559486" />
    <linearGradient
       inkscape:collect="always"
       xlink:href="#linearGradient6404"
       id="linearGradient6410"
       x1="39.741936"
       y1="113.54839"
       x2="11.458064"
       y2="13.006452"
       gradientUnits="userSpaceOnUse" />
    <linearGradient
       inkscape:collect="always"
       xlink:href="#linearGradient6446"
       id="linearGradient6452"
       x1="21.094994"
       y1="21.101994"
       x2="15.189133"
       y2="27.007854"
       gradientUnits="userSpaceOnUse"
       spreadMethod="reflect"
       gradientTransform="translate(-7.5870968,-7.3806452)" />
    <filter
       inkscape:collect="always"
       id="filter6458">
      <feGaussianBlur
         inkscape:collect="always"
         stdDeviation="0.28444187"
         id="feGaussianBlur6460" />
    </filter>
    <linearGradient
       inkscape:collect="always"
       xlink:href="#linearGradient6446"
       id="linearGradient6464"
       gradientUnits="userSpaceOnUse"
       gradientTransform="translate(0.4129032,0.6193548)"
       spreadMethod="reflect"
       x1="21.094994"
       y1="21.101994"
       x2="15.126888"
       y2="27.070099" />
    <linearGradient
       inkscape:collect="always"
       xlink:href="#linearGradient6446"
       id="linearGradient6470"
       gradientUnits="userSpaceOnUse"
       gradientTransform="translate(0.4129032,0.6193548)"
       spreadMethod="reflect"
       x1="21.094994"
       y1="21.101994"
       x2="13.96104"
       y2="28.235947" />
    <linearGradient
       inkscape:collect="always"
       xlink:href="#linearGradient6446"
       id="linearGradient6472"
       gradientUnits="userSpaceOnUse"
       gradientTransform="translate(0.4129032,0.6193548)"
       spreadMethod="reflect"
       x1="21.094994"
       y1="21.101994"
       x2="13.96104"
       y2="28.235947" />
    <linearGradient
       inkscape:collect="always"
       xlink:href="#linearGradient6631"
       id="linearGradient6637"
       x1="55.329033"
       y1="112"
       x2="55.329033"
       y2="74.913147"
       gradientUnits="userSpaceOnUse" />
    <linearGradient
       inkscape:collect="always"
       xlink:href="#linearGradient6643"
       id="linearGradient6649"
       x1="62.038712"
       y1="15.91371"
       x2="62.038712"
       y2="50.728985"
       gradientUnits="userSpaceOnUse" />
    <linearGradient
       inkscape:collect="always"
       xlink:href="#linearGradient6610"
       id="linearGradient6655"
       gradientUnits="userSpaceOnUse"
       x1="59.225807"
       y1="20.283871"
       x2="59.225807"
       y2="117.32368"
       gradientTransform="translate(0,1.6516129)" />
    <linearGradient
       inkscape:collect="always"
       xlink:href="#linearGradient6610"
       id="linearGradient6657"
       gradientUnits="userSpaceOnUse"
       x1="59.225807"
       y1="20.283871"
       x2="59.225807"
       y2="117.32368" />
    <linearGradient
       inkscape:collect="always"
       xlink:href="#linearGradient6674"
       id="linearGradient6680"
       x1="19.096775"
       y1="50.580647"
       x2="80.047699"
       y2="66.897575"
       gradientUnits="userSpaceOnUse" />
    <linearGradient
       inkscape:collect="always"
       xlink:href="#linearGradient6446"
       id="linearGradient2816"
       gradientUnits="userSpaceOnUse"
       x1="59.225807"
       y1="-31.712746"
       x2="59.225807"
       y2="98.167175" />
    <linearGradient
       inkscape:collect="always"
       xlink:href="#linearGradient6446"
       id="linearGradient3209"
       gradientUnits="userSpaceOnUse"
       gradientTransform="translate(0.2623629,1)"
       x1="59.225807"
       y1="7.8973217"
       x2="59.225807"
       y2="46.228859" />
    <linearGradient
       inkscape:collect="always"
       xlink:href="#linearGradient6446"
       id="linearGradient3225"
       gradientUnits="userSpaceOnUse"
       gradientTransform="translate(0.2332229,1.9150941)"
       x1="92.848534"
       y1="60.664852"
       x2="31.376678"
       y2="21.03125" />
    <linearGradient
       inkscape:collect="always"
       xlink:href="#linearGradient6446"
       id="linearGradient3231"
       gradientUnits="userSpaceOnUse"
       gradientTransform="translate(0.2623629,1)"
       x1="59.225807"
       y1="7.8973217"
       x2="59.225807"
       y2="46.228859" />
    <linearGradient
       inkscape:collect="always"
       xlink:href="#linearGradient6446"
       id="linearGradient3233"
       gradientUnits="userSpaceOnUse"
       gradientTransform="translate(0.2332229,1.9150941)"
       x1="115.76678"
       y1="71.084908"
       x2="31.376678"
       y2="21.03125" />
    <linearGradient
       inkscape:collect="always"
       xlink:href="#linearGradient3237"
       id="linearGradient3243"
       x1="-60.945251"
       y1="105.83054"
       x2="-59.415245"
       y2="45.631207"
       gradientUnits="userSpaceOnUse" />
    <filter
       inkscape:collect="always"
       id="filter3281">
      <feGaussianBlur
         inkscape:collect="always"
         stdDeviation="0.32872878"
         id="feGaussianBlur3283" />
    </filter>
    <linearGradient
       inkscape:collect="always"
       xlink:href="#linearGradient6674"
       id="linearGradient3289"
       gradientUnits="userSpaceOnUse"
       x1="60.402065"
       y1="64.076149"
       x2="60.402065"
       y2="-20.962214" />
    <filter
       inkscape:collect="always"
       id="filter3319">
      <feGaussianBlur
         inkscape:collect="always"
         stdDeviation="1.6179775"
         id="feGaussianBlur3321" />
    </filter>
    <radialGradient
       inkscape:collect="always"
       xlink:href="#linearGradient2990"
       id="radialGradient2996"
       cx="64"
       cy="81.325775"
       fx="66.881805"
       fy="105.27442"
       r="43.474762"
       gradientTransform="matrix(0.712348,-0.1260581,0.1345724,0.7604617,7.4655205,20.174132)"
       gradientUnits="userSpaceOnUse"
       spreadMethod="reflect" />
    <radialGradient
       inkscape:collect="always"
       xlink:href="#linearGradient2990"
       id="radialGradient3000"
       gradientUnits="userSpaceOnUse"
       gradientTransform="matrix(0.712348,-0.1260581,0.1345724,0.7604617,-100.53448,20.174132)"
       spreadMethod="reflect"
       cx="64"
       cy="81.325775"
       fx="66.881805"
       fy="105.27442"
       r="43.474762" />
    <clipPath
       clipPathUnits="userSpaceOnUse"
       id="clipPath3108">
      <path
         style="fill:url(#radialGradient3112);fill-opacity:1;stroke:none;stroke-width:16.49500084;stroke-linecap:round;stroke-linejoin:round;stroke-miterlimit:4;stroke-dasharray:none;stroke-dashoffset:4.15;stroke-opacity:1"
         d="M -166.22608,25.639042 C -168.37082,25.690988 -170.41095,26.576535 -171.91358,28.107792 C -188.83826,45.032475 -188.83826,72.745609 -171.91358,89.670296 C -154.9889,106.59499 -127.27576,106.59498 -110.35108,89.670296 C -93.426397,72.745608 -93.426407,45.032476 -110.35108,28.107792 C -113.57849,24.889007 -118.78854,24.911628 -122.00733,28.139042 C -125.22611,31.366456 -125.23474,36.576507 -122.00733,39.795292 C -111.39346,50.409165 -111.39346,67.400168 -122.00733,78.014046 C -132.62121,88.627926 -149.64346,88.627916 -160.25733,78.014046 C -170.8712,67.400167 -170.8712,50.409167 -160.25733,39.795292 C -157.82392,37.426791 -157.09428,33.799307 -158.41358,30.670292 C -159.73287,27.541276 -162.83146,25.550254 -166.22608,25.639042 z M -141.25733,26.357792 C -145.38715,26.426713 -148.68411,29.821465 -148.63233,33.951542 L -148.63233,65.951542 C -148.67058,68.656311 -147.24981,71.181744 -144.91358,72.545292 C -142.57735,73.908838 -139.68731,73.90884 -137.35108,72.545292 C -135.01484,71.181742 -133.59407,68.656311 -133.63233,65.951542 L -133.63233,33.951542 C -133.60691,31.924427 -134.41464,29.975845 -135.85108,28.545292 C -137.28752,27.114738 -139.23033,26.324051 -141.25733,26.357792 z"
         id="path3110" />
    </clipPath>
    <radialGradient
       inkscape:collect="always"
       xlink:href="#linearGradient2990"
       id="radialGradient3112"
       gradientUnits="userSpaceOnUse"
       gradientTransform="matrix(0.712348,-0.1260581,0.1345724,0.7604617,-197.66681,20.174132)"
       spreadMethod="reflect"
       cx="64"
       cy="81.325775"
       fx="66.881805"
       fy="105.27442"
       r="43.474762" />
    <clipPath
       clipPathUnits="userSpaceOnUse"
       id="clipPath3114">
      <path
         id="path3116"
         d="M -69.09375,25.639042 C -71.238499,25.690988 -73.27862,26.576535 -74.78125,28.107792 C -91.705938,45.032475 -91.705939,72.745609 -74.78125,89.670296 C -57.856572,106.59499 -30.143439,106.59498 -13.21875,89.670296 C 3.70593,72.745608 3.70592,45.032476 -13.21875,28.107792 C -16.446164,24.889007 -21.656215,24.911628 -24.875,28.139042 C -28.093785,31.366456 -28.102414,36.576507 -24.875,39.795292 C -14.261134,50.409165 -14.261131,67.400168 -24.875,78.014046 C -35.488884,88.627926 -52.51113,88.627916 -63.125,78.014046 C -73.738879,67.400167 -73.738878,50.409167 -63.125,39.795292 C -60.691591,37.426791 -59.961952,33.799307 -61.28125,30.670292 C -62.600548,27.541276 -65.699137,25.550254 -69.09375,25.639042 z M -44.125,26.357792 C -48.254827,26.426713 -51.551787,29.821465 -51.5,33.951542 L -51.5,65.951542 C -51.538252,68.656311 -50.117481,71.181744 -47.78125,72.545292 C -45.44502,73.908838 -42.554982,73.90884 -40.21875,72.545292 C -37.882517,71.181742 -36.461748,68.656311 -36.5,65.951542 L -36.5,33.951542 C -36.474583,31.924427 -37.28231,29.975845 -38.71875,28.545292 C -40.155192,27.114738 -42.098006,26.324051 -44.125,26.357792 z"
         style="fill:url(#radialGradient3118);fill-opacity:1;stroke:none;stroke-width:16.49500084;stroke-linecap:round;stroke-linejoin:round;stroke-miterlimit:4;stroke-dasharray:none;stroke-dashoffset:4.15;stroke-opacity:1" />
    </clipPath>
    <radialGradient
       inkscape:collect="always"
       xlink:href="#linearGradient2990"
       id="radialGradient3118"
       gradientUnits="userSpaceOnUse"
       gradientTransform="matrix(0.712348,-0.1260581,0.1345724,0.7604617,-100.53448,20.174132)"
       spreadMethod="reflect"
       cx="64"
       cy="81.325775"
       fx="66.881805"
       fy="105.27442"
       r="43.474762" />
    <linearGradient
       inkscape:collect="always"
       xlink:href="#linearGradient6674"
       id="linearGradient2488"
       gradientUnits="userSpaceOnUse"
       x1="60.402065"
       y1="64.076149"
       x2="60.402065"
       y2="-20.962214" />
    <linearGradient
       inkscape:collect="always"
       xlink:href="#linearGradient6446"
       id="linearGradient2496"
       gradientUnits="userSpaceOnUse"
       gradientTransform="translate(-7.5870968,-7.3806452)"
       spreadMethod="reflect"
       x1="21.094994"
       y1="21.101994"
       x2="15.189133"
       y2="27.007854" />
    <linearGradient
       inkscape:collect="always"
       xlink:href="#linearGradient6446"
       id="linearGradient2498"
       gradientUnits="userSpaceOnUse"
       gradientTransform="translate(0.4129032,0.6193548)"
       spreadMethod="reflect"
       x1="21.094994"
       y1="21.101994"
       x2="15.126888"
       y2="27.070099" />
    <linearGradient
       inkscape:collect="always"
       xlink:href="#linearGradient6446"
       id="linearGradient2502"
       gradientUnits="userSpaceOnUse"
       gradientTransform="translate(0.4129032,0.6193548)"
       spreadMethod="reflect"
       x1="21.094994"
       y1="21.101994"
       x2="13.96104"
       y2="28.235947" />
    <linearGradient
       inkscape:collect="always"
       xlink:href="#linearGradient6446"
       id="linearGradient2504"
       gradientUnits="userSpaceOnUse"
       gradientTransform="translate(0.4129032,0.6193548)"
       spreadMethod="reflect"
       x1="21.094994"
       y1="21.101994"
       x2="13.96104"
       y2="28.235947" />
    <linearGradient
       inkscape:collect="always"
       xlink:href="#linearGradient6446"
       id="linearGradient2508"
       gradientUnits="userSpaceOnUse"
       gradientTransform="translate(0.2623629,1)"
       x1="59.225807"
       y1="7.8973217"
       x2="59.225807"
       y2="46.228859" />
    <linearGradient
       inkscape:collect="always"
       xlink:href="#linearGradient6446"
       id="linearGradient2510"
       gradientUnits="userSpaceOnUse"
       gradientTransform="translate(0.2332229,1.9150941)"
       x1="115.76678"
       y1="71.084908"
       x2="31.376678"
       y2="21.03125" />
    <linearGradient
       inkscape:collect="always"
       xlink:href="#linearGradient3237"
       id="linearGradient2512"
       gradientUnits="userSpaceOnUse"
       x1="-60.945251"
       y1="105.83054"
       x2="-59.415245"
       y2="45.631207" />
    <linearGradient
       inkscape:collect="always"
       xlink:href="#linearGradient6446"
       id="linearGradient2489"
       gradientUnits="userSpaceOnUse"
       x1="59.225807"
       y1="-31.712746"
       x2="59.225807"
       y2="98.167175"
       gradientTransform="matrix(0.3973198,0,0,0.3985413,-1.3766882,-1.4383599)" />
    <linearGradient
       inkscape:collect="always"
       xlink:href="#linearGradient6643"
       id="linearGradient2497"
       gradientUnits="userSpaceOnUse"
       x1="62.038712"
       y1="15.91371"
       x2="62.038712"
       y2="50.728985"
       gradientTransform="matrix(0.3973198,0,0,0.3985413,-1.3766882,-1.4383599)" />
    <linearGradient
       inkscape:collect="always"
       xlink:href="#linearGradient6631"
       id="linearGradient2503"
       gradientUnits="userSpaceOnUse"
       x1="55.329033"
       y1="112"
       x2="55.329033"
       y2="74.913147"
       gradientTransform="matrix(0.3973198,0,0,0.3985413,-1.3766882,-1.4383599)" />
    <radialGradient
       inkscape:collect="always"
       xlink:href="#linearGradient6666"
       id="radialGradient2508"
       gradientUnits="userSpaceOnUse"
       gradientTransform="matrix(-0.472445,0,0,0.4738974,44.225346,-13.942884)"
       spreadMethod="pad"
       cx="42.700352"
       cy="103.5803"
       fx="42.700352"
       fy="103.5803"
       r="42.559486" />
    <linearGradient
       inkscape:collect="always"
       xlink:href="#linearGradient6674"
       id="linearGradient2511"
       gradientUnits="userSpaceOnUse"
       x1="19.096775"
       y1="50.580647"
       x2="80.047699"
       y2="66.897575"
       gradientTransform="matrix(0.3973198,0,0,0.3985413,-1.3766882,-1.4383599)" />
    <linearGradient
       inkscape:collect="always"
       xlink:href="#linearGradient6404"
       id="linearGradient2515"
       gradientUnits="userSpaceOnUse"
       x1="39.741936"
       y1="113.54839"
       x2="11.458064"
       y2="13.006452"
       gradientTransform="matrix(0.3973198,0,0,0.3985413,-1.3766882,-1.4383599)" />
  </defs>
  <sodipodi:namedview
     id="base"
     pagecolor="#ffffff"
     bordercolor="#666666"
     borderopacity="1.0"
     gridtolerance="10000"
     guidetolerance="10"
     objecttolerance="10"
     inkscape:pageopacity="0.0"
     inkscape:pageshadow="2"
     inkscape:zoom="14.604167"
     inkscape:cx="7.2138737"
     inkscape:cy="24.068474"
     inkscape:document-units="px"
     inkscape:current-layer="layer1"
     width="128px"
     height="128px"
     showgrid="false"
     borderlayer="true"
     inkscape:showpageshadow="false"
     showborder="true"
     inkscape:window-width="1398"
     inkscape:window-height="958"
     inkscape:window-x="0"
     inkscape:window-y="27">
    <inkscape:grid
       type="xygrid"
       id="grid3285"
       spacingx="4px"
       spacingy="4px"
       empspacing="2"
       visible="true"
       enabled="true" />
    <inkscape:grid
       id="GridFromPre046Settings"
       type="xygrid"
       originx="0px"
       originy="0px"
       spacingx="4px"
       spacingy="4px"
       color="#0000ff"
       empcolor="#0000ff"
       opacity="0.2"
       empopacity="0.4"
       empspacing="2"
       visible="true"
       enabled="true" />
  </sodipodi:namedview>
  <metadata
     id="metadata7">
    <rdf:RDF>
      <cc:Work
         rdf:about="">
        <dc:format>image/svg+xml</dc:format>
        <dc:type
           rdf:resource="http://purl.org/dc/dcmitype/StillImage" />
      </cc:Work>
    </rdf:RDF>
  </metadata>
  <g
     inkscape:label="Layer 1"
     inkscape:groupmode="layer"
     id="layer1">
    <path
       style="fill:url(#linearGradient2488);fill-opacity:1;stroke:none;stroke-width:3;stroke-linecap:round;stroke-linejoin:round;stroke-miterlimit:4;stroke-opacity:1;filter:url(#filter3319)"
       d="M 18.083601,8 L 109.9164,8 C 115.50271,8 120,12.497286 120,18.083601 L 120,109.9164 C 120,115.50271 115.50271,120 109.9164,120 L 18.083601,120 C 12.497286,120 8,115.50271 8,109.9164 L 8,18.083601 C 8,12.497286 12.497286,8 18.083601,8 z"
       id="rect3287"
       sodipodi:nodetypes="ccccccccc"
       transform="matrix(0.3973198,0,0,0.3985413,-1.3766882,-1.4383599)" />
    <path
       style="fill:url(#linearGradient2515);fill-opacity:1;stroke:none;stroke-width:3;stroke-linecap:round;stroke-linejoin:round;stroke-miterlimit:4;stroke-opacity:1"
       d="M 5.8082845,1.7499705 L 42.295274,1.7499705 C 44.514825,1.7499705 46.301688,3.5423247 46.301688,5.768702 L 46.301688,42.367865 C 46.301688,44.59424 44.514825,46.386596 42.295274,46.386596 L 5.8082845,46.386596 C 3.588731,46.386596 1.8018702,44.59424 1.8018702,42.367865 L 1.8018702,5.768702 C 1.8018702,3.5423247 3.588731,1.7499705 5.8082845,1.7499705 z"
       id="rect8666"
       sodipodi:nodetypes="ccccccccc" />
    <path
       style="opacity:0.08290154;fill:url(#linearGradient2511);fill-opacity:1;stroke:none;stroke-width:3;stroke-linecap:round;stroke-linejoin:round;stroke-miterlimit:4;stroke-opacity:1"
       d="M 5.8082845,1.7499705 L 42.295274,1.7499705 C 44.514825,1.7499705 46.301688,3.5423247 46.301688,5.768702 L 46.301688,42.367865 C 46.301688,44.59424 44.514825,46.386596 42.295274,46.386596 L 5.8082845,46.386596 C 3.588731,46.386596 1.8018702,44.59424 1.8018702,42.367865 L 1.8018702,5.768702 C 1.8018702,3.5423247 3.588731,1.7499705 5.8082845,1.7499705 z"
       id="rect6672"
       sodipodi:nodetypes="ccccccccc" />
    <path
       style="fill:url(#radialGradient2508);fill-opacity:1;stroke:none;stroke-width:3;stroke-linecap:round;stroke-linejoin:round;stroke-miterlimit:4;stroke-opacity:1"
       d="M 42.083685,3.5891222 L 6.4171922,3.5891222 C 4.876071,3.5891222 3.6353851,4.8336224 3.6353851,6.3794816 L 3.6353851,41.757085 C 3.6353851,43.302943 4.876071,44.547444 6.4171922,44.547444 L 42.083685,44.547444 C 43.624805,44.547444 44.865492,43.302943 44.865492,41.757085 L 44.865492,6.3794816 C 44.865492,4.8336224 43.624805,3.5891222 42.083685,3.5891222 z"
       id="rect9641"
       sodipodi:nodetypes="ccccccccc" />
    <path
       style="opacity:0.8876405;fill:url(#linearGradient2496);fill-opacity:1;stroke:none;stroke-width:3;stroke-linecap:round;stroke-linejoin:round;stroke-miterlimit:4;stroke-dasharray:none;stroke-opacity:1;filter:url(#filter6458)"
       d="M 17.906944,8.299378 C 13.216769,8.299378 8.509435,11.867379 8.509435,17.698118 L 12.77674,17.639205 C 13.229113,15.50937 15.628704,13.368243 17.303345,13.03582 L 17.906944,8.299378 z"
       id="rect6433"
       sodipodi:nodetypes="ccccc"
       transform="matrix(0.3973198,0,0,0.3985413,-1.3766882,-1.4383599)" />
    <path
       sodipodi:nodetypes="ccccc"
       id="path6462"
       d="M 25.397509,16.46919 C 20.707334,16.46919 16.429601,20.123899 16.429601,25.954638 L 20.77674,25.639205 C 21.229113,23.50937 23.628704,21.368243 25.303345,21.03582 L 25.397509,16.46919 z"
       style="opacity:0.8689139;fill:url(#linearGradient2498);fill-opacity:1;stroke:none;stroke-width:3;stroke-linecap:round;stroke-linejoin:round;stroke-miterlimit:4;stroke-dasharray:none;stroke-opacity:1;filter:url(#filter6458)"
       transform="matrix(-0.3973198,0,0,0.3985413,52.606124,-4.6266903)" />
    <path
       style="opacity:0.08290154;fill:url(#linearGradient2503);fill-opacity:1;stroke:none;stroke-width:3;stroke-linecap:round;stroke-linejoin:round;stroke-miterlimit:4;stroke-dasharray:none;stroke-opacity:1"
       d="M 1.8018702,40.7572 L 1.8018702,42.36382 C 1.8018702,44.590195 3.5927634,46.386596 5.8123169,46.386596 L 42.291241,46.386596 C 44.510793,46.386596 46.301688,44.590199 46.301688,42.36382 L 46.301688,40.7572 C 46.301688,42.983575 44.510793,44.779976 42.291241,44.779976 L 5.8123169,44.779976 C 3.5927634,44.779976 1.8018702,42.983575 1.8018702,40.7572 z"
       id="rect6626"
       sodipodi:nodetypes="ccccccccc" />
    <path
       sodipodi:nodetypes="ccccc"
       id="path6466"
       d="M 26.246568,16.978625 C 21.556393,16.978625 16.769225,20.633334 16.769225,26.464073 L 20.77674,25.639205 C 21.229113,23.50937 23.628704,21.368243 25.303345,21.03582 L 26.246568,16.978625 z"
       style="opacity:0.32642487;fill:url(#linearGradient2502);fill-opacity:1;stroke:none;stroke-width:3;stroke-linecap:round;stroke-linejoin:round;stroke-miterlimit:4;stroke-dasharray:none;stroke-opacity:1;filter:url(#filter6458)"
       transform="matrix(0.3973198,0,0,-0.3985413,-4.5552466,52.798273)" />
    <path
       transform="matrix(-0.3973198,0,0,-0.3985413,52.606124,52.798273)"
       style="opacity:0.17616583;fill:url(#linearGradient2504);fill-opacity:1;stroke:none;stroke-width:3;stroke-linecap:round;stroke-linejoin:round;stroke-miterlimit:4;stroke-dasharray:none;stroke-opacity:1;filter:url(#filter6458)"
       d="M 26.246568,16.978625 C 21.556393,16.978625 16.769225,20.633334 16.769225,26.464073 L 20.77674,25.639205 C 21.229113,23.50937 23.628704,21.368243 25.303345,21.03582 L 26.246568,16.978625 z"
       id="path6468"
       sodipodi:nodetypes="ccccc" />
    <path
       id="path6639"
       d="M 1.8018702,7.3449762 L 1.8018702,5.7383566 C 1.8018702,3.5119814 3.5927634,1.7155804 5.8123169,1.7155804 L 42.291241,1.7155804 C 44.510793,1.7155804 46.301688,3.5119774 46.301688,5.7383566 L 46.301688,7.3449762 C 46.301688,5.118601 44.510793,3.3222 42.291241,3.3222 L 5.8123169,3.3222 C 3.5927634,3.3222 1.8018702,5.118601 1.8018702,7.3449762 z"
       style="opacity:0.38860103;fill:url(#linearGradient2497);fill-opacity:1;stroke:none;stroke-width:3;stroke-linecap:round;stroke-linejoin:round;stroke-miterlimit:4;stroke-dasharray:none;stroke-opacity:1"
       sodipodi:nodetypes="ccccccccc" />
    <g
       id="g3227"
       transform="matrix(0.3973198,0,0,0.3985413,-1.3766882,-1.8369012)">
      <path
         id="path3207"
         d="M 19.441303,13.28125 C 15.451078,13.28125 12.253803,16.478525 12.253803,20.46875 L 12.253803,21.46875 C 12.253803,17.478525 15.451078,14.28125 19.441303,14.28125 L 109.0663,14.28125 C 113.05653,14.28125 116.2538,17.478525 116.2538,21.46875 L 116.2538,20.46875 C 116.2538,16.478525 113.05653,13.28125 109.0663,13.28125 L 19.441303,13.28125 z"
         style="opacity:1;fill:url(#linearGradient2508);fill-opacity:1;stroke:none;stroke-width:3;stroke-linecap:round;stroke-linejoin:round;stroke-miterlimit:4;stroke-dasharray:none;stroke-opacity:1"
         sodipodi:nodetypes="ccccccccc" />
      <path
         id="path3215"
         d="M 112.21077,14.946344 C 113.80613,16.261139 114.83577,18.233092 114.83577,20.477594 L 114.83577,54.977594 C 114.6424,55.305632 114.39903,55.644913 114.11702,55.977594 C 86.869243,66.464121 40.804813,69.465921 12.242023,62.602594 L 12.242023,63.165094 C 41.223093,70.471727 87.827513,67.54278 115.52327,56.883844 C 115.80529,56.551161 116.04865,56.211882 116.24202,55.883844 L 116.24202,21.383844 C 116.24202,18.530833 114.60098,16.10976 112.21077,14.946344 z"
         style="opacity:1;fill:url(#linearGradient2510);fill-opacity:1;stroke:none;stroke-width:3;stroke-linecap:round;stroke-linejoin:round;stroke-miterlimit:4;stroke-dasharray:none;stroke-opacity:1"
         sodipodi:nodetypes="cccccccccc" />
    </g>
    <path
       transform="matrix(-0.3973198,0,0,0.3985413,-1.3766882,-1.4383599)"
       style="fill:none;fill-opacity:1;stroke:url(#linearGradient2512);stroke-width:1;stroke-linecap:round;stroke-linejoin:round;stroke-miterlimit:4;stroke-opacity:1;filter:url(#filter3281)"
       d="M -109.38386,13.614708 L -19.616139,13.614708 C -15.737346,13.614708 -12.614708,16.737346 -12.614708,20.616139 L -12.614708,108.38386 C -12.614708,112.26265 -15.737346,115.38529 -19.616139,115.38529 L -109.38386,115.38529 C -113.26265,115.38529 -116.38529,112.26265 -116.38529,108.38386 L -116.38529,20.616139 C -116.38529,16.737346 -113.26265,13.614708 -109.38386,13.614708 z"
       id="rect3235"
       sodipodi:nodetypes="ccccccccc" />
    <path
       style="fill:url(#linearGradient2489);fill-opacity:1;stroke:none;stroke-width:3;stroke-linecap:round;stroke-linejoin:round;stroke-miterlimit:4;stroke-dasharray:none;stroke-opacity:1"
       d="M 6.2468855,3.4562254 C 4.6614901,3.4562254 3.3911494,4.7304716 3.3911494,6.320741 L 3.3911494,22.972295 C 14.905905,25.88429 33.422765,24.716983 44.426835,20.468957 C 44.538887,20.336369 44.635579,20.201153 44.712409,20.070416 L 44.712409,6.320741 C 44.712409,4.7304716 43.44207,3.4562254 41.856673,3.4562254 L 6.2468855,3.4562254 z"
       id="rect9679"
       sodipodi:nodetypes="cccccccc" />
  </g>
</svg>
